<svg width="629" height="501" viewBox="0 0 629 501" fill="none" xmlns="http://www.w3.org/2000/svg">
<path d="M473.965 130.983C473.965 131.514 473.807 132.033 473.512 132.475C473.217 132.917 472.797 133.261 472.307 133.464C471.816 133.667 471.276 133.721 470.755 133.617C470.234 133.513 469.755 133.257 469.379 132.882C469.004 132.506 468.748 132.028 468.644 131.507C468.541 130.986 468.594 130.446 468.797 129.955C469.001 129.464 469.345 129.044 469.786 128.749C470.228 128.454 470.747 128.297 471.279 128.297C471.991 128.297 472.674 128.58 473.178 129.083C473.682 129.587 473.965 130.27 473.965 130.983Z" fill="#E0E0E0"/>
<path d="M449.723 72.6108H128.251V394.083H449.723V72.6108Z" fill="#EBEBEB"/>
<path d="M145.03 83.2085C145.03 84.2621 144.717 85.292 144.132 86.168C143.547 87.0441 142.715 87.7268 141.741 88.13C140.768 88.5332 139.697 88.6387 138.664 88.4332C137.63 88.2276 136.681 87.7203 135.936 86.9753C135.191 86.2303 134.684 85.2811 134.478 84.2478C134.273 83.2145 134.378 82.1434 134.781 81.17C135.185 80.1966 135.867 79.3647 136.743 78.7793C137.619 78.194 138.649 77.8816 139.703 77.8816C141.116 77.8816 142.471 78.4428 143.47 79.4418C144.469 80.4408 145.03 81.7957 145.03 83.2085Z" fill="#E0E0E0"/>
<path d="M160.763 83.2085C160.763 84.2621 160.451 85.292 159.866 86.168C159.28 87.0441 158.448 87.7268 157.475 88.13C156.501 88.5332 155.43 88.6387 154.397 88.4332C153.364 88.2276 152.415 87.7203 151.67 86.9753C150.925 86.2303 150.417 85.2811 150.212 84.2478C150.006 83.2145 150.112 82.1434 150.515 81.17C150.918 80.1966 151.601 79.3647 152.477 78.7793C153.353 78.194 154.383 77.8816 155.436 77.8816C156.136 77.8816 156.829 78.0194 157.475 78.2871C158.121 78.5548 158.708 78.9472 159.203 79.4418C159.698 79.9365 160.09 80.5237 160.358 81.17C160.626 81.8163 160.763 82.509 160.763 83.2085Z" fill="#E0E0E0"/>
<path d="M176.498 83.2085C176.498 84.2621 176.185 85.292 175.6 86.168C175.015 87.0441 174.183 87.7268 173.209 88.13C172.236 88.5332 171.165 88.6387 170.131 88.4332C169.098 88.2276 168.149 87.7203 167.404 86.9753C166.659 86.2303 166.152 85.2811 165.946 84.2478C165.741 83.2145 165.846 82.1434 166.249 81.17C166.652 80.1966 167.335 79.3647 168.211 78.7793C169.087 78.194 170.117 77.8816 171.171 77.8816C172.583 77.8816 173.938 78.4428 174.937 79.4418C175.936 80.4408 176.498 81.7957 176.498 83.2085Z" fill="#E0E0E0"/>
<path d="M420.358 197.412H420.212V27.1743H207.74V197.873H392.678L420.358 225.553V197.412Z" fill="#E0E0E0"/>
<path d="M156.561 363.245H48.5381V460.501H156.561V363.245Z" fill="#EBEBEB"/>
<path d="M128.881 404.68H76.2292C68.7191 404.68 62.6309 410.768 62.6309 418.279V420.83C62.6309 428.34 68.7191 434.428 76.2292 434.428H128.881C136.391 434.428 142.479 428.34 142.479 420.83V418.279C142.479 410.768 136.391 404.68 128.881 404.68Z" fill="#E0E0E0"/>
<path d="M155.965 381.709C155.965 381.867 132.151 382.001 102.786 382.001C73.4199 382.001 49.6172 381.867 49.6172 381.709C49.6172 381.552 73.4199 381.417 102.786 381.417C132.151 381.417 155.965 381.552 155.965 381.709Z" fill="#E0E0E0"/>
<path d="M60.5975 374.494C60.5997 375.026 60.4443 375.545 60.151 375.988C59.8578 376.431 59.4397 376.777 58.9498 376.983C58.4598 377.188 57.92 377.243 57.3985 377.142C56.8771 377.041 56.3974 376.787 56.0202 376.413C55.643 376.039 55.3852 375.561 55.2794 375.041C55.1736 374.52 55.2245 373.98 55.4258 373.488C55.627 372.996 55.9695 372.575 56.4099 372.279C56.8504 371.982 57.369 371.822 57.9003 371.82C58.6087 371.823 59.2874 372.105 59.7883 372.606C60.2893 373.107 60.572 373.786 60.575 374.494H60.5975Z" fill="#E0E0E0"/>
<path d="M68.5194 374.494C68.5216 375.026 68.3662 375.545 68.0729 375.988C67.7796 376.431 67.3616 376.777 66.8717 376.983C66.3817 377.188 65.8419 377.243 65.3204 377.142C64.799 377.041 64.3193 376.787 63.9421 376.413C63.5649 376.039 63.3071 375.561 63.2013 375.041C63.0955 374.52 63.1464 373.98 63.3476 373.488C63.5489 372.996 63.8914 372.575 64.3318 372.279C64.7723 371.982 65.2909 371.822 65.8222 371.82C66.5306 371.82 67.2104 372.099 67.7135 372.598C68.2166 373.097 68.5022 373.775 68.5081 374.483L68.5194 374.494Z" fill="#E0E0E0"/>
<path d="M76.4325 374.494C76.4325 375.023 76.2756 375.54 75.9817 375.98C75.6878 376.42 75.27 376.763 74.7813 376.965C74.2926 377.168 73.7548 377.221 73.2359 377.118C72.7171 377.014 72.2405 376.76 71.8664 376.386C71.4923 376.012 71.2376 375.535 71.1344 375.016C71.0312 374.497 71.0842 373.959 71.2866 373.471C71.4891 372.982 71.8319 372.564 72.2717 372.27C72.7116 371.976 73.2287 371.82 73.7577 371.82C74.4662 371.823 75.1448 372.105 75.6458 372.606C76.1467 373.107 76.4295 373.786 76.4325 374.494Z" fill="#E0E0E0"/>
<path d="M83.4112 420.369V421.695C83.4112 423.28 82.6133 424.179 81.0961 424.179C80.8126 424.203 80.527 424.172 80.2557 424.086C79.9845 423.999 79.733 423.86 79.5157 423.676C79.2984 423.493 79.1197 423.268 78.9897 423.014C78.8598 422.761 78.7812 422.485 78.7586 422.201C78.7362 422.033 78.7362 421.863 78.7586 421.695V416.548C78.6713 415.98 78.8128 415.401 79.152 414.938C79.4912 414.474 80.0004 414.164 80.5679 414.076C80.7395 414.053 80.9133 414.053 81.0849 414.076C82.6021 414.076 83.4 414.975 83.4 416.559V417.526H81.9278V416.458C81.9278 415.761 81.6131 415.492 81.1186 415.492C80.6241 415.492 80.3207 415.761 80.3207 416.458V421.808C80.3207 422.516 80.6241 422.763 81.1186 422.763C81.6131 422.763 81.9278 422.516 81.9278 421.808V420.392L83.4112 420.369Z" fill="white"/>
<path d="M84.3545 414.165H85.9054V422.639H88.4677V424.055H84.3545V414.165Z" fill="white"/>
<path d="M89.1416 414.165H90.7037V424.055H89.1416V414.165Z" fill="white"/>
<path d="M96.3353 420.369V421.695C96.3353 423.28 95.5486 424.179 94.0202 424.179C92.4918 424.179 91.7051 423.28 91.7051 421.695V416.548C91.7051 414.963 92.4918 414.064 94.0202 414.064C95.5486 414.064 96.3353 414.963 96.3353 416.548V417.514H94.863V416.447C94.863 415.75 94.5596 415.48 94.0651 415.48C93.5706 415.48 93.256 415.75 93.256 416.447V421.796C93.256 422.504 93.5706 422.751 94.0651 422.751C94.5596 422.751 94.863 422.504 94.863 421.796V420.38L96.3353 420.369Z" fill="white"/>
<path d="M99.3125 420.11L98.8404 421.021V424.055H97.2783V414.165H98.8404V418.481L100.875 414.165H102.448L100.29 418.571L102.448 424.055H100.852L99.3125 420.11Z" fill="white"/>
<path d="M106.876 424.055H105.325V414.165H106.876V418.402H108.64V414.165H110.225V424.055H108.64V419.818H106.876V424.055Z" fill="white"/>
<path d="M112.911 418.324H115.047V419.74H112.911V422.628H115.597V424.044H111.36V414.154H115.597V415.57H112.911V418.324Z" fill="white"/>
<path d="M119.801 424.055C119.678 423.663 119.632 423.251 119.666 422.841V421.291C119.666 420.369 119.351 420.032 118.643 420.032H118.115V424.055H116.553V414.165H118.902C120.509 414.165 121.205 414.918 121.205 416.413V417.2C121.263 417.598 121.195 418.004 121.012 418.363C120.829 418.721 120.539 419.014 120.183 419.2C120.969 419.526 121.217 420.324 121.217 421.313V422.819C121.182 423.227 121.24 423.638 121.385 424.021L119.801 424.055ZM118.115 415.581V418.616H118.722C119.295 418.616 119.655 418.357 119.655 417.571V416.593C119.655 415.885 119.407 415.581 118.857 415.581H118.115Z" fill="white"/>
<path d="M123.801 418.324H125.936V419.74H123.801V422.628H126.487V424.044H122.25V414.154H126.487V415.57H123.801V418.324Z" fill="white"/>
<path d="M5.6416 244.355V352.377H138.984L165.72 379.102V352.377V350.961V244.355H5.6416Z" fill="#E0E0E0"/>
<path d="M408.333 332.912C408.333 332.912 410.906 321.348 410.749 320.55C410.592 319.752 410.749 302.569 410.749 302.569V284.992C410.749 284.992 410.535 280.902 408.647 280.272C407.579 279.89 406.411 279.89 405.343 280.272L404.13 294.579C404.13 294.579 400.983 293.635 400.825 295.702C400.668 297.77 396.566 310.031 397.195 314.437C397.825 318.842 398.151 325.608 398.151 325.608L397.139 330.204L408.333 332.912Z" fill="#FFBE9D"/>
<path d="M403.714 294.365C404.1 294.511 404.438 294.76 404.692 295.084C405.401 295.952 405.86 296.998 406.018 298.108C406.276 299.501 406.153 301.164 406.366 302.918C406.763 304.825 407.397 306.675 408.254 308.424C408.998 310.098 409.369 311.914 409.342 313.746C409.315 315.578 408.89 317.382 408.097 319.033C407.632 320.034 407.018 320.959 406.276 321.775C406.028 322.093 405.728 322.367 405.388 322.585C406.307 321.44 407.087 320.191 407.715 318.865C408.344 317.413 408.705 315.86 408.782 314.28C408.853 312.35 408.488 310.429 407.715 308.66C406.839 306.88 406.208 304.99 405.838 303.041C405.636 301.187 405.838 299.557 405.602 298.231C405.481 297.171 405.094 296.158 404.478 295.287C404.248 294.96 403.993 294.651 403.714 294.365Z" fill="#EB996E"/>
<path d="M341.465 246.737C341.724 246.805 351.074 250.435 344.837 258.043C338.599 265.651 332.25 257.818 332.418 257.593C332.587 257.369 341.465 246.737 341.465 246.737Z" fill="#FFBE9D"/>
<path d="M337.105 256.616C337.161 256.616 337.161 256.818 337.296 257.099C337.395 257.295 337.533 257.47 337.701 257.613C337.869 257.756 338.063 257.864 338.273 257.931C339.319 258.301 341.038 257.582 342.207 256.234C342.768 255.586 343.172 254.816 343.387 253.986C343.509 253.69 343.559 253.37 343.531 253.051C343.504 252.732 343.4 252.425 343.23 252.154C343.108 251.979 342.927 251.853 342.721 251.802C342.514 251.75 342.295 251.775 342.106 251.873C341.825 252.008 341.746 252.199 341.701 252.177C341.656 252.154 341.634 251.918 341.96 251.648C342.157 251.5 342.398 251.421 342.645 251.424C342.986 251.437 343.308 251.582 343.544 251.828C343.804 252.147 343.978 252.527 344.051 252.932C344.124 253.337 344.093 253.754 343.96 254.143C343.741 255.066 343.301 255.922 342.679 256.638C341.375 258.133 339.409 258.886 338.049 258.335C337.795 258.23 337.568 258.068 337.387 257.862C337.206 257.655 337.074 257.41 337.003 257.144C336.97 256.807 337.06 256.604 337.105 256.616Z" fill="#EB996E"/>
<path d="M349.691 203.031L348.567 202.177C343.227 198.072 336.537 196.13 329.829 196.736C323.121 197.342 316.887 200.452 312.369 205.448C303.648 215.079 294.14 225.834 289.971 231.397C281.351 242.905 291.398 253.446 291.398 253.446L279.946 265.258L306.435 286.408L348.882 239.005C359.008 227.947 361.008 212.842 349.691 203.031Z" fill="#FFBE9D"/>
<path d="M308.864 216.888C308.529 217.309 308.374 217.844 308.43 218.378C308.487 218.912 308.752 219.402 309.167 219.743C309.357 219.917 309.578 220.051 309.82 220.139C310.062 220.227 310.318 220.266 310.575 220.254C310.832 220.243 311.084 220.181 311.316 220.072C311.549 219.963 311.758 219.809 311.932 219.619V219.563C312.262 219.144 312.416 218.611 312.359 218.08C312.303 217.548 312.04 217.06 311.628 216.72C311.438 216.545 311.214 216.41 310.971 216.322C310.728 216.235 310.47 216.196 310.212 216.208C309.954 216.221 309.701 216.284 309.468 216.395C309.234 216.506 309.025 216.662 308.852 216.855L308.864 216.888Z" fill="#263238"/>
<path d="M324.754 228.756C324.423 229.175 324.269 229.708 324.326 230.239C324.383 230.771 324.645 231.259 325.057 231.599C325.247 231.773 325.469 231.907 325.71 231.995C325.952 232.083 326.208 232.122 326.465 232.11C326.722 232.099 326.974 232.037 327.207 231.928C327.439 231.819 327.648 231.665 327.822 231.476V231.419C328.155 231.001 328.311 230.468 328.254 229.935C328.197 229.403 327.933 228.915 327.518 228.576C327.329 228.402 327.107 228.268 326.865 228.18C326.624 228.092 326.367 228.053 326.11 228.065C325.854 228.076 325.602 228.138 325.369 228.247C325.136 228.356 324.927 228.51 324.754 228.7V228.756Z" fill="#263238"/>
<path d="M310.043 213.326C310.043 213.696 312.021 213.73 313.763 215.079C315.505 216.427 316.123 218.293 316.482 218.226C316.651 218.226 316.741 217.664 316.482 216.821C316.126 215.713 315.435 214.743 314.504 214.045C313.592 213.348 312.483 212.955 311.335 212.921C310.492 212.91 310.02 213.157 310.043 213.326Z" fill="#263238"/>
<path d="M327.091 225.598C327.158 225.969 329.091 225.879 330.923 227.115C332.755 228.351 333.485 230.172 333.834 230.082C334.002 230.082 334.058 229.509 333.755 228.688C333.332 227.603 332.581 226.676 331.608 226.036C330.655 225.391 329.522 225.065 328.372 225.103C327.518 225.16 327.057 225.429 327.091 225.598Z" fill="#263238"/>
<path d="M311.155 234.589C310.46 233.586 309.636 232.68 308.705 231.891C308.29 231.498 307.941 231.082 308.099 230.768C308.449 230.301 308.898 229.917 309.413 229.644L313.358 227.25C318.921 223.811 323.326 220.844 323.18 220.619C323.034 220.395 318.415 223.002 312.852 226.452L308.941 228.902C308.391 229.284 307.649 229.633 307.368 230.475C307.311 230.683 307.302 230.902 307.341 231.114C307.38 231.326 307.466 231.526 307.593 231.7C307.792 231.956 308.023 232.186 308.278 232.386C309.144 233.235 310.11 233.975 311.155 234.589Z" fill="#263238"/>
<path d="M334.666 217.551C334.52 218.169 336.531 219.125 338.543 220.799C340.555 222.474 341.914 224.171 342.521 223.923C342.791 223.789 342.791 223.114 342.386 222.17C341.838 220.95 341.006 219.879 339.959 219.046C336.306 217.349 336.689 217.293 336.408 217.315C335.396 217.158 334.744 217.259 334.666 217.551Z" fill="#263238"/>
<path d="M316.64 206.976C316.64 207.617 318.168 208.1 319.64 209.224C321.113 210.348 322.113 211.55 322.72 211.348C322.989 211.247 323.113 210.696 322.854 209.909C322.495 208.895 321.827 208.018 320.944 207.403C320.079 206.766 319.04 206.409 317.966 206.381C317.1 206.403 316.651 206.684 316.64 206.976Z" fill="#263238"/>
<path d="M360.762 229.352C362.371 228.464 363.566 226.977 364.088 225.215C364.61 223.452 364.416 221.555 363.549 219.934C365.156 219.507 365.471 217.248 364.774 215.742C364.077 214.236 362.785 213.045 362.155 211.505C361.815 210.371 361.552 209.214 361.369 208.044C360.949 206.412 360.104 204.92 358.919 203.722C357.735 202.523 356.253 201.661 354.626 201.222C355.592 199.087 354.513 196.457 352.715 194.929C350.81 193.528 348.625 192.555 346.309 192.074C345.573 189.614 344.268 187.362 342.5 185.5C341.606 184.58 340.523 183.866 339.326 183.408C338.128 182.95 336.845 182.758 335.566 182.847C334.29 182.977 333.088 183.506 332.131 184.36C331.174 185.214 330.512 186.348 330.239 187.601C329.214 186.718 327.931 186.19 326.582 186.095C325.232 186.001 323.889 186.345 322.751 187.077C321.613 187.809 320.743 188.889 320.269 190.156C319.796 191.423 319.745 192.81 320.124 194.108C319.083 194.468 318.176 195.133 317.52 196.018C316.864 196.902 316.491 197.964 316.449 199.064C316.449 201.256 318.146 200.593 318.146 200.593L324.282 199.042C325.249 200.026 326.302 200.921 327.429 201.717C329.182 203.169 331.23 204.223 333.43 204.807C334.873 205.024 336.333 205.107 337.791 205.054C339.318 205.079 340.842 205.199 342.354 205.414C344.491 206.141 346.443 207.329 348.071 208.894C349.698 210.46 350.962 212.364 351.771 214.472C353.479 218.675 352.142 225.25 349.411 229.408C345.822 235.019 341.837 240.367 337.487 245.411C336.184 246.906 334.745 248.94 335.734 250.659C336.039 251.222 336.554 251.641 337.167 251.825C337.78 252.008 338.441 251.94 339.004 251.637C339.227 251.513 339.432 251.358 339.611 251.176C340.804 250.017 341.93 248.79 342.983 247.501L344.23 248.333C349.512 244.063 352.906 238.938 356.705 233.296C357.445 232.199 358.099 231.045 358.66 229.846C359.388 229.836 360.106 229.667 360.762 229.352Z" fill="#263238"/>
<path d="M356.142 215.405C355.677 211.857 354.068 208.558 351.557 206.009C349.54 203.79 346.907 202.225 343.994 201.514C342.541 201.17 341.031 201.148 339.57 201.449C338.108 201.75 336.729 202.366 335.531 203.256L325.866 198.412C326.905 201.266 328.951 203.64 331.619 205.089C334.288 206.538 337.394 206.962 340.352 206.279C340.99 208.069 342.062 209.672 343.473 210.945C344.883 212.218 346.587 213.121 348.433 213.573C348.119 215.728 348.368 217.928 349.155 219.958C349.943 221.988 351.243 223.78 352.928 225.16C354.147 223.869 355.067 222.326 355.622 220.64C356.178 218.954 356.355 217.167 356.142 215.405Z" fill="#263238"/>
<path d="M328.012 201.953C327.768 201.763 327.568 201.521 327.428 201.245C326.88 200.298 326.651 199.201 326.775 198.114C326.898 197.027 327.367 196.009 328.113 195.21C328.699 194.61 329.416 194.154 330.208 193.877C330.999 193.6 331.844 193.51 332.676 193.614L332.384 194.097C331.598 192.968 331.284 191.577 331.507 190.22C331.657 189.135 332.159 188.131 332.938 187.361C333.716 186.591 334.726 186.099 335.812 185.961C336.684 185.807 337.581 185.89 338.41 186.203C339.238 186.515 339.967 187.045 340.52 187.736C340.946 188.276 341.186 188.938 341.206 189.624C341.208 190.139 341.06 190.643 340.779 191.074C340.307 191.793 339.779 191.883 339.79 191.849C340.107 191.602 340.374 191.297 340.577 190.95C340.811 190.475 340.898 189.941 340.826 189.416C340.753 188.891 340.526 188.4 340.172 188.006C339.597 187.338 338.842 186.849 337.998 186.597C337.153 186.346 336.254 186.341 335.407 186.585C334.56 186.829 333.801 187.31 333.219 187.972C332.637 188.634 332.258 189.45 332.125 190.321C331.946 191.499 332.215 192.702 332.878 193.692L333.294 194.288L332.586 194.176C331.844 194.071 331.088 194.139 330.376 194.375C329.665 194.611 329.017 195.008 328.484 195.536C327.632 196.395 327.145 197.551 327.124 198.761C327.129 199.885 327.436 200.988 328.012 201.953Z" fill="white"/>
<path d="M356.884 232.892C355.457 232.842 354.08 232.356 352.939 231.498C351.679 230.819 350.667 229.756 350.051 228.464C350.197 228.351 351.388 229.767 353.276 230.97C355.164 232.172 356.929 232.757 356.884 232.892Z" fill="white"/>
<path d="M355.648 235.802C354.188 235.919 352.724 235.639 351.411 234.992C350.097 234.345 348.983 233.356 348.186 232.127C349.309 232.956 350.476 233.725 351.681 234.431C353.748 235.465 355.659 235.611 355.648 235.802Z" fill="white"/>
<path d="M291.386 253.435C296.577 257.578 302.884 260.082 309.502 260.628C309.502 260.628 299.017 266.247 288.431 256.503L291.386 253.435Z" fill="#EB996E"/>
<path d="M241.805 188.455C241.805 188.455 254.74 185.297 255.527 185.455C256.313 185.612 273.508 185.455 273.508 185.455H293.658C293.658 185.455 297.749 185.668 298.39 187.556C298.772 188.624 298.772 189.792 298.39 190.86L281.532 192.074C281.532 192.074 282.476 195.221 280.408 195.378C278.34 195.535 266.079 199.626 261.674 198.997C257.269 198.367 250.492 198.053 250.492 198.053L245.907 199.064L241.805 188.455Z" fill="#FFBE9D"/>
<path d="M281.755 192.434C281.494 192.136 281.2 191.868 280.879 191.636C280.012 191.02 279.003 190.633 277.946 190.512C276.608 190.31 274.979 190.512 273.124 190.287C271.176 189.916 269.286 189.284 267.505 188.41C265.742 187.614 263.82 187.229 261.886 187.287C260.306 187.354 258.752 187.712 257.301 188.343C255.977 188.975 254.729 189.755 253.581 190.669C253.799 190.33 254.072 190.03 254.39 189.782C255.206 189.047 256.126 188.437 257.121 187.972C258.774 187.217 260.569 186.826 262.386 186.826C264.203 186.826 265.999 187.217 267.651 187.972C269.397 188.826 271.244 189.456 273.147 189.849C274.911 190.074 276.575 189.95 277.968 190.209C279.078 190.356 280.122 190.816 280.98 191.535C281.312 191.762 281.58 192.072 281.755 192.434Z" fill="#EB996E"/>
<path d="M346.522 451.904L344.87 482.247C344.87 482.247 375.135 494.126 375.371 499.757L316.46 498.633L317.112 451.275L346.522 451.904Z" fill="#455A64"/>
<path d="M326.697 479.336C326.125 479.495 325.632 479.859 325.313 480.359C324.994 480.859 324.87 481.459 324.967 482.045C325.106 482.621 325.461 483.121 325.959 483.443C326.456 483.765 327.059 483.884 327.641 483.776C328.247 483.604 328.768 483.214 329.102 482.68C329.437 482.146 329.561 481.507 329.451 480.887C329.241 480.301 328.813 479.819 328.255 479.543C327.698 479.266 327.055 479.216 326.461 479.404" fill="#E0E0E0"/>
<path d="M316.46 498.633L316.707 493.856L373.101 496.7C373.101 496.7 375.697 497.891 375.349 499.734L316.46 498.633Z" fill="#263238"/>
<path d="M345.825 481.944C345.825 482.236 344.375 482.337 342.937 483.236C341.498 484.135 340.689 485.327 340.464 485.214C340.239 485.102 340.667 483.439 342.42 482.382C344.173 481.326 345.892 481.685 345.825 481.944Z" fill="#263238"/>
<path d="M351.94 484.63C351.996 484.911 350.737 485.383 349.692 486.574C348.647 487.765 348.388 489.058 348.107 489.035C347.826 489.013 347.669 487.394 348.939 485.922C350.209 484.45 351.94 484.349 351.94 484.63Z" fill="#263238"/>
<path d="M355.311 492.081C355.041 492.137 354.67 490.698 355.434 489.136C356.199 487.574 357.558 486.967 357.682 487.215C357.806 487.462 356.952 488.282 356.333 489.575C355.715 490.867 355.614 492.058 355.311 492.081Z" fill="#263238"/>
<path d="M345.444 474.999C345.309 475.257 344.005 474.83 342.376 474.909C340.746 474.987 339.465 475.482 339.319 475.235C339.173 474.987 340.443 473.976 342.331 473.908C344.219 473.841 345.579 474.774 345.444 474.999Z" fill="#263238"/>
<path d="M188.578 387.059C188.578 387.059 181.453 428.584 190.826 444.06L198.872 460.366V466.649C198.872 466.649 212.044 499.813 226.867 500.757C241.69 501.701 257.997 500.948 262.582 478.685C265.886 462.726 259.436 439.924 259.436 439.924L249.872 408.209L188.578 387.059Z" fill="#263238"/>
<path d="M297.658 375.259C297.658 375.259 329.945 355.356 338.116 354.052C346.286 352.748 365.088 358.356 367.515 370.909C368.909 378.091 356.187 472.324 356.962 474.684C357.738 477.044 310.762 473.852 310.762 473.852L316.032 421.482C316.032 421.482 292.162 443.262 278.024 449.15C263.887 455.039 257.2 454.848 257.2 454.848L232.476 407.58L297.658 375.259Z" fill="#263238"/>
<path d="M329.463 391.352C329.541 391.419 328.238 392.858 326.406 395.398C321.61 402.002 318.347 409.592 316.853 417.616C316.28 420.695 316.134 422.628 316.033 422.617C315.988 422.165 315.988 421.709 316.033 421.257C316.1 420.014 316.235 418.776 316.437 417.548C317.08 413.489 318.212 409.523 319.809 405.737C321.434 401.964 323.521 398.408 326.024 395.15C326.78 394.158 327.586 393.205 328.44 392.296C328.75 391.95 329.093 391.634 329.463 391.352Z" fill="#455A64"/>
<path d="M225.745 497.531C225.59 497.5 225.439 497.451 225.295 497.385C224.873 497.217 224.46 497.026 224.059 496.812C222.574 496.027 221.208 495.036 220.002 493.868C218.224 492.137 216.621 490.236 215.215 488.192C213.596 485.945 211.967 483.315 210.202 480.64C207.078 476.123 204.211 471.433 201.616 466.592C200.65 464.715 199.942 463.165 199.481 462.097C199.212 461.545 198.994 460.969 198.829 460.377C199.158 460.893 199.443 461.434 199.683 461.996C200.211 463.052 200.976 464.569 201.987 466.412C203.987 470.11 207.112 474.998 210.686 480.325C212.461 483.011 214.057 485.619 215.653 487.889C217.023 489.922 218.577 491.825 220.294 493.575C221.913 495.148 223.748 496.48 225.745 497.531Z" fill="#455A64"/>
<path d="M285.723 395.443C285.359 395.851 284.961 396.227 284.532 396.566C283.734 397.252 282.621 398.286 281.273 399.601C274.246 406.473 268.707 414.716 265 423.819C264.292 425.561 263.752 426.988 263.415 427.989C263.257 428.513 263.057 429.024 262.819 429.517C262.896 428.974 263.024 428.44 263.201 427.921C263.471 426.899 263.943 425.438 264.617 423.662C265.396 421.587 266.288 419.557 267.292 417.582C269.742 412.727 272.789 408.196 276.361 404.096C277.817 402.425 279.359 400.831 280.98 399.32C282.374 398.039 283.543 397.072 284.352 396.409C284.78 396.048 285.239 395.725 285.723 395.443Z" fill="#455A64"/>
<path d="M244.399 412.491C244.819 412.978 245.195 413.501 245.523 414.053C246.231 415.087 247.209 416.616 248.355 418.549C254.292 428.591 258.701 439.462 261.437 450.802C261.954 452.983 262.325 454.747 262.561 455.983C262.699 456.617 262.793 457.259 262.841 457.905C262.625 457.294 262.46 456.666 262.347 456.028C262.066 454.815 261.639 453.061 261.077 450.904C258.133 439.671 253.748 428.868 248.029 418.762C246.906 416.818 246.018 415.267 245.366 414.199C244.998 413.657 244.675 413.086 244.399 412.491Z" fill="#455A64"/>
<path d="M394.724 323.27L380.541 345.365L353.153 316.965C353.153 316.965 347.467 308.245 342.589 302.063C338.981 297.521 335.045 293.251 330.811 289.286L330.204 289.814L310.043 310.245L314.853 330.755C314.853 330.755 357.176 367.369 362.189 370.876C367.201 374.382 382.597 385.047 390.116 383.047C397.634 381.046 410.794 331.294 410.794 331.294L394.724 323.27Z" fill="#455A64"/>
<path d="M225.07 270.405L211.764 311.11C211.764 311.11 184.005 376.191 187.938 391.352C196.097 394.723 234.015 416.312 257.616 408.591C265.65 406.01 273.088 401.851 279.494 396.359C285.901 390.867 291.148 384.152 294.927 376.607V369.347L336.621 301.097L330.766 289.286L313.909 278.811L305.828 278.025C301.581 277.609 297.553 275.944 294.252 273.24C290.952 270.535 288.527 266.913 287.285 262.831L286.094 258.908L265.528 242.725L225.07 270.405Z" fill="#455A64"/>
<path d="M242.377 187.613C242.377 187.613 185.668 204.47 179.442 209.516C173.216 214.562 167.08 221.305 169.901 231.408C172.722 241.511 224.688 274.957 224.688 274.957L268.776 245.613C268.776 245.613 260.437 237.106 250.277 233.656C243.872 231.487 213.809 224.283 213.809 224.283L250.794 209.111L242.377 187.613Z" fill="#455A64"/>
<path d="M294.838 367.751C294.635 367.921 294.412 368.064 294.174 368.178L292.208 369.302C291.354 369.797 290.308 370.37 289.061 370.977C287.814 371.584 286.409 372.348 284.802 373.056C283.195 373.764 281.43 374.584 279.542 375.303C277.654 376.023 275.575 376.843 273.395 377.641C263.902 380.976 254.056 383.201 244.052 384.272C241.737 384.485 239.556 384.71 237.488 384.789C235.421 384.867 233.51 384.968 231.757 384.991C230.004 385.013 228.385 384.991 227.026 384.991C225.666 384.991 224.441 384.901 223.463 384.822L221.215 384.665C220.95 384.665 220.685 384.631 220.429 384.564C220.69 384.53 220.954 384.53 221.215 384.564L223.463 384.62C224.441 384.62 225.632 384.699 227.026 384.687H231.689C233.431 384.687 235.353 384.586 237.399 384.418C239.444 384.249 241.635 384.069 243.939 383.845C253.884 382.602 263.675 380.343 273.159 377.102C275.339 376.326 277.407 375.607 279.306 374.854C281.205 374.101 282.981 373.348 284.577 372.606L288.859 370.617C290.117 370.021 291.185 369.493 292.05 369.033L294.062 368.021C294.311 367.905 294.571 367.815 294.838 367.751Z" fill="#263238"/>
<path d="M323.629 318.741C323.508 318.998 323.361 319.243 323.191 319.472L321.82 321.494C321.225 322.382 320.483 323.439 319.572 324.63C318.662 325.821 317.651 327.226 316.415 328.676C315.178 330.125 313.886 331.744 312.369 333.385C310.852 335.025 309.211 336.756 307.458 338.565C299.707 346.264 291.024 352.961 281.609 358.502C279.429 359.738 277.361 360.952 275.361 361.941C273.361 362.93 271.506 363.874 269.742 364.672C267.977 365.47 266.427 366.111 265.033 366.695C263.639 367.279 262.426 367.74 261.425 368.1L259.178 368.909C258.913 369.018 258.638 369.101 258.357 369.156C258.602 369.009 258.862 368.889 259.133 368.796L261.381 367.886C262.369 367.504 263.572 367.021 264.943 366.403C266.314 365.785 267.91 365.144 269.596 364.29C271.281 363.436 273.181 362.582 275.136 361.514C277.092 360.446 279.171 359.266 281.34 358.03C290.647 352.453 299.256 345.787 306.986 338.172C308.739 336.396 310.436 334.733 311.919 333.059C313.403 331.384 314.785 329.856 316.01 328.406C317.235 326.956 318.258 325.608 319.224 324.439C320.191 323.27 320.944 322.191 321.562 321.36C322.18 320.528 322.685 319.899 323.023 319.404C323.206 319.167 323.409 318.945 323.629 318.741Z" fill="#263238"/>
<path d="M216.675 256.211C217.426 256.983 218.076 257.848 218.608 258.785C219.993 260.987 221.124 263.34 221.979 265.797C222.835 268.256 223.404 270.805 223.676 273.395C223.842 274.458 223.869 275.538 223.755 276.609C223.541 275.564 223.384 274.507 223.272 273.451C222.88 270.913 222.259 268.415 221.417 265.989C220.565 263.571 219.504 261.233 218.248 258.998C217.67 258.101 217.144 257.17 216.675 256.211Z" fill="#263238"/>
<path d="M335.194 322.214C335.194 322.304 333.913 322.708 331.823 323.551C326.521 325.745 321.705 328.965 317.651 333.025C316.1 334.576 315.224 335.632 315.145 335.565C315.066 335.497 315.302 335.261 315.673 334.756C316.194 334.055 316.753 333.383 317.348 332.744C321.302 328.452 326.227 325.168 331.71 323.169C332.531 322.861 333.367 322.598 334.216 322.382C334.53 322.27 334.861 322.213 335.194 322.214Z" fill="#263238"/>
<path d="M385.329 338.217C384.914 339.221 384.414 340.187 383.834 341.105C382.845 342.847 381.44 345.241 379.867 347.848C378.294 350.456 376.833 352.838 375.754 354.524C375.22 355.471 374.599 356.367 373.899 357.199C374.318 356.195 374.822 355.228 375.405 354.31C376.394 352.557 377.788 350.175 379.361 347.567C380.935 344.96 382.396 342.589 383.474 340.892C384.012 339.947 384.632 339.052 385.329 338.217Z" fill="#263238"/>
<path d="M416.38 494.418H363.055C362.35 494.421 361.676 494.703 361.178 495.202C360.681 495.701 360.402 496.377 360.402 497.081C360.402 497.785 360.682 498.459 361.179 498.957C361.677 499.454 362.351 499.734 363.055 499.734H416.38C417.085 499.734 417.761 499.455 418.26 498.957C418.759 498.46 419.041 497.786 419.044 497.081C419.044 496.375 418.763 495.697 418.264 495.198C417.764 494.698 417.087 494.418 416.38 494.418Z" fill="#E0E0E0"/>
<path d="M407.873 499.734H508.748L518.705 431.607C518.82 430.853 518.785 430.083 518.602 429.342C518.419 428.602 518.091 427.904 517.638 427.291C517.185 426.677 516.615 426.158 515.961 425.765C515.307 425.372 514.582 425.111 513.828 424.999C513.542 424.954 513.252 424.932 512.962 424.931L424.405 425.651C421.528 425.651 418.785 427.033 418.358 429.865L407.873 499.734Z" fill="#E0E0E0"/>
<path d="M464.93 467.053C467.99 467.053 470.471 464.572 470.471 461.512C470.471 458.452 467.99 455.972 464.93 455.972C461.87 455.972 459.39 458.452 459.39 461.512C459.39 464.572 461.87 467.053 464.93 467.053Z" fill="white"/>
<path d="M412.267 499.138C412.391 499.138 415.211 482.719 418.56 462.434C421.909 442.148 424.528 425.673 424.404 425.651C424.281 425.628 421.46 442.058 418.1 462.355C414.739 482.651 412.143 499.115 412.267 499.138Z" fill="#263238"/>
<path d="M618.466 499.734C618.466 499.903 480.011 500.026 309.244 500.026C138.478 500.026 0 499.903 0 499.734C0 499.565 138.411 499.442 309.233 499.442C480.055 499.442 618.466 499.577 618.466 499.734Z" fill="#263238"/>
<path d="M613.14 238.724H410.761V346.747H432.867V376.674L462.805 346.747H613.14V238.724Z" fill="white"/>
<path d="M613.14 238.724V267.73C613.14 286.442 613.208 313.459 613.264 346.769V346.983H613.039L462.704 347.05L462.907 346.971L433.08 376.888L432.586 377.382V346.747L432.878 347.039H410.469V238.51H410.738L556.623 238.645L598.283 238.713H598.205L556.477 238.78L410.772 238.915L411.042 238.645V346.668L410.75 346.376H433.148V376.596L432.653 376.393L462.592 346.466L462.671 346.376H462.794L613.129 346.454L612.916 346.668C612.916 313.414 613.006 286.442 613.039 267.764V240.59C613.027 239.966 613.06 239.343 613.14 238.724Z" fill="#263238"/>
<path d="M611.084 254.918C611.084 255.087 566.231 255.211 510.928 255.211C455.624 255.211 410.761 255.087 410.761 254.918C410.761 254.75 455.602 254.626 510.928 254.626C566.254 254.626 611.084 254.761 611.084 254.918Z" fill="#263238"/>
<path d="M421.74 247.67C421.74 248.199 421.583 248.716 421.289 249.156C420.995 249.596 420.578 249.939 420.089 250.141C419.6 250.343 419.062 250.396 418.544 250.293C418.025 250.19 417.548 249.935 417.174 249.561C416.8 249.187 416.545 248.71 416.442 248.192C416.339 247.673 416.392 247.135 416.594 246.646C416.797 246.158 417.14 245.74 417.579 245.446C418.019 245.152 418.536 244.995 419.065 244.995C419.774 244.998 420.452 245.281 420.953 245.782C421.454 246.283 421.737 246.961 421.74 247.67Z" fill="#E0E0E0"/>
<path d="M429.664 247.67C429.666 248.201 429.511 248.721 429.217 249.164C428.924 249.607 428.506 249.953 428.016 250.158C427.526 250.364 426.986 250.419 426.465 250.318C425.944 250.216 425.464 249.962 425.087 249.588C424.709 249.214 424.452 248.737 424.346 248.216C424.24 247.695 424.291 247.155 424.492 246.664C424.693 246.172 425.036 245.751 425.476 245.454C425.917 245.157 426.435 244.997 426.967 244.995C427.678 244.995 428.361 245.276 428.866 245.777C429.371 246.278 429.658 246.958 429.664 247.67Z" fill="#E0E0E0"/>
<path d="M437.575 247.67C437.575 248.199 437.418 248.716 437.124 249.156C436.83 249.596 436.413 249.939 435.924 250.141C435.435 250.343 434.897 250.396 434.379 250.293C433.86 250.19 433.383 249.935 433.009 249.561C432.635 249.187 432.38 248.71 432.277 248.192C432.174 247.673 432.227 247.135 432.429 246.646C432.632 246.158 432.974 245.74 433.414 245.446C433.854 245.152 434.371 244.995 434.9 244.995C435.609 244.998 436.287 245.281 436.788 245.782C437.289 246.283 437.572 246.961 437.575 247.67Z" fill="#E0E0E0"/>
<path d="M564.636 311.425C563.962 307.39 565.839 304.288 569.266 303.704C572.694 303.12 575.436 305.435 576.122 309.492C576.807 313.549 574.998 316.628 571.536 317.201C568.075 317.774 565.322 315.448 564.636 311.425ZM573.863 309.874C573.357 306.907 571.761 305.379 569.603 305.727C567.446 306.075 566.445 308.109 566.94 311.031C567.434 313.953 569.075 315.527 571.188 315.19C573.301 314.852 574.357 312.841 573.863 309.874ZM584.202 301.411L586.922 300.962L574.2 328.518L571.48 328.979L584.202 301.411ZM582.325 320.449C581.651 316.415 583.449 313.313 586.91 312.74C590.372 312.166 593.125 314.493 593.811 318.516C594.496 322.539 592.608 325.652 589.18 326.226C585.753 326.799 582.955 324.472 582.325 320.449ZM591.507 318.898C591.012 315.965 589.372 314.403 587.259 314.751C585.146 315.1 584.09 317.1 584.584 320.067C585.079 323.034 586.686 324.562 588.843 324.214C591.001 323.866 591.956 321.831 591.462 318.898H591.507Z" fill="#407BFF"/>
<path d="M435.598 266.842C436.25 264.741 437.902 263.696 439.7 264.246C441.498 264.797 442.262 266.573 441.61 268.742C440.959 270.911 439.363 271.911 437.52 271.349C435.676 270.787 434.946 268.955 435.598 266.842ZM440.419 268.337C440.902 266.786 440.498 265.651 439.374 265.303C438.25 264.954 437.272 265.685 436.8 267.213C436.328 268.742 436.733 269.91 437.846 270.259C438.958 270.607 439.947 269.888 440.419 268.337ZM447.465 266.764L448.893 267.202L436.059 277.418L434.643 276.979L447.465 266.764ZM441.925 275.485C442.577 273.372 444.173 272.315 446.005 272.877C447.836 273.439 448.589 275.226 447.938 277.373C447.286 279.519 445.622 280.519 443.836 279.969C442.049 279.418 441.273 277.586 441.925 275.485ZM446.735 276.968C447.207 275.428 446.735 274.271 445.679 273.922C444.622 273.574 443.588 274.293 443.105 275.844C442.622 277.395 443.026 278.53 444.15 278.879C445.274 279.227 446.263 278.496 446.735 276.968Z" fill="#407BFF"/>
<path d="M598.429 276.103L608.083 281.373L598.429 286.655L593.147 296.309L587.865 286.655L578.223 281.373L587.865 276.103L593.147 266.449L598.429 276.103Z" fill="#407BFF"/>
<path d="M568.974 262.774L572.266 264.572L568.974 266.37L567.175 269.663L565.377 266.37L562.096 264.572L565.377 262.774L567.175 259.493L568.974 262.774Z" fill="#407BFF"/>
<path d="M452.972 317.212L457.119 319.483L452.972 321.753L450.702 325.888L448.443 321.753L444.296 319.483L448.443 317.212L450.702 313.077L452.972 317.212Z" fill="#407BFF"/>
<path d="M432.429 301.288L434.98 302.67L432.429 304.064L431.035 306.615L429.653 304.064L427.102 302.67L429.653 301.288L431.035 298.737L432.429 301.288Z" fill="#407BFF"/>
<path d="M541.811 288.645L544.542 290.139L541.811 291.634L540.316 294.365L538.822 291.634L536.091 290.139L538.822 288.645L540.316 285.914L541.811 288.645Z" fill="#407BFF"/>
<path d="M538.911 307.626L540.091 308.267L538.911 308.918L538.259 310.098L537.619 308.918L536.438 308.267L537.619 307.626L538.259 306.446L538.911 307.626Z" fill="#407BFF"/>
<path d="M458.345 278.26L460.604 279.485L458.345 280.722L457.12 282.969L455.883 280.722L453.636 279.485L455.883 278.26L457.12 276.013L458.345 278.26Z" fill="#407BFF"/>
<path d="M612.039 261.358C621.362 261.358 628.919 253.801 628.919 244.478C628.919 235.156 621.362 227.598 612.039 227.598C602.717 227.598 595.159 235.156 595.159 244.478C595.159 253.801 602.717 261.358 612.039 261.358Z" fill="#407BFF"/>
<path d="M616.212 237.896L605.452 248.656L607.852 251.056L618.612 240.296L616.212 237.896Z" fill="white"/>
<path d="M607.848 237.885L605.448 240.285L616.208 251.045L618.608 248.645L607.848 237.885Z" fill="white"/>
<path d="M8.78906 233.611V341.633H142.143L168.867 368.358V341.633V340.217V233.611H8.78906Z" fill="#FAFAFA"/>
<path d="M8.78922 233.611H20.4096L53.1131 233.532L168.868 233.408H169.126V369.122L168.62 368.616L141.896 341.903L142.109 341.993L8.78922 341.903H8.56445V341.678C8.62064 308.548 8.65436 281.531 8.68808 262.774C8.68808 253.424 8.68808 246.141 8.74427 241.185V241.241C8.74427 246.209 8.74427 253.514 8.74427 262.875C8.74427 281.598 8.8117 308.581 8.86789 341.644L8.63188 341.42L141.986 341.352H142.098L142.188 341.442L168.913 368.167L168.418 368.369V233.599L168.688 233.858L53.0681 233.734L20.4096 233.667H9.47475L8.78922 233.611Z" fill="#263238"/>
<path d="M130.376 274.147L112.137 258.807C111.417 258.205 110.579 257.761 109.677 257.501C108.775 257.242 107.829 257.174 106.9 257.301L55.2034 264.426C54.3267 264.551 53.4833 264.848 52.7214 265.3C51.9594 265.751 51.2939 266.348 50.7627 267.057C50.2315 267.765 49.8451 268.572 49.6255 269.429C49.406 270.287 49.3576 271.18 49.4831 272.057L54.8887 308.593C55.166 310.342 56.1207 311.913 57.5465 312.964C58.9724 314.016 60.7547 314.464 62.5083 314.212L113.924 306.514C114.874 306.374 115.782 306.03 116.587 305.506C117.392 304.983 118.075 304.291 118.587 303.479L131.669 282.868C132.536 281.501 132.883 279.868 132.645 278.267C132.408 276.666 131.603 275.204 130.376 274.147ZM122.566 281.756C122.555 283.171 121.985 284.524 120.978 285.52C119.972 286.515 118.612 287.071 117.197 287.066C115.782 287.06 114.426 286.495 113.427 285.492C112.428 284.489 111.867 283.132 111.867 281.716C111.867 280.301 112.428 278.943 113.427 277.941C114.426 276.938 115.782 276.372 117.197 276.367C118.612 276.362 119.972 276.918 120.978 277.913C121.985 278.908 122.555 280.262 122.566 281.677V281.756Z" fill="#455A64"/>
<g opacity="0.4">
<path opacity="0.4" d="M130.376 274.147L112.137 258.807C111.417 258.205 110.579 257.761 109.677 257.501C108.775 257.242 107.829 257.174 106.9 257.301L55.2034 264.426C54.3267 264.551 53.4833 264.848 52.7214 265.3C51.9594 265.751 51.2939 266.348 50.7627 267.057C50.2315 267.765 49.8451 268.572 49.6255 269.429C49.406 270.287 49.3576 271.18 49.4831 272.057L54.8887 308.593C55.166 310.342 56.1207 311.913 57.5465 312.964C58.9724 314.016 60.7547 314.464 62.5083 314.212L113.924 306.514C114.874 306.374 115.782 306.03 116.587 305.506C117.392 304.983 118.075 304.291 118.587 303.479L131.669 282.868C132.536 281.501 132.883 279.868 132.645 278.267C132.408 276.666 131.603 275.204 130.376 274.147ZM122.566 281.756C122.555 283.171 121.985 284.524 120.978 285.52C119.972 286.515 118.612 287.071 117.197 287.066C115.782 287.06 114.426 286.495 113.427 285.492C112.428 284.489 111.867 283.132 111.867 281.716C111.867 280.301 112.428 278.943 113.427 277.941C114.426 276.938 115.782 276.372 117.197 276.367C118.612 276.362 119.972 276.918 120.978 277.913C121.985 278.908 122.555 280.262 122.566 281.677V281.756Z" fill="black"/>
</g>
<path d="M133.084 273.743L114.811 258.414C114.096 257.807 113.26 257.36 112.36 257.1C111.459 256.841 110.513 256.775 109.585 256.908L57.889 264.033C57.0123 264.158 56.1689 264.455 55.4069 264.906C54.645 265.358 53.9794 265.955 53.4482 266.663C52.917 267.372 52.5306 268.178 52.3111 269.036C52.0915 269.894 52.0431 270.787 52.1687 271.664L57.563 308.199C57.8402 309.951 58.7966 311.524 60.2249 312.575C61.6532 313.627 63.4385 314.074 65.1939 313.818L116.609 306.12C117.558 305.975 118.464 305.63 119.269 305.107C120.073 304.583 120.756 303.894 121.273 303.086L134.377 282.441C135.238 281.076 135.581 279.448 135.344 277.852C135.107 276.256 134.305 274.798 133.084 273.743ZM125.285 281.362C125.278 282.901 124.66 284.374 123.568 285.457C122.477 286.541 120.999 287.148 119.461 287.144C117.922 287.141 116.448 286.527 115.362 285.438C114.275 284.348 113.665 282.873 113.665 281.334C113.665 279.796 114.275 278.32 115.362 277.231C116.448 276.141 117.922 275.528 119.461 275.524C120.999 275.52 122.477 276.127 123.568 277.211C124.66 278.295 125.278 279.768 125.285 281.306V281.362Z" fill="#407BFF"/>
<path d="M71.1847 281.497C70.5778 277.058 72.9041 273.877 76.7364 273.349C80.5687 272.821 83.6255 275.249 84.2324 279.721C84.8392 284.194 82.5466 287.341 78.7144 287.869C74.8821 288.397 71.7915 285.936 71.1847 281.497ZM80.4675 280.238C80.0854 277.418 78.8155 276.215 77.1635 276.44C75.5114 276.665 74.6011 278.204 74.9832 280.935C75.3653 283.666 76.6802 284.958 78.2985 284.734C79.9168 284.509 80.8496 283.059 80.4675 280.238ZM92.4588 271.517L96.9541 270.911L82.5579 299.681L78.0625 300.287L92.4588 271.517ZM90.7731 291.477C90.1662 287.038 92.4925 283.846 96.2911 283.329C100.09 282.812 103.214 285.262 103.809 289.701C104.405 294.14 102.09 297.321 98.2578 297.849C94.4255 298.377 91.3687 295.905 90.7731 291.477ZM100.022 290.218C99.6401 287.431 98.3589 286.195 96.6507 286.419C94.9425 286.644 94.0883 288.139 94.4704 290.915C94.8526 293.691 96.1674 294.938 97.8419 294.713C99.5164 294.489 100.393 292.994 100.022 290.218Z" fill="white"/>
<path d="M132.951 284.869C133.152 284.943 133.345 285.041 133.524 285.161L135.075 286.116C135.749 286.543 136.558 287.071 137.491 287.712C138.424 288.352 139.458 289.105 140.548 290.016C141.761 291.006 142.889 292.096 143.919 293.275L144.335 293.758L144.728 294.264C145.006 294.622 145.261 294.998 145.493 295.388C146.032 296.18 146.414 297.069 146.616 298.006C146.706 298.504 146.706 299.014 146.616 299.512C146.524 300.031 146.325 300.524 146.032 300.962C145.435 301.849 144.574 302.525 143.571 302.895C142.547 303.251 141.458 303.382 140.379 303.277C139.293 303.177 138.222 302.951 137.187 302.603C135.157 301.915 133.257 300.889 131.568 299.568C130.772 298.96 130.021 298.295 129.321 297.579C128.616 296.89 127.942 296.204 127.298 295.523C124.982 293.118 122.95 290.456 121.24 287.588C120.888 286.974 120.574 286.378 120.296 285.801C120.15 285.509 120.027 285.228 119.903 284.936C119.782 284.664 119.684 284.382 119.611 284.093C119.456 283.549 119.513 282.968 119.768 282.464C120.001 282.057 120.349 281.729 120.768 281.52L121.308 281.317C121.473 281.271 121.642 281.241 121.813 281.227C122.074 281.183 122.34 281.183 122.6 281.227C122.759 281.268 122.911 281.332 123.05 281.418C123.14 281.486 123.185 281.52 123.173 281.531H123.016C122.875 281.474 122.728 281.433 122.578 281.407C122.332 281.373 122.082 281.373 121.836 281.407L121.375 281.52C121.206 281.579 121.04 281.65 120.881 281.733C120.522 281.938 120.226 282.237 120.027 282.598C119.816 283.038 119.787 283.543 119.948 284.003C120.016 284.277 120.118 284.541 120.251 284.79C120.364 285.071 120.499 285.341 120.645 285.622C120.937 286.183 121.263 286.768 121.622 287.375C123.367 290.172 125.409 292.772 127.714 295.129C128.354 295.803 129.028 296.478 129.725 297.163C130.435 297.849 131.186 298.49 131.973 299.085C133.604 300.361 135.44 301.353 137.401 302.018C138.387 302.354 139.409 302.569 140.447 302.659C141.437 302.761 142.438 302.646 143.38 302.322C144.265 302.002 145.028 301.412 145.56 300.636C146.056 299.889 146.241 298.978 146.077 298.096C145.908 297.236 145.576 296.416 145.099 295.68C144.879 295.312 144.635 294.959 144.369 294.623L143.998 294.118L143.593 293.634C142.613 292.461 141.534 291.375 140.368 290.387C139.244 289.465 138.289 288.69 137.39 288.027C136.491 287.363 135.693 286.802 135.041 286.352L133.557 285.307C133.335 285.19 133.131 285.043 132.951 284.869Z" fill="#263238"/>
<path d="M169.531 252.963C169.531 253.12 133.512 253.255 89.0869 253.255C44.6619 253.255 8.63184 253.12 8.63184 252.963C8.63184 252.806 44.5944 252.671 89.0869 252.671C133.579 252.671 169.531 252.806 169.531 252.963Z" fill="#263238"/>
<path d="M19.6111 245.714C19.6134 246.245 19.458 246.765 19.1647 247.208C18.8714 247.651 18.4534 247.997 17.9634 248.203C17.4735 248.408 16.9337 248.463 16.4122 248.362C15.8908 248.261 15.4111 248.007 15.0339 247.633C14.6567 247.259 14.3989 246.781 14.2931 246.261C14.1873 245.74 14.2382 245.2 14.4394 244.708C14.6407 244.216 14.9832 243.795 15.4236 243.498C15.8641 243.201 16.3827 243.042 16.914 243.04C17.6254 243.04 18.3081 243.321 18.8133 243.822C19.3184 244.323 19.6052 245.003 19.6111 245.714Z" fill="#E0E0E0"/>
<path d="M27.5339 245.714C27.5293 246.247 27.3665 246.766 27.0661 247.206C26.7658 247.646 26.3414 247.987 25.8469 248.185C25.3525 248.383 24.8103 248.429 24.2893 248.319C23.7684 248.208 23.2921 247.945 22.921 247.562C22.55 247.18 22.3009 246.696 22.2055 246.172C22.1101 245.648 22.1727 245.108 22.3853 244.619C22.5978 244.131 22.9508 243.717 23.3993 243.43C23.8478 243.142 24.3716 242.995 24.9042 243.006C25.6106 243.021 26.2829 243.313 26.7751 243.82C27.2674 244.327 27.54 245.008 27.5339 245.714Z" fill="#E0E0E0"/>
<path d="M35.4469 245.714C35.4402 246.242 35.2777 246.756 34.9798 247.191C34.6819 247.626 34.2619 247.964 33.7726 248.161C33.2833 248.359 32.7466 248.407 32.23 248.3C31.7134 248.193 31.24 247.935 30.8693 247.56C30.4986 247.185 30.2471 246.708 30.1466 246.19C30.0461 245.672 30.101 245.136 30.3044 244.649C30.5078 244.163 30.8506 243.747 31.2897 243.454C31.7288 243.162 32.2446 243.006 32.7722 243.006C33.1258 243.007 33.4757 243.079 33.8018 243.216C34.1278 243.353 34.4236 243.553 34.6721 243.804C34.9206 244.056 35.117 244.354 35.25 244.682C35.3829 245.01 35.4498 245.361 35.4469 245.714Z" fill="#E0E0E0"/>
<path d="M166.474 256.582C175.796 256.582 183.354 249.024 183.354 239.702C183.354 230.379 175.796 222.822 166.474 222.822C157.151 222.822 149.594 230.379 149.594 239.702C149.594 249.024 157.151 256.582 166.474 256.582Z" fill="#407BFF"/>
<path d="M170.648 233.118L159.889 243.878L162.289 246.278L173.048 235.518L170.648 233.118Z" fill="white"/>
<path d="M162.296 233.122L159.896 235.521L170.656 246.281L173.056 243.881L162.296 233.122Z" fill="white"/>
<path d="M107.765 316.819H69.9028C66.036 316.819 62.9014 319.954 62.9014 323.821V329.136C62.9014 333.003 66.036 336.138 69.9028 336.138H107.765C111.631 336.138 114.766 333.003 114.766 329.136V323.821C114.766 319.954 111.631 316.819 107.765 316.819Z" fill="#455A64"/>
<path d="M76.3986 327.012V327.866C76.3986 328.266 76.2399 328.649 75.9575 328.931C75.6751 329.214 75.292 329.372 74.8926 329.372C74.4932 329.372 74.1102 329.214 73.8278 328.931C73.5454 328.649 73.3867 328.266 73.3867 327.866V324.495C73.3867 323.461 73.9037 322.877 74.8926 322.877C75.8816 322.877 76.3986 323.461 76.3986 324.495V325.113H75.477V324.427C75.477 323.967 75.2747 323.798 74.9601 323.798C74.6454 323.798 74.4319 323.967 74.4319 324.427V327.9C74.4319 328.35 74.6342 328.518 74.9601 328.518C75.286 328.518 75.477 328.35 75.477 327.9V326.979L76.3986 327.012Z" fill="white"/>
<path d="M77.0176 322.978H78.029V328.484H79.6811V329.406H77.0176V322.978Z" fill="white"/>
<path d="M80.1299 322.978H81.1413V329.406H80.1299V322.978Z" fill="white"/>
<path d="M84.7946 327.012V327.866C84.7946 328.889 84.2889 329.485 83.2886 329.485C82.2884 329.485 81.7939 328.889 81.7939 327.866V324.495C81.7939 323.461 82.2997 322.877 83.2886 322.877C84.2776 322.877 84.7946 323.461 84.7946 324.495V325.113H83.8393V324.427C83.8393 323.967 83.637 323.798 83.3224 323.798C83.0077 323.798 82.7942 323.967 82.7942 324.427V327.9C82.7942 328.35 82.9964 328.518 83.3224 328.518C83.6483 328.518 83.8393 328.35 83.8393 327.9V326.979L84.7946 327.012Z" fill="white"/>
<path d="M86.7148 326.844L86.4001 327.428V329.406H85.3887V322.978H86.4001V325.787L87.7262 322.978H88.7264L87.3216 325.843L88.7264 329.406H87.6925L86.7148 326.844Z" fill="white"/>
<path d="M91.6491 329.406H90.6377V322.978H91.6491V325.731H92.773V322.978H93.7957V329.406H92.773V326.653H91.6491V329.406Z" fill="white"/>
<path d="M95.5607 325.686H96.9543V326.608H95.5607V328.484H97.3027V329.406H94.583V322.978H97.3252V323.922H95.5832L95.5607 325.686Z" fill="white"/>
<path d="M100.044 329.406C99.962 329.152 99.9315 328.885 99.9545 328.619V327.608C99.9545 327.012 99.7522 326.787 99.2915 326.787H98.9431V329.406H97.9541V322.978H99.4825C99.6856 322.943 99.8941 322.957 100.091 323.019C100.287 323.081 100.466 323.189 100.612 323.334C100.759 323.479 100.868 323.657 100.932 323.853C100.995 324.049 101.011 324.258 100.977 324.461V324.967C101.013 325.226 100.969 325.49 100.85 325.723C100.731 325.956 100.544 326.147 100.314 326.27C100.82 326.484 100.988 326.967 100.988 327.63V328.63C100.968 328.893 101.002 329.157 101.09 329.406H100.044ZM98.9206 323.899V325.877H99.3139C99.6848 325.877 99.9208 325.709 99.9208 325.192V324.562C99.9208 324.101 99.7635 323.899 99.4038 323.899H98.9206Z" fill="white"/>
<path d="M102.629 325.686H104.022V326.608H102.629V328.484H104.371V329.406H101.617V322.978H104.371V323.922H102.629V325.686Z" fill="white"/>
<path d="M403.951 184.982H403.804V14.7334H191.333V185.443H376.271L403.951 213.123V184.982Z" fill="white"/>
<path d="M403.95 184.982V192.186C403.95 196.962 403.95 204.009 404.018 213.123V213.382L403.827 213.202L376.113 185.556H376.225L191.288 185.668H191.007V14.4524H404.006V14.6996C404.006 66.1598 403.928 108.607 403.905 138.321V184.994V172.699C403.905 164.753 403.905 153.133 403.838 138.321C403.838 108.663 403.838 66.216 403.737 14.7558L403.973 14.9918H191.501L191.794 14.6996V185.443L191.524 185.173L376.461 185.286H376.529L404.175 213L403.995 213.078C403.917 194.996 403.95 185.69 403.95 184.982Z" fill="#263238"/>
<path d="M218.991 138.22L223.138 140.49L218.991 142.76L216.732 146.907L214.462 142.76L210.326 140.49L214.462 138.22L216.732 134.084L218.991 138.22Z" fill="#407BFF"/>
<path d="M371.033 140.49L375.18 142.76L371.033 145.019L368.763 149.166L366.504 145.019L362.357 142.76L366.504 140.49L368.763 136.343L371.033 140.49Z" fill="#407BFF"/>
<path d="M378.574 68.7224L380.653 69.8575L378.574 70.9925L377.439 73.0604L376.315 70.9925L374.236 69.8575L376.315 68.7224L377.439 66.6545L378.574 68.7224Z" fill="#407BFF"/>
<path d="M357.357 166.125L359.424 167.26L357.357 168.395L356.221 170.462L355.086 168.395L353.019 167.26L355.086 166.125L356.221 164.057L357.357 166.125Z" fill="#407BFF"/>
<path d="M206.224 108.27L208.303 109.394L206.224 110.529L205.089 112.608L203.965 110.529L201.886 109.394L203.965 108.27L205.089 106.191L206.224 108.27Z" fill="#407BFF"/>
<path d="M403.804 33.7263C403.804 33.8836 356.233 34.0185 297.569 34.0185C238.905 34.0185 191.333 33.8836 191.333 33.7263C191.333 33.5689 238.882 33.4341 297.569 33.4341C356.255 33.4341 403.804 33.5577 403.804 33.7263Z" fill="#263238"/>
<path d="M203.661 24.5109C203.659 25.0394 203.5 25.5555 203.205 25.9938C202.909 26.4322 202.491 26.7733 202.002 26.974C201.513 27.1747 200.976 27.2261 200.458 27.1216C199.939 27.0171 199.464 26.7615 199.091 26.387C198.718 26.0125 198.464 25.5359 198.362 25.0174C198.26 24.4988 198.313 23.9616 198.516 23.4735C198.719 22.9854 199.062 22.5684 199.501 22.275C199.941 21.9815 200.458 21.825 200.986 21.825C201.697 21.8279 202.377 22.1122 202.878 22.6156C203.379 23.119 203.661 23.8005 203.661 24.5109Z" fill="#E0E0E0"/>
<path d="M211.585 24.5109C211.585 25.0421 211.427 25.5614 211.132 26.0031C210.837 26.4448 210.418 26.7891 209.927 26.9924C209.436 27.1957 208.896 27.2489 208.375 27.1453C207.854 27.0416 207.375 26.7858 207 26.4102C206.624 26.0345 206.368 25.5559 206.264 25.0349C206.161 24.5139 206.214 23.9738 206.417 23.483C206.621 22.9922 206.965 22.5728 207.407 22.2776C207.848 21.9825 208.368 21.825 208.899 21.825C209.611 21.825 210.294 22.1079 210.798 22.6117C211.302 23.1154 211.585 23.7986 211.585 24.5109Z" fill="#E0E0E0"/>
<path d="M219.508 24.5109C219.508 25.0421 219.35 25.5614 219.055 26.0031C218.76 26.4448 218.34 26.7891 217.85 26.9924C217.359 27.1957 216.819 27.2489 216.298 27.1453C215.777 27.0416 215.298 26.7858 214.922 26.4102C214.547 26.0345 214.291 25.5559 214.187 25.0349C214.084 24.5139 214.137 23.9738 214.34 23.483C214.543 22.9922 214.888 22.5728 215.329 22.2776C215.771 21.9825 216.29 21.825 216.822 21.825C217.534 21.825 218.217 22.1079 218.721 22.6117C219.225 23.1154 219.508 23.7986 219.508 24.5109Z" fill="#E0E0E0"/>
<path d="M298.974 42.1887L314.168 57.8549L335.431 52.8876L339.746 74.2966L360.324 81.6127L352.378 101.954L365.729 119.227L348.052 132.05L349.94 153.796L328.137 155.021L317.967 174.34L298.974 163.585L279.97 174.34L269.799 155.021L247.997 153.796L249.885 132.05L232.207 119.227L245.558 101.954L237.624 81.6127L258.19 74.2966L262.506 52.8876L283.768 57.8549L298.974 42.1887Z" fill="#407BFF"/>
<g opacity="0.3">
<path opacity="0.3" d="M277.182 129.735V135.624C277.182 140.119 279.171 141.771 282.329 141.771C285.487 141.771 287.499 140.142 287.499 135.624V121.632C287.499 117.137 285.509 115.395 282.329 115.395C279.149 115.395 277.182 117.114 277.182 121.632V123.543H267.775L269.585 86.8384H295.815V95.829H278.497L277.688 110.945C278.574 109.461 279.848 108.247 281.373 107.433C282.897 106.619 284.615 106.236 286.341 106.326C293.669 106.326 297.377 111.495 297.377 120.767V134.882C297.377 144.997 292.309 150.762 282.531 150.762C272.754 150.762 267.708 144.985 267.708 134.882V129.724L277.182 129.735Z" fill="black"/>
<path opacity="0.3" d="M303.232 102.055C303.232 91.9405 308.582 86.1753 318.348 86.1753C328.114 86.1753 333.452 91.9518 333.452 102.055V134.994C333.452 145.109 328.125 150.874 318.348 150.874C308.571 150.874 303.232 145.098 303.232 134.994V102.055ZM313.201 135.624C313.201 140.119 315.19 141.861 318.348 141.861C321.506 141.861 323.506 140.142 323.506 135.624V101.403C323.506 96.9079 321.517 95.1547 318.348 95.1547C315.179 95.1547 313.201 96.8742 313.201 101.403V135.624Z" fill="black"/>
</g>
<g opacity="0.3">
<path opacity="0.3" d="M266.248 71.5879C266.248 71.0395 266.466 70.5135 266.854 70.1257C267.241 69.7379 267.767 69.52 268.316 69.52C268.864 69.52 269.39 69.7379 269.778 70.1257C270.166 70.5135 270.384 71.0395 270.384 71.5879V76.0832C270.384 76.6316 270.166 77.1576 269.778 77.5454C269.39 77.9332 268.864 78.1511 268.316 78.1511C267.767 78.1511 267.241 77.9332 266.854 77.5454C266.466 77.1576 266.248 76.6316 266.248 76.0832V71.5879ZM267.653 76.1731C267.653 76.78 267.911 77.0385 268.361 77.0385C268.81 77.0385 269.058 76.78 269.058 76.1731V71.4867C269.058 70.8799 268.788 70.6326 268.361 70.6326C267.934 70.6326 267.653 70.8799 267.653 71.4867V76.1731ZM273.755 69.4976H275.025L269.631 83.1746H268.361L273.755 69.4976ZM273.07 76.5889C273.07 76.0405 273.288 75.5145 273.675 75.1267C274.063 74.7389 274.589 74.5211 275.138 74.5211C275.686 74.5211 276.212 74.7389 276.6 75.1267C276.988 75.5145 277.205 76.0405 277.205 76.5889V81.0842C277.205 81.6327 276.988 82.1586 276.6 82.5464C276.212 82.9342 275.686 83.1521 275.138 83.1521C274.589 83.1521 274.063 82.9342 273.675 82.5464C273.288 82.1586 273.07 81.6327 273.07 81.0842V76.5889ZM274.396 81.1742C274.396 81.781 274.654 82.0395 275.104 82.0395C275.553 82.0395 275.812 81.781 275.812 81.1742V76.5103C275.812 75.9034 275.531 75.6561 275.104 75.6561C274.677 75.6561 274.396 75.9034 274.396 76.5103V81.1742Z" fill="black"/>
</g>
<path d="M273.474 129.735V135.624C273.474 140.119 275.463 141.771 278.621 141.771C281.779 141.771 283.779 140.142 283.779 135.624V121.632C283.779 117.137 281.801 115.395 278.621 115.395C275.441 115.395 273.474 117.114 273.474 121.632V123.543H264.056L265.877 86.8384H292.107V95.829H274.778L273.968 110.945C274.856 109.459 276.131 108.244 277.658 107.43C279.185 106.616 280.905 106.234 282.633 106.326C289.972 106.326 293.68 111.495 293.68 120.767V134.882C293.68 144.997 288.612 150.762 278.835 150.762C269.057 150.762 264 144.985 264 134.882V129.724L273.474 129.735Z" fill="white"/>
<path d="M299.524 102.055C299.524 91.9405 304.863 86.1753 314.64 86.1753C324.417 86.1753 329.744 91.9518 329.744 102.055V134.994C329.744 145.109 324.395 150.874 314.64 150.874C304.885 150.874 299.524 145.098 299.524 134.994V102.055ZM309.47 135.624C309.47 140.119 311.46 141.861 314.64 141.861C317.82 141.861 319.798 140.142 319.798 135.624V101.403C319.798 96.9079 317.798 95.1547 314.64 95.1547C311.482 95.1547 309.47 96.8742 309.47 101.403V135.624Z" fill="white"/>
<path d="M263.347 71.5879C263.325 71.3143 263.357 71.0389 263.442 70.7778C263.526 70.5166 263.662 70.2748 263.84 70.0662C264.019 69.8577 264.237 69.6866 264.482 69.5628C264.727 69.439 264.994 69.3649 265.268 69.3449C265.542 69.3249 265.817 69.3593 266.077 69.4461C266.337 69.5329 266.578 69.6704 266.785 69.8508C266.992 70.0311 267.161 70.2506 267.283 70.4967C267.405 70.7428 267.476 71.0105 267.494 71.2844V76.0832C267.53 76.6304 267.347 77.1694 266.987 77.5828C266.627 77.9963 266.118 78.2507 265.571 78.2907C265.024 78.3307 264.484 78.1531 264.067 77.7965C263.651 77.4399 263.392 76.9331 263.347 76.3866C263.336 76.2858 263.336 76.184 263.347 76.0832V71.5879ZM264.718 76.1731C264.718 76.78 264.977 77.0385 265.426 77.0385C265.876 77.0385 266.123 76.78 266.123 76.1731V71.4867C266.123 70.8799 265.853 70.6326 265.426 70.6326C264.999 70.6326 264.718 70.8799 264.718 71.4867V76.1731ZM270.81 69.4976H272.079L266.696 83.1746H265.404L270.81 69.4976ZM270.135 76.5889C270.135 76.0405 270.353 75.5145 270.741 75.1267C271.129 74.7389 271.655 74.5211 272.203 74.5211C272.751 74.5211 273.277 74.7389 273.665 75.1267C274.053 75.5145 274.271 76.0405 274.271 76.5889V81.0842C274.271 81.6327 274.053 82.1586 273.665 82.5464C273.277 82.9342 272.751 83.1521 272.203 83.1521C271.655 83.1521 271.129 82.9342 270.741 82.5464C270.353 82.1586 270.135 81.6327 270.135 81.0842V76.5889ZM271.495 81.1742C271.495 81.781 271.754 82.0395 272.203 82.0395C272.653 82.0395 272.9 81.781 272.9 81.1742V76.5103C272.9 75.9034 272.63 75.6561 272.203 75.6561C271.776 75.6561 271.495 75.9034 271.495 76.5103V81.1742Z" fill="white"/>
<path d="M403.95 33.7599C413.273 33.7599 420.83 26.2025 420.83 16.8799C420.83 7.5574 413.273 0 403.95 0C394.628 0 387.07 7.5574 387.07 16.8799C387.07 26.2025 394.628 33.7599 403.95 33.7599Z" fill="#407BFF"/>
<path d="M408.143 10.2954L397.383 21.0552L399.783 23.4551L410.543 12.6953L408.143 10.2954Z" fill="white"/>
<path d="M399.758 10.292L397.358 12.6919L408.118 23.4517L410.518 21.0518L399.758 10.292Z" fill="white"/>
<path d="M160.057 113.934H52.0342V211.19H160.057V113.934Z" fill="#FAFAFA"/>
<path d="M160.057 211.19V204.166C160.057 199.603 160.057 192.928 159.989 184.432C159.989 167.428 159.922 143.153 159.866 113.934L160.113 114.181H52.1017L52.3939 113.889V211.145L52.1467 210.887L130.275 211.022L152.302 211.089H152.381L130.41 211.156L52.113 211.291H51.877V113.518H160.439V113.765C160.439 143.052 160.349 167.383 160.315 184.421C160.315 192.894 160.315 199.547 160.248 204.11V209.291C160.244 209.929 160.18 210.565 160.057 211.19Z" fill="#263238"/>
<path d="M134.961 158.134H77.6124C69.4257 158.134 62.7891 164.771 62.7891 172.958V175.722C62.7891 183.909 69.4257 190.546 77.6124 190.546H134.961C143.148 190.546 149.785 183.909 149.785 175.722V172.958C149.785 164.771 143.148 158.134 134.961 158.134Z" fill="#455A64"/>
<path d="M85.4239 175.228V176.7C85.4239 178.419 84.5698 179.408 82.9065 179.408C82.5972 179.435 82.2858 179.399 81.9902 179.305C81.6945 179.211 81.4203 179.059 81.1834 178.859C80.9464 178.658 80.7513 178.413 80.6092 178.137C80.4671 177.861 80.3809 177.56 80.3554 177.251C80.3386 177.067 80.3386 176.883 80.3554 176.7V171.081C80.3554 169.35 81.2207 168.372 82.884 168.372C84.5473 168.372 85.4014 169.35 85.4014 171.081V172.126H83.8056V171.002C83.8056 170.238 83.4684 169.946 82.929 169.946C82.3895 169.946 82.0524 170.238 82.0524 171.002V176.824C82.0524 177.599 82.3895 177.869 82.929 177.869C83.4684 177.869 83.8056 177.599 83.8056 176.824V175.284L85.4239 175.228Z" fill="white"/>
<path d="M86.4566 168.473H88.1535V177.711H90.9406V179.251H86.4453L86.4566 168.473Z" fill="white"/>
<path d="M91.6826 168.473H93.3684V179.251H91.6826V168.473Z" fill="white"/>
<path d="M99.5168 175.228V176.7C99.5528 177.035 99.5219 177.373 99.426 177.695C99.33 178.018 99.1709 178.318 98.9579 178.579C98.7449 178.839 98.4822 179.055 98.1852 179.213C97.8882 179.371 97.5626 179.469 97.2276 179.5C96.8925 179.531 96.5545 179.496 96.2334 179.395C95.9122 179.295 95.6141 179.132 95.3566 178.915C95.0991 178.698 94.8871 178.433 94.7332 178.133C94.5792 177.834 94.4862 177.507 94.4596 177.172C94.4484 177.015 94.4484 176.857 94.4596 176.7V171.081C94.4596 169.35 95.325 168.372 96.9882 168.372C98.6515 168.372 99.5168 169.35 99.5168 171.081V172.126H97.9547V171.002C97.9547 170.238 97.6176 169.946 97.0781 169.946C96.5387 169.946 96.2016 170.238 96.2016 171.002V176.824C96.2016 177.599 96.5387 177.869 97.0781 177.869C97.6176 177.869 97.9547 177.599 97.9547 176.824V175.284L99.5168 175.228Z" fill="white"/>
<path d="M102.764 174.947L102.236 175.936V179.307H100.55V168.53H102.236V173.216L104.483 168.53H106.169L103.798 173.328L106.146 179.307H104.416L102.764 174.947Z" fill="white"/>
<path d="M111.002 179.251H109.305V168.473H111.002V173.092H112.923V168.473H114.654V179.251H112.923V174.632H111.002V179.251Z" fill="white"/>
<path d="M117.576 173.014H119.903V174.553H117.576V177.711H120.498V179.251H115.936V168.473H120.554V170.013H117.633L117.576 173.014Z" fill="white"/>
<path d="M125.084 179.251C124.951 178.822 124.901 178.372 124.937 177.925V176.228C124.937 175.228 124.6 174.857 123.814 174.857H123.229V179.251H121.555V168.473H124.117C125.87 168.473 126.623 169.283 126.623 170.946V171.8C126.683 172.235 126.607 172.677 126.406 173.068C126.204 173.458 125.888 173.776 125.499 173.98C126.353 174.34 126.623 175.104 126.623 176.228V177.891C126.59 178.338 126.655 178.787 126.814 179.206L125.084 179.251ZM123.24 170.013V173.328H123.903C124.533 173.328 124.915 173.059 124.915 172.205V171.081C124.915 170.316 124.656 169.957 124.061 169.957L123.24 170.013Z" fill="white"/>
<path d="M129.421 173.014H131.747V174.553H129.421V177.711H132.343V179.251H127.735V168.473H132.354V170.013H129.421V173.014Z" fill="white"/>
<path d="M159.46 132.399C159.46 132.556 135.646 132.691 106.292 132.691C76.9375 132.691 53.1123 132.556 53.1123 132.399C53.1123 132.241 76.915 132.106 106.292 132.106C135.669 132.106 159.46 132.23 159.46 132.399Z" fill="#263238"/>
<path d="M64.0936 125.15C64.0936 125.679 63.9367 126.196 63.6428 126.636C63.3489 127.076 62.9312 127.418 62.4424 127.621C61.9537 127.823 61.4159 127.876 60.897 127.773C60.3782 127.67 59.9016 127.415 59.5275 127.041C59.1535 126.667 58.8987 126.19 58.7955 125.672C58.6923 125.153 58.7453 124.615 58.9477 124.126C59.1502 123.637 59.493 123.22 59.9329 122.926C60.3727 122.632 60.8899 122.475 61.4189 122.475C62.1273 122.478 62.8059 122.761 63.3069 123.262C63.8079 123.763 64.0906 124.441 64.0936 125.15Z" fill="#E0E0E0"/>
<path d="M72.0154 125.15C72.0177 125.681 71.8623 126.201 71.569 126.644C71.2757 127.087 70.8577 127.433 70.3678 127.638C69.8778 127.844 69.338 127.899 68.8165 127.798C68.2951 127.696 67.8154 127.442 67.4382 127.068C67.061 126.694 66.8032 126.217 66.6974 125.696C66.5916 125.175 66.6425 124.635 66.8437 124.144C67.045 123.652 67.3875 123.231 67.8279 122.934C68.2684 122.637 68.787 122.477 69.3183 122.475C70.0267 122.478 70.7053 122.761 71.2063 123.262C71.7073 123.763 71.99 124.441 71.993 125.15H72.0154Z" fill="#E0E0E0"/>
<path d="M79.9725 125.15C79.9725 125.679 79.8156 126.196 79.5217 126.636C79.2278 127.076 78.8101 127.418 78.3213 127.621C77.8326 127.823 77.2948 127.876 76.7759 127.773C76.2571 127.67 75.7805 127.415 75.4065 127.041C75.0324 126.667 74.7776 126.19 74.6744 125.672C74.5712 125.153 74.6242 124.615 74.8266 124.126C75.0291 123.637 75.3719 123.22 75.8118 122.926C76.2516 122.632 76.7687 122.475 77.2978 122.475C78.0062 122.478 78.6848 122.761 79.1858 123.262C79.6868 123.763 79.9695 124.441 79.9725 125.15Z" fill="#E0E0E0"/>
<path d="M311.481 240.882C311.301 240.556 309.48 241.219 307.368 240.59C305.255 239.96 303.996 238.443 303.693 238.634C303.389 238.825 303.693 239.252 304.187 239.949C304.918 240.854 305.911 241.509 307.03 241.826C308.135 242.156 309.316 242.125 310.402 241.736C311.222 241.432 311.582 241.039 311.481 240.882Z" fill="#263238"/>
<path d="M480.056 269.888C490.001 269.888 490.395 277.181 490.395 295.68C490.395 316.898 490.001 324.259 480.056 324.259C470.11 324.259 469.705 316.898 469.705 295.68C469.728 277.181 470.132 269.888 480.056 269.888ZM480.056 317.628C483.764 317.628 483.764 314.841 483.764 295.68C483.764 278.44 483.764 275.192 480.056 275.192C476.347 275.192 476.336 278.44 476.336 295.68C476.358 314.841 476.358 317.628 480.056 317.628Z" fill="#407BFF"/>
<path d="M496.385 270.551H510.309V275.856H503.015V295.748H508.983V301.052H503.015V323.596H496.385V270.551Z" fill="#407BFF"/>
<path d="M514.95 270.551H528.874V275.856H521.637V295.748H527.605V301.052H521.637V323.596H515.006L514.95 270.551Z" fill="#407BFF"/>
</svg>
