<svg viewBox="0 0 663 428" fill="none" xmlns="http://www.w3.org/2000/svg"> <path d="M5.12402 353.517V393.258H63.2461H127.346V353.517H5.12402Z" fill="#F5F5F5"/> <path d="M0 342.405V353.517H131.617V342.405H63.2462H0Z" fill="#E0E0E0"/> <path d="M65.8082 393.258H127.346V353.517H131.616V342.405H63.2461V352.488L65.8082 393.258Z" fill="#E0E0E0"/> <path d="M47.0107 359.922H22.2246V365.9H47.0107V359.922Z" fill="#E0E0E0"/> <path d="M50.8533 373.382H19.0312V386.018H50.8533V373.382Z" fill="white"/> <path d="M23.9326 302.712V342.453H82.045H146.145V302.712H23.9326Z" fill="#F5F5F5"/> <path d="M18.7979 291.6V302.712H150.424V291.6H82.044H18.7979Z" fill="#E0E0E0"/> <path d="M84.606 342.453H146.144V302.712H150.424V291.6H82.0439V301.683L84.606 342.453Z" fill="#E0E0E0"/> <path d="M65.8075 309.117H41.0215V315.095H65.8075V309.117Z" fill="#E0E0E0"/> <path d="M69.6511 322.588H37.8291V335.223H69.6511V322.588Z" fill="white"/> <path d="M99.0862 0H8.59863V131.16H99.0862V0Z" fill="#E0E0E0"/> <path d="M94.5432 0H4.05566V131.16H94.5432V0Z" fill="#F5F5F5"/> <path d="M83.3062 14.2078H15.3047V116.952H83.3062V14.2078Z" fill="white"/> <path d="M83.306 116.952C83.306 116.952 83.306 116.778 83.306 116.448C83.306 116.118 83.306 115.623 83.306 114.992C83.306 113.701 83.306 111.809 83.306 109.354C83.306 104.433 83.306 97.2517 83.2478 88.1875C83.2478 70.0783 83.1798 44.4188 83.141 14.2078L83.3642 14.431H15.3724L15.615 14.1884C15.615 52.9493 15.615 88.6824 15.615 116.933L15.4209 116.739L64.9154 116.836L78.5894 116.885H82.1802C82.9954 116.885 83.4224 116.885 83.4224 116.885H82.219H78.6671H65.0804L15.4597 116.991H15.2656V116.797C15.2656 88.5465 15.2656 52.8135 15.2656 14.0525V13.8002H15.518H83.5098H83.733V14.2175C83.733 44.4867 83.6554 70.1948 83.6262 88.3524C83.6262 97.3876 83.6262 104.55 83.5583 109.46C83.5583 111.896 83.5583 113.769 83.5583 115.05C83.5583 115.671 83.5583 116.157 83.5583 116.487C83.5583 116.817 83.306 116.952 83.306 116.952Z" fill="#E0E0E0"/> <path d="M94.8068 0C94.3374 0.829388 93.795 1.61534 93.1861 2.34856C92.138 3.74605 90.6435 5.6579 88.9451 7.72502C87.2468 9.79215 85.6455 11.6069 84.4712 12.9268C83.8835 13.6602 83.2341 14.342 82.5303 14.9648C83.0394 14.1624 83.6174 13.4058 84.2577 12.7036L88.5667 7.42417L92.9144 2.13506C93.4842 1.37152 94.1172 0.657315 94.8068 0Z" fill="#E0E0E0"/> <path d="M83.6172 116.623C86.9965 121.998 90.975 126.973 95.4765 131.452L83.6172 116.623Z" fill="white"/> <path d="M95.5155 131.451C94.7588 130.902 94.0655 130.271 93.4484 129.569C90.294 126.35 87.4748 122.818 85.0343 119.029C84.4897 118.272 84.0277 117.459 83.6562 116.603C84.266 117.306 84.8239 118.052 85.3255 118.835C86.296 120.233 87.7226 122.154 89.353 124.202C90.9834 126.25 92.5556 128.084 93.7007 129.316C94.3555 129.984 94.962 130.698 95.5155 131.451Z" fill="#E0E0E0"/> <path d="M4.03711 131.054L15.8867 116.428L4.03711 131.054Z" fill="white"/> <path d="M15.8964 116.428C14.1208 119.015 12.2095 121.507 10.1705 123.891C8.25356 126.385 6.20624 128.776 4.03711 131.054C5.81811 128.468 7.73254 125.977 9.77265 123.591C11.6882 121.099 13.7322 118.708 15.8964 116.428Z" fill="#E0E0E0"/> <path d="M4.03711 0C6.10486 2.18319 8.04886 4.48035 9.85999 6.8807C11.782 9.17216 13.5737 11.5698 15.2267 14.0623C13.1855 11.8743 11.2644 9.5774 9.4718 7.18155C7.53408 4.88584 5.71995 2.4886 4.03711 0Z" fill="#E0E0E0"/> <path d="M62.12 35.0635H39.3525V99.7169H62.12V35.0635Z" fill="#E0E0E0"/> <path d="M587.295 379.361C585.16 377.526 580.386 371.713 584.064 364.949C585.413 362.465 588.285 361.242 590.857 360.145C593.429 359.049 596.175 358.107 598.33 356.263C602.377 352.818 603.493 347.092 606.181 342.502C609.267 337.222 615.022 333.273 621.107 333.544C628.075 333.865 633.888 339.552 636.518 346.044C639.148 352.537 639.245 359.738 639.303 366.744C639.303 370.626 639.158 374.984 636.314 377.604C633.694 380.021 629.744 380.05 626.192 379.933L588.111 378.769" fill="#F5F5F5"/> <path d="M660.13 274.656H559.986L578.028 382.214C578.4 384.456 579.401 386.547 580.914 388.242C582.428 389.938 584.392 391.169 586.578 391.793L586.927 391.89C587.228 391.958 587.509 392.064 587.82 392.113C588.491 392.25 589.173 392.328 589.858 392.346V392.452L590.353 392.375H634.995C635.819 392.373 636.641 392.292 637.45 392.132C640.054 391.728 642.454 390.481 644.282 388.583C646.11 386.685 647.266 384.239 647.572 381.622L656.306 307.506L656.695 304.595H656.646L660.082 275.209L660.13 274.656ZM641.235 343.259H630.967L632.006 312.048H643.913L641.235 343.259ZM644.903 312.048H654.744L651.076 343.259H642.235L644.903 312.048ZM615.546 377.866L614.916 350.751H629.715L628.813 377.866H615.546ZM599.543 350.751H613.926L614.547 377.866H601.649L599.543 350.751ZM600.649 377.866H588.596C587.451 370.549 585.956 361.028 584.345 350.751H598.544L600.649 377.866ZM598.941 343.259L596.515 312.048H613.013L613.732 343.259H598.941ZM614.721 343.259L614.003 312.048H630.967L629.997 343.259H614.721ZM613.838 304.556L613.169 275.655H632.19L631.22 304.556H613.838ZM612.868 304.556H595.952L593.711 275.655H612.15L612.868 304.556ZM594.962 304.556H577.067C576.436 300.567 575.834 296.792 575.291 293.386C573.427 281.74 572.729 277.305 572.379 275.655H592.759L594.962 304.556ZM595.545 312.048L597.971 343.259H583.171C582.676 340.095 582.201 336.892 581.667 333.69C580.502 326.314 579.347 318.948 578.251 312.048H595.545ZM582.171 343.259H572.467L567.226 312.048H577.212C578.775 321.695 580.502 332.428 582.162 343.259H582.171ZM583.356 350.751C584.821 360.135 586.267 369.384 587.596 377.866H578.319L573.767 350.751H583.356ZM629.822 377.866L630.725 350.751H640.604L638.294 377.866H629.822ZM632.258 304.556L633.228 275.655H647.029L644.554 304.556H632.258ZM571.399 275.655C571.797 277.742 573.622 289.116 576.067 304.556H566.013L561.161 275.655H571.399ZM647.029 377.866H639.265L641.643 350.751H650.251L647.029 377.866ZM655.627 304.556H645.524L647.989 275.655H659.014L655.627 304.556Z" fill="#E0E0E0"/> <path d="M662.362 7.02625V95.0973H535.87L531.309 7.64735L662.362 7.02625Z" fill="#E0E0E0"/> <path d="M531.309 7.64729V94.9128L657.801 94.9128V7.64729L531.309 7.64729Z" fill="white"/> <path d="M658.403 95.5147H530.707V7.04578H658.403V95.5147ZM531.91 94.3113H657.17V8.24917H531.91V94.3113Z" fill="#E0E0E0"/> <path d="M644.098 18.4877H545.012V84.0727H644.098V18.4877Z" fill="white"/> <path d="M644.098 18.4877H643.613H642.206H636.761L616.381 18.5653L545.051 18.7109L545.332 18.4197C545.332 38.4602 545.332 60.6647 545.332 83.9951L545.022 83.6845L644.108 83.7428L643.865 83.9951C643.914 64.0323 643.962 47.67 643.991 36.2766C643.991 30.5799 644.04 26.1351 644.059 23.078C644.059 21.5706 644.059 20.4157 644.059 19.6134C644.059 18.8273 644.059 18.41 644.059 18.41C644.059 18.41 644.059 18.7885 644.059 19.5649C644.059 20.3413 644.059 21.5059 644.059 22.981C644.059 26.0186 644.059 30.4537 644.117 36.1213C644.117 47.5536 644.195 63.9741 644.253 83.9951V84.2474H644.001L544.915 84.3056H544.604V84.0921C544.604 60.8006 544.604 38.5572 544.604 18.5168V18.2354H544.896L616.41 18.3712L636.79 18.4489H642.177H643.545L644.098 18.4877Z" fill="#E0E0E0"/> <path d="M531.308 7.42419C532.088 7.80168 532.819 8.27435 533.482 8.83139C534.783 9.80187 536.539 11.0926 538.441 12.6163C540.344 14.1399 542.022 15.5762 543.197 16.6535C543.878 17.1912 544.488 17.8141 545.012 18.5071C544.895 18.6429 541.848 16.1294 538.053 13.1015C534.259 10.0736 531.202 7.54065 531.308 7.42419Z" fill="#E0E0E0"/> <path d="M657.802 7.64742C657.908 7.78329 654.89 10.3162 651.144 13.315C647.398 16.3138 644.205 18.6236 644.098 18.4877C643.992 18.3518 647.01 15.8189 650.756 12.8201C654.502 9.8213 657.695 7.51156 657.802 7.64742Z" fill="#E0E0E0"/> <path d="M657.703 94.9227L643.583 83.5001L657.703 94.9227Z" fill="white"/> <path d="M643.583 83.5001C643.7 83.3643 646.941 85.8099 650.833 88.964C654.724 92.118 657.801 94.7868 657.694 94.9227C657.587 95.0586 654.336 92.613 650.445 89.4492C646.553 86.2854 643.486 83.6263 643.583 83.5001Z" fill="#E0E0E0"/> <path d="M531.308 94.9129C531.202 94.777 534.152 92.2635 537.898 89.3035C541.644 86.3436 544.759 84.0532 544.866 84.1891C544.973 84.325 542.032 86.8385 538.286 89.7985C534.54 92.7584 531.415 95.0488 531.308 94.9129Z" fill="#E0E0E0"/> <path d="M565.131 38.9162V60.8782L627.484 60.8782V38.9162H565.131Z" fill="#E0E0E0"/> <path d="M660.13 393.258C660.13 393.394 514.247 393.51 334.33 393.51C154.413 393.51 8.50098 393.394 8.50098 393.258C8.50098 393.122 154.354 393.006 334.33 393.006C514.305 393.006 660.13 393.112 660.13 393.258Z" fill="#263238"/> <path d="M88.6433 54.0071H582.385C584.12 54.0071 585.783 54.6962 587.01 55.9229C588.237 57.1496 588.926 58.8133 588.926 60.5481V375.663C588.923 379.41 587.434 383.002 584.784 385.652C582.135 388.301 578.542 389.791 574.796 389.793H95.262C91.5118 389.793 87.9153 388.303 85.2636 385.652C82.6118 383 81.1221 379.403 81.1221 375.653V61.5186C81.1246 59.5255 81.9182 57.615 83.3284 56.2066C84.7386 54.7982 86.6502 54.0071 88.6433 54.0071Z" fill="#455A64"/> <path d="M59.8877 364.968H610.053V381.059C610.053 384.59 608.65 387.977 606.153 390.474C603.656 392.971 600.269 394.374 596.738 394.374H73.2027C69.6713 394.374 66.2846 392.971 63.7876 390.474C61.2905 387.977 59.8877 384.59 59.8877 381.059V364.968Z" fill="#455A64"/> <path d="M573.873 67.3317H94.7471V350.916H573.873V67.3317Z" fill="#F5F5F5"/> <path d="M284.961 364.968L291.793 375.828H387.861L394.198 364.968H284.961Z" fill="#263238"/> <path d="M589.013 364.861H81.1992V366.482H589.013V364.861Z" fill="#263238"/> <path d="M230.412 54.007H177.656V35.4126C177.656 22.3014 188.283 11.2089 201.394 11.2089L230.412 11.665V54.007Z" fill="#E0E0E0"/> <path d="M200.259 11.1798C200.259 11.1798 230.285 8.45276 230.285 47.6116V352.197H465.918V36.5384C465.917 33.1362 465.245 29.7676 463.94 26.6253C462.636 23.4831 460.725 20.6288 458.317 18.2257C455.908 15.8227 453.049 13.918 449.904 12.6208C446.759 11.3235 443.389 10.6591 439.987 10.6655L200.259 11.1798Z" fill="white"/> <path d="M200.259 11.1798L374.586 10.6169L416.802 10.5004L439.249 10.4325C443.182 10.3245 447.088 11.1033 450.678 12.7111C454.268 14.3189 457.451 16.7144 459.989 19.72C462.585 22.814 464.429 26.4682 465.375 30.3953C465.623 31.3819 465.808 32.3836 465.928 33.394C466.064 34.3645 466.054 35.4223 466.122 36.4414C466.122 38.4664 466.122 40.5044 466.122 42.5554C466.122 50.7268 466.122 59.0309 466.122 67.4676C466.122 84.3216 466.122 101.658 466.122 119.476C466.122 190.651 466.122 268.93 466.122 351.032V352.449H465.87H230.237H230.004V352.216C230.004 246.764 230.072 157.218 230.101 94.0685C230.101 78.269 230.101 64.1194 230.101 51.7846C230.101 48.6985 230.101 45.7288 229.927 42.8853C229.757 40.1564 229.38 37.4442 228.801 34.7721C228.243 32.3371 227.47 29.9565 226.491 27.6585C225.57 25.6061 224.438 23.6547 223.114 21.8356C220.847 18.8104 217.941 16.3219 214.603 14.5473C212.164 13.2574 209.548 12.3352 206.839 11.8106C205.196 11.4766 203.527 11.2882 201.851 11.2477C200.725 11.2477 200.143 11.2477 200.143 11.2477C200.711 11.2138 201.282 11.2138 201.851 11.2477C203.532 11.2757 205.208 11.451 206.858 11.7717C209.566 12.2897 212.182 13.2054 214.622 14.4891C217.983 16.2578 220.91 18.7504 223.191 21.7871C224.527 23.6056 225.672 25.5569 226.608 27.61C227.597 29.9171 228.379 32.3074 228.946 34.7527C229.533 37.434 229.916 40.1559 230.092 42.895C230.305 45.7483 230.276 48.7179 230.276 51.8041C230.276 64.1389 230.276 78.2885 230.276 94.0879C230.276 157.276 230.324 246.822 230.363 352.236L230.13 352.012H465.763L465.511 352.265V351.1C465.511 268.968 465.511 190.719 465.511 119.544C465.511 101.745 465.511 84.409 465.511 67.5355V42.5554C465.452 38.4696 465.811 34.3742 464.783 30.4923C463.898 26.6638 462.148 23.0885 459.668 20.0402C457.177 17.0815 454.051 14.7222 450.523 13.1378C446.995 11.5534 443.155 10.7846 439.288 10.8886H416.793L374.509 10.9565L200.259 11.1798Z" fill="#263238"/> <path d="M331.147 103.618C331.147 103.754 316.813 103.87 299.122 103.87C281.43 103.87 267.096 103.754 267.096 103.618C267.096 103.482 281.42 103.366 299.122 103.366C316.823 103.366 331.147 103.502 331.147 103.618Z" fill="#263238"/> <path d="M345.49 111.265C345.49 111.411 327.954 111.518 306.312 111.518C284.67 111.518 267.144 111.411 267.144 111.265C267.144 111.12 284.68 111.013 306.312 111.013C327.944 111.013 345.49 111.13 345.49 111.265Z" fill="#263238"/> <path d="M350.635 141.399C350.635 141.535 332.525 141.651 310.185 141.651C287.845 141.651 269.735 141.535 269.735 141.399C269.735 141.263 287.845 141.146 310.185 141.146C332.525 141.146 350.635 141.253 350.635 141.399Z" fill="#263238"/> <path d="M403.478 170.766C403.478 170.901 373.199 171.018 335.854 171.018C298.51 171.018 268.231 170.901 268.231 170.766C268.231 170.63 298.501 170.513 335.854 170.513C373.208 170.513 403.478 170.62 403.478 170.766Z" fill="#263238"/> <path d="M403.478 179.519C403.478 179.665 373.199 179.772 335.854 179.772C298.51 179.772 268.231 179.665 268.231 179.519C268.231 179.374 298.501 179.267 335.854 179.267C373.208 179.267 403.478 179.383 403.478 179.519Z" fill="#263238"/> <path d="M403.478 188.283C403.478 188.428 373.199 188.535 335.854 188.535C298.51 188.535 268.231 188.428 268.231 188.283C268.231 188.137 298.501 188.03 335.854 188.03C373.208 188.03 403.478 188.147 403.478 188.283Z" fill="#263238"/> <path d="M403.478 197.046C403.478 197.182 373.199 197.298 335.854 197.298C298.51 197.298 268.231 197.182 268.231 197.046C268.231 196.91 298.501 196.794 335.854 196.794C373.208 196.794 403.478 196.91 403.478 197.046Z" fill="#263238"/> <path d="M403.478 205.81C403.478 205.945 373.199 206.062 335.854 206.062C298.51 206.062 268.231 205.945 268.231 205.81C268.231 205.674 298.501 205.557 335.854 205.557C373.208 205.557 403.478 205.664 403.478 205.81Z" fill="#263238"/> <path d="M319.521 214.573C319.521 214.709 308.031 214.825 293.872 214.825C279.712 214.825 268.231 214.709 268.231 214.573C268.231 214.437 279.712 214.321 293.872 214.321C308.031 214.321 319.521 214.427 319.521 214.573Z" fill="#263238"/> <path d="M423.285 251.558C423.285 251.694 409.854 251.81 393.297 251.81C376.741 251.81 363.3 251.694 363.3 251.558C363.3 251.422 376.731 251.306 393.297 251.306C409.863 251.306 423.285 251.422 423.285 251.558Z" fill="#263238"/> <path d="M423.285 260.021C423.285 260.156 409.854 260.273 393.297 260.273C376.741 260.273 363.3 260.156 363.3 260.021C363.3 259.885 376.702 259.749 393.307 259.749C409.912 259.749 423.285 259.885 423.285 260.021Z" fill="#263238"/> <path d="M419.306 296.792C419.292 296.65 419.292 296.507 419.306 296.365C419.306 296.064 419.258 295.657 419.219 295.133C419.219 294.861 419.2 294.56 419.161 294.23C419.161 293.89 419.054 293.531 418.996 293.143C418.876 292.238 418.691 291.343 418.443 290.465C417.831 288.035 416.849 285.715 415.531 283.584C412.452 278.432 407.673 274.516 402.016 272.509C396.36 270.502 390.181 270.53 384.544 272.588C383.392 273.003 382.27 273.496 381.186 274.063C380.087 274.668 379.03 275.346 378.022 276.092C376.999 276.855 376.026 277.685 375.111 278.576C374.205 279.516 373.363 280.515 372.588 281.565C370.986 283.715 369.743 286.111 368.909 288.659C367.136 293.933 367.136 299.641 368.909 304.915C369.743 307.463 370.986 309.859 372.588 312.009C373.363 313.059 374.205 314.058 375.111 314.998C376.026 315.889 376.999 316.719 378.022 317.483C380.003 318.982 382.202 320.167 384.544 320.996C388.867 322.564 393.529 322.956 398.053 322.131C401.657 321.457 405.078 320.027 408.089 317.934C411.1 315.841 413.633 313.134 415.522 309.991C416.839 307.86 417.821 305.539 418.433 303.11C418.682 302.232 418.867 301.336 418.986 300.431C419.044 300.043 419.112 299.684 419.151 299.354C419.19 299.024 419.151 298.714 419.209 298.442C419.209 297.918 419.277 297.471 419.297 297.209C419.282 297.071 419.282 296.931 419.297 296.792C419.31 296.931 419.31 297.071 419.297 297.209V298.452C419.297 298.723 419.297 299.034 419.297 299.364C419.297 299.694 419.209 300.063 419.151 300.46C419.053 301.372 418.885 302.274 418.646 303.158C418.066 305.616 417.11 307.97 415.813 310.136C412.724 315.388 407.894 319.393 402.161 321.456C396.429 323.519 390.155 323.511 384.427 321.433C383.253 321.013 382.108 320.514 381.002 319.938C379.879 319.328 378.802 318.637 377.78 317.871C376.728 317.098 375.729 316.255 374.79 315.348C373.867 314.39 373.008 313.372 372.219 312.3C370.583 310.11 369.315 307.668 368.463 305.07C366.652 299.697 366.652 293.878 368.463 288.504C369.317 285.907 370.585 283.466 372.219 281.274C373.008 280.203 373.871 279.188 374.8 278.236C375.736 277.327 376.731 276.481 377.78 275.704C380.724 273.53 384.091 271.999 387.665 271.209C391.239 270.42 394.938 270.391 398.524 271.123C402.109 271.855 405.501 273.332 408.48 275.458C411.458 277.585 413.956 280.314 415.813 283.467C417.109 285.635 418.064 287.988 418.646 290.445C418.885 291.333 419.054 292.238 419.151 293.153C419.209 293.551 419.268 293.91 419.297 294.24C419.326 294.57 419.297 294.88 419.297 295.162V296.394C419.311 296.526 419.314 296.659 419.306 296.792Z" fill="#407BFF"/> <path d="M409.544 300.642C411.68 291.663 406.133 282.653 397.154 280.517C388.175 278.381 379.164 283.929 377.028 292.908C374.893 301.887 380.44 310.897 389.419 313.033C398.398 315.169 407.409 309.621 409.544 300.642Z" fill="#407BFF"/> <path d="M430.466 282.4L429.767 282.788L427.681 283.894L419.655 288.077L406.971 294.686C405.681 295.358 404.286 295.804 402.846 296.006C402.062 296.104 401.266 296.036 400.51 295.805C399.754 295.574 399.055 295.186 398.46 294.667C397.827 294.119 397.377 293.391 397.169 292.58C397.05 292.157 397.039 291.711 397.135 291.283C397.232 290.854 397.434 290.456 397.722 290.125C398.328 289.462 399.166 289.059 400.061 288.999C400.53 288.936 401.007 289.026 401.42 289.257C401.833 289.488 402.16 289.847 402.351 290.28V290.348C402.376 293.15 401.379 295.865 399.547 297.986C398.589 299.132 397.405 300.068 396.07 300.736C394.734 301.404 393.274 301.789 391.783 301.868C390.21 301.952 388.635 301.72 387.153 301.185C385.671 300.65 384.312 299.823 383.155 298.752C381.905 297.657 381.035 296.192 380.671 294.57C380.503 293.715 380.619 292.829 381.001 292.046C381.389 291.245 382.059 290.616 382.884 290.28C383.311 290.116 383.772 290.063 384.225 290.126C384.679 290.189 385.108 290.365 385.475 290.639C386.174 291.197 386.685 291.956 386.94 292.813C387.217 293.642 387.351 294.511 387.338 295.385C387.377 295.817 387.377 296.253 387.338 296.685C387.317 297.122 387.262 297.557 387.173 297.986C386.49 301.515 384.57 304.684 381.758 306.924C380.34 308.098 378.693 308.964 376.922 309.465C375.15 309.966 373.294 310.093 371.471 309.835C367.714 309.206 364.344 307.155 362.057 304.109C360.722 302.402 359.799 300.409 359.359 298.287C358.883 296.177 359.049 293.974 359.835 291.959C360.261 290.951 360.986 290.098 361.912 289.513C362.85 288.933 363.971 288.723 365.056 288.921C365.587 289.042 366.085 289.279 366.515 289.615C366.944 289.95 367.294 290.376 367.54 290.862C368.014 291.782 368.36 292.761 368.569 293.774C369.48 297.697 369.23 301.801 367.851 305.585C366.545 309.228 364.027 312.311 360.718 314.319C357.57 316.238 353.87 317.048 350.208 316.619C348.46 316.406 346.77 315.86 345.229 315.008C343.738 314.167 342.421 313.051 341.347 311.718C339.273 309.212 338.138 306.062 338.135 302.809C338.166 301.278 338.496 299.769 339.105 298.364C339.367 297.669 339.769 297.035 340.286 296.502C340.804 295.97 341.426 295.55 342.114 295.268C342.813 295.051 343.558 295.03 344.268 295.21C344.935 295.429 345.542 295.798 346.044 296.287C346.98 297.231 347.681 298.381 348.092 299.645C348.513 300.813 348.733 302.043 348.742 303.285C348.742 303.886 348.742 304.468 348.742 305.051C348.742 305.633 348.694 306.196 348.635 306.749C348.271 310.561 347.16 314.265 345.365 317.648C344.237 319.78 342.841 321.76 341.211 323.538C340.658 324.15 340.192 324.577 339.882 324.868C339.571 325.159 339.406 325.295 339.406 325.295C339.406 325.295 339.552 325.13 339.853 324.829C340.153 324.528 340.59 324.092 341.134 323.471C342.719 321.671 344.081 319.687 345.19 317.56C346.936 314.189 348.01 310.511 348.354 306.73C348.412 306.177 348.441 305.614 348.451 305.041C348.461 304.469 348.451 303.886 348.451 303.294C348.434 302.085 348.214 300.888 347.801 299.752C347.412 298.545 346.747 297.445 345.86 296.54C345.395 296.094 344.834 295.762 344.22 295.569C343.58 295.409 342.908 295.429 342.279 295.627C341.64 295.896 341.063 296.293 340.584 296.794C340.104 297.295 339.733 297.889 339.493 298.539C338.927 299.899 338.628 301.355 338.61 302.828C338.63 305.987 339.741 309.042 341.755 311.475C342.803 312.786 344.099 313.878 345.57 314.687C347.04 315.497 348.656 316.008 350.324 316.192C353.886 316.601 357.483 315.809 360.543 313.94C363.762 311.977 366.206 308.965 367.463 305.41C368.808 301.715 369.048 297.709 368.152 293.881C367.958 292.912 367.631 291.975 367.181 291.095C366.97 290.667 366.666 290.29 366.292 289.993C365.918 289.696 365.482 289.486 365.017 289.378C364.056 289.203 363.065 289.397 362.241 289.921C361.397 290.444 360.741 291.223 360.368 292.143C359.618 294.059 359.462 296.155 359.922 298.16C360.348 300.209 361.241 302.132 362.533 303.779C364.742 306.716 367.993 308.696 371.616 309.311C373.373 309.55 375.161 309.421 376.865 308.932C378.569 308.442 380.153 307.603 381.515 306.468C384.237 304.307 386.096 301.243 386.756 297.83C386.911 297.005 386.976 296.166 386.95 295.327C386.966 294.503 386.841 293.682 386.581 292.9C386.352 292.14 385.903 291.465 385.29 290.959C384.987 290.734 384.63 290.589 384.255 290.538C383.88 290.487 383.499 290.532 383.146 290.668C382.434 290.964 381.854 291.509 381.515 292.202C381.177 292.894 381.075 293.678 381.224 294.434C381.579 295.943 382.401 297.301 383.573 298.316C384.68 299.348 385.983 300.147 387.405 300.665C388.827 301.184 390.339 301.411 391.851 301.334C393.281 301.259 394.681 300.89 395.962 300.248C397.243 299.607 398.377 298.708 399.294 297.607C401.07 295.565 402.043 292.947 402.031 290.241V290.309C401.872 289.943 401.593 289.641 401.241 289.453C400.889 289.265 400.483 289.2 400.09 289.271C399.299 289.315 398.555 289.662 398.013 290.241C397.761 290.529 397.585 290.875 397.5 291.247C397.416 291.62 397.425 292.008 397.528 292.376C397.712 293.131 398.125 293.809 398.712 294.317C399.267 294.808 399.92 295.175 400.628 295.392C401.336 295.61 402.083 295.674 402.817 295.579C404.222 295.394 405.585 294.967 406.845 294.317L419.558 287.844L427.642 283.758L429.748 282.701L430.466 282.4Z" fill="#263238"/> <path d="M343.53 42.9921C343.53 43.1376 323.004 43.2541 297.684 43.2541C272.364 43.2541 251.829 43.1376 251.829 42.9921C251.829 42.8465 272.355 42.7397 297.684 42.7397C323.014 42.7397 343.53 42.8562 343.53 42.9921Z" fill="#E0E0E0"/> <path d="M358.817 42.9921C356.709 43.3414 354.558 43.3414 352.45 42.9921C354.559 42.6556 356.708 42.6556 358.817 42.9921Z" fill="#E0E0E0"/> <path d="M450.099 42.9921C450.099 43.1376 431.369 43.2541 408.281 43.2541C385.193 43.2541 366.463 43.1376 366.463 42.9921C366.463 42.8465 385.174 42.7397 408.281 42.7397C431.388 42.7397 450.099 42.8562 450.099 42.9921Z" fill="#E0E0E0"/> <path d="M343.53 68.506C343.53 68.6516 323.004 68.7583 297.684 68.7583C272.364 68.7583 251.829 68.6516 251.829 68.506C251.829 68.3604 272.355 68.2537 297.684 68.2537C323.014 68.2537 343.53 68.3701 343.53 68.506Z" fill="#E0E0E0"/> <path d="M358.817 68.506C356.708 68.8424 354.559 68.8424 352.45 68.506C354.559 68.1696 356.708 68.1696 358.817 68.506Z" fill="#E0E0E0"/> <path d="M450.099 68.506C450.099 68.6516 431.369 68.7583 408.281 68.7583C385.193 68.7583 366.463 68.6516 366.463 68.506C366.463 68.3604 385.174 68.2537 408.281 68.2537C431.388 68.2537 450.099 68.3701 450.099 68.506Z" fill="#E0E0E0"/> <path d="M427.662 169.494L403.604 225.403C403.489 225.664 403.455 225.953 403.508 226.233C403.56 226.513 403.696 226.77 403.898 226.971C404.1 227.172 404.358 227.307 404.638 227.358C404.919 227.409 405.208 227.374 405.467 227.257L424.013 219.066C424.195 218.982 424.393 218.938 424.593 218.937C424.794 218.935 424.992 218.976 425.176 219.057C425.359 219.137 425.523 219.256 425.658 219.405C425.792 219.554 425.893 219.729 425.954 219.92L432.214 238.699C432.31 238.975 432.489 239.215 432.727 239.384C432.966 239.554 433.251 239.645 433.543 239.645C433.836 239.645 434.121 239.554 434.359 239.384C434.598 239.215 434.777 238.975 434.873 238.699L457.495 178.393L427.662 169.494Z" fill="#407BFF"/> <path d="M459.019 178.84L470.538 238.602C470.592 238.881 470.729 239.138 470.93 239.338C471.132 239.539 471.389 239.674 471.669 239.726C471.948 239.779 472.237 239.746 472.497 239.632C472.758 239.518 472.978 239.328 473.129 239.087L483.863 221.9C483.967 221.733 484.105 221.59 484.268 221.479C484.431 221.368 484.615 221.293 484.808 221.257C485.002 221.222 485.201 221.227 485.392 221.272C485.583 221.318 485.763 221.403 485.92 221.521L501.652 233.546C501.884 233.721 502.165 233.82 502.456 233.83C502.748 233.84 503.035 233.76 503.279 233.601C503.522 233.442 503.711 233.211 503.82 232.941C503.928 232.671 503.95 232.374 503.884 232.09L488.686 169.494L459.019 178.84Z" fill="#407BFF"/> <g opacity="0.3"> <path opacity="0.3" d="M427.662 169.494L403.604 225.403C403.489 225.664 403.455 225.953 403.508 226.233C403.56 226.513 403.696 226.77 403.898 226.971C404.1 227.172 404.358 227.307 404.638 227.358C404.919 227.409 405.208 227.374 405.467 227.257L424.013 219.066C424.195 218.982 424.393 218.938 424.593 218.937C424.794 218.935 424.992 218.976 425.176 219.057C425.359 219.137 425.523 219.256 425.658 219.405C425.792 219.554 425.893 219.729 425.954 219.92L432.214 238.699C432.31 238.975 432.489 239.215 432.727 239.384C432.966 239.554 433.251 239.645 433.543 239.645C433.836 239.645 434.121 239.554 434.359 239.384C434.598 239.215 434.777 238.975 434.873 238.699L457.495 178.393L427.662 169.494Z" fill="black"/> </g> <g opacity="0.3"> <path opacity="0.3" d="M459.019 178.84L470.538 238.602C470.592 238.881 470.729 239.138 470.93 239.338C471.132 239.539 471.389 239.674 471.669 239.726C471.948 239.779 472.237 239.746 472.497 239.632C472.758 239.518 472.978 239.328 473.129 239.087L483.863 221.9C483.967 221.733 484.105 221.59 484.268 221.479C484.431 221.368 484.615 221.293 484.808 221.257C485.002 221.222 485.201 221.227 485.392 221.272C485.583 221.318 485.763 221.403 485.92 221.521L501.652 233.546C501.884 233.721 502.165 233.82 502.456 233.83C502.748 233.84 503.035 233.76 503.279 233.601C503.522 233.442 503.711 233.211 503.82 232.941C503.928 232.671 503.95 232.374 503.884 232.09L488.686 169.494L459.019 178.84Z" fill="black"/> </g> <path d="M460.182 71.5344L468.082 65.731L474.293 73.3104L483.386 69.6614L487.511 78.551L497.235 77.27L499.011 86.9068L508.745 88.0811L508.075 97.8636L517.207 101.416L514.131 110.722L522.089 116.448L516.8 124.697L523.089 132.209L515.897 138.886L520.129 147.727L511.511 152.405L513.403 162.022L503.892 164.409L503.329 174.192L493.528 174.143L490.548 183.479L481.067 180.995L475.855 189.292L467.296 184.527L460.182 191.272L453.078 184.527L444.518 189.292L439.307 180.995L429.825 183.479L426.846 174.143L417.044 174.192L416.481 164.409L406.971 162.022L408.863 152.405L400.245 147.727L404.467 138.886L397.285 132.209L403.574 124.697L398.285 116.448L406.243 110.722L403.157 101.416L412.298 97.8636L411.629 88.0811L421.363 86.9068L423.139 77.27L432.863 78.551L436.987 69.6614L446.081 73.3104L452.282 65.731L460.182 71.5344Z" fill="#407BFF"/> <path d="M491.578 159.897C508.917 142.558 508.917 114.446 491.578 97.1068C474.239 79.7677 446.127 79.7677 428.788 97.1068C411.449 114.446 411.449 142.558 428.788 159.897C446.127 177.236 474.239 177.236 491.578 159.897Z" fill="white"/> <path d="M469.868 117.981L481.776 119.728C482.217 119.792 482.632 119.978 482.973 120.266C483.314 120.553 483.567 120.931 483.704 121.355C483.842 121.779 483.858 122.234 483.75 122.666C483.642 123.099 483.416 123.493 483.096 123.804L474.468 132.199C474.189 132.468 473.981 132.802 473.861 133.171C473.741 133.54 473.713 133.932 473.779 134.314L475.807 146.203C475.882 146.641 475.833 147.093 475.664 147.505C475.496 147.917 475.216 148.274 474.856 148.535C474.495 148.797 474.069 148.952 473.625 148.984C473.181 149.016 472.737 148.923 472.343 148.716L461.667 143.097C461.325 142.915 460.944 142.82 460.556 142.82C460.169 142.82 459.787 142.915 459.445 143.097L448.77 148.687C448.375 148.892 447.931 148.983 447.488 148.95C447.044 148.916 446.619 148.76 446.26 148.497C445.9 148.235 445.622 147.877 445.455 147.465C445.288 147.053 445.239 146.602 445.315 146.164L447.363 134.304C447.429 133.923 447.401 133.532 447.283 133.163C447.165 132.795 446.959 132.46 446.683 132.189L438.065 123.775C437.745 123.464 437.519 123.069 437.411 122.635C437.304 122.202 437.321 121.747 437.459 121.322C437.598 120.898 437.853 120.521 438.195 120.234C438.537 119.947 438.953 119.761 439.395 119.699L451.312 117.981C451.695 117.928 452.059 117.782 452.372 117.555C452.686 117.328 452.938 117.028 453.108 116.681L458.455 105.889C458.653 105.49 458.958 105.154 459.336 104.919C459.714 104.684 460.15 104.56 460.595 104.56C461.04 104.56 461.476 104.684 461.855 104.919C462.233 105.154 462.538 105.49 462.735 105.889L468.044 116.7C468.22 117.046 468.478 117.344 468.796 117.568C469.114 117.791 469.482 117.933 469.868 117.981Z" fill="#407BFF"/> <path d="M632.676 163.768C632.676 163.768 621.108 211.157 569.313 200.297C569.313 200.297 584.327 152.307 632.676 163.768Z" fill="#263238"/> <path d="M607.677 235.535C607.677 235.535 583.9 270.987 544.596 246.473C544.596 246.473 571.381 211.565 607.677 235.535Z" fill="#263238"/> <path d="M569.771 289.62C569.771 289.62 535.086 319.113 501.837 282.555C501.895 282.555 539.482 254.489 569.771 289.62Z" fill="#263238"/> <path d="M533.038 174.958C533.038 174.958 571.508 193.446 552.836 235.817C552.836 235.817 514.511 214.272 533.038 174.958Z" fill="#263238"/> <path d="M524.691 226.044C524.691 226.044 543.877 251.946 515.277 274.199C515.277 274.199 497.314 246.259 524.691 226.044Z" fill="#263238"/> <path d="M613.674 108.354C613.674 108.354 618.089 146.766 576.601 152.918C576.621 152.918 574.573 113.109 613.674 108.354Z" fill="#263238"/> <path d="M554.173 69.5348C554.173 69.5348 587.723 83.5485 573.156 122.911C573.156 122.834 539.529 106.044 554.173 69.5348Z" fill="#263238"/> <path d="M533.921 125.609C533.921 125.609 578.349 130.675 574.438 179.034C574.438 179.034 529.068 170.901 533.921 125.609Z" fill="#263238"/> <path d="M470.692 294.405C470.692 294.405 470.877 294.337 471.255 294.23L472.915 293.793C474.38 293.405 476.544 292.891 479.281 291.998C487.014 289.605 494.491 286.451 501.602 282.584C512.159 276.816 521.903 269.672 530.581 261.34C535.712 256.439 540.495 251.186 544.895 245.619L548.234 241.135L549.913 238.874C550.456 238.097 550.951 237.292 551.485 236.496L554.62 231.644L557.531 226.578C558.006 225.724 558.501 224.879 558.967 224.035C559.433 223.191 559.831 222.288 560.258 221.425C561.112 219.687 561.976 217.979 562.801 216.252C563.626 214.524 564.276 212.758 565.013 211.031C565.372 210.167 565.761 209.313 566.091 208.449L567.061 205.829L568.915 200.666C569.429 198.929 569.885 197.201 570.438 195.503C570.691 194.649 570.943 193.805 571.186 192.96C571.428 192.116 571.603 191.262 571.816 190.418L572.991 185.41C575.526 173.649 576.637 161.626 576.3 149.599C576.034 141.496 575.132 133.426 573.602 125.464C572.991 122.649 572.457 120.485 572.137 119.01C571.972 118.282 571.846 117.729 571.758 117.331C571.671 116.933 571.651 116.758 571.651 116.758C571.651 116.758 571.71 116.943 571.807 117.321L572.234 118.99C572.593 120.456 573.204 122.62 573.796 125.425C577.845 145.26 577.726 165.72 573.447 185.507C573.059 187.157 572.667 188.833 572.273 190.534C572.069 191.379 571.904 192.242 571.651 193.087C571.399 193.931 571.156 194.785 570.904 195.639L569.38 200.812L567.527 205.994C567.216 206.867 566.906 207.741 566.556 208.624C566.207 209.507 565.838 210.351 565.469 211.225L563.257 216.465C562.432 218.193 561.558 219.911 560.714 221.648L559.414 224.268C558.938 225.122 558.443 225.966 557.968 226.82L555.056 231.906L551.902 236.758C551.368 237.554 550.873 238.359 550.32 239.136L548.632 241.416L545.284 245.91C540.883 251.5 536.093 256.773 530.949 261.69C522.235 270.032 512.443 277.17 501.835 282.914C494.676 286.761 487.145 289.873 479.359 292.202C476.612 293.065 474.429 293.551 472.954 293.9L471.284 294.298L470.692 294.405Z" fill="#263238"/> <path d="M520.527 246.929C520.578 247.289 520.578 247.655 520.527 248.016C520.469 248.705 520.362 249.714 520.216 250.927C519.915 253.402 519.401 256.808 518.673 260.545C517.945 264.281 517.13 267.639 516.48 270.036C516.15 271.239 515.878 272.21 515.665 272.879C515.581 273.233 515.454 273.576 515.286 273.898C515.31 273.537 515.372 273.179 515.471 272.831C515.655 272.045 515.878 271.084 516.13 269.92C516.693 267.503 517.45 264.145 518.178 260.418C518.906 256.692 519.469 253.305 519.857 250.85C520.042 249.704 520.206 248.734 520.333 247.938C520.363 247.596 520.428 247.258 520.527 246.929Z" fill="#455A64"/> <path d="M529.981 285.399C529.616 285.414 529.25 285.382 528.894 285.302L525.982 284.865C523.498 284.496 520.053 284.011 516.278 283.564C512.502 283.118 509.009 282.798 506.505 282.594L503.535 282.332C503.168 282.319 502.804 282.267 502.448 282.177C502.812 282.129 503.181 282.129 503.545 282.177C504.253 282.177 505.272 282.177 506.524 282.274C509.048 282.4 512.512 282.662 516.336 283.108C520.16 283.555 523.595 284.079 526.041 284.564C527.283 284.797 528.273 285.001 528.952 285.156C529.304 285.194 529.649 285.275 529.981 285.399Z" fill="#455A64"/> <path d="M576.738 238.398C576.322 238.544 575.893 238.648 575.457 238.709L571.944 239.398C568.974 239.99 564.888 240.844 560.405 241.921C555.921 242.998 551.894 244.124 548.982 244.959L545.537 245.929C545.124 246.074 544.699 246.178 544.266 246.24C544.648 246.024 545.056 245.854 545.479 245.735C546.275 245.444 547.42 245.056 548.885 244.59C551.797 243.668 555.785 242.494 560.279 241.407C564.772 240.32 568.887 239.514 571.924 239.019C573.419 238.767 574.632 238.592 575.476 238.486C575.893 238.414 576.315 238.385 576.738 238.398Z" fill="#455A64"/> <path d="M542.78 202.054C543.08 202.418 543.344 202.812 543.566 203.228C544.061 204.004 544.712 205.169 545.459 206.596C549.351 214.191 551.731 222.471 552.466 230.974C552.602 232.595 552.66 233.886 552.66 234.856C552.705 235.327 552.705 235.802 552.66 236.273C552.563 235.81 552.511 235.339 552.505 234.866C552.456 233.963 552.339 232.653 552.155 231.032C551.237 222.606 548.88 214.4 545.187 206.77C544.479 205.305 543.887 204.14 543.45 203.335C543.186 202.93 542.962 202.501 542.78 202.054Z" fill="#455A64"/> <path d="M594.314 179.956C593.999 180.229 593.657 180.469 593.295 180.674L590.442 182.528C588.054 184.119 584.813 186.41 581.416 189.146C578.019 191.883 575.108 194.6 573.06 196.609L570.653 199.016C570.379 199.328 570.073 199.611 569.741 199.86C569.964 199.512 570.221 199.187 570.508 198.89C571.032 198.279 571.818 197.415 572.808 196.376C575.409 193.67 578.177 191.129 581.096 188.768C584.01 186.406 587.066 184.224 590.247 182.237C591.48 181.48 592.48 180.897 593.159 180.509C593.52 180.278 593.908 180.093 594.314 179.956Z" fill="#455A64"/> <path d="M545.799 144.873C545.932 144.953 546.055 145.047 546.167 145.155L547.138 146.028C547.982 146.795 549.185 147.969 550.631 149.357C553.543 152.21 557.425 156.276 561.462 161.003C565.499 165.729 568.896 170.222 571.254 173.541C572.428 175.201 573.36 176.559 573.981 177.51L574.69 178.617C574.845 178.879 574.923 179.015 574.903 179.024C574.787 178.922 574.686 178.805 574.602 178.675L573.816 177.627L570.963 173.745C568.537 170.484 565.14 166.039 561.074 161.323C557.008 156.606 553.213 152.501 550.399 149.59L547.002 146.203L546.09 145.232C545.886 145.009 545.789 144.893 545.799 144.873Z" fill="#455A64"/> <path d="M599.311 120.834C599.022 121.262 598.697 121.665 598.34 122.038L595.642 125.221C593.381 127.919 590.344 131.713 587.219 136.081C584.094 140.448 581.493 144.553 579.668 147.571L577.591 151.142C577.355 151.596 577.079 152.028 576.767 152.433C576.947 151.955 577.165 151.491 577.417 151.045C577.863 150.172 578.552 148.92 579.426 147.387C581.173 144.32 583.744 140.176 586.879 135.789C590.014 131.403 593.109 127.628 595.439 124.988C596.603 123.658 597.574 122.61 598.263 121.902C598.581 121.517 598.932 121.16 599.311 120.834Z" fill="#455A64"/> <path d="M559.153 84.3636C559.418 84.8196 559.651 85.293 559.852 85.7805C560.269 86.6928 560.823 88.0321 561.56 89.6625C562.967 92.9815 564.831 97.6204 566.742 102.793C568.654 107.966 570.256 112.692 571.352 116.137C571.905 117.855 572.323 119.252 572.614 120.223C572.783 120.72 572.913 121.229 573.002 121.747C572.763 121.277 572.568 120.787 572.42 120.281L571.013 116.244C569.838 112.838 568.179 108.131 566.267 102.968C564.355 97.8048 562.55 93.1562 561.23 89.7983C560.59 88.1776 560.066 86.8869 559.668 85.8097C559.448 85.3462 559.276 84.8617 559.153 84.3636Z" fill="#455A64"/> <path d="M51.5918 153.219C51.5918 153.219 62.5291 197.997 111.47 187.739C111.441 187.739 97.2529 142.389 51.5918 153.219Z" fill="#263238"/> <path d="M75.2129 221.036C75.2129 221.036 97.6795 254.537 134.8 231.372C134.8 231.372 109.49 198.385 75.2129 221.036Z" fill="#263238"/> <path d="M111.004 272.142C111.004 272.142 143.787 300.024 175.182 265.475C175.182 265.475 139.633 238.942 111.004 272.142Z" fill="#263238"/> <path d="M145.728 163.797C145.728 163.797 109.374 181.266 127.017 221.298C127.007 221.298 163.265 200.947 145.728 163.797Z" fill="#263238"/> <path d="M153.609 212.069C153.609 212.069 135.48 236.545 162.498 257.575C162.498 257.575 179.482 231.178 153.609 212.069Z" fill="#263238"/> <path d="M69.527 100.852C69.527 100.852 65.3539 137.148 104.561 142.961C104.561 142.961 106.463 105.345 69.527 100.852Z" fill="#263238"/> <path d="M125.756 64.1195C125.756 64.1195 94.0412 77.3666 107.812 114.584C107.812 114.536 139.586 98.6492 125.756 64.1195Z" fill="#263238"/> <path d="M144.894 117.156C144.894 117.156 102.901 121.951 106.599 167.621C106.599 167.641 149.484 159.964 144.894 117.156Z" fill="#263238"/> <path d="M213.846 279.77L213.273 279.663L211.614 279.294C210.158 278.955 208.004 278.498 205.277 277.693C197.55 275.541 190.026 272.719 182.79 269.26C177.78 266.892 172.919 264.221 168.233 261.263C162.84 257.892 157.694 254.143 152.832 250.044C147.443 245.528 142.41 240.603 137.78 235.312L134.247 231.052C133.102 229.586 132.015 228.063 130.879 226.558C130.317 225.801 129.754 225.035 129.181 224.278L127.619 221.9C126.59 220.289 125.493 218.698 124.494 217.048C122.553 213.67 120.612 210.39 119.011 206.955C117.264 203.607 115.886 200.161 114.449 196.784C104.322 171.605 101.778 144.014 107.132 117.409C107.714 114.633 108.306 112.508 108.646 111.052C108.83 110.343 108.966 109.79 109.063 109.402C109.16 109.014 109.228 108.849 109.228 108.849C109.228 108.849 109.228 109.043 109.112 109.421C108.995 109.8 108.908 110.392 108.743 111.071C108.432 112.537 107.869 114.672 107.316 117.447C105.835 125.311 104.995 133.282 104.803 141.282C104.524 160.205 107.959 178.999 114.915 196.6C116.342 199.948 117.72 203.393 119.467 206.731C121.049 210.148 123.028 213.418 124.921 216.786C125.891 218.435 127.007 220.017 128.036 221.638L129.598 224.025L131.287 226.296C132.413 227.801 133.5 229.324 134.635 230.78L138.158 235.021C146.959 245.075 157.164 253.809 168.456 260.952C179.906 268.191 192.322 273.774 205.335 277.538C208.042 278.372 210.187 278.858 211.643 279.226L213.283 279.653L213.846 279.77Z" fill="#263238"/> <path d="M157.54 231.799C157.647 232.114 157.721 232.439 157.763 232.77C157.89 233.527 158.035 234.439 158.21 235.516C158.579 237.835 159.122 241.038 159.801 244.561C160.481 248.084 161.199 251.247 161.742 253.538C161.985 254.596 162.189 255.479 162.363 256.255C162.459 256.57 162.515 256.896 162.528 257.226C162.371 256.917 162.251 256.591 162.169 256.255C161.975 255.634 161.704 254.712 161.393 253.577C160.772 251.306 160.015 248.142 159.316 244.609C158.617 241.077 158.152 237.816 157.87 235.516C157.725 234.351 157.628 233.4 157.579 232.74C157.529 232.429 157.516 232.113 157.54 231.799Z" fill="#455A64"/> <path d="M148.64 268.153C148.952 268.026 149.278 267.932 149.61 267.872C150.251 267.726 151.202 267.532 152.366 267.309C154.705 266.872 157.956 266.338 161.566 265.931C165.177 265.523 168.457 265.261 170.835 265.154C172.028 265.096 172.989 265.057 173.649 265.057C173.994 265.012 174.343 265.012 174.687 265.057C174.355 265.147 174.013 265.196 173.668 265.203L170.864 265.455C168.496 265.659 165.225 265.97 161.625 266.426C158.024 266.882 154.831 267.309 152.425 267.658L149.639 268.056C149.312 268.132 148.976 268.164 148.64 268.153Z" fill="#455A64"/> <path d="M104.426 223.725C104.843 223.71 105.26 223.746 105.668 223.831C106.464 223.928 107.609 224.093 109.016 224.326C111.85 224.792 115.732 225.549 119.983 226.578C124.233 227.607 128.028 228.713 130.755 229.596C132.114 230.033 133.21 230.411 133.967 230.683C134.364 230.801 134.748 230.961 135.112 231.159C134.698 231.11 134.291 231.012 133.899 230.867L130.648 229.897C127.902 229.111 124.097 228.063 119.856 227.034C115.615 226.005 111.763 225.2 108.958 224.637L105.639 223.987C105.227 223.937 104.821 223.849 104.426 223.725Z" fill="#455A64"/> <path d="M136.518 189.399C136.361 189.817 136.166 190.22 135.936 190.602C135.528 191.359 134.965 192.465 134.296 193.853C132.561 197.45 131.132 201.187 130.026 205.023C128.93 208.864 128.155 212.788 127.706 216.757C127.541 218.28 127.425 219.522 127.376 220.376C127.37 220.824 127.318 221.269 127.221 221.706C127.165 221.262 127.149 220.814 127.172 220.367C127.172 219.503 127.221 218.261 127.347 216.727C127.697 212.716 128.431 208.748 129.54 204.878C130.651 201.013 132.137 197.265 133.975 193.688C134.684 192.32 135.295 191.233 135.761 190.505C135.971 190.109 136.225 189.738 136.518 189.399Z" fill="#455A64"/> <path d="M87.8203 168.524C88.1894 168.659 88.5438 168.831 88.8781 169.038C89.5478 169.397 90.4988 169.95 91.6634 170.668C94.6722 172.544 97.5632 174.602 100.32 176.831C103.073 179.064 105.686 181.466 108.142 184.022C109.113 184.993 109.821 185.818 110.316 186.4C110.591 186.698 110.834 187.023 111.044 187.37C110.722 187.137 110.429 186.866 110.17 186.565L107.88 184.265C105.939 182.324 103.202 179.82 99.9901 177.209C96.7778 174.599 93.7111 172.454 91.4596 170.96L88.7714 169.193C88.4291 169.008 88.1099 168.784 87.8203 168.524Z" fill="#455A64"/> <path d="M133.666 135.362C133.318 135.801 132.938 136.213 132.53 136.595L129.337 139.846C126.668 142.592 123.039 146.474 119.234 150.929C115.43 155.383 112.189 159.586 109.889 162.672L107.191 166.33C106.881 166.793 106.538 167.23 106.162 167.641C106.413 167.144 106.702 166.667 107.026 166.214C107.608 165.311 108.491 164.021 109.598 162.458C111.83 159.314 115.042 155.073 118.856 150.599C122.67 146.125 126.319 142.321 129.085 139.594C130.463 138.245 131.589 137.168 132.394 136.449C132.791 136.057 133.216 135.694 133.666 135.362Z" fill="#455A64"/> <path d="M83.0938 112.644C83.4702 112.937 83.8209 113.261 84.1419 113.614C84.7921 114.284 85.7043 115.274 86.801 116.525C89.6727 119.807 92.3742 123.234 94.8948 126.793C97.8062 130.937 100.291 134.858 101.94 137.75C102.765 139.196 103.406 140.38 103.881 141.214C104.127 141.634 104.331 142.076 104.493 142.534C104.199 142.148 103.936 141.739 103.707 141.312L101.678 137.934C99.951 135.091 97.486 131.219 94.5357 127.084C91.5855 122.95 88.7128 119.369 86.5778 116.817C85.6073 115.594 84.7048 114.585 84.0448 113.808C83.6876 113.455 83.3688 113.064 83.0938 112.644Z" fill="#455A64"/> <path d="M121.058 78.1818C120.936 78.6635 120.774 79.1342 120.573 79.589C120.195 80.5594 119.7 81.8308 119.098 83.3544C117.856 86.5279 116.187 90.9242 114.343 95.8057C112.499 100.687 110.965 105.132 109.82 108.354C109.277 109.897 108.85 111.178 108.491 112.168C108.352 112.644 108.166 113.106 107.938 113.546C108.017 113.058 108.137 112.578 108.297 112.11C108.559 111.139 108.966 109.868 109.481 108.228C110.519 104.977 112.023 100.464 113.838 95.6116C115.653 90.7592 117.409 86.3532 118.739 83.2088C119.409 81.6367 119.962 80.375 120.36 79.5016C120.551 79.0407 120.785 78.5988 121.058 78.1818Z" fill="#455A64"/> <path d="M213.796 123.882C220.871 124.804 221.919 132.053 224.539 138.138C227.16 144.223 232.177 149.638 236.039 155.083C238.077 157.994 240.892 160.547 241.591 163.963C242.357 167.534 240.727 171.231 239.96 174.871C239.193 178.51 239.737 182.965 243.231 184.576C242.838 185.034 242.345 185.394 241.789 185.628C241.233 185.863 240.63 185.964 240.028 185.925C240.028 187.603 238.407 189.049 236.641 189.535C234.861 189.889 233.027 189.869 231.255 189.477C231.73 190.593 230.721 191.942 229.469 192.388C228.199 192.736 226.858 192.736 225.587 192.388C224.326 192.03 223.005 191.934 221.705 192.107C218.794 192.737 217.096 195.988 214.184 196.396C210.186 196.978 207.313 191.864 203.363 192.757C201.51 193.174 200.277 194.795 198.754 195.901C197.23 197.007 194.658 196.726 193.901 195.134C191.786 197.803 188.515 200.394 185.07 201.103C185.316 200.52 185.384 199.876 185.265 199.254C185.145 198.633 184.845 198.06 184.4 197.609C182.511 199.152 180.242 200.157 177.83 200.521C178.555 199.855 179.126 199.04 179.505 198.132C179.884 197.223 180.06 196.244 180.023 195.261C179.212 195.898 178.265 196.342 177.256 196.559C176.247 196.776 175.202 196.76 174.2 196.512C177.752 194.484 178.082 189.768 176.84 186.225C175.598 182.683 173.172 179.51 172.706 175.773C172.192 171.707 176.966 166.563 176.035 162.575C174.598 156.422 174.705 152.676 174.957 146.931C175.122 143.175 176.782 139.836 178.432 136.333C180.363 131.993 183.672 128.412 187.845 126.143C191.601 124.027 197.016 122.086 201.316 121.989C208.982 121.824 212.098 121.582 218.163 125.638" fill="#263238"/> <path d="M190.175 173.978C187.657 169.09 185.569 163.992 183.935 158.741C182.296 153.466 181.996 147.867 183.061 142.447C183.246 141.641 185.002 136.119 185.837 136.09C186.429 136.09 185.565 141.108 185.934 141.583C189.418 146.067 190.981 151.822 191.281 157.489C191.525 163.013 191.154 168.546 190.175 173.988" fill="#263238"/> <path d="M223.696 220.464C215.224 221.434 194.843 212.525 193.708 204.082L186.837 153.268C184.566 139.681 190.573 127.065 204.228 125.124L205.499 125.017C211.673 124.521 217.807 126.369 222.679 130.192C227.551 134.016 230.804 139.535 231.79 145.649C233.731 157.441 235.672 170.484 236.089 176.86C236.982 190.049 223.968 193.155 223.968 193.155C223.968 193.155 224.298 196.202 224.773 200.055C225.85 208.711 224.472 218.203 223.696 220.435V220.464Z" fill="#FFBE9D"/> <path d="M223.967 193.155C217.876 193.628 211.776 192.344 206.392 189.457C206.392 189.457 211.322 199.036 224.375 196.794L223.967 193.155Z" fill="#EB996E"/> <path d="M226.879 157.121C226.922 157.61 226.773 158.096 226.463 158.477C226.153 158.858 225.707 159.102 225.219 159.159C224.981 159.199 224.737 159.19 224.502 159.133C224.267 159.077 224.046 158.973 223.852 158.829C223.658 158.685 223.496 158.503 223.374 158.295C223.252 158.086 223.173 157.855 223.142 157.616C223.099 157.127 223.248 156.64 223.558 156.259C223.868 155.878 224.314 155.634 224.802 155.578C225.04 155.536 225.285 155.544 225.52 155.6C225.755 155.656 225.977 155.76 226.171 155.904C226.365 156.048 226.528 156.23 226.65 156.44C226.771 156.649 226.849 156.881 226.879 157.121Z" fill="#263238"/> <path d="M229.45 151.686C229.236 151.948 227.732 151.007 225.704 151.172C223.675 151.337 222.278 152.472 222.035 152.239C221.793 152.006 222.123 151.676 222.734 151.162C223.56 150.48 224.577 150.073 225.645 149.997C226.698 149.907 227.752 150.155 228.654 150.706C229.314 151.133 229.556 151.56 229.45 151.686Z" fill="#263238"/> <path d="M207.837 158.605C207.869 159.093 207.716 159.575 207.408 159.954C207.101 160.334 206.661 160.583 206.178 160.653C205.94 160.692 205.696 160.682 205.462 160.625C205.228 160.568 205.007 160.464 204.813 160.32C204.62 160.176 204.457 159.995 204.335 159.787C204.212 159.579 204.133 159.349 204.101 159.11C204.069 158.623 204.222 158.141 204.53 157.761C204.837 157.382 205.277 157.132 205.76 157.062C205.998 157.025 206.241 157.036 206.475 157.094C206.709 157.152 206.929 157.255 207.122 157.399C207.315 157.542 207.478 157.723 207.601 157.93C207.724 158.137 207.804 158.367 207.837 158.605Z" fill="#263238"/> <path d="M209.633 153.743C209.419 154.005 207.905 153.074 205.886 153.239C203.868 153.404 202.451 154.539 202.218 154.306C201.985 154.073 202.296 153.743 202.907 153.219C203.733 152.539 204.751 152.135 205.819 152.064C206.874 151.973 207.932 152.221 208.837 152.773C209.497 153.2 209.778 153.627 209.633 153.743Z" fill="#263238"/> <path d="M218.154 168.728C219.193 168.305 220.282 168.017 221.395 167.874C221.91 167.777 222.366 167.631 222.443 167.272C222.448 166.734 222.285 166.209 221.978 165.768L220.134 161.954C217.562 156.519 215.65 152.026 215.873 151.929C216.096 151.832 218.358 156.15 220.929 161.585L222.715 165.467C223.089 166.065 223.241 166.777 223.142 167.476C223.082 167.664 222.98 167.836 222.844 167.979C222.708 168.122 222.541 168.232 222.356 168.301C222.073 168.399 221.78 168.464 221.483 168.495C220.387 168.712 219.269 168.791 218.154 168.728Z" fill="#263238"/> <path d="M208.808 146.203C208.575 146.737 206.566 146.348 204.169 146.494C201.772 146.64 199.802 147.164 199.52 146.649C199.394 146.407 199.763 145.902 200.568 145.417C201.646 144.831 202.842 144.496 204.067 144.437C205.292 144.379 206.515 144.597 207.643 145.077C208.536 145.475 208.953 145.931 208.808 146.203Z" fill="#263238"/> <path d="M228.596 146.989C228.218 147.484 226.529 147.164 224.539 147.329C222.55 147.494 220.91 147.989 220.483 147.542C220.289 147.329 220.483 146.843 221.201 146.339C222.164 145.717 223.269 145.349 224.413 145.269C225.557 145.19 226.702 145.401 227.742 145.883C228.48 146.29 228.761 146.746 228.596 146.989Z" fill="#263238"/> <path d="M188.7 162.944C188.467 162.866 179.432 161.003 180.441 169.98C181.45 178.957 190.262 176.103 190.252 175.803C190.243 175.502 188.7 162.944 188.7 162.944Z" fill="#FFBE9D"/> <path d="M187.127 172.745C187.127 172.745 186.982 172.872 186.73 173.027C186.375 173.223 185.959 173.279 185.565 173.182C184.595 172.94 183.624 171.523 183.372 169.902C183.266 169.134 183.332 168.351 183.566 167.612C183.617 167.322 183.738 167.049 183.919 166.817C184.1 166.585 184.335 166.402 184.604 166.282C184.778 166.215 184.97 166.21 185.147 166.269C185.324 166.327 185.475 166.445 185.575 166.602C185.73 166.845 185.691 167.029 185.74 167.039C185.788 167.049 185.914 166.864 185.798 166.505C185.725 166.287 185.578 166.101 185.381 165.981C185.112 165.821 184.792 165.772 184.488 165.845C184.128 165.962 183.804 166.169 183.546 166.446C183.288 166.722 183.104 167.06 183.013 167.427C182.721 168.248 182.631 169.127 182.751 169.989C183.013 171.794 184.129 173.386 185.468 173.619C185.717 173.664 185.974 173.651 186.217 173.582C186.461 173.513 186.686 173.39 186.875 173.221C187.127 172.969 187.157 172.755 187.127 172.745Z" fill="#EB996E"/> <path d="M224.171 131.471C225.53 130.501 220.6 126.308 216.835 125.124C211.138 123.329 202.714 122.824 197.9 124.843C192.078 127.269 187.507 130.85 185.158 136.673C182.933 142.575 182.32 148.963 183.382 155.18C183.539 157.101 184.209 158.945 185.323 160.517C186.818 162.352 189.38 163.312 189.603 166.059C189.666 167.066 190.118 168.01 190.865 168.689C192.728 170.232 194.533 168.349 195.261 166.593C196.804 162.837 196.513 158.606 196.231 154.559C196.164 151.665 195.62 148.803 194.62 146.086C193.999 144.64 193.126 143.311 192.582 141.836C192.268 141.115 192.114 140.335 192.131 139.549C192.148 138.764 192.335 137.991 192.679 137.284C192.854 137.003 193.055 136.74 193.281 136.498C194.399 135.252 195.829 134.325 197.424 133.814C199.018 133.302 200.72 133.224 202.355 133.587C207.625 134.761 216.592 136.382 218.64 134.392C221.551 131.481 222.162 129.831 222.162 129.831L224.171 131.471Z" fill="#263238"/> <path d="M212.737 170.465C212.621 170.465 212.601 170.999 212.873 171.756C213.247 172.752 213.926 173.605 214.814 174.192C215.667 174.759 216.618 175.164 217.619 175.385C218.366 175.56 218.851 175.579 218.89 175.463C218.929 175.346 218.521 175.084 217.842 174.754C216.98 174.37 216.149 173.919 215.358 173.405C213.552 172.251 213.019 170.387 212.737 170.465Z" fill="#263238"/> <path d="M188.991 164.118C189.069 164.273 189.137 164.438 189.214 164.622C189.214 164.642 189.127 164.438 188.991 164.118Z" fill="#407BFF"/> <path d="M185.914 162.701C185.914 162.701 187.419 160.76 188.991 164.079C187.118 159.673 174.667 127.812 208.808 123.61C208.808 123.61 196.473 121.436 189.039 127.57C189.039 127.608 173.919 136.644 185.914 162.701Z" fill="#455A64"/> <path d="M251.198 323.587L171.842 324.664C171.842 324.664 149.647 315.377 143.553 315.125C137.458 314.872 125.347 315.649 119.747 324.664C113.924 333.981 113.157 350.411 130.985 362.348C148.357 373.994 227.771 384.727 238.708 383.699L258.72 356.797C258.72 356.797 258.933 334.719 258.72 333.661C258.506 332.603 255.148 323.15 255.148 323.15L251.198 323.587Z" fill="#263238"/> <path d="M203.692 360.854L162.573 376.119L181.313 427.38C186.098 425.284 186.234 395.179 186.234 395.179L212.98 386.445L203.692 360.854Z" fill="#407BFF"/> <g opacity="0.6"> <path opacity="0.6" d="M182.663 378.516C182.333 378.079 181.854 377.779 181.317 377.673C180.779 377.567 180.222 377.664 179.752 377.944C179.294 378.257 178.977 378.736 178.866 379.28C178.756 379.823 178.861 380.388 179.16 380.855C179.51 381.32 180.021 381.638 180.593 381.748C181.165 381.857 181.758 381.75 182.255 381.447C182.689 381.071 182.961 380.542 183.013 379.97C183.066 379.399 182.895 378.829 182.537 378.38" fill="white"/> </g> <path d="M162.573 376.119L166.727 374.586L183.225 424.401C183.225 424.401 183.07 427.05 181.362 427.38L162.573 376.119Z" fill="#263238"/> <path d="M186.797 395.917C186.545 395.995 185.982 394.782 184.72 393.85C183.459 392.918 182.178 392.637 182.188 392.375C182.197 392.113 183.789 391.948 185.283 393.112C186.778 394.277 187.05 395.878 186.797 395.917Z" fill="#263238"/> <path d="M186.544 402.099C186.321 402.245 185.496 401.323 184.128 400.857C182.76 400.391 181.556 400.556 181.469 400.304C181.381 400.051 182.75 399.333 184.438 399.983C186.127 400.634 186.777 402.012 186.544 402.099Z" fill="#263238"/> <path d="M181.227 407.505C181.091 407.301 182.198 406.534 183.818 406.631C185.439 406.728 186.4 407.747 186.225 407.932C186.05 408.116 185.06 407.66 183.741 407.563C182.421 407.466 181.344 407.747 181.227 407.505Z" fill="#263238"/> <path d="M192.679 393.248C192.407 393.248 192.339 391.957 191.708 390.579C191.078 389.201 190.243 388.26 190.408 388.046C190.573 387.833 191.854 388.57 192.553 390.211C193.251 391.851 192.921 393.306 192.679 393.248Z" fill="#263238"/> <path d="M198.317 389.793C198.21 389.793 197.695 388.9 197.346 387.222C197.175 386.235 197.123 385.231 197.191 384.232C197.232 383.639 197.313 383.049 197.433 382.466C197.491 382.128 197.599 381.801 197.754 381.496C197.871 381.266 198.061 381.081 198.295 380.972C198.529 380.863 198.793 380.836 199.044 380.894C199.264 380.955 199.466 381.067 199.635 381.22C199.803 381.373 199.934 381.564 200.015 381.777C200.133 382.089 200.208 382.415 200.238 382.748C200.425 384.356 200.202 385.985 199.588 387.484C198.918 389.075 198.132 389.822 198.054 389.754C197.977 389.687 198.501 388.784 198.967 387.26C199.236 386.365 199.389 385.439 199.423 384.504C199.436 383.956 199.407 383.408 199.336 382.864C199.277 382.272 199.112 381.806 198.821 381.758C198.714 381.758 198.676 381.758 198.549 381.913C198.442 382.148 198.364 382.396 198.317 382.651C198.195 383.189 198.105 383.733 198.045 384.281C197.959 385.224 197.959 386.172 198.045 387.115C198.195 388.001 198.286 388.895 198.317 389.793Z" fill="#263238"/> <path d="M197.833 389.609C197.765 389.541 198.483 388.716 200.065 388.027C200.991 387.641 201.975 387.411 202.976 387.348C203.576 387.32 204.177 387.349 204.771 387.435C205.161 387.449 205.54 387.564 205.871 387.768C206.203 387.972 206.476 388.258 206.664 388.6C206.746 388.828 206.76 389.076 206.703 389.312C206.646 389.549 206.521 389.763 206.344 389.929C206.095 390.174 205.81 390.38 205.499 390.541C204.959 390.837 204.376 391.05 203.772 391.171C202.758 391.385 201.707 391.342 200.715 391.045C199.026 390.531 198.347 389.599 198.425 389.541C199.22 389.885 200.037 390.177 200.87 390.414C201.771 390.585 202.698 390.559 203.587 390.337C204.101 390.212 204.594 390.016 205.053 389.754C205.567 389.473 205.926 389.104 205.8 388.92C205.674 388.736 205.14 388.386 204.626 388.338C204.091 388.245 203.548 388.2 203.005 388.202C202.073 388.219 201.148 388.369 200.259 388.648C198.764 389.124 197.92 389.735 197.833 389.609Z" fill="#263238"/> <path d="M237.612 354.516L277.402 372.955L254.692 422.576C250.083 420.121 252.315 390.094 252.315 390.094L226.335 379.312L237.612 354.516Z" fill="#407BFF"/> <g opacity="0.6"> <path opacity="0.6" d="M257.186 373.78C257.549 373.382 258.043 373.128 258.579 373.066C259.114 373.003 259.653 373.136 260.098 373.441C260.518 373.788 260.79 374.284 260.857 374.825C260.923 375.366 260.78 375.913 260.457 376.352C260.071 376.786 259.539 377.062 258.962 377.127C258.384 377.191 257.804 377.04 257.332 376.702C256.932 376.287 256.709 375.734 256.709 375.158C256.709 374.583 256.932 374.03 257.332 373.615" fill="white"/> </g> <path d="M277.401 372.975L273.384 371.112L253.071 419.48C253.071 419.48 253.023 422.139 254.692 422.596L277.401 372.975Z" fill="#263238"/> <path d="M251.694 390.764C251.946 390.861 252.606 389.696 253.935 388.823C255.265 387.949 256.565 387.852 256.575 387.552C256.585 387.251 255.013 387.008 253.431 388.047C251.849 389.085 251.451 390.764 251.694 390.764Z" fill="#263238"/> <path d="M251.508 396.985C251.712 397.15 252.605 396.286 254.012 395.936C255.42 395.587 256.604 395.839 256.701 395.597C256.798 395.354 255.507 394.568 253.789 395.044C252.071 395.519 251.237 396.878 251.508 396.985Z" fill="#263238"/> <path d="M256.362 402.798C256.517 402.594 255.459 401.711 253.848 401.721C252.237 401.73 251.189 402.633 251.344 402.827C251.5 403.021 252.528 402.642 253.858 402.652C255.187 402.662 256.206 403.021 256.362 402.798Z" fill="#263238"/> <path d="M246.045 387.687C246.317 387.687 246.492 386.416 247.21 385.096C247.928 383.776 248.85 382.893 248.704 382.67C248.559 382.447 247.219 383.087 246.395 384.611C245.57 386.135 245.803 387.716 246.045 387.687Z" fill="#263238"/> <path d="M240.698 383.806C240.805 383.854 241.387 382.971 241.824 381.321C242.077 380.351 242.211 379.354 242.222 378.351C242.223 377.758 242.188 377.165 242.115 376.575C242.088 376.225 242.007 375.881 241.872 375.556C241.772 375.319 241.595 375.121 241.371 374.995C241.146 374.868 240.885 374.82 240.63 374.858C240.407 374.903 240.196 374.999 240.016 375.138C239.836 375.278 239.691 375.458 239.592 375.663C239.449 375.971 239.351 376.298 239.301 376.634C239.184 377.222 239.122 377.82 239.116 378.419C239.114 379.43 239.268 380.435 239.572 381.399C239.774 382.311 240.244 383.143 240.921 383.786C241.057 383.708 240.553 382.816 240.213 381.224C240.015 380.31 239.933 379.374 239.97 378.439C240 377.891 240.072 377.346 240.184 376.808C240.29 376.226 240.494 375.77 240.785 375.741C240.902 375.741 240.941 375.741 241.038 375.925C241.131 376.165 241.19 376.416 241.212 376.673C241.296 377.222 241.348 377.776 241.368 378.332C241.392 379.277 241.331 380.222 241.183 381.156C240.965 382.028 240.803 382.913 240.698 383.806Z" fill="#263238"/> <path d="M241.193 383.65C241.27 383.582 240.62 382.68 239.096 381.894C238.185 381.428 237.2 381.123 236.185 380.991C235.59 380.913 234.989 380.893 234.39 380.933C234.011 380.92 233.635 381.002 233.296 381.171C232.957 381.341 232.665 381.592 232.449 381.903C232.353 382.127 232.322 382.373 232.359 382.613C232.397 382.854 232.502 383.079 232.662 383.262C232.892 383.524 233.161 383.75 233.458 383.932C233.974 384.274 234.541 384.532 235.137 384.698C236.127 384.989 237.175 385.029 238.184 384.815C239.921 384.436 240.669 383.553 240.591 383.495C239.768 383.77 238.928 383.994 238.077 384.165C237.172 384.27 236.254 384.173 235.389 383.883C234.887 383.718 234.41 383.482 233.972 383.184C233.477 382.864 233.147 382.466 233.293 382.301C233.439 382.136 233.992 381.816 234.496 381.797C235.039 381.748 235.584 381.748 236.127 381.797C237.056 381.882 237.968 382.101 238.834 382.447C240.31 383.097 241.096 383.767 241.193 383.65Z" fill="#263238"/> <path d="M255.148 323.16C255.148 323.16 289.416 310.359 302.032 312.019C309.088 312.989 320.112 318.327 320.957 327.372C321.801 336.417 319.588 348.499 307.37 354.39C295.152 360.281 246.501 382.117 234.943 385.446C223.385 388.774 194.542 396.684 194.542 396.684L183.624 365.531C183.624 365.531 243.376 344.841 246.531 342.521C249.685 340.202 257.672 337.057 257.672 337.057L255.148 323.16Z" fill="#263238"/> <path d="M136.021 327.411L136.264 327.343L136.953 327.139C137.555 326.955 138.448 326.693 139.622 326.411C141.033 326.066 142.466 325.816 143.911 325.664C145.829 325.489 147.759 325.489 149.676 325.664C152.003 325.857 154.303 326.296 156.537 326.974C157.78 327.344 158.991 327.814 160.157 328.381L163.884 330.206C169.018 332.651 174.734 335.165 180.838 337.572C193.047 342.424 204.77 344.792 213.126 346.685C217.319 347.655 220.715 348.373 223.044 348.936L225.742 349.567L226.441 349.732H226.684L226.451 349.654L225.752 349.46C225.15 349.295 224.248 349.043 223.083 348.752C220.754 348.16 217.377 347.354 213.184 346.393C204.838 344.452 193.144 342.065 180.974 337.193C174.88 334.786 169.163 332.292 164.03 329.856L160.283 328.1C159.098 327.532 157.868 327.061 156.605 326.693C154.351 326.02 152.032 325.59 149.686 325.412C147.749 325.234 145.8 325.234 143.863 325.412C142.409 325.581 140.969 325.853 139.554 326.227C138.389 326.528 137.497 326.809 136.905 327.013L136.225 327.265C136.152 327.306 136.084 327.355 136.021 327.411Z" fill="#455A64"/> <path d="M137.817 322.888C137.817 322.947 138.865 322.762 140.544 322.578C142.726 322.347 144.923 322.285 147.115 322.393C149.311 322.51 151.495 322.798 153.646 323.257C155.296 323.607 156.305 323.898 156.315 323.839C156.1 323.723 155.872 323.632 155.635 323.568C154.999 323.346 154.351 323.158 153.694 323.005C149.38 321.927 144.898 321.696 140.496 322.326C139.661 322.442 138.982 322.568 138.555 322.685C138.302 322.724 138.055 322.793 137.817 322.888Z" fill="#455A64"/> <path d="M269.569 332.224C269.569 332.283 270.54 331.545 272.199 330.526C276.487 327.871 281.297 326.173 286.3 325.548C288.241 325.315 289.425 325.286 289.416 325.218C289.135 325.189 288.852 325.189 288.571 325.218C287.803 325.214 287.036 325.249 286.271 325.324C281.194 325.814 276.314 327.536 272.054 330.342C271.248 330.885 270.608 331.312 270.19 331.7C269.965 331.852 269.756 332.027 269.569 332.224Z" fill="#455A64"/> <path d="M252.373 378.778L252.101 378.885L251.325 379.215C250.636 379.487 249.636 379.962 248.297 380.477C245.628 381.534 241.678 382.99 236.651 384.65C226.529 387.959 211.972 392.171 194.562 396.558L194.765 396.664C191.514 387.658 187.972 377.711 184.168 367.259L184.061 367.492L197.162 362.105L269.764 332.224C272.724 329.099 275.441 326.343 277.994 324.111C280.151 322.203 282.455 320.467 284.884 318.919C286.413 317.958 287.99 317.077 289.61 316.279L290.882 315.687L291.309 315.474L290.872 315.658L289.581 316.221C287.946 316.992 286.355 317.854 284.816 318.803C282.367 320.337 280.043 322.063 277.868 323.966C275.296 326.188 272.559 328.934 269.589 332.05C251.898 339.309 225.918 349.965 196.949 361.814L183.828 367.21L183.663 367.278L183.721 367.443C187.506 377.895 191.097 387.823 194.348 396.839L194.397 396.975H194.552C211.962 392.549 226.5 388.289 236.612 384.931C241.669 383.233 245.609 381.758 248.258 380.661C249.588 380.137 250.587 379.642 251.267 379.351L252.033 378.992L252.373 378.778Z" fill="#455A64"/> <path d="M167.66 213.942C167.66 213.942 157.8 219.629 155.801 226.306C154.578 230.363 145.378 282.235 143.922 292.464C142.466 302.693 145.533 310.272 149.9 313.669C154.267 317.066 167.485 321.578 167.485 321.578L186.089 327.605L191.417 314.018L173.716 288.582L175.424 271.443L167.66 213.942Z" fill="#407BFF"/> <path d="M187.059 204.985L193.212 200.443C193.212 200.443 201.228 208.644 210.438 207.673C219.648 206.703 225.102 199.657 225.102 199.657L252.566 205.257C254.41 205.625 257.768 206.79 260.981 211.38C264.571 216.504 281.564 239.214 281.564 239.214H293.463C295.072 239.214 296.651 239.654 298.029 240.485C299.407 241.316 300.533 242.507 301.285 243.93C303.313 247.812 305.749 252.975 305.516 255.12C305.108 258.74 305.807 268.707 300.955 271.793C299.412 272.763 293.89 275.733 289.619 275.539C283.302 275.238 275.965 271.948 271.743 268.998C268.162 266.494 259.845 257.847 256.642 254.441V254.489L254.585 326.537L182.605 324.519L167.659 213.942C167.659 213.942 186.331 204.985 187.059 204.985Z" fill="#407BFF"/> <path d="M256.896 224.288C256.799 224.288 256.614 233.216 256.478 244.231C256.342 255.246 256.323 264.174 256.43 264.174C256.537 264.174 256.721 255.256 256.847 244.231C256.973 233.206 257.002 224.288 256.896 224.288Z" fill="#263238"/> <path d="M158.944 282.526C158.944 282.526 159.556 282.623 160.643 282.827C162.176 283.134 163.671 283.612 165.097 284.254C167.215 285.202 169.209 286.405 171.037 287.835C173.281 289.599 175.374 291.547 177.296 293.658C179.354 295.88 181.236 298.083 183.003 300.034C184.549 301.783 186.185 303.451 187.903 305.032C189.066 306.084 190.298 307.057 191.591 307.943C192.047 308.273 192.426 308.486 192.669 308.642C192.79 308.726 192.92 308.798 193.057 308.855C192.954 308.748 192.836 308.657 192.707 308.584C192.474 308.399 192.115 308.166 191.679 307.827C190.421 306.888 189.219 305.877 188.078 304.799C186.632 303.45 185.002 301.732 183.226 299.772C181.45 297.811 179.606 295.599 177.539 293.366C175.6 291.248 173.483 289.299 171.211 287.544C169.356 286.112 167.328 284.919 165.175 283.992C163.724 283.367 162.202 282.924 160.643 282.672C160.219 282.599 159.791 282.55 159.362 282.526C159.223 282.511 159.083 282.511 158.944 282.526Z" fill="#263238"/> <path d="M157.313 277.645C157.313 277.712 158.4 277.868 160.118 278.343C164.615 279.581 168.696 282.008 171.929 285.37C173.171 286.651 173.87 287.543 173.87 287.505C173.761 287.267 173.621 287.045 173.453 286.845C173.043 286.263 172.595 285.709 172.113 285.185C168.943 281.677 164.79 279.205 160.196 278.091C159.507 277.914 158.806 277.784 158.1 277.703C157.84 277.657 157.577 277.637 157.313 277.645Z" fill="#263238"/> <g opacity="0.3"> <path opacity="0.3" d="M291.3 264.999C287.486 266.038 282.905 260.555 279.441 257.119C277.645 255.333 275.772 253.431 275.112 250.986C274.636 248.928 274.844 246.771 275.704 244.842C276.349 243.104 277.199 241.449 278.237 239.912C277.927 242.872 277.189 247.414 278.189 251.131C279.023 254.227 280.984 256.702 283.041 259.041C285.099 261.379 287.894 264.116 291.271 264.999" fill="black"/> </g> <path d="M275.034 261.865C275.111 261.865 274.665 260.603 274.306 258.536C274.105 257.326 273.988 256.103 273.956 254.877C273.941 253.377 274.045 251.878 274.267 250.394C274.511 248.914 274.874 247.457 275.354 246.036C275.762 244.877 276.251 243.749 276.819 242.659C277.79 240.805 278.595 239.747 278.537 239.747C278.312 239.959 278.113 240.197 277.945 240.456C277.722 240.736 277.517 241.031 277.334 241.339C277.064 241.734 276.814 242.142 276.586 242.562C275.982 243.645 275.462 244.775 275.034 245.939C274.528 247.375 274.148 248.853 273.898 250.355C273.675 251.861 273.581 253.384 273.617 254.906C273.663 256.149 273.809 257.385 274.053 258.604C274.141 259.128 274.277 259.574 274.383 260.001C274.469 260.349 274.573 260.693 274.694 261.03C274.786 261.317 274.899 261.596 275.034 261.865Z" fill="#263238"/> <path d="M222.104 202.491C222.104 202.588 222.9 203.083 223.783 203.869C224.666 204.655 225.307 205.402 225.307 205.334C224.997 204.651 224.549 204.04 223.991 203.539C223.433 203.038 222.778 202.658 222.065 202.423L222.104 202.491Z" fill="#263238"/> <path d="M214.632 206.8C214.554 206.877 215.272 207.654 215.855 208.799C216.437 209.944 216.66 210.982 216.777 210.973C216.819 210.151 216.612 209.336 216.185 208.634C215.869 207.876 215.327 207.235 214.632 206.8Z" fill="#263238"/> <path d="M201.781 211.312C202.12 210.624 202.396 209.906 202.606 209.168C202.926 208.468 203.17 207.736 203.334 206.984C202.426 208.255 201.888 209.754 201.781 211.312Z" fill="#263238"/> <path d="M193.522 207.411C193.629 207.411 193.911 206.178 194.726 204.849C195.541 203.519 196.512 202.685 196.434 202.597C195.571 203.071 194.868 203.79 194.415 204.665C193.858 205.474 193.547 206.428 193.522 207.411Z" fill="#263238"/> <path d="M169.814 230.741C169.717 230.741 170.93 240.601 172.541 252.723C174.152 264.844 175.52 274.665 175.627 274.656C175.734 274.646 174.511 264.795 172.9 252.674C171.289 240.553 169.921 230.732 169.814 230.741Z" fill="#263238"/> <path d="M277.712 246.677C277.676 247.015 277.676 247.357 277.712 247.696C277.734 248.093 277.783 248.489 277.857 248.88C277.906 249.113 277.945 249.355 277.983 249.617C278.022 249.879 278.119 250.141 278.197 250.423C278.543 251.759 279.017 253.059 279.614 254.305C280.356 255.818 281.24 257.257 282.254 258.604C283.293 259.935 284.474 261.149 285.776 262.224C286.849 263.094 288.038 263.809 289.309 264.349C289.581 264.466 289.833 264.582 290.085 264.669L290.803 264.873L291.434 265.048C291.628 265.048 291.813 265.096 291.978 265.116C292.299 265.169 292.623 265.199 292.948 265.203C291.721 264.961 290.522 264.597 289.367 264.116C288.142 263.544 286.995 262.821 285.951 261.962C284.679 260.89 283.524 259.686 282.506 258.371C281.507 257.047 280.627 255.638 279.876 254.159C279.281 252.937 278.788 251.668 278.401 250.364C277.828 248.103 277.809 246.667 277.712 246.677Z" fill="#263238"/> <g opacity="0.3"> <path opacity="0.3" d="M172.135 329.032C169.078 327.556 168.389 323.597 168.078 320.22C167.166 310.321 166.25 300.425 165.332 290.533C164.905 285.874 164.701 280.566 167.981 277.237C170.98 274.199 175.745 274.015 180.005 274.025C206.354 274.102 229.626 274.879 255.975 274.995L254.635 321.093L172.135 329.032Z" fill="black"/> </g> <path d="M267.328 282.07L264.524 335.534C264.469 336.526 264.036 337.459 263.314 338.142C262.592 338.824 261.635 339.204 260.642 339.202L175.492 339.357C174.495 339.359 173.536 338.976 172.813 338.29C172.091 337.603 171.66 336.665 171.61 335.67L168.359 283.108C168.252 280.935 169.805 278.023 172.017 277.984H263.408C263.938 277.978 264.464 278.081 264.954 278.286C265.443 278.492 265.885 278.795 266.253 279.178C266.62 279.561 266.905 280.015 267.09 280.513C267.275 281.01 267.356 281.54 267.328 282.07Z" fill="#E0E0E0"/> <path d="M267.328 282.07C267.333 282.005 267.333 281.941 267.328 281.876C267.345 281.676 267.345 281.475 267.328 281.274C267.227 280.597 266.949 279.958 266.521 279.422C266.093 278.887 265.531 278.475 264.893 278.227C264.235 277.987 263.534 277.888 262.835 277.936H257.662L224.666 277.878L175.725 277.829H172.251C171.632 277.801 171.02 277.96 170.494 278.285C169.979 278.616 169.536 279.049 169.193 279.557C168.499 280.571 168.127 281.772 168.126 283.002C168.194 284.195 168.272 285.399 168.339 286.602C168.631 291.455 168.941 296.307 169.242 301.324C169.863 311.33 170.504 321.704 171.183 332.292L171.309 334.233C171.367 334.903 171.358 335.544 171.474 336.242C171.611 336.92 171.918 337.551 172.366 338.078C172.814 338.604 173.389 339.008 174.036 339.251C174.678 339.473 175.358 339.566 176.035 339.523H181.858H197.143L226.044 339.455L252.199 339.396H258.235H259.71C260.213 339.404 260.715 339.381 261.214 339.328C262.2 339.193 263.102 338.7 263.748 337.943C264.394 337.186 264.739 336.218 264.718 335.223C264.766 334.253 264.815 333.379 264.863 332.467C264.96 330.643 265.048 328.867 265.135 327.129C265.844 313.222 266.416 301.965 266.804 294.133C266.998 290.251 267.144 287.233 267.241 285.176C267.29 284.157 267.328 283.38 267.348 282.846C267.367 282.313 267.348 282.051 267.348 282.051L267.29 282.846C267.29 283.38 267.212 284.157 267.154 285.176C267.037 287.233 266.863 290.242 266.649 294.133C266.222 301.897 265.611 313.164 264.854 327.071C264.766 328.808 264.669 330.594 264.572 332.409C264.527 333.321 264.478 334.243 264.427 335.175C264.438 336.095 264.121 336.989 263.534 337.698C262.928 338.409 262.082 338.872 261.156 338.998C260.678 339.033 260.198 339.033 259.72 338.998H252.189H226.035H197.134H181.849H176.026C175.395 339.042 174.761 338.96 174.162 338.756C173.572 338.533 173.048 338.164 172.64 337.684C172.231 337.203 171.95 336.627 171.824 336.009C171.717 335.408 171.717 334.709 171.668 334.068L171.542 332.127C170.882 321.52 170.242 311.165 169.601 301.159C169.291 296.161 168.98 291.241 168.631 286.437C168.563 285.234 168.485 284.04 168.417 282.846C168.409 281.693 168.747 280.564 169.388 279.605C169.67 279.121 170.075 278.72 170.563 278.444C171.05 278.167 171.603 278.026 172.163 278.033H175.637H224.569L257.565 277.975H262.738C263.425 277.917 264.117 278.006 264.766 278.237C265.302 278.447 265.78 278.779 266.164 279.207C266.703 279.768 267.062 280.478 267.193 281.245C267.253 281.518 267.298 281.793 267.328 282.07Z" fill="#263238"/> <path d="M212.156 308.166C212.156 309.159 212.451 310.129 213.002 310.954C213.553 311.779 214.337 312.422 215.254 312.802C216.17 313.182 217.179 313.281 218.152 313.087C219.126 312.894 220.02 312.416 220.721 311.714C221.423 311.012 221.901 310.118 222.095 309.145C222.288 308.172 222.189 307.163 221.809 306.246C221.429 305.329 220.786 304.546 219.961 303.995C219.136 303.443 218.166 303.149 217.174 303.149C215.844 303.151 214.569 303.681 213.629 304.621C212.688 305.562 212.159 306.836 212.156 308.166Z" fill="white"/> <path d="M212.156 308.166C212.204 308.166 212.156 307.72 212.388 306.963C212.684 305.89 213.33 304.948 214.223 304.284C214.944 303.744 215.801 303.414 216.698 303.333C217.596 303.252 218.498 303.423 219.304 303.826C220.11 304.229 220.788 304.849 221.262 305.615C221.736 306.382 221.987 307.265 221.987 308.166C221.987 308.878 221.831 309.58 221.529 310.224C221.228 310.869 220.788 311.439 220.242 311.894C219.695 312.35 219.056 312.68 218.368 312.861C217.68 313.042 216.96 313.069 216.261 312.941C215.515 312.808 214.81 312.502 214.203 312.048C213.31 311.385 212.665 310.442 212.369 309.37C212.165 308.613 212.185 308.166 212.136 308.166C212.121 308.272 212.121 308.38 212.136 308.486C212.138 308.797 212.174 309.106 212.243 309.408C212.499 310.539 213.14 311.544 214.058 312.252C214.692 312.742 215.434 313.075 216.222 313.222C217.13 313.4 218.068 313.329 218.939 313.019C219.91 312.678 220.754 312.048 221.356 311.213C221.975 310.377 222.328 309.373 222.367 308.333C222.406 307.293 222.13 306.266 221.575 305.385C221.02 304.505 220.212 303.813 219.257 303.4C218.301 302.987 217.243 302.872 216.222 303.071C215.434 303.218 214.692 303.551 214.058 304.042C213.14 304.753 212.498 305.762 212.243 306.895C212.174 307.197 212.138 307.506 212.136 307.817C212.125 307.934 212.131 308.051 212.156 308.166Z" fill="#263238"/> <path d="M264.465 288.009C264.358 288.009 263.941 296.986 263.495 308.069C263.048 319.152 262.825 328.148 262.932 328.148C263.038 328.148 263.446 319.171 263.902 308.089C264.358 297.006 264.562 288.009 264.465 288.009Z" fill="#263238"/> <path d="M290.056 218.261C290.551 217.834 288.377 209.439 288.377 209.439C288.377 209.439 294.152 200.016 294.307 196.979C294.462 193.941 292.026 187.701 292.026 187.701L275.451 183.44C275.451 183.44 270.132 193.33 269.065 196.823C267.997 200.317 270.918 212.196 270.918 212.196L273.723 218.281C273.723 218.281 282.166 224.948 290.056 218.261Z" fill="#FFBE9D"/> <path d="M294.268 198.793C294.916 197.599 295.499 196.371 296.015 195.115C297.063 192.621 298.354 190.185 296.015 188.787C295.651 188.548 295.241 188.389 294.81 188.322C294.38 188.255 293.94 188.281 293.521 188.399C293.521 188.399 293.88 186.303 292.628 185.488C292.266 185.259 291.853 185.12 291.426 185.083C290.999 185.046 290.569 185.112 290.173 185.274C290.173 185.274 290.561 182.363 288.766 181.072C288.088 180.627 287.3 180.378 286.49 180.354C285.679 180.33 284.878 180.531 284.175 180.936C284.175 180.936 285.602 168.009 285.728 167.35C286.174 164.836 285.252 162.614 282.749 163.235C281.827 163.458 281.322 164.428 280.245 168.64C279.168 172.852 277.44 180.034 277.44 180.034C277.44 180.034 274.529 185.09 273.16 187.798C271.792 190.505 269.065 196.784 268.842 198.473C268.25 202.753 270.783 208.42 270.783 208.42L288.397 209.391C288.397 209.391 293.599 200.016 294.268 198.793Z" fill="#FFBE9D"/> <path d="M293.171 188.953C292.672 189.565 292.218 190.214 291.813 190.893L290.415 193.019C290.124 193.435 289.871 193.877 289.658 194.339C289.41 194.861 289.339 195.451 289.454 196.018C289.505 196.315 289.634 196.593 289.829 196.824C290.024 197.054 290.276 197.228 290.561 197.328C291.094 197.46 291.657 197.391 292.143 197.134C292.555 196.926 292.948 196.682 293.317 196.406C293.666 196.153 293.987 195.921 294.287 195.688C294.86 195.241 295.306 194.863 295.598 194.591C295.889 194.319 296.054 194.154 296.034 194.135C296.015 194.115 295.306 194.649 294.093 195.484C293.428 195.986 292.724 196.434 291.987 196.823C291.577 197.031 291.105 197.086 290.658 196.978C290.434 196.899 290.235 196.761 290.083 196.578C289.931 196.395 289.831 196.175 289.794 195.94C289.7 195.448 289.761 194.94 289.969 194.484C290.171 194.037 290.411 193.609 290.687 193.203L292.007 191.039C292.453 190.378 292.843 189.68 293.171 188.953Z" fill="#EB996E"/> <path d="M278.683 190.495C278.842 189.569 278.779 188.618 278.499 187.72C278.341 186.797 277.965 185.925 277.402 185.177C277.305 185.226 277.8 186.352 278.14 187.807C278.479 189.263 278.615 190.495 278.683 190.495Z" fill="#EB996E"/> <path d="M271.743 194.271C273.366 192.695 275.413 191.626 277.634 191.194C279.847 190.771 282.111 190.685 284.35 190.942C286.135 191.097 288.232 191.563 288.998 193.164C289.765 194.766 288.833 196.949 287.242 197.891C285.57 198.723 283.68 199.011 281.836 198.716C280.008 198.414 278.15 198.339 276.304 198.492" fill="#FFBE9D"/> <path d="M276.304 198.492C276.304 198.492 276.799 198.492 277.692 198.492C278.956 198.547 280.216 198.667 281.467 198.851C282.346 198.963 283.232 198.998 284.117 198.958C285.149 198.928 286.162 198.673 287.086 198.211C288.124 197.673 288.914 196.755 289.289 195.649C289.492 195.059 289.536 194.426 289.415 193.814C289.267 193.187 288.928 192.621 288.445 192.194C287.47 191.431 286.292 190.972 285.058 190.874C283.946 190.746 282.829 190.678 281.71 190.67C279.808 190.635 277.915 190.923 276.11 191.524C274.893 191.934 273.754 192.547 272.743 193.339C272.475 193.555 272.219 193.785 271.976 194.028C271.811 194.203 271.733 194.3 271.743 194.309C271.753 194.319 272.112 193.97 272.83 193.446C273.855 192.715 274.988 192.149 276.188 191.767C277.976 191.222 279.841 190.966 281.71 191.01C282.813 191.029 283.914 191.104 285.009 191.233C286.168 191.326 287.274 191.754 288.193 192.466C288.621 192.845 288.922 193.346 289.056 193.902C289.164 194.449 289.124 195.015 288.94 195.542C288.596 196.561 287.873 197.409 286.921 197.91C286.044 198.358 285.081 198.613 284.097 198.657C283.23 198.699 282.36 198.677 281.496 198.589C280.235 198.422 278.964 198.341 277.692 198.347C277.348 198.359 277.004 198.391 276.663 198.444C276.421 198.444 276.304 198.473 276.304 198.492Z" fill="#EB996E"/> <path d="M293.045 189.156C291.192 191.971 289.552 195.066 287.989 198.056C287.618 198.967 287.007 199.761 286.223 200.356C285.553 200.763 283.894 200.016 283.156 199.764L288.242 188.186" fill="#FFBE9D"/> <path d="M288.242 188.186C288.068 188.46 287.919 188.749 287.796 189.05L286.67 191.476C285.699 193.533 284.428 196.425 282.992 199.686L282.904 199.87L283.098 199.938C283.679 200.171 284.272 200.372 284.874 200.54C285.129 200.604 285.389 200.643 285.651 200.656C285.792 200.664 285.933 200.647 286.068 200.608C286.206 200.575 286.335 200.512 286.447 200.424C286.857 200.128 287.206 199.755 287.475 199.327C287.999 198.502 288.368 197.677 288.785 196.92C289.581 195.377 290.309 194.009 290.95 192.854C291.59 191.699 292.114 190.787 292.493 190.156C292.7 189.846 292.885 189.522 293.046 189.185C292.788 189.486 292.561 189.811 292.366 190.156C291.959 190.767 291.396 191.66 290.726 192.796C290.057 193.931 289.3 195.299 288.485 196.833C288.058 197.59 287.669 198.434 287.174 199.201C286.918 199.585 286.588 199.914 286.204 200.171C286.007 200.273 285.791 200.332 285.57 200.342C285.349 200.352 285.128 200.313 284.923 200.229C284.331 200.063 283.748 199.865 283.176 199.637L283.283 199.89C284.719 196.61 285.971 193.708 286.854 191.621L287.873 189.147C288.025 188.838 288.148 188.517 288.242 188.186Z" fill="#EB996E"/> <path d="M289.619 184.741C287.983 188.842 286.346 192.944 284.709 197.046C284.408 197.938 283.962 198.774 283.389 199.521C283.094 199.887 282.715 200.176 282.284 200.364C281.853 200.551 281.383 200.632 280.914 200.598C280.287 200.434 279.733 200.065 279.339 199.55C278.945 199.035 278.734 198.403 278.74 197.755C278.779 196.459 279.09 195.186 279.653 194.018C281.126 190.28 282.304 186.431 283.175 182.508" fill="#FFBE9D"/> <path d="M283.176 182.508C283.118 182.625 283.075 182.749 283.05 182.877L282.759 183.964C282.507 184.935 282.138 186.274 281.624 187.943C281.109 189.612 280.43 191.582 279.586 193.766C279.069 194.882 278.722 196.07 278.557 197.289C278.511 197.958 278.641 198.627 278.935 199.23C279.224 199.882 279.752 200.4 280.411 200.676C280.745 200.797 281.102 200.845 281.457 200.816C281.812 200.788 282.157 200.684 282.468 200.511C283.061 200.188 283.559 199.717 283.914 199.142C284.504 198.075 285.001 196.958 285.399 195.804C286.243 193.659 287 191.728 287.641 190.078L289.125 186.196C289.281 185.769 289.407 185.42 289.504 185.138C289.558 185.017 289.597 184.89 289.62 184.76C289.542 184.866 289.479 184.984 289.436 185.109C289.32 185.391 289.164 185.73 288.99 186.148L287.417 189.952C286.758 191.592 285.971 193.514 285.108 195.649C284.707 196.778 284.214 197.872 283.633 198.919C283.309 199.436 282.858 199.86 282.322 200.152C282.058 200.302 281.764 200.394 281.461 200.421C281.158 200.448 280.853 200.409 280.566 200.307C279.997 200.06 279.541 199.61 279.285 199.045C279.015 198.494 278.898 197.881 278.945 197.269C279.091 196.087 279.418 194.935 279.916 193.853C280.75 191.689 281.391 189.7 281.857 188.03C282.322 186.361 282.681 184.964 282.895 184.013C282.992 183.527 283.07 183.159 283.118 182.906C283.156 182.777 283.175 182.643 283.176 182.508Z" fill="#EB996E"/> <path d="M300.907 248.346C300.46 246.715 289.261 213.593 289.261 213.593L270.744 211.38L278.314 239.912C278.314 239.912 277.14 247.162 278.314 251.451C279.488 255.741 288.989 267.416 293.842 264.611C298.694 261.806 301.343 249.976 300.907 248.346Z" fill="#FFBE9D"/> <path d="M278.275 208.449C278.634 208.493 278.998 208.447 279.333 208.314C280.165 208.054 280.93 207.615 281.572 207.026C282.215 206.437 282.72 205.714 283.05 204.907C283.209 204.585 283.285 204.228 283.273 203.869C282.811 204.95 282.153 205.937 281.332 206.78C280.427 207.523 279.39 208.09 278.275 208.449Z" fill="#EB996E"/> </svg>