<svg width="572" height="556" viewBox="0 0 572 556" fill="none" xmlns="http://www.w3.org/2000/svg">
<path d="M499.555 455.255C499.709 446.927 502.921 438.946 508.577 432.832C511.305 444.09 499.555 455.255 499.555 455.255Z" fill="#EBEBEB"/>
<path d="M512.663 448.907C520.36 445.732 528.956 445.495 536.816 448.242C527.594 455.228 512.663 448.907 512.663 448.907Z" fill="#EBEBEB"/>
<path d="M514.154 441.615C512.908 435.165 514.078 428.481 517.441 422.838C521.393 431.089 514.154 441.615 514.154 441.615Z" fill="#EBEBEB"/>
<path d="M463.491 415.319C482.641 420.429 492.914 437.077 492.914 437.077C476.546 437.077 463.491 415.319 463.491 415.319Z" fill="#EBEBEB"/>
<path d="M494.073 423.17C493.075 402.53 513.236 379.162 513.236 379.162C510.188 404.793 494.046 423.17 494.046 423.17" fill="#EBEBEB"/>
<path d="M493.979 364.378C494.373 374.719 491.86 384.963 486.727 393.947C483.879 380.666 493.979 364.378 493.979 364.378Z" fill="#EBEBEB"/>
<path d="M486.195 406.323C471.104 404.7 462.894 389.688 462.894 389.688C481.152 394.799 486.195 406.323 486.195 406.323Z" fill="#EBEBEB"/>
<path d="M453.645 469.428C460.725 465.046 469.171 463.421 477.372 464.863C469.401 473.194 453.645 469.428 453.645 469.428Z" fill="#EBEBEB"/>
<path d="M492.755 476.201C490.832 481.09 487.239 485.14 482.614 487.632C483.253 480.673 492.755 476.201 492.755 476.201Z" fill="#EBEBEB"/>
<path d="M490.813 473.979C485.362 477.136 478.973 478.272 472.768 477.186C478.636 471.144 490.813 473.979 490.813 473.979Z" fill="#EBEBEB"/>
<path d="M498.597 501.778C498.577 501.673 498.577 501.564 498.597 501.459C498.597 501.219 498.597 500.927 498.597 500.567V497.147C498.597 495.643 498.597 493.807 498.597 491.678C498.597 489.549 498.597 487.113 498.451 484.425C498.318 479.102 497.945 472.688 497.386 465.608C496.827 458.528 495.922 450.783 494.725 442.679C492.343 426.47 489.082 411.978 486.461 401.572C485.13 396.369 484.025 392.163 483.214 389.276C482.841 387.865 482.535 386.747 482.309 385.935C482.229 385.576 482.149 385.297 482.096 385.057C482.084 384.955 482.084 384.853 482.096 384.751C482.151 384.841 482.192 384.94 482.216 385.044C482.295 385.27 482.388 385.549 482.495 385.895L483.52 389.196C484.411 392.07 485.596 396.249 486.98 401.452C490.491 415 493.25 428.733 495.244 442.586C496.428 450.704 497.266 458.475 497.905 465.555C498.544 472.635 498.757 479.049 498.823 484.412C498.903 487.073 498.823 489.535 498.823 491.678C498.823 493.82 498.823 495.67 498.744 497.147C498.664 498.624 498.65 499.809 498.624 500.607V501.512C498.627 501.602 498.618 501.691 498.597 501.778Z" fill="#E0E0E0"/>
<path d="M470.824 458.077C470.93 457.917 477.038 461.923 484.451 467.006C491.863 472.09 497.758 476.322 497.692 476.495C497.625 476.668 491.49 472.649 484.065 467.565C476.639 462.482 470.717 458.237 470.824 458.077Z" fill="#E0E0E0"/>
<path d="M497.692 460.273C497.967 459.896 498.284 459.552 498.637 459.248L501.299 456.586C503.734 454.284 506.888 451.343 510.361 448.069L519.437 439.566L522.192 436.984C522.844 436.385 523.216 436.066 523.256 436.106C523.007 436.494 522.712 436.852 522.378 437.17C521.779 437.836 520.888 438.767 519.716 439.912C517.481 442.187 514.327 445.235 510.774 448.575C507.221 451.915 503.96 454.83 501.565 456.932C500.367 457.984 499.396 458.822 498.704 459.394C498.41 459.733 498.069 460.029 497.692 460.273Z" fill="#E0E0E0"/>
<path d="M451.448 448.296C451.448 448.296 467.045 448.003 473.645 460.272C469.268 460.144 464.981 458.995 461.127 456.915C457.273 454.836 453.959 451.884 451.448 448.296Z" fill="#EBEBEB"/>
<path d="M472.753 442.04C472.753 442.04 485.449 451.089 483.399 464.889C479.968 462.173 477.218 458.693 475.37 454.726C473.521 450.759 472.625 446.415 472.753 442.04Z" fill="#EBEBEB"/>
<path d="M539.652 419.711C539.652 419.711 534.635 437.171 518.719 440.311C520.359 435.482 523.106 431.104 526.741 427.527C530.376 423.95 534.797 421.273 539.652 419.711Z" fill="#EBEBEB"/>
<path d="M465.82 354.756C465.82 354.756 485.782 367.731 483.519 388.85C478.118 384.938 473.705 379.818 470.633 373.899C467.56 367.98 465.912 361.425 465.82 354.756Z" fill="#EBEBEB"/>
<path d="M532.053 470.267C531.645 470.656 531.2 471.004 530.722 471.305C529.857 471.917 528.633 472.848 527.156 474.033C523.29 477.101 519.685 480.484 516.377 484.146C513.088 487.831 510.106 491.779 507.461 495.95C506.449 497.561 505.664 498.865 505.132 499.796C504.882 500.291 504.584 500.759 504.24 501.194C504.407 500.661 504.63 500.148 504.906 499.663C505.358 498.705 506.09 497.348 507.061 495.671C509.602 491.402 512.553 487.391 515.871 483.694C519.204 480 522.885 476.635 526.863 473.647C528.394 472.516 529.671 471.637 530.576 471.078C531.038 470.755 531.533 470.483 532.053 470.267Z" fill="#E0E0E0"/>
<path d="M514.739 483.228C513.295 475.026 514.92 466.58 519.304 459.5C521.446 474.298 514.739 483.228 514.739 483.228Z" fill="#EBEBEB"/>
<path d="M528.127 475.922C533.393 472.935 539.574 471.988 545.493 473.26C535.859 478.331 528.127 475.922 528.127 475.922Z" fill="#EBEBEB"/>
<path d="M469.52 503.39L476.985 552.455H520.355L530.429 504.108L469.52 503.39Z" fill="#EBEBEB"/>
<path d="M524.361 534.834C524.361 534.98 513.249 535.1 499.542 535.1C485.835 535.1 474.71 534.98 474.71 534.834C474.71 534.688 485.822 534.581 499.542 534.581C513.262 534.581 524.361 534.701 524.361 534.834Z" fill="#FAFAFA"/>
<path d="M524.52 532.427C524.52 532.573 513.342 532.68 499.542 532.68C485.742 532.68 474.55 532.573 474.55 532.427C474.55 532.28 485.728 532.174 499.542 532.174C513.355 532.174 524.52 532.294 524.52 532.427Z" fill="#FAFAFA"/>
<path d="M524.442 529.698C524.442 529.845 513.25 529.951 499.45 529.951C485.65 529.951 474.458 529.845 474.458 529.698C474.458 529.552 485.65 529.445 499.45 529.445C513.25 529.445 524.442 529.565 524.442 529.698Z" fill="#FAFAFA"/>
<path d="M481.962 549.659C481.358 547.639 480.913 545.575 480.632 543.485C480.181 541.422 479.906 539.326 479.807 537.217C480.411 539.237 480.856 541.302 481.137 543.392C481.58 545.455 481.856 547.551 481.962 549.659Z" fill="#FAFAFA"/>
<path d="M484.917 549.14C484.465 545.131 484.189 541.104 484.092 537.07C484.568 539.037 484.835 541.049 484.89 543.072C485.107 545.089 485.116 547.122 484.917 549.14Z" fill="#FAFAFA"/>
<path d="M490.294 549.142C489.705 547.123 489.326 545.05 489.163 542.953C488.842 540.881 488.731 538.781 488.83 536.686C489.235 538.738 489.515 540.814 489.669 542.9C489.999 544.967 490.207 547.051 490.294 549.142Z" fill="#FAFAFA"/>
<path d="M494.073 549.394C493.65 547.327 493.445 545.222 493.461 543.113C493.316 541.009 493.383 538.895 493.66 536.805C493.888 538.895 493.995 540.997 493.98 543.099C494.124 545.194 494.155 547.295 494.073 549.394Z" fill="#FAFAFA"/>
<path d="M500.752 549.14C500.427 547.17 500.271 545.175 500.287 543.178C500.124 541.19 500.124 539.192 500.287 537.203C500.612 539.173 500.768 541.168 500.752 543.165C500.914 545.153 500.914 547.152 500.752 549.14Z" fill="#FAFAFA"/>
<path d="M505.636 549.393C505.39 547.349 505.319 545.288 505.423 543.232C505.36 541.173 505.462 539.113 505.729 537.07C505.975 539.114 506.047 541.176 505.942 543.232C505.998 545.29 505.896 547.35 505.636 549.393Z" fill="#FAFAFA"/>
<path d="M510.214 548.741C510.156 546.588 510.277 544.434 510.574 542.3C510.702 540.147 510.996 538.007 511.452 535.899C511.501 538.057 511.376 540.216 511.079 542.354C510.958 544.502 510.669 546.638 510.214 548.741Z" fill="#FAFAFA"/>
<path d="M516.11 548.103C516.123 546.252 516.368 544.409 516.842 542.62C517.142 540.782 517.683 538.992 518.453 537.297C518.175 539.112 517.802 540.911 517.335 542.686C517.027 544.513 516.619 546.321 516.11 548.103Z" fill="#FAFAFA"/>
<path d="M464.543 493.674V502.856C464.541 503.331 464.633 503.801 464.814 504.24C464.994 504.679 465.259 505.078 465.595 505.415C465.93 505.751 466.328 506.018 466.766 506.2C467.205 506.382 467.675 506.476 468.149 506.476H530.961C531.921 506.476 532.842 506.094 533.521 505.416C534.2 504.737 534.581 503.816 534.581 502.856V493.674H464.543Z" fill="#EBEBEB"/>
<path d="M469.985 506.477L470.504 509.404L528.459 513.53L529.936 506.477H469.985Z" fill="#E0E0E0"/>
<path d="M505.757 97.4529C508.957 96.0274 511.67 93.6966 513.562 90.7479C515.454 87.7992 516.441 84.3614 516.403 80.8583C516.403 70.9441 508.937 62.8797 499.649 62.8264C490.36 62.7732 482.788 70.811 482.748 80.6986C482.678 84.2391 483.66 87.7208 485.569 90.7031C487.478 93.6855 490.229 96.0345 493.474 97.4529C467.577 101.352 468.748 129.498 468.748 129.498L529.963 129.79C529.963 129.79 531.427 101.339 505.757 97.4529Z" fill="#EBEBEB"/>
<path d="M35.9997 200.891L68.0039 210.878L77.331 180.987L45.3268 171.001L35.9997 200.891Z" fill="#F5F5F5"/>
<path d="M118.997 241.001L103 245.222L106.941 260.16L122.938 255.939L118.997 241.001Z" fill="#EBEBEB"/>
<path d="M67.877 68.9995L52 70.8506L53.7299 85.6884L69.6069 83.8374L67.877 68.9995Z" fill="#F5F5F5"/>
<path d="M438.528 341.342H109.363V476.641H438.528V341.342Z" fill="#FAFAFA"/>
<path d="M438.527 476.64C438.527 476.64 438.527 475.815 438.527 474.231C438.527 472.648 438.527 470.239 438.527 467.205C438.527 461.043 438.527 451.968 438.46 440.284C438.46 416.915 438.46 383.127 438.327 341.341L438.58 341.581L109.442 341.687L109.788 341.341C109.788 388.743 109.788 434.495 109.788 476.64L109.456 476.307L345.546 476.454L413.974 476.547H432.272H436.996H438.62H437.036H432.352H414.121L345.773 476.64L109.456 476.8H109.123V476.467C109.123 434.308 109.123 388.637 109.123 341.168V340.822H109.496L438.633 340.915H438.713V341.168C438.713 383.021 438.62 416.862 438.58 440.257C438.58 451.928 438.58 460.977 438.58 467.125C438.58 470.186 438.58 472.528 438.58 474.098C438.58 475.669 438.527 476.64 438.527 476.64Z" fill="#263238"/>
<path d="M151.681 402.451C164.587 402.451 175.049 391.989 175.049 379.083C175.049 366.177 164.587 355.715 151.681 355.715C138.775 355.715 128.312 366.177 128.312 379.083C128.312 391.989 138.775 402.451 151.681 402.451Z" fill="#EBEBEB"/>
<path d="M290.519 376.048C290.519 376.248 267.164 376.394 238.353 376.394C209.542 376.394 186.174 376.248 186.174 376.048C186.174 375.849 209.529 375.702 238.353 375.702C267.177 375.702 290.519 375.888 290.519 376.048Z" fill="#263238"/>
<path d="M264.716 390.539C264.716 390.739 246.884 390.885 224.886 390.885C202.889 390.885 185.043 390.739 185.043 390.539C185.043 390.34 202.875 390.193 224.886 390.193C246.897 390.193 264.716 390.353 264.716 390.539Z" fill="#E0E0E0"/>
<path d="M399.323 420.509C399.323 420.709 344.083 420.855 275.961 420.855C207.839 420.855 152.586 420.709 152.586 420.509C152.586 420.309 207.813 420.163 275.961 420.163C344.109 420.163 399.323 420.323 399.323 420.509Z" fill="#263238"/>
<path d="M399.323 437.17C399.323 437.37 344.083 437.516 275.961 437.516C207.839 437.516 152.586 437.37 152.586 437.17C152.586 436.971 207.813 436.824 275.961 436.824C344.109 436.824 399.323 436.984 399.323 437.17Z" fill="#263238"/>
<path d="M138.307 354.33C137.402 344.189 142.539 335.207 152.693 334.581H153.638C158.211 334.562 162.624 336.265 165.997 339.353C169.371 342.44 171.458 346.685 171.842 351.242C172.588 360.039 173.293 369.753 173.253 374.478C173.16 384.245 163.392 385.802 163.392 385.802L163.605 388.93C163.715 390.608 163.473 392.291 162.895 393.87C162.317 395.449 161.415 396.89 160.247 398.101C159.079 399.311 157.672 400.264 156.114 400.898C154.556 401.533 152.883 401.835 151.202 401.785C148.132 401.695 145.211 400.438 143.035 398.269C140.859 396.101 139.592 393.184 139.492 390.114L138.307 354.33Z" fill="#FFBE9D"/>
<path d="M163.405 385.789C158.895 385.898 154.455 384.656 150.656 382.223C150.656 382.223 153.69 389.236 163.445 388.318L163.405 385.789Z" fill="#EB996E"/>
<path d="M168.794 358.562C168.795 358.922 168.657 359.269 168.41 359.532C168.162 359.794 167.824 359.952 167.464 359.972C167.287 359.987 167.109 359.966 166.94 359.91C166.771 359.855 166.615 359.766 166.481 359.65C166.347 359.533 166.238 359.391 166.16 359.231C166.082 359.072 166.037 358.899 166.026 358.721C166.022 358.358 166.159 358.008 166.406 357.743C166.654 357.477 166.995 357.318 167.357 357.297C167.535 357.283 167.714 357.304 167.884 357.361C168.053 357.417 168.21 357.507 168.344 357.625C168.478 357.742 168.587 357.886 168.665 358.047C168.742 358.208 168.786 358.383 168.794 358.562Z" fill="#263238"/>
<path d="M169.899 355.514C169.726 355.7 168.675 354.929 167.171 354.929C165.667 354.929 164.576 355.7 164.403 355.514C164.23 355.328 164.51 355.102 164.989 354.756C165.636 354.302 166.407 354.06 167.198 354.064C167.976 354.059 168.735 354.301 169.367 354.756C169.899 355.115 169.992 355.434 169.899 355.514Z" fill="#263238"/>
<path d="M154.729 358.935C154.733 359.298 154.597 359.649 154.349 359.914C154.101 360.179 153.76 360.339 153.398 360.359C153.219 360.375 153.038 360.355 152.867 360.3C152.696 360.245 152.538 360.155 152.402 360.037C152.267 359.919 152.157 359.774 152.078 359.613C152 359.451 151.956 359.275 151.947 359.095C151.947 358.734 152.084 358.387 152.332 358.125C152.579 357.862 152.918 357.705 153.278 357.684C153.456 357.668 153.636 357.688 153.806 357.742C153.976 357.797 154.134 357.885 154.269 358.002C154.404 358.118 154.515 358.261 154.594 358.422C154.673 358.582 154.719 358.757 154.729 358.935Z" fill="#263238"/>
<path d="M154.94 355.155C154.794 355.355 153.609 354.69 152.159 354.863C150.708 355.036 149.657 355.901 149.497 355.741C149.338 355.581 149.497 355.328 149.976 354.929C150.575 354.41 151.318 354.085 152.106 353.998C152.88 353.914 153.661 354.072 154.341 354.45C154.82 354.756 155.02 355.062 154.94 355.155Z" fill="#263238"/>
<path d="M160.491 367.478C161.282 367.231 162.099 367.079 162.926 367.025C163.312 367.025 163.671 366.906 163.738 366.653C163.773 366.254 163.685 365.855 163.485 365.508C163.112 364.59 162.74 363.619 162.34 362.594C161.277 360.125 160.414 357.576 159.759 354.969C161.017 357.35 162.081 359.829 162.939 362.381C163.325 363.392 163.698 364.377 164.044 365.309C164.287 365.77 164.358 366.303 164.243 366.812C164.186 366.945 164.1 367.064 163.992 367.161C163.884 367.257 163.757 367.329 163.618 367.371C163.406 367.43 163.186 367.462 162.966 367.465C162.145 367.573 161.313 367.577 160.491 367.478Z" fill="#263238"/>
<path d="M156.085 368.529C156.325 368.529 156.338 370.153 157.735 371.297C159.132 372.442 160.862 372.269 160.876 372.495C160.889 372.721 160.49 372.814 159.758 372.828C158.79 372.859 157.845 372.537 157.096 371.923C156.372 371.351 155.895 370.521 155.766 369.607C155.792 368.929 155.965 368.529 156.085 368.529Z" fill="#263238"/>
<path d="M154.741 350.205C154.635 350.63 153.118 350.564 151.388 350.937C149.658 351.309 148.274 351.895 148.008 351.562C147.742 351.229 148.101 350.99 148.646 350.537C149.364 349.981 150.203 349.602 151.095 349.433C151.977 349.254 152.887 349.281 153.757 349.513C154.435 349.726 154.795 350.005 154.741 350.205Z" fill="#263238"/>
<path d="M169.194 351.695C168.928 352.028 167.864 351.695 166.653 351.695C165.442 351.695 164.35 351.935 164.111 351.576C163.871 351.216 164.111 351.07 164.63 350.737C165.243 350.341 165.964 350.146 166.692 350.178C167.424 350.192 168.135 350.429 168.729 350.857C169.168 351.176 169.314 351.522 169.194 351.695Z" fill="#263238"/>
<path d="M144.348 357.323C144.228 357.323 144.787 358.361 146.038 358.774C146.388 358.939 146.773 359.013 147.16 358.99C147.546 358.967 147.92 358.847 148.247 358.641C147.553 358.578 146.864 358.472 146.184 358.321C145.546 358.039 144.932 357.705 144.348 357.323Z" fill="#EB996E"/>
<path d="M144.349 360.638C144.349 360.757 145.134 360.518 146.025 360.305C146.917 360.092 147.676 359.959 147.676 359.826C147.676 359.693 146.864 359.613 145.919 359.826C144.974 360.039 144.295 360.518 144.349 360.638Z" fill="#EB996E"/>
<path d="M167.238 366.653C167.238 366.759 167.531 366.799 167.824 366.733C168.117 366.666 168.33 366.52 168.303 366.413C168.276 366.307 168.023 366.28 167.731 366.347C167.438 366.413 167.238 366.56 167.238 366.653Z" fill="#EB996E"/>
<path d="M167.238 367.478C167.238 367.584 167.345 367.691 167.531 367.731C167.717 367.771 167.864 367.731 167.89 367.598C167.917 367.465 167.784 367.371 167.598 367.345C167.411 367.318 167.238 367.358 167.238 367.478Z" fill="#EB996E"/>
<path d="M153.756 369.527C153.756 369.527 153.982 369.42 154.209 369.181C154.486 368.877 154.804 368.613 155.153 368.396C155.492 368.203 155.887 368.133 156.271 368.196C156.564 368.196 156.724 368.382 156.777 368.329C156.83 368.276 156.777 368.05 156.378 367.877C156.145 367.781 155.893 367.74 155.642 367.756C155.391 367.772 155.146 367.845 154.927 367.97C154.521 368.221 154.182 368.568 153.942 368.981C153.769 369.274 153.703 369.487 153.756 369.527Z" fill="#EB996E"/>
<path d="M144.733 383.101C144.733 383.101 144.64 383.008 144.547 382.862C144.433 382.635 144.405 382.375 144.467 382.13C144.547 381.81 144.787 381.464 144.96 380.959C145.053 380.673 145.053 380.366 144.96 380.08C144.835 379.818 144.679 379.572 144.494 379.349C144.437 379.281 144.407 379.197 144.407 379.109C144.407 379.021 144.437 378.937 144.494 378.869C144.658 378.696 144.831 378.531 145.013 378.377C145.22 378.191 145.353 377.935 145.385 377.658C145.412 377.432 145.38 377.203 145.292 376.993C145.171 376.709 144.989 376.455 144.76 376.248C144.6 376.101 144.507 376.048 144.48 376.062C144.454 376.075 144.76 376.474 144.973 377.1C145.03 377.266 145.037 377.446 144.992 377.617C144.947 377.788 144.852 377.941 144.72 378.058C144.503 378.214 144.302 378.393 144.121 378.59C144.012 378.738 143.953 378.918 143.953 379.102C143.953 379.287 144.012 379.466 144.121 379.615C144.281 379.81 144.423 380.02 144.547 380.24C144.607 380.435 144.607 380.644 144.547 380.839C144.39 381.238 144.261 381.647 144.161 382.063C144.129 382.226 144.136 382.395 144.182 382.555C144.228 382.715 144.313 382.861 144.427 382.981C144.614 383.141 144.733 383.128 144.733 383.101Z" fill="#EB996E"/>
<path d="M142.258 382.196C142.258 382.196 142.165 382.196 142.125 382.037C142.085 381.877 142.218 381.837 142.365 381.464C142.401 381.077 142.307 380.688 142.099 380.36C142.022 380.207 141.998 380.033 142.029 379.865C142.06 379.697 142.145 379.544 142.272 379.428C142.599 379.122 142.877 378.768 143.097 378.377C143.182 378.185 143.21 377.972 143.177 377.764C143.143 377.556 143.051 377.362 142.91 377.206C142.825 377.103 142.72 377.018 142.601 376.956C142.482 376.894 142.352 376.857 142.218 376.847C142.032 376.847 141.939 376.847 141.939 376.847C141.939 376.847 142.352 376.847 142.644 377.352C142.716 377.468 142.754 377.602 142.754 377.738C142.754 377.875 142.716 378.008 142.644 378.124C142.414 378.46 142.151 378.772 141.859 379.056C141.678 379.247 141.557 379.488 141.513 379.748C141.482 379.995 141.529 380.246 141.646 380.466C141.846 380.839 142.019 381.105 141.992 381.318C141.96 381.44 141.92 381.56 141.872 381.677C141.842 381.737 141.826 381.803 141.826 381.87C141.826 381.937 141.842 382.003 141.872 382.063C142.112 382.329 142.298 382.223 142.258 382.196Z" fill="#EB996E"/>
<path d="M139.132 361.557C138.959 361.49 132.478 359.6 132.651 366.268C132.824 372.935 139.544 371.338 139.544 371.138C139.544 370.939 139.132 361.557 139.132 361.557Z" fill="#FFBE9D"/>
<path d="M137.415 368.689C137.415 368.689 137.308 368.769 137.109 368.862C136.972 368.921 136.825 368.951 136.676 368.951C136.528 368.951 136.38 368.921 136.244 368.862C135.801 368.608 135.434 368.239 135.184 367.794C134.933 367.349 134.807 366.844 134.82 366.333C134.78 365.762 134.871 365.188 135.086 364.657C135.139 364.444 135.243 364.248 135.389 364.086C135.535 363.924 135.719 363.8 135.924 363.725C136.058 363.684 136.201 363.691 136.33 363.744C136.459 363.798 136.565 363.895 136.63 364.018C136.723 364.204 136.63 364.337 136.723 364.351C136.816 364.364 136.856 364.231 136.789 363.965C136.754 363.799 136.659 363.652 136.523 363.552C136.333 363.422 136.099 363.37 135.871 363.406C135.599 363.47 135.347 363.603 135.14 363.791C134.932 363.98 134.777 364.218 134.687 364.484C134.429 365.074 134.315 365.717 134.354 366.36C134.342 366.955 134.507 367.54 134.826 368.042C135.146 368.544 135.607 368.94 136.151 369.181C136.333 369.223 136.522 369.225 136.706 369.188C136.889 369.152 137.063 369.077 137.215 368.968C137.415 368.849 137.442 368.702 137.415 368.689Z" fill="#263238"/>
<path d="M172.881 339.851C172.757 339.206 172.449 338.611 171.993 338.138C171.537 337.665 170.953 337.336 170.312 337.19C170.595 336.558 170.654 335.849 170.478 335.18C170.303 334.511 169.904 333.922 169.348 333.51C168.792 333.099 168.113 332.89 167.421 332.917C166.73 332.945 166.069 333.208 165.548 333.663C165.528 333.166 165.389 332.682 165.143 332.249C164.897 331.817 164.551 331.45 164.134 331.179C163.717 330.908 163.241 330.741 162.746 330.692C162.251 330.642 161.752 330.712 161.29 330.895C161.299 330.311 161.116 329.739 160.768 329.269C160.421 328.798 159.928 328.456 159.366 328.294C158.804 328.132 158.204 328.159 157.66 328.372C157.115 328.585 156.656 328.971 156.352 329.471C155.97 328.906 155.465 328.435 154.874 328.092C154.284 327.75 153.625 327.544 152.944 327.492C152.264 327.439 151.58 327.541 150.945 327.789C150.309 328.038 149.738 328.426 149.273 328.926C147.922 328.499 146.461 328.582 145.167 329.158C143.873 329.734 142.834 330.764 142.246 332.053C141.154 332.134 140.11 332.539 139.249 333.217C138.388 333.895 137.75 334.815 137.416 335.859C136.707 335.908 136.024 336.146 135.438 336.547C134.852 336.949 134.383 337.499 134.081 338.142C133.778 338.785 133.653 339.497 133.718 340.204C133.782 340.912 134.034 341.589 134.448 342.167C134.05 342.396 133.71 342.715 133.455 343.098C133.2 343.481 133.037 343.917 132.979 344.374C132.921 344.83 132.97 345.293 133.121 345.728C133.272 346.162 133.521 346.556 133.849 346.878C133.348 347.124 132.927 347.508 132.636 347.984C132.345 348.461 132.196 349.01 132.206 349.569C132.215 350.127 132.384 350.671 132.691 351.137C132.999 351.603 133.433 351.972 133.942 352.201C132.958 352.334 132.612 353.638 132.865 354.583C133.288 355.494 133.759 356.382 134.275 357.244C134.595 357.99 134.688 358.815 134.967 359.586C135.235 360.307 135.656 360.96 136.2 361.502C136.744 362.044 137.4 362.462 138.121 362.727L137.961 362.74C137.788 363.592 138.986 364.178 139.784 363.845C140.54 363.393 141.142 362.726 141.514 361.929C142.095 361.117 142.544 360.219 142.845 359.267C143.008 358.784 143.007 358.261 142.84 357.78C142.674 357.298 142.353 356.885 141.927 356.606C142.486 356.368 142.975 355.99 143.343 355.507C143.712 355.024 143.948 354.453 144.03 353.851C144.174 352.641 144.097 351.414 143.803 350.231L142.845 344.908C144.06 344.859 145.238 344.479 146.251 343.808C147.265 343.137 148.075 342.201 148.594 341.102C149.037 341.408 149.54 341.617 150.069 341.716C150.598 341.815 151.142 341.801 151.666 341.675C152.189 341.55 152.681 341.315 153.107 340.987C153.534 340.659 153.887 340.245 154.143 339.771C154.578 340.952 155.446 341.924 156.57 342.49C157.694 343.055 158.991 343.173 160.198 342.819C159.946 344.15 162.421 345.48 163.791 345.84C164.85 345.976 165.923 345.766 166.852 345.241C166.852 345.241 169.194 346.572 170.472 346.093C171.749 345.613 173.453 344.11 172.561 342.779C172.905 341.844 173.015 340.839 172.881 339.851Z" fill="#263238"/>
<path d="M133.502 346.771C133.502 346.771 133.609 347.237 134.168 347.636C134.327 347.746 134.509 347.819 134.699 347.851C134.89 347.883 135.086 347.873 135.272 347.822C135.499 347.755 135.704 347.628 135.865 347.455C136.026 347.282 136.139 347.069 136.19 346.838L136.27 346.438L136.576 346.705C136.84 346.932 137.166 347.076 137.512 347.117C137.858 347.157 138.209 347.093 138.518 346.933C138.828 346.772 139.082 346.523 139.248 346.216C139.414 345.91 139.485 345.561 139.451 345.214V344.815L139.823 344.975C140.214 345.134 140.649 345.146 141.048 345.009C141.447 344.872 141.782 344.595 141.993 344.229C142.137 343.918 142.249 343.592 142.325 343.258C142.325 343.258 142.525 343.67 142.232 344.362C142.052 344.77 141.737 345.104 141.34 345.307C141.081 345.439 140.796 345.515 140.505 345.531C140.214 345.547 139.923 345.503 139.65 345.4L139.956 345.161C140.014 345.635 139.915 346.115 139.675 346.528C139.435 346.942 139.066 347.265 138.626 347.45C138.238 347.612 137.813 347.662 137.399 347.593C136.985 347.525 136.598 347.342 136.284 347.064L136.669 346.931C136.598 347.257 136.435 347.555 136.199 347.791C135.963 348.027 135.665 348.19 135.339 348.261C135.105 348.309 134.864 348.302 134.633 348.242C134.403 348.182 134.189 348.07 134.008 347.915C133.382 347.343 133.476 346.771 133.502 346.771Z" fill="#FAFAFA"/>
<path d="M132.519 353.212C132.519 353.212 132.758 353.399 133.237 353.492C133.557 353.556 133.888 353.521 134.187 353.393C134.487 353.265 134.74 353.049 134.914 352.773L135.047 352.534L135.233 352.733C135.451 352.955 135.723 353.115 136.021 353.199C136.32 353.283 136.636 353.288 136.937 353.212C137.279 353.109 137.582 352.903 137.803 352.622C138.024 352.341 138.154 351.999 138.174 351.642V351.203L138.547 351.443C138.639 351.51 138.743 351.559 138.853 351.589C139.096 351.658 139.354 351.65 139.592 351.567C139.83 351.483 140.037 351.329 140.184 351.123C140.301 350.921 140.362 350.691 140.362 350.458C140.362 350.224 140.301 349.995 140.184 349.792L139.931 349.38H140.397C140.942 349.454 141.495 349.316 141.94 348.994C142.287 348.741 142.547 348.388 142.686 347.983C142.787 347.6 142.841 347.207 142.845 346.812C142.946 347 143.007 347.207 143.025 347.419C143.043 347.632 143.018 347.846 142.952 348.049C142.833 348.54 142.557 348.979 142.167 349.3C141.913 349.504 141.621 349.655 141.308 349.744C140.995 349.833 140.667 349.859 140.344 349.819L140.556 349.486C140.742 349.776 140.833 350.116 140.818 350.46C140.804 350.804 140.684 351.135 140.474 351.408C140.265 351.681 139.977 351.884 139.649 351.987C139.321 352.091 138.968 352.091 138.64 351.988C138.486 351.941 138.338 351.873 138.201 351.789L138.587 351.589C138.56 352.052 138.387 352.494 138.093 352.853C137.799 353.212 137.399 353.468 136.95 353.585C136.572 353.675 136.177 353.661 135.807 353.544C135.436 353.426 135.105 353.211 134.847 352.92H135.167C135.047 353.116 134.888 353.285 134.701 353.418C134.513 353.551 134.3 353.644 134.076 353.692C133.753 353.781 133.413 353.781 133.091 353.692C132.638 353.519 132.492 353.226 132.519 353.212Z" fill="#FAFAFA"/>
<path d="M160.411 330.643C160.185 330.457 159.928 330.313 159.652 330.217C159.34 330.095 158.993 330.095 158.681 330.217C158.482 330.309 158.306 330.444 158.165 330.612C158.025 330.78 157.924 330.977 157.869 331.189L157.789 331.575L157.576 331.229C157.359 330.88 157.058 330.592 156.699 330.392C156.341 330.191 155.937 330.086 155.527 330.084C155.029 330.096 154.548 330.264 154.151 330.565C153.755 330.866 153.463 331.285 153.318 331.761L153.198 332.2L152.918 331.841C152.639 331.496 152.286 331.218 151.886 331.027C151.485 330.836 151.047 330.736 150.603 330.736C150.129 330.746 149.665 330.872 149.251 331.104C148.838 331.336 148.489 331.667 148.234 332.067C148.025 332.4 147.885 332.771 147.822 333.158V333.424L147.569 333.358C146.947 333.216 146.295 333.287 145.718 333.56C145.142 333.833 144.673 334.291 144.388 334.862C144.156 335.371 144.078 335.937 144.163 336.49C144.248 337.043 144.493 337.56 144.867 337.976L145.12 338.255L144.761 338.322C143.942 338.483 143.22 338.961 142.751 339.652C142.396 340.174 142.206 340.791 142.206 341.422C142.226 341.981 142.347 342.531 142.565 343.046C142.565 343.046 142.432 342.939 142.299 342.673C142.097 342.295 141.979 341.877 141.953 341.449C141.905 340.759 142.083 340.073 142.459 339.493C142.705 339.108 143.026 338.776 143.404 338.518C143.781 338.259 144.206 338.079 144.654 337.989L144.548 338.322C144.087 337.812 143.8 337.168 143.729 336.485C143.659 335.801 143.807 335.113 144.155 334.519C144.502 333.926 145.029 333.459 145.659 333.185C146.29 332.912 146.992 332.846 147.662 332.999L147.356 333.198C147.418 332.723 147.586 332.268 147.848 331.867C148.142 331.393 148.551 331.002 149.037 330.729C149.524 330.457 150.072 330.313 150.629 330.31C151.145 330.316 151.652 330.439 152.113 330.67C152.574 330.9 152.977 331.232 153.291 331.641L152.892 331.721C153.017 331.187 153.304 330.705 153.713 330.341C154.123 329.976 154.634 329.747 155.179 329.684C155.724 329.622 156.274 329.729 156.756 329.991C157.237 330.253 157.626 330.657 157.869 331.149H157.576C157.649 330.896 157.779 330.664 157.957 330.47C158.135 330.276 158.355 330.126 158.601 330.031C158.961 329.896 159.358 329.896 159.719 330.031C159.94 330.107 160.137 330.24 160.291 330.417C160.384 330.563 160.424 330.643 160.411 330.643Z" fill="#FAFAFA"/>
<path d="M90.6788 523.031C87.7512 522.884 86.8862 518.759 88.0173 516.044C89.1485 513.329 91.2644 510.907 91.291 507.966C91.291 505.425 89.7074 503.122 89.5477 500.581C89.2682 496.003 93.6864 492.277 93.886 487.686C94.0324 484.119 91.5438 480.712 92.156 477.186C92.7948 473.406 96.7338 470.931 97.6387 467.192C98.6102 463.2 95.8555 459.034 96.9068 455.082C97.9581 451.13 102.589 448.268 101.937 444.249C101.711 442.919 100.912 441.761 100.606 440.457C99.7813 437.463 101.418 434.349 103.388 431.953C105.357 429.558 107.806 427.429 109.03 424.567C110.906 420.176 109.602 414.84 111.825 410.608C113.674 407.095 117.787 404.726 118.306 400.773C120.395 404.327 118.306 408.838 118.825 412.937C119.144 415.598 120.515 418.007 121.366 420.549C122.22 423.158 122.523 425.917 122.255 428.65C121.987 431.383 121.154 434.03 119.809 436.425C118.026 439.565 115.258 442.533 115.404 446.152C115.577 450.531 119.956 453.711 120.728 458.023C121.832 464.184 115.258 469.734 116.176 475.935C116.403 477.545 117.134 479.049 117.281 480.659C117.747 486.142 111.519 489.974 110.627 495.431C109.935 499.423 112.237 503.548 111.292 507.474C110.547 510.508 107.939 513.236 108.631 516.284C109.069 517.564 109.63 518.799 110.308 519.97C110.812 521.165 110.976 522.476 110.781 523.759C110.586 525.041 110.04 526.245 109.203 527.236C108.334 528.2 107.18 528.861 105.908 529.122C104.637 529.383 103.315 529.23 102.137 528.686" fill="#407BFF"/>
<g opacity="0.5">
<path opacity="0.5" d="M110.108 519.97C109.43 518.799 108.869 517.564 108.431 516.284C107.792 513.236 110.4 510.508 111.092 507.474C112.037 503.548 109.762 499.423 110.427 495.431C111.372 490.014 117.6 486.115 117.081 480.659C116.934 479.049 116.203 477.545 115.976 475.935C115.058 469.734 121.632 464.184 120.528 458.023C119.756 453.711 115.378 450.531 115.205 446.152C115.058 442.533 117.866 439.565 119.609 436.425C120.954 434.03 121.787 431.383 122.055 428.65C122.323 425.917 122.02 423.158 121.166 420.549C120.328 418.007 118.944 415.598 118.625 412.937C118.159 408.838 120.195 404.327 118.106 400.773C117.587 404.766 113.475 407.095 111.625 410.608C109.402 414.84 110.707 420.176 108.83 424.567C107.606 427.429 105.171 429.558 103.188 431.953C101.205 434.349 99.5813 437.463 100.406 440.457C100.766 441.788 101.564 442.919 101.737 444.249C102.389 448.242 97.7449 451.156 96.7069 455.082C95.6689 459.008 98.4103 463.226 97.4388 467.192C96.5339 470.931 92.5948 473.406 91.9561 477.186C91.3439 480.712 93.8325 484.119 93.6861 487.686C93.4865 492.277 89.0683 496.003 89.3478 500.581C89.5075 503.122 91.1177 505.425 91.0911 507.966C91.0911 510.907 88.9086 513.289 87.8174 516.044C86.7262 518.799 87.5912 522.884 90.4789 523.031L101.737 528.686C102.916 529.23 104.237 529.383 105.509 529.122C106.78 528.861 107.935 528.2 108.804 527.236C109.674 526.265 110.256 525.071 110.487 523.788C110.717 522.505 110.586 521.183 110.108 519.97Z" fill="white"/>
</g>
<path d="M106.288 517.294C105.509 515.984 105.117 514.48 105.156 512.956C105.463 511.279 108.284 509.815 108.989 506.968C109.907 503.281 108.257 496.761 108.989 493.048C109.947 487.991 115.164 484.664 114.951 479.647C114.951 478.17 115.097 474.231 114.951 472.78C114.392 467.124 119.356 463.332 118.637 457.716C118.131 453.804 114.073 449.199 114.059 445.18C114.059 441.867 116.441 438.952 118.052 435.945C120.408 431.439 121.023 426.224 119.782 421.293C119.156 419.004 118.092 416.875 117.919 414.44C117.652 410.7 119.489 406.455 117.919 403.274C117.373 406.947 113.926 409.396 112.236 412.749C110.267 416.742 111.185 421.626 109.481 425.791C108.377 428.452 106.301 430.622 104.584 432.95C102.868 435.279 101.417 438.274 102.003 440.935C102.41 442.045 102.753 443.178 103.027 444.328C103.453 447.988 99.5274 450.982 98.5293 454.629C97.5312 458.275 99.6737 462.014 98.7555 465.74C97.8905 469.227 94.4705 473.978 93.8184 477.491C93.2062 480.778 96.1871 482.921 95.9476 486.208C95.6548 490.439 91.4097 495.523 91.4896 499.768C91.4896 502.097 93.4857 502.842 93.3925 505.184C93.2728 507.846 91.0105 513.249 90.0257 515.83C89.4968 516.993 89.2835 518.274 89.4073 519.545C89.5311 520.816 89.9877 522.031 90.731 523.07L103.307 529.311C108.869 526.596 108.683 521.1 106.288 517.294Z" fill="#407BFF"/>
<path d="M114.739 422.331C114.748 422.424 114.748 422.518 114.739 422.611V423.436C114.739 424.154 114.739 425.219 114.619 426.576C114.5 428.246 114.114 429.886 113.474 431.433C112.458 433.393 111.188 435.21 109.695 436.836C108.896 437.806 108.287 438.916 107.898 440.11C107.508 441.403 107.355 442.755 107.446 444.102C107.579 446.937 108.457 449.904 108.87 453.125C109.115 454.789 109.061 456.484 108.71 458.129C108.486 458.974 108.155 459.788 107.725 460.551C107.243 461.263 106.799 462 106.395 462.76C105.828 464.412 105.8 466.201 106.315 467.87C106.501 468.748 106.701 469.653 106.807 470.531C106.927 471.468 106.927 472.416 106.807 473.352C106.456 475.194 105.87 476.983 105.064 478.676C104.319 480.281 103.67 481.93 103.121 483.613C102.643 485.244 102.498 486.955 102.695 488.643C102.932 490.295 102.99 491.968 102.868 493.633C102.577 495.201 102.042 496.715 101.284 498.118C100.585 499.408 100.048 500.781 99.6876 502.203C99.1553 504.985 99.9537 507.646 99.8872 510.108C99.7508 512.317 99.2657 514.491 98.45 516.549C97.8725 518.094 97.4577 519.695 97.2123 521.327C97.0929 522.362 97.2019 523.412 97.5317 524.401C97.7846 525.053 97.9842 525.385 97.9576 525.399C97.7528 525.093 97.5789 524.767 97.4386 524.427C97.0545 523.437 96.9131 522.369 97.026 521.313C97.2211 519.659 97.6097 518.033 98.1838 516.469C98.9433 514.427 99.3919 512.283 99.5146 510.108C99.5146 508.91 99.3416 507.646 99.2085 506.316C98.9963 504.926 98.9963 503.513 99.2085 502.124C99.7408 499.209 101.87 496.707 102.322 493.567C102.439 491.936 102.373 490.298 102.123 488.683C101.929 486.936 102.082 485.167 102.575 483.48C103.533 480.06 105.623 476.932 106.222 473.313C106.338 472.429 106.338 471.534 106.222 470.651C106.107 469.756 105.947 468.868 105.743 467.99C105.245 466.193 105.343 464.283 106.022 462.547C106.424 461.769 106.869 461.014 107.353 460.284C107.769 459.567 108.087 458.797 108.298 457.995C108.643 456.408 108.697 454.771 108.457 453.165C108.071 449.998 107.206 447.017 107.127 444.102C107.042 442.695 107.214 441.284 107.632 439.937C108.05 438.704 108.691 437.559 109.522 436.557C111.011 434.951 112.29 433.162 113.328 431.234C113.972 429.722 114.376 428.119 114.526 426.483C114.672 425.152 114.712 424.061 114.752 423.356C114.752 423.01 114.752 422.744 114.752 422.531C114.741 422.465 114.737 422.398 114.739 422.331Z" fill="#263238"/>
<path d="M72.7534 524.468C68.668 525.067 66.3392 519.584 67.111 515.512C67.8829 511.44 70.1984 507.527 69.4398 503.442C68.7745 499.915 65.9 497.161 64.9951 493.687C63.3583 487.42 68.4551 481.032 67.4703 474.631C66.6852 469.641 62.3203 465.608 62.1473 460.565C62.0142 455.149 66.7916 450.624 67.0312 445.208C67.2707 439.446 62.307 434.389 62.6929 428.626C63.0788 422.864 68.6946 417.634 66.6852 412.245C66.0198 410.461 64.5959 409.077 63.7309 407.374C61.7613 403.382 63.172 398.671 65.2613 394.812C67.3505 390.952 70.1318 387.346 71.0501 383.048C72.4474 376.394 69.1737 369.407 71.0501 362.94C72.647 357.617 77.7039 353.145 77.3313 347.543C81.2038 351.881 79.6069 358.708 81.3236 364.244C82.4813 367.85 85.0497 370.805 86.9261 374.105C88.8225 377.485 89.9969 381.222 90.3748 385.08C90.7528 388.937 90.3261 392.831 89.1218 396.515C87.4983 401.372 84.4908 406.23 85.6752 411.153C87.1124 417.169 94.0457 420.376 96.3213 426.138C99.5417 434.375 91.9564 443.864 94.9107 452.208C95.6692 454.363 97.1064 456.2 97.7319 458.436C99.8877 465.914 92.329 472.981 92.502 480.752C92.635 486.461 96.9467 491.545 96.7072 497.254C96.5209 501.659 93.6331 506.143 95.3764 510.202C96.1216 511.959 97.6387 513.263 98.7033 514.847C99.7314 516.365 100.32 518.137 100.405 519.969C100.489 521.801 100.066 523.62 99.1824 525.227C98.2454 526.806 96.8288 528.044 95.139 528.762C93.4492 529.48 91.5743 529.64 89.7872 529.219" fill="#407BFF"/>
<g opacity="0.5">
<path opacity="0.5" d="M98.7834 514.899C97.7188 513.316 96.2017 512.012 95.4565 510.255C93.7265 506.196 96.6143 501.711 96.7873 497.307C97.0268 491.598 92.7151 486.514 92.5821 480.805C92.4091 473.033 99.9678 465.967 97.812 458.488C97.1865 456.306 95.7493 454.416 94.9907 452.26C92.0364 443.916 99.6218 434.428 96.4013 426.191C94.139 420.428 87.2058 417.221 85.7552 411.206C84.5709 406.229 87.5784 401.372 89.2019 396.568C90.4062 392.884 90.8328 388.99 90.4549 385.132C90.0769 381.275 88.9026 377.538 87.0062 374.158C85.1298 370.857 82.5614 367.903 81.4036 364.297C79.6204 358.761 81.2173 351.934 77.4114 347.596C77.784 353.198 72.7271 357.616 71.1301 362.993C69.2005 369.46 72.4609 376.5 71.1301 383.1C70.2119 387.399 67.4306 391.005 65.3413 394.864C63.252 398.724 61.8414 403.501 63.811 407.427C64.6759 409.13 66.0999 410.514 66.7652 412.297C68.7747 417.687 63.1456 422.944 62.773 428.679C62.4003 434.415 67.3508 439.498 67.1112 445.26C66.8717 450.677 62.0943 455.201 62.2273 460.617C62.3604 465.661 66.7253 469.693 67.5504 474.684C68.5352 481.085 63.4383 487.472 65.0752 493.74C65.9801 497.213 68.8545 499.968 69.5199 503.495C70.2785 507.567 67.9496 511.479 67.1911 515.565C66.4326 519.65 68.615 525.093 72.7537 524.467L89.9205 529.218C91.7076 529.64 93.5825 529.48 95.2723 528.762C96.9622 528.044 98.3787 526.805 99.3157 525.226C100.181 523.621 100.59 521.809 100.496 519.988C100.402 518.167 99.8095 516.407 98.7834 514.899Z" fill="white"/>
</g>
<path d="M92.7143 512.238C91.273 510.64 90.3173 508.665 89.9596 506.543C89.9596 504.147 93.4329 501.326 93.6325 497.227C93.8853 491.904 89.8265 483.281 89.7733 477.945C89.7733 470.679 96.0412 464.637 94.3777 457.744C93.8853 455.721 93.047 450.198 92.488 448.215C90.1725 440.55 96.0012 433.923 93.4728 426.351C91.6896 421.028 84.8095 415.811 83.6917 410.235C82.7868 405.644 85.2886 400.92 86.646 396.342C88.7227 389.43 88.1729 381.994 85.1023 375.462C83.6118 372.468 81.5492 369.807 80.6442 366.48C79.3135 361.383 80.6442 354.929 77.5169 351.043C77.7565 356.273 73.5247 360.611 72.1939 365.681C70.5704 371.816 73.1654 378.27 71.9544 384.498C71.1559 388.557 68.867 392.057 67.1237 395.757C65.3804 399.456 64.1827 403.994 65.7929 407.574C66.4583 409.131 67.6161 410.368 68.1351 412.005C69.7187 416.956 65.0876 422.132 64.715 427.509C64.3424 432.885 68.3347 437.436 68.0685 442.839C67.829 447.909 64.3956 455.415 64.4489 460.485C64.4489 465.196 69.213 467.338 69.7719 471.983C70.5171 477.918 66.0458 486.182 67.31 491.944C68.0153 495.151 70.9164 495.657 71.4221 498.931C71.9943 502.697 70.3308 510.748 69.6654 514.594C69.2634 516.366 69.3372 518.212 69.8795 519.947C70.4217 521.681 71.413 523.241 72.7528 524.468L91.8892 529.671C98.889 524.428 97.0525 516.936 92.7143 512.238Z" fill="#407BFF"/>
<path d="M78.4616 378.363C78.9161 380.31 79.245 382.283 79.4464 384.272C79.7366 386.613 79.6513 388.985 79.1936 391.298C78.8621 392.734 78.3571 394.124 77.6898 395.437C76.9978 396.834 76.1727 398.258 75.4142 399.789C74.5666 401.363 74.0247 403.083 73.8173 404.859C73.618 406.779 73.776 408.719 74.2831 410.581C75.2545 414.494 77.2773 418.366 78.7278 422.704C79.5249 424.932 79.9082 427.286 79.8589 429.651C79.7935 430.875 79.5606 432.084 79.1669 433.244C78.6841 434.362 78.2708 435.509 77.9293 436.677C77.3438 439.059 78.2487 441.521 79.2601 443.837C79.7525 445.021 80.2848 446.206 80.684 447.457C81.0721 448.727 81.2957 450.042 81.3494 451.369C81.3543 453.988 81.037 456.599 80.4046 459.141C79.8051 461.576 79.3606 464.048 79.0738 466.54C78.8575 468.942 79.1245 471.362 79.8589 473.659C80.6396 475.875 81.1795 478.168 81.4692 480.499C81.5016 482.755 81.1737 485.001 80.4977 487.153C79.8947 489.143 79.5328 491.198 79.4198 493.275C79.4842 495.208 79.8293 497.123 80.4445 498.957C81.0182 500.673 81.498 502.419 81.8817 504.187C82.1591 505.818 82.2218 507.477 82.068 509.124C81.9615 510.668 81.7752 512.132 81.6022 513.489C81.219 515.788 81.094 518.122 81.2296 520.449C81.35 521.921 81.8052 523.345 82.5604 524.614C83.0927 525.466 83.4653 525.852 83.4387 525.878C83.0805 525.504 82.7555 525.098 82.4672 524.667C81.6752 523.4 81.192 521.964 81.0566 520.476C80.8893 518.13 80.9875 515.773 81.3494 513.449C81.5091 512.118 81.6821 510.641 81.7752 509.098C81.8956 507.478 81.8062 505.85 81.5091 504.254C81.1089 502.5 80.6204 500.768 80.0453 499.064C79.4035 497.193 79.0446 495.238 78.9806 493.261C79.0766 491.154 79.4342 489.066 80.0453 487.047C80.6985 484.945 81.0129 482.753 80.9768 480.553C80.6959 478.25 80.1694 475.983 79.4065 473.792C78.6448 471.442 78.3687 468.961 78.5947 466.5C78.8779 463.985 79.3224 461.492 79.9255 459.034C80.5494 456.536 80.8623 453.97 80.857 451.396C80.8133 450.113 80.5985 448.842 80.2183 447.616C79.819 446.392 79.3133 445.221 78.8875 444.036C78.3388 442.867 77.8935 441.651 77.5567 440.403C77.2641 439.143 77.2641 437.832 77.5567 436.571C77.905 435.385 78.3227 434.221 78.8076 433.084C79.1904 431.967 79.4188 430.803 79.4863 429.624C79.5326 427.318 79.1583 425.023 78.3818 422.851C76.9712 418.552 74.9484 414.667 73.977 410.688C73.4779 408.769 73.3292 406.777 73.5378 404.806C73.7617 402.991 74.326 401.234 75.2013 399.629C75.9731 398.085 76.8248 396.675 77.5035 395.291C78.1764 394.03 78.6861 392.688 79.0206 391.298C79.4978 389.015 79.6145 386.671 79.3666 384.352C79.1936 382.449 78.9407 380.972 78.7943 379.96C78.7145 379.481 78.6613 379.109 78.6213 378.829C78.5814 378.55 78.4616 378.363 78.4616 378.363Z" fill="#263238"/>
<path d="M70.092 527.169C67.7498 528.313 65.3012 525.479 64.9819 522.897C64.6625 520.315 65.2746 517.508 64.037 515.219C62.9591 513.236 60.7101 512.145 59.4858 510.242C57.3034 506.808 59.1265 502.004 57.29 498.358C55.8661 495.523 52.4727 493.953 51.4081 490.959C50.2769 487.752 52.2731 484.119 51.4081 480.832C50.4366 477.332 46.4842 475.269 45.6059 471.743C44.7276 468.216 47.0698 463.998 44.8208 461.096C43.9736 460.271 43.0853 459.49 42.1593 458.754C40.2297 456.785 40.1365 453.658 40.6422 450.943C41.1479 448.228 42.1193 445.527 41.8399 442.785C41.4007 438.567 38.0738 434.974 37.9807 430.742C37.9008 427.202 40.07 423.596 38.7658 420.309C41.9197 422.158 42.2923 426.55 44.4216 429.517C45.7523 431.447 47.9215 432.725 49.7446 434.335C51.5343 435.99 52.9601 438 53.9315 440.236C54.9029 442.472 55.3985 444.885 55.387 447.323C55.387 450.544 54.4954 454.043 56.1722 456.785C58.195 460.112 62.9591 460.684 65.4875 463.691C69.0141 468.003 66.3126 475.149 69.6928 479.567C70.5711 480.712 71.7821 481.564 72.5805 482.761C75.242 486.754 72.1547 492.503 73.7649 497.12C74.9493 500.514 78.5157 502.723 79.4739 506.183C80.2191 508.844 79.3541 512.105 81.1772 514.167C82.0712 514.97 83.038 515.687 84.065 516.31C84.9739 517.017 85.669 517.962 86.0731 519.04C86.4772 520.119 86.5744 521.288 86.3539 522.418C86.0934 523.543 85.4803 524.555 84.6041 525.306C83.7279 526.058 82.6345 526.51 81.4833 526.597" fill="#407BFF"/>
<g opacity="0.5">
<path opacity="0.5" d="M83.9048 516.404C82.8778 515.781 81.911 515.063 81.0171 514.261C79.1939 512.172 80.0589 508.938 79.3137 506.277C78.3555 502.817 74.7891 500.607 73.6047 497.214C71.9945 492.596 75.1484 486.901 72.4203 482.855C71.6219 481.657 70.4109 480.806 69.5326 479.661C66.1525 475.243 68.8539 468.097 65.3274 463.785C62.8655 460.778 58.1013 460.205 56.012 456.879C54.3353 454.137 55.2003 450.637 55.2269 447.417C55.2384 444.979 54.7427 442.565 53.7713 440.329C52.7999 438.093 51.3741 436.084 49.5844 434.429C47.8278 432.818 45.7252 431.541 44.2614 429.611C42.1322 426.644 41.7595 422.252 38.6056 420.402C39.9364 423.689 37.7406 427.296 37.8205 430.836C37.9136 435.067 41.2406 438.66 41.6797 442.879C41.9592 445.62 40.9877 448.322 40.482 451.037C39.9763 453.751 40.0695 456.879 41.9991 458.848C42.9757 459.588 43.913 460.379 44.807 461.217C47.056 464.051 44.7005 468.297 45.5921 471.863C46.4838 475.429 50.4228 477.452 51.3943 480.952C52.2992 484.239 50.3031 487.872 51.3943 491.079C52.4589 494.073 55.8523 495.644 57.2763 498.478C59.1127 502.125 57.2763 506.929 59.472 510.362C60.6963 512.265 62.9453 513.356 64.0232 515.339C65.2608 517.628 64.6354 520.436 64.9681 523.018C65.3008 525.599 67.7361 528.434 70.0782 527.289L81.2566 526.81C82.4078 526.724 83.5012 526.272 84.3774 525.52C85.2536 524.768 85.8667 523.756 86.1272 522.632C86.3789 521.49 86.3039 520.3 85.9109 519.198C85.5178 518.097 84.8226 517.128 83.9048 516.404Z" fill="white"/>
</g>
<path d="M79.7796 515.964C78.6153 515.292 77.6649 514.305 77.0382 513.116C76.5458 511.692 78.1028 509.323 77.4241 506.808C76.5458 503.561 72.4471 499.21 71.3958 496.016C69.9453 491.691 72.5802 486.847 70.238 483.041C69.5593 481.923 68.0156 478.782 67.2704 477.718C64.396 473.579 66.6183 468.482 63.6374 464.41C61.5481 461.576 56.4114 459.766 54.6681 456.652C53.2309 454.07 53.8297 450.783 53.7499 447.762C53.66 443.223 51.8971 438.878 48.7994 435.559C47.1803 434.21 45.7042 432.699 44.3946 431.048C42.5715 428.266 42.1456 424.141 39.5373 422.411C40.6951 425.499 39.0449 428.905 39.2179 432.219C39.4309 436.211 42.2255 439.565 42.7045 443.53C43.0239 446.112 42.3186 448.654 41.9992 451.196C41.6798 453.737 41.8129 456.692 43.4764 458.555C44.2692 459.246 45.0244 459.979 45.7387 460.75C47.6417 463.412 45.8717 467.404 46.6968 470.691C47.5219 473.978 50.7823 475.934 51.6606 479.208C52.5389 482.482 51.9001 487.459 52.9115 490.48C53.8563 493.288 57.0901 493.66 58.3277 496.322C59.9246 499.742 58.8467 505.544 60.7231 508.764C61.7611 510.548 63.5975 510.281 64.529 512.145C65.607 514.3 66.1659 519.437 66.5119 521.859C66.6057 522.99 66.9942 524.076 67.6386 525.01C68.283 525.944 69.1609 526.693 70.1848 527.182L82.6407 526.597C85.808 522.085 83.2529 517.947 79.7796 515.964Z" fill="#407BFF"/>
<path d="M45.3522 438.594C45.402 438.661 45.4465 438.732 45.4852 438.807C45.5917 438.966 45.7115 439.179 45.8578 439.432C46.1639 439.991 46.6164 440.763 47.1088 441.921C47.7463 443.269 48.1598 444.711 48.3331 446.192C48.387 448.153 48.1857 450.112 47.7342 452.021C47.5281 453.116 47.5281 454.24 47.7342 455.335C47.9684 456.512 48.4196 457.636 49.065 458.648C50.3957 460.791 52.352 462.707 54.0687 465.036C54.9885 466.229 55.6789 467.583 56.1047 469.028C56.3055 469.783 56.3995 470.563 56.3842 471.344C56.3184 472.1 56.2917 472.86 56.3043 473.619C56.5783 475.143 57.3284 476.541 58.4469 477.612C58.9659 478.224 59.5115 478.836 60.0039 479.515C60.4876 480.207 60.8811 480.958 61.1749 481.75C61.6844 483.325 61.9973 484.956 62.1065 486.608C62.2228 488.176 62.4316 489.735 62.7319 491.279C63.07 492.748 63.694 494.136 64.5684 495.364C65.467 496.546 66.2344 497.822 66.8573 499.17C67.3089 500.518 67.5468 501.928 67.5626 503.349C67.5783 504.648 67.7571 505.94 68.0949 507.195C68.8667 509.563 70.6367 511.293 71.6613 513.236C72.5024 515.019 73.0592 516.923 73.3115 518.879C73.5202 520.326 73.8907 521.746 74.416 523.111C74.7589 523.964 75.2913 524.729 75.973 525.346C76.4654 525.759 76.7582 525.932 76.7316 525.945C76.4395 525.801 76.163 525.627 75.9065 525.426C75.1794 524.823 74.6049 524.057 74.2297 523.19C73.6776 521.818 73.276 520.391 73.032 518.932C72.7829 517.011 72.2399 515.139 71.4218 513.383C70.4237 511.506 68.6272 509.803 67.7755 507.288C66.9238 504.773 67.5094 501.965 66.4448 499.303C65.8276 497.994 65.0737 496.754 64.1958 495.604C63.2824 494.334 62.6309 492.896 62.2795 491.372C61.5475 488.284 61.827 484.958 60.7225 481.897C60.4456 481.147 60.0744 480.436 59.6179 479.781C59.1522 479.129 58.6199 478.53 58.1009 477.918C56.9111 476.771 56.1185 475.275 55.8386 473.646C55.8241 472.864 55.8508 472.083 55.9184 471.304C55.9453 470.597 55.8781 469.89 55.7188 469.201C55.3053 467.819 54.6423 466.525 53.7626 465.382C52.0991 463.093 50.1429 461.15 48.7855 458.954C48.1088 457.896 47.6308 456.724 47.3749 455.494C47.1605 454.356 47.1605 453.187 47.3749 452.048C47.8505 450.169 48.0787 448.237 48.0536 446.299C47.9002 444.844 47.5231 443.421 46.9358 442.08C46.47 440.976 46.0442 440.137 45.7647 439.565L45.4453 438.913C45.3788 438.687 45.3389 438.594 45.3522 438.594Z" fill="#263238"/>
<path d="M52.2588 517.322L57.1028 527.17H116.122L122.789 517.322H52.2588Z" fill="#455A64"/>
<path d="M58.5137 523.776L67.3499 554.277L107.113 554.304L115.111 523.83L58.5137 523.776Z" fill="#455A64"/>
<path d="M115.87 527.09C115.87 527.236 102.696 527.343 86.447 527.343C70.1984 527.343 57.0371 527.236 57.0371 527.09C57.0371 526.943 70.2117 526.837 86.447 526.837C102.682 526.837 115.87 526.957 115.87 527.09Z" fill="#263238"/>
<path d="M431.926 0.505859H107.047V173.651H431.926V0.505859Z" fill="#FAFAFA"/>
<path d="M431.939 173.651C431.939 171.562 431.833 107.007 431.673 0.505691L431.939 0.771845L107.074 0.851693L107.42 0.505691C107.42 61.7208 107.42 120.274 107.42 173.651L107.087 173.332L340.689 173.492L407.866 173.571H425.778H430.396H431.979H430.436H425.805H407.972L340.875 173.665L107.047 173.824H106.728V173.492C106.728 120.075 106.728 61.4946 106.728 0.346001V0H107.1L431.966 0.0798476H432.232V0.346001C432.059 107.007 431.939 171.562 431.939 173.651Z" fill="#263238"/>
<path d="M285.862 28.7845C285.862 28.9841 262.8 29.1305 234.361 29.1305C205.923 29.1305 182.874 28.9841 182.874 28.7845C182.874 28.5849 205.923 28.4385 234.361 28.4385C262.8 28.4385 285.862 28.5982 285.862 28.7845Z" fill="#263238"/>
<path d="M264.675 40.3353C264.675 40.5216 247.069 40.6812 225.351 40.6812C203.633 40.6812 186.027 40.5216 186.027 40.3353C186.027 40.1489 203.633 39.9893 225.351 39.9893C247.069 39.9893 264.675 40.1356 264.675 40.3353Z" fill="#E0E0E0"/>
<path d="M393.694 87.0853C393.694 87.2716 343.976 87.4313 282.655 87.4313C221.333 87.4313 171.603 87.2716 171.603 87.0853C171.603 86.899 221.307 86.7393 282.655 86.7393C344.003 86.7393 393.694 86.8856 393.694 87.0853Z" fill="#263238"/>
<path d="M393.694 103.52C393.694 103.719 339.132 103.866 271.942 103.866C204.752 103.866 150.164 103.719 150.164 103.52C150.164 103.32 204.725 103.174 271.942 103.174C339.159 103.174 393.694 103.334 393.694 103.52Z" fill="#263238"/>
<path d="M284.343 123.854C284.343 124.04 254.082 124.2 216.781 124.2C179.479 124.2 149.218 124.04 149.218 123.854C149.218 123.668 179.453 123.508 216.781 123.508C254.109 123.508 284.343 123.668 284.343 123.854Z" fill="#263238"/>
<path d="M164.761 48.5905C173.055 40.2962 173.055 26.8484 164.761 18.554C156.466 10.2597 143.019 10.2597 134.724 18.554C126.43 26.8484 126.43 40.2962 134.724 48.5905C143.019 56.8848 156.466 56.8848 164.761 48.5905Z" fill="#263238"/>
<path d="M157.31 31.1668C157.31 32.6644 156.866 34.1284 156.034 35.3736C155.202 36.6188 154.019 37.5893 152.636 38.1624C151.252 38.7355 149.73 38.8855 148.261 38.5933C146.792 38.3012 145.443 37.58 144.384 36.521C143.325 35.462 142.604 34.1128 142.312 32.644C142.019 31.1752 142.169 29.6527 142.742 28.2691C143.316 26.8855 144.286 25.7029 145.531 24.8708C146.776 24.0388 148.24 23.5947 149.738 23.5947C151.746 23.5947 153.672 24.3925 155.092 25.8125C156.512 27.2326 157.31 29.1585 157.31 31.1668Z" fill="#FAFAFA"/>
<path d="M138.253 49.1851C138.253 49.1851 142.059 41.6396 149.777 41.6396C157.496 41.6396 161.754 48.8125 161.754 48.8125C158.468 51.7471 154.181 53.3094 149.777 53.1774C142.099 53.1108 138.253 49.1851 138.253 49.1851Z" fill="#FAFAFA"/>
<path d="M571.35 553.851C571.35 554.05 443.437 554.197 285.688 554.197C127.94 554.197 0 554.05 0 553.851C0 553.651 127.886 553.505 285.688 553.505C443.49 553.505 571.35 553.665 571.35 553.851Z" fill="#263238"/>
<path d="M334.181 207.293C334.181 207.293 328.592 237.035 329.35 238.925C330.109 240.814 338.586 249.012 341.62 248.24C342.441 247.77 343.182 247.173 343.815 246.47L355.486 242.478L349.684 192.042L340.369 211.218L334.181 207.293Z" fill="#455A64"/>
<path d="M343.815 246.457C343.695 246.457 344.334 244.501 344.627 241.267C344.977 237.052 344.91 232.813 344.427 228.611C343.986 224.404 343.189 220.241 342.045 216.169C341.167 213.041 340.275 211.218 340.382 211.165C340.67 211.545 340.907 211.961 341.087 212.403C341.639 213.577 342.115 214.786 342.511 216.022C343.822 220.09 344.714 224.282 345.172 228.531C345.677 232.779 345.677 237.072 345.172 241.32C345.019 242.609 344.756 243.882 344.387 245.126C344.251 245.591 344.059 246.038 343.815 246.457Z" fill="#263238"/>
<path d="M397.313 122.603C399.505 119.998 401.398 117.154 402.955 114.126C404.505 111.057 404.973 107.554 404.286 104.185C403.82 102.256 402.835 100.446 402.542 98.4763C402.157 95.8148 403.088 92.8206 401.917 90.332C400.081 86.4462 394.638 86.22 391.151 83.6782C388.49 81.722 386.919 78.3552 383.965 76.705C381.397 75.3742 378.243 75.5739 375.395 76.186C372.547 76.7982 369.673 77.7297 366.758 77.5168C364.689 77.2395 362.636 76.8486 360.61 76.3457C358.557 75.8518 356.393 76.1563 354.555 77.1974C352.838 78.3685 352.027 80.9901 353.344 82.6136C349.871 81.2828 345.812 84.2238 345.173 87.8435C344.534 91.4632 346.664 95.1893 349.684 97.3318C352.835 99.3256 356.437 100.493 360.158 100.725C370.577 101.91 381.636 100.02 390.06 93.8452" fill="#407BFF"/>
<path d="M397.525 109.401L394.863 161.301C394.754 163.396 394.219 165.446 393.29 167.327C392.361 169.208 391.059 170.88 389.462 172.24C387.865 173.6 386.007 174.62 384.003 175.238C381.998 175.856 379.889 176.058 377.803 175.833C369.552 174.981 363.165 173.73 363.604 165.479C363.803 161.58 364.189 152.398 364.176 151.999C364.176 151.999 350.961 150.029 350.655 136.895C350.509 130.547 351.294 117.439 352.119 105.608C352.569 99.4699 355.321 93.7281 359.825 89.5329C364.328 85.3378 370.251 82.9991 376.406 82.9854H377.736C391.457 83.7306 398.576 95.7474 397.525 109.401Z" fill="#FFD5BD"/>
<path d="M364.189 151.853C370.277 151.934 376.251 150.206 381.356 146.89C381.356 146.89 377.364 156.365 364.203 155.26L364.189 151.853Z" fill="#FFB294"/>
<path d="M355.221 116.947C355.221 117.438 355.413 117.909 355.756 118.26C356.099 118.61 356.566 118.813 357.057 118.823C357.296 118.843 357.537 118.814 357.764 118.739C357.992 118.663 358.201 118.542 358.38 118.382C358.56 118.223 358.705 118.029 358.807 117.812C358.909 117.595 358.965 117.359 358.973 117.12C358.97 116.632 358.779 116.165 358.439 115.815C358.099 115.465 357.638 115.261 357.15 115.243C356.911 115.224 356.67 115.252 356.441 115.328C356.213 115.404 356.003 115.525 355.822 115.684C355.642 115.843 355.496 116.037 355.392 116.254C355.289 116.471 355.231 116.707 355.221 116.947Z" fill="#263238"/>
<path d="M355.06 112.077C355.3 112.316 356.724 111.265 358.747 111.252C360.769 111.238 362.273 112.25 362.486 111.997C362.699 111.744 362.353 111.451 361.701 110.986C360.82 110.382 359.774 110.065 358.707 110.081C357.654 110.085 356.63 110.42 355.779 111.039C355.154 111.531 354.954 111.97 355.06 112.077Z" fill="#263238"/>
<path d="M374.383 117.946C374.389 118.437 374.586 118.906 374.93 119.256C375.275 119.606 375.742 119.809 376.233 119.822C376.471 119.84 376.711 119.81 376.938 119.734C377.164 119.657 377.373 119.536 377.552 119.377C377.731 119.218 377.876 119.025 377.978 118.809C378.081 118.592 378.139 118.358 378.149 118.119C378.149 117.628 377.957 117.157 377.614 116.806C377.27 116.455 376.803 116.253 376.312 116.242C376.073 116.223 375.832 116.251 375.603 116.327C375.375 116.403 375.165 116.524 374.984 116.683C374.804 116.842 374.658 117.036 374.555 117.253C374.451 117.47 374.393 117.706 374.383 117.946Z" fill="#263238"/>
<path d="M375.008 112.343C375.247 112.583 376.658 111.532 378.681 111.518C380.704 111.505 382.207 112.516 382.434 112.264C382.66 112.011 382.3 111.718 381.635 111.252C380.755 110.648 379.708 110.332 378.641 110.347C377.589 110.354 376.566 110.689 375.713 111.305C375.101 111.798 374.835 112.237 375.008 112.343Z" fill="#263238"/>
<path d="M367.795 127.354C366.721 127.033 365.614 126.841 364.495 126.781C363.976 126.781 363.483 126.635 363.404 126.289C363.348 125.758 363.46 125.223 363.723 124.759C364.202 123.508 364.694 122.19 365.213 120.766C367.289 115.164 368.78 110.559 368.554 110.48C368.327 110.4 366.464 114.871 364.388 120.474C363.896 121.804 363.417 123.135 362.964 124.466C362.646 125.09 362.561 125.807 362.725 126.489C362.802 126.67 362.918 126.833 363.065 126.964C363.213 127.095 363.387 127.192 363.577 127.247C363.864 127.317 364.159 127.353 364.455 127.354C365.563 127.503 366.687 127.503 367.795 127.354Z" fill="#263238"/>
<path d="M373.784 128.725C373.451 128.725 373.464 130.894 371.601 132.464C369.738 134.035 367.383 133.795 367.369 134.114C367.356 134.434 367.902 134.527 368.886 134.554C370.176 134.564 371.429 134.121 372.426 133.303C373.372 132.514 373.974 131.387 374.103 130.162C374.183 129.257 373.93 128.712 373.784 128.725Z" fill="#263238"/>
<path d="M374.397 104.438C374.61 104.984 376.633 104.704 379.015 104.984C381.397 105.263 383.327 105.889 383.633 105.396C383.779 105.157 383.433 104.651 382.648 104.065C381.615 103.403 380.437 103.001 379.215 102.894C377.999 102.753 376.767 102.903 375.621 103.334C374.743 103.746 374.317 104.172 374.397 104.438Z" fill="#407BFF"/>
<path d="M355.753 106.235C356.112 106.688 357.509 106.235 359.186 106.235C360.863 106.235 362.287 106.528 362.62 106.049C362.753 105.809 362.526 105.357 361.901 104.931C361.063 104.41 360.089 104.151 359.103 104.187C358.117 104.222 357.163 104.551 356.365 105.131C355.779 105.53 355.593 106.009 355.753 106.235Z" fill="#407BFF"/>
<path d="M396.553 119.129C396.779 119.036 405.589 116.468 405.403 125.397C405.217 134.326 396.181 132.29 396.167 132.051C396.154 131.811 396.553 119.129 396.553 119.129Z" fill="#FFD5BD"/>
<path d="M399.002 128.698C399.002 128.698 399.162 128.818 399.415 128.937C399.786 129.114 400.211 129.137 400.599 129.004C401.188 128.65 401.673 128.145 402.003 127.542C402.333 126.938 402.496 126.258 402.475 125.571C402.513 124.8 402.376 124.032 402.076 123.322C401.999 123.036 401.853 122.775 401.651 122.559C401.449 122.343 401.198 122.18 400.918 122.084C400.739 122.033 400.548 122.047 400.378 122.122C400.208 122.198 400.07 122.33 399.987 122.497C399.854 122.736 399.907 122.922 399.867 122.936C399.827 122.949 399.668 122.776 399.747 122.403C399.813 122.191 399.943 122.005 400.12 121.871C400.374 121.689 400.689 121.613 400.998 121.658C401.367 121.741 401.708 121.917 401.99 122.168C402.271 122.42 402.484 122.739 402.609 123.095C402.975 123.881 403.144 124.745 403.101 125.611C403.126 126.413 402.913 127.205 402.489 127.887C402.065 128.569 401.45 129.11 400.719 129.443C400.473 129.504 400.218 129.51 399.969 129.462C399.721 129.413 399.487 129.312 399.282 129.164C399.015 128.924 398.976 128.711 399.002 128.698Z" fill="#FFB294"/>
<path d="M351.88 93.4064C352.771 96.9196 360.25 99.6477 366.239 99.0355C371.748 98.4766 374.223 95.5489 378.136 93.3266C380.584 91.916 380.584 91.9159 384.071 92.222C386.906 92.4749 388.596 95.6421 390.352 97.8778C387.864 104.532 389.66 112.01 391.47 118.93C391.585 119.717 391.96 120.444 392.535 120.993C393.613 121.805 395.196 121.166 396.128 120.181C397.476 118.499 398.304 116.459 398.51 114.313C399.402 109.488 399.321 104.534 398.27 99.7408C397.2 94.9231 394.744 90.5238 391.204 87.0853C386.592 82.9211 380.555 80.691 374.343 80.8573C368.173 81.0816 362.229 83.2366 357.349 87.0187C355.025 88.662 353.146 90.857 351.88 93.4064Z" fill="#407BFF"/>
<path d="M365.679 117.878C365.6 117.878 365.773 117.12 365.679 115.789C365.511 113.893 364.721 112.105 363.43 110.706C362.493 109.673 361.315 108.89 360 108.425C358.685 107.961 357.276 107.83 355.898 108.044C354.231 108.315 352.686 109.09 351.473 110.265C350.259 111.441 349.435 112.96 349.111 114.618C348.805 116.283 349.014 118.003 349.711 119.546C350.407 121.089 351.559 122.383 353.011 123.255C354.205 123.976 355.56 124.39 356.954 124.457C358.348 124.524 359.737 124.244 360.995 123.641C362.721 122.831 364.126 121.468 364.987 119.768C365.586 118.557 365.693 117.799 365.773 117.812C365.783 118.001 365.761 118.19 365.706 118.371C365.617 118.89 365.46 119.396 365.24 119.875C364.449 121.708 363.035 123.202 361.248 124.093C359.761 124.841 358.095 125.158 356.438 125.009C354.78 124.861 353.198 124.252 351.868 123.251C350.538 122.251 349.514 120.899 348.912 119.347C348.31 117.796 348.153 116.107 348.459 114.472C348.811 112.675 349.71 111.03 351.032 109.763C352.354 108.496 354.035 107.668 355.845 107.392C357.313 107.177 358.812 107.331 360.206 107.84C361.6 108.349 362.845 109.196 363.83 110.306C365.131 111.784 365.888 113.662 365.972 115.629C365.993 116.16 365.953 116.692 365.852 117.213C365.759 117.705 365.706 117.878 365.679 117.878Z" fill="#263238"/>
<path d="M387.119 118.278C387.039 118.278 387.212 117.52 387.119 116.189C386.953 114.296 386.161 112.512 384.87 111.119C383.932 110.086 382.754 109.303 381.439 108.838C380.124 108.374 378.715 108.243 377.337 108.457C375.726 108.711 374.228 109.444 373.039 110.56C372.106 111.434 371.388 112.512 370.943 113.711C370.498 114.909 370.338 116.195 370.475 117.466C370.611 118.737 371.042 119.959 371.732 121.035C372.421 122.111 373.352 123.013 374.45 123.668C375.645 124.387 377 124.799 378.393 124.866C379.787 124.934 381.175 124.655 382.434 124.054C384.158 123.243 385.563 121.88 386.427 120.181C387.025 118.97 387.132 118.212 387.212 118.225C387.241 118.41 387.241 118.599 387.212 118.784C387.112 119.302 386.951 119.807 386.733 120.288C385.941 122.121 384.527 123.615 382.74 124.506C381.255 125.253 379.59 125.57 377.934 125.421C376.278 125.273 374.697 124.665 373.368 123.666C372.038 122.668 371.014 121.318 370.411 119.769C369.807 118.22 369.648 116.533 369.952 114.898C370.299 113.098 371.196 111.449 372.519 110.179C373.841 108.909 375.524 108.08 377.337 107.805C378.806 107.59 380.304 107.744 381.698 108.253C383.092 108.762 384.337 109.609 385.322 110.719C386.638 112.214 387.395 114.119 387.464 116.109C387.486 116.64 387.445 117.171 387.345 117.693C387.198 118.105 387.145 118.292 387.119 118.278Z" fill="#263238"/>
<path d="M369.965 115.217C369.845 115.377 368.834 114.645 367.463 114.792C366.092 114.938 365.254 115.843 365.094 115.71C364.934 115.577 365.094 115.337 365.507 114.951C366.015 114.457 366.677 114.152 367.383 114.086C368.093 114.005 368.808 114.175 369.406 114.565C369.858 114.911 370.031 115.217 369.965 115.217Z" fill="#263238"/>
<path d="M399.295 118.318C397.173 118.245 395.066 117.933 393.014 117.387C390.916 117.062 388.859 116.513 386.879 115.75C389.001 115.823 391.108 116.135 393.16 116.682C395.258 117.004 397.315 117.553 399.295 118.318Z" fill="#263238"/>
<path d="M349.378 84.3164C349.332 84.5985 349.332 84.886 349.378 85.1681C349.488 85.9547 349.82 86.6934 350.336 87.2973C351.096 88.1997 352.105 88.8572 353.237 89.187C354.613 89.5611 356.03 89.7579 357.456 89.7725C360.022 89.9039 362.594 89.9039 365.161 89.7725L367.49 89.5862L368.115 89.5064H368.341C368.341 89.5064 368.262 89.5064 368.115 89.5064H367.476L365.148 89.6261C363.191 89.7193 360.463 89.7592 357.456 89.6261C356.049 89.6143 354.65 89.4265 353.29 89.0672C352.191 88.7571 351.206 88.1327 350.456 87.2707C349.942 86.6921 349.596 85.9831 349.458 85.2213C349.351 84.6092 349.405 84.3164 349.378 84.3164Z" fill="white"/>
<path d="M347.062 85.9404C347.029 86.7933 347.128 87.6462 347.355 88.4689C347.873 90.4899 348.983 92.3097 350.544 93.6946C352.104 95.0795 354.043 95.9661 356.111 96.2405C356.953 96.3763 357.811 96.3763 358.653 96.2405C358.653 96.2405 358.413 96.2405 357.974 96.2405C357.355 96.2391 356.736 96.1902 356.124 96.0942C354.102 95.7803 352.214 94.8904 350.684 93.531C349.155 92.1716 348.05 90.4002 347.501 88.429C347.328 87.8376 347.207 87.2319 347.142 86.6191C347.089 86.1534 347.075 85.9404 347.062 85.9404Z" fill="white"/>
<path d="M389.341 502.297L404.405 526.543C404.405 526.543 384.816 550.005 387.105 554.755L435.172 527.235L413.254 488.483L389.341 502.297Z" fill="#407BFF"/>
<path d="M418.073 515.95C418.619 515.824 419.192 515.903 419.683 516.173C420.175 516.443 420.549 516.885 420.734 517.414C420.885 517.958 420.819 518.538 420.551 519.034C420.284 519.531 419.834 519.904 419.297 520.076C418.721 520.202 418.12 520.111 417.606 519.822C417.093 519.532 416.705 519.063 416.516 518.505C416.422 517.93 416.555 517.34 416.888 516.861C417.221 516.382 417.727 516.05 418.299 515.937" fill="#E0E0E0"/>
<path d="M435.226 527.235L432.87 523.416L387.624 551.229C387.624 551.229 386.014 553.385 387.119 554.755L435.226 527.235Z" fill="white"/>
<path d="M403.487 526.743C403.621 526.982 404.818 526.41 406.455 526.503C408.092 526.596 409.21 527.235 409.383 527.022C409.556 526.809 408.411 525.691 406.495 525.572C404.579 525.452 403.314 526.556 403.487 526.743Z" fill="#263238"/>
<path d="M399.642 531.746C399.708 531.999 400.972 531.826 402.303 532.358C403.634 532.89 404.499 533.809 404.725 533.689C404.951 533.569 404.339 532.132 402.622 531.493C400.906 530.854 399.509 531.493 399.642 531.746Z" fill="#263238"/>
<path d="M400.226 539.398C400.466 539.318 400.12 537.961 398.789 537.016C397.458 536.071 396.061 536.204 396.127 536.457C396.194 536.71 397.205 537.003 398.296 537.788C399.388 538.573 399.986 539.504 400.226 539.398Z" fill="#263238"/>
<path d="M400.666 520.846C400.879 520.993 401.77 520.061 403.154 519.383C404.538 518.704 405.816 518.544 405.816 518.278C405.816 518.012 404.352 517.732 402.729 518.544C401.105 519.356 400.44 520.727 400.666 520.846Z" fill="#263238"/>
<path d="M418.073 515.95C418.619 515.824 419.192 515.903 419.683 516.173C420.175 516.443 420.549 516.885 420.734 517.414C420.885 517.958 420.819 518.538 420.551 519.034C420.284 519.531 419.834 519.904 419.297 520.076C418.721 520.202 418.12 520.111 417.606 519.822C417.093 519.532 416.705 519.063 416.516 518.505C416.422 517.93 416.555 517.34 416.888 516.861C417.221 516.382 417.727 516.05 418.299 515.937" fill="#E0E0E0"/>
<path d="M435.226 527.235L432.87 523.416L387.624 551.229C387.624 551.229 386.014 553.385 387.119 554.755L435.226 527.235Z" fill="white"/>
<path d="M403.487 526.743C403.621 526.982 404.818 526.41 406.455 526.503C408.092 526.596 409.21 527.235 409.383 527.022C409.556 526.809 408.411 525.691 406.495 525.572C404.579 525.452 403.314 526.556 403.487 526.743Z" fill="#263238"/>
<path d="M399.642 531.746C399.708 531.999 400.972 531.826 402.303 532.358C403.634 532.89 404.499 533.809 404.725 533.689C404.951 533.569 404.339 532.132 402.622 531.493C400.906 530.854 399.509 531.493 399.642 531.746Z" fill="#263238"/>
<path d="M400.226 539.398C400.466 539.318 400.12 537.961 398.789 537.016C397.458 536.071 396.061 536.204 396.127 536.457C396.194 536.71 397.205 537.003 398.296 537.788C399.388 538.573 399.986 539.504 400.226 539.398Z" fill="#263238"/>
<path d="M400.666 520.846C400.879 520.993 401.77 520.061 403.154 519.383C404.538 518.704 405.816 518.544 405.816 518.278C405.816 518.012 404.352 517.732 402.729 518.544C401.105 519.356 400.44 520.727 400.666 520.846Z" fill="#263238"/>
<path d="M386.985 509.988L388.609 538.493C388.609 538.493 360.184 549.725 359.971 555.021L415.344 553.85L414.638 509.336L386.985 509.988Z" fill="#407BFF"/>
<path d="M405.683 535.738C406.219 535.888 406.681 536.23 406.981 536.699C407.28 537.168 407.396 537.731 407.307 538.28C407.177 538.822 406.843 539.293 406.374 539.595C405.906 539.898 405.339 540.008 404.792 539.904C404.232 539.745 403.749 539.386 403.435 538.896C403.121 538.406 402.998 537.817 403.088 537.242C403.285 536.691 403.687 536.238 404.211 535.978C404.734 535.717 405.338 535.67 405.896 535.845" fill="#E0E0E0"/>
<path d="M415.344 553.851L415.105 549.366L362.1 552.161C362.1 552.161 359.652 553.292 359.971 555.022L415.344 553.851Z" fill="white"/>
<path d="M387.704 538.227C387.704 538.507 389.035 538.6 390.366 539.438C391.696 540.277 392.455 541.408 392.695 541.288C392.934 541.169 392.508 539.625 390.858 538.627C389.208 537.629 387.638 537.988 387.704 538.227Z" fill="#263238"/>
<path d="M381.941 540.756C381.941 541.022 383.073 541.462 384.017 542.579C384.962 543.697 385.242 544.908 385.521 544.895C385.801 544.882 385.92 543.338 384.723 541.967C383.525 540.597 381.955 540.503 381.941 540.756Z" fill="#263238"/>
<path d="M378.827 547.782C379.066 547.782 379.412 546.451 378.694 545.001C377.975 543.55 376.684 542.978 376.578 543.204C376.472 543.43 377.27 544.202 377.842 545.426C378.414 546.651 378.521 547.715 378.827 547.782Z" fill="#263238"/>
<path d="M388.063 531.746C388.17 531.999 389.394 531.6 390.938 531.666C392.481 531.733 393.599 532.199 393.812 531.959C394.025 531.72 392.774 530.788 390.978 530.722C389.181 530.655 387.917 531.48 388.063 531.746Z" fill="#263238"/>
<path d="M405.683 535.738C406.219 535.888 406.681 536.23 406.981 536.699C407.28 537.168 407.396 537.731 407.307 538.28C407.177 538.822 406.843 539.293 406.374 539.595C405.906 539.898 405.339 540.008 404.792 539.904C404.232 539.745 403.749 539.386 403.435 538.896C403.121 538.406 402.998 537.817 403.088 537.242C403.285 536.691 403.687 536.238 404.211 535.978C404.734 535.717 405.338 535.67 405.896 535.845" fill="#E0E0E0"/>
<path d="M415.344 553.851L415.105 549.366L362.1 552.161C362.1 552.161 359.652 553.292 359.971 555.022L415.344 553.851Z" fill="white"/>
<path d="M387.704 538.227C387.704 538.507 389.035 538.6 390.366 539.438C391.696 540.277 392.455 541.408 392.695 541.288C392.934 541.169 392.508 539.625 390.858 538.627C389.208 537.629 387.638 537.988 387.704 538.227Z" fill="#263238"/>
<path d="M381.941 540.756C381.941 541.022 383.073 541.462 384.017 542.579C384.962 543.697 385.242 544.908 385.521 544.895C385.801 544.882 385.92 543.338 384.723 541.967C383.525 540.597 381.955 540.503 381.941 540.756Z" fill="#263238"/>
<path d="M378.827 547.782C379.066 547.782 379.412 546.451 378.694 545.001C377.975 543.55 376.684 542.978 376.578 543.204C376.472 543.43 377.27 544.202 377.842 545.426C378.414 546.651 378.521 547.715 378.827 547.782Z" fill="#263238"/>
<path d="M388.063 531.746C388.17 531.999 389.394 531.6 390.938 531.666C392.481 531.733 393.599 532.199 393.812 531.959C394.025 531.72 392.774 530.788 390.978 530.722C389.181 530.655 387.917 531.48 388.063 531.746Z" fill="#263238"/>
<path d="M410.46 327.088C410.46 327.088 413.893 342.738 412.376 345.027C410.749 348.103 409.344 351.292 408.171 354.569L410.473 425.166L417.327 528.965H384.35L370.204 437.422C367.324 432.486 365.02 427.234 363.338 421.772C361.421 414.533 350.163 342.392 350.163 342.392V314.579L410.46 327.088Z" fill="#263238"/>
<path d="M335.232 316.469C335.232 316.469 342.112 411.059 344.401 419.457C346.69 427.854 393.64 513.715 393.64 513.715L421.865 499.808L384.351 409.156V321.685L335.232 316.469Z" fill="#263238"/>
<path d="M346.517 324.613C346.505 324.791 346.505 324.968 346.517 325.146C346.517 325.531 346.65 326.05 346.73 326.716C346.943 328.126 347.249 330.136 347.648 332.718C348.46 337.961 349.644 345.48 351.095 354.768C352.545 364.057 354.355 375.169 356.311 387.465C357.309 393.627 358.307 400.081 359.452 406.775C360.547 413.711 362.267 420.534 364.589 427.162C367.077 433.935 370.617 440.11 371.815 446.791C373.239 453.444 374.223 459.872 375.195 466.02C377.058 478.343 378.562 489.468 379.839 498.797C381.117 508.125 382.141 515.698 382.927 520.914C383.326 523.576 383.632 525.545 383.885 526.903C384.018 527.568 384.111 528.074 384.177 528.46C384.198 528.636 384.238 528.81 384.297 528.979C384.318 528.802 384.318 528.623 384.297 528.446C384.297 528.06 384.177 527.541 384.071 526.889C383.885 525.479 383.605 523.456 383.246 520.874C382.567 515.551 381.582 508.059 380.371 498.744C379.16 489.428 377.71 478.263 375.873 465.927C374.915 459.766 373.944 453.298 372.52 446.644C371.309 439.857 367.743 433.629 365.281 426.922C362.989 420.33 361.288 413.548 360.197 406.655C359.039 400.001 358.028 393.52 357.017 387.372C354.994 375.076 353.184 364.004 351.694 354.689C350.203 345.373 348.899 337.908 348.021 332.678L346.996 326.689C346.876 326.037 346.783 325.518 346.703 325.132C346.658 324.953 346.596 324.78 346.517 324.613Z" fill="#455A64"/>
<path d="M413.641 473.192C413.586 473.923 413.586 474.657 413.641 475.388C413.641 476.785 413.774 478.821 413.92 481.323C414.2 486.34 414.705 493.3 415.251 500.912C415.797 508.524 416.342 515.471 416.662 520.474C416.821 522.896 416.954 524.892 417.048 526.41C417.071 527.137 417.146 527.862 417.274 528.579C417.343 527.853 417.343 527.122 417.274 526.396C417.274 524.999 417.207 522.963 417.101 520.448C416.901 515.431 416.475 508.471 415.903 500.859C415.331 493.247 414.745 486.407 414.346 481.297C414.133 478.875 413.96 476.879 413.84 475.362C413.838 474.634 413.771 473.908 413.641 473.192Z" fill="#455A64"/>
<path d="M363.643 162.287L359.73 164.949C359.73 164.949 344.227 199.562 341.566 210.847C338.904 222.132 327.832 339.931 327.832 339.931L337.028 340.663V322.192L363.643 162.287Z" fill="#455A64"/>
<path d="M363.378 164.456C363.378 164.456 350.789 191.005 347.741 205.776C345.386 217.167 332.584 322.218 332.584 322.218L369.513 320.435L391.59 190.752L396.341 156.884C396.341 156.884 374.556 170.191 369.553 169.38C368.167 169.215 366.855 168.667 365.764 167.797C364.673 166.927 363.846 165.77 363.378 164.456Z" fill="#407BFF"/>
<path d="M422.609 175.301L399.095 156.883L398.203 151.294L369.286 168.793L355.312 338.692H415.41L408.503 269.146L421.252 194.464L422.609 175.301Z" fill="#455A64"/>
<path d="M369.366 168.515C369.453 169.069 369.595 169.613 369.792 170.138L371.189 174.476C371.34 174.947 371.5 175.426 371.668 175.914C371.782 176.51 372.075 177.058 372.507 177.484C372.824 177.646 373.185 177.702 373.537 177.644C373.889 177.587 374.213 177.419 374.463 177.165C374.942 176.779 375.421 176.393 375.927 176.007L382.408 170.83C386.985 167.144 391.071 163.724 393.959 161.169C395.409 159.838 396.554 158.84 397.339 158.095C397.771 157.734 398.164 157.328 398.51 156.884C398.03 157.17 397.584 157.509 397.179 157.895L393.666 160.796C390.698 163.258 386.573 166.612 381.995 170.298L375.541 175.514C374.569 176.206 373.571 177.457 372.879 177.018C372.547 176.805 372.4 176.233 372.214 175.687L371.695 174.264L370.098 169.992C369.911 169.473 369.665 168.978 369.366 168.515Z" fill="#263238"/>
<path d="M347.715 192.947C347.708 193.075 347.681 193.201 347.635 193.32L347.369 194.398C347.129 195.329 346.69 196.687 346.264 198.483C345.838 200.28 345.346 202.476 344.854 205.031C344.361 207.586 343.762 210.513 343.27 213.76C341.061 226.749 338.692 244.78 336.457 264.742C334.221 284.703 332.398 302.802 331.134 315.91C330.468 322.417 329.936 327.714 329.563 331.427C329.364 333.21 329.217 334.62 329.111 335.632C329.044 336.084 329.004 336.443 328.964 336.736C328.96 336.863 328.938 336.988 328.898 337.109C328.88 336.981 328.88 336.851 328.898 336.723L328.964 335.632C329.044 334.607 329.151 333.196 329.297 331.4C329.616 327.674 330.082 322.377 330.628 315.857C331.826 302.749 333.529 284.637 335.791 264.662C338.054 244.687 340.489 226.656 342.818 213.681C343.35 210.434 344.002 207.519 344.508 204.951C345.013 202.382 345.626 200.213 346.038 198.417C346.451 196.62 346.983 195.276 347.262 194.345C347.395 193.919 347.515 193.573 347.595 193.307C347.625 193.184 347.665 193.064 347.715 192.947Z" fill="#263238"/>
<path d="M529.435 191.066L176.094 218.378L187.32 363.61L540.661 336.298L529.435 191.066Z" fill="#FAFAFA"/>
<path d="M540.662 336.31C540.516 334.42 536.27 280.777 529.191 191.097L529.457 191.323L176.139 218.737L176.459 218.365C180.451 269.24 184.177 318.345 187.677 363.604L187.318 363.298L440.775 343.855L540.689 336.31C540.689 336.31 540.13 336.377 538.998 336.47L533.955 336.869L514.393 338.426L441.028 344.188L187.344 363.95H187.012V363.631C183.512 318.385 179.706 269.266 175.767 218.391V218.045H176.113L529.444 190.831H529.683V191.071C536.457 280.764 540.516 334.42 540.662 336.31Z" fill="#263238"/>
<path d="M245.532 258.684C245.63 247.175 236.38 237.766 224.871 237.667C213.362 237.569 203.952 246.819 203.854 258.328C203.756 269.837 213.006 279.247 224.515 279.345C236.024 279.444 245.434 270.193 245.532 258.684Z" fill="#EBEBEB"/>
<path d="M373.171 239.484C373.171 239.67 348.127 241.773 317.2 244.155C286.273 246.537 261.174 248.334 261.161 248.147C261.148 247.961 286.206 245.872 317.146 243.476C348.087 241.081 373.158 239.298 373.171 239.484Z" fill="#407BFF"/>
<path d="M346.677 257.157C346.677 257.343 327.567 258.98 303.946 260.803C280.325 262.626 261.162 263.957 261.148 263.757C261.135 263.557 280.272 261.934 303.893 260.111C327.514 258.288 346.663 256.957 346.677 257.157Z" fill="#E0E0E0"/>
<path d="M493.66 278.156C493.66 278.342 434.387 283.08 361.262 288.736C288.137 294.391 228.811 298.809 228.798 298.623C228.785 298.437 288.057 293.699 361.209 288.043C434.361 282.388 493.646 277.956 493.66 278.156Z" fill="#263238"/>
<path d="M495.043 296.042C495.043 296.228 435.77 300.965 362.645 306.621C289.519 312.277 230.194 316.695 230.181 316.509C230.167 316.323 289.44 311.585 362.592 305.929C435.744 300.273 495.029 295.842 495.043 296.042Z" fill="#263238"/>
<path d="M390.805 186.041C391.161 183.064 392.242 180.221 393.952 177.76C395.662 175.299 397.951 173.294 400.616 171.923C403.281 170.552 406.242 169.855 409.239 169.894C412.236 169.933 415.178 170.707 417.806 172.147C423.422 175.142 428.638 180.491 431.912 188.942C440.376 210.846 457.41 244.727 454.189 251.967C450.969 259.206 434.001 265.274 434.001 265.274L418.219 238.393L412.989 239.204L388.955 198.19C388.955 198.19 389.966 193.24 390.805 186.041Z" fill="#455A64"/>
<path d="M426.735 229.277C426.04 228.914 425.248 228.779 424.472 228.891C423.52 228.933 422.587 229.166 421.726 229.575C420.866 229.985 420.096 230.563 419.463 231.275C418.83 231.987 418.347 232.819 418.042 233.722C417.736 234.625 417.615 235.579 417.685 236.53C417.666 237.314 417.889 238.086 418.324 238.739C418.444 238.739 418.138 237.874 418.165 236.516C418.196 234.762 418.836 233.074 419.974 231.739C421.16 230.441 422.768 229.607 424.512 229.384C425.883 229.197 426.735 229.397 426.735 229.277Z" fill="#263238"/>
<path d="M392.403 187.264C392.536 187.264 392.829 185.149 394.159 181.941C394.947 180.103 395.967 178.372 397.193 176.791C398.678 174.856 400.55 173.252 402.69 172.08C404.874 170.997 407.278 170.428 409.716 170.417C411.711 170.347 413.704 170.612 415.611 171.202C417.368 171.778 419.022 172.632 420.508 173.731C420.508 173.731 420.442 173.611 420.256 173.438C420.002 173.158 419.721 172.904 419.417 172.679C418.32 171.834 417.087 171.182 415.771 170.75C413.821 170.07 411.767 169.741 409.703 169.778C407.16 169.764 404.65 170.342 402.37 171.468C400.144 172.688 398.206 174.371 396.688 176.405C395.455 178.033 394.456 179.824 393.72 181.728C393.215 183.021 392.832 184.357 392.576 185.721C392.44 186.224 392.381 186.744 392.403 187.264Z" fill="#263238"/>
<path d="M418.218 238.393L367.503 238.739L365.147 254.947C365.147 254.947 404.605 264.263 431.938 261.907L418.218 238.393Z" fill="#FFD5BD"/>
<path d="M348.486 221.784C348.486 221.784 358.161 222.636 359.585 222.915C361.009 223.195 366.824 227.759 366.824 227.759L369.565 240.814L365.147 254.947C362.125 254.448 359.196 253.497 356.457 252.126C352.465 249.996 346.503 240.894 346.503 240.894C346.503 240.894 342.671 241.04 342.378 240.468C342.085 239.896 341.047 237.208 342.378 236.476C342.378 236.476 341.38 232.776 342.804 231.792L344.653 231.499C344.653 231.499 342.95 226.814 346.224 226.814C346.224 226.761 344.653 222.356 348.486 221.784Z" fill="#FFD5BD"/>
<path d="M346.45 226.402C346.45 226.602 349.112 226.402 352.425 226.668C355.739 226.935 358.334 227.427 358.374 227.227C356.503 226.437 354.496 226.017 352.465 225.99C350.453 225.732 348.409 225.872 346.45 226.402Z" fill="#FFB294"/>
<path d="M343.949 231.432C343.949 231.539 344.535 231.512 345.467 231.552L349.086 231.765C350.81 231.95 352.55 231.91 354.263 231.645C352.582 231.234 350.856 231.042 349.126 231.073C347.903 230.999 346.676 230.999 345.453 231.073C344.495 231.153 343.936 231.352 343.949 231.432Z" fill="#FFB294"/>
<path d="M351.281 235.545C349.879 234.921 348.338 234.677 346.813 234.838C345.287 235 343.831 235.56 342.591 236.463C342.684 236.649 344.481 235.758 346.889 235.518C349.298 235.279 351.227 235.744 351.281 235.545Z" fill="#FFB294"/>
<path d="M307.672 205.829C306.752 204.431 305.646 203.164 304.385 202.063C303.852 201.732 303.241 201.549 302.614 201.532C301.987 201.516 301.367 201.667 300.818 201.97L300.06 202.582C300.06 202.582 296.347 200.732 294.484 201.97C294.484 201.97 290.957 200.12 289.161 201.97C289.161 201.97 286.499 200.067 285.169 201.584C284.636 202.399 284.295 203.324 284.173 204.291C284.051 205.257 284.15 206.238 284.463 207.16C284.969 208.491 285.794 213.268 286.672 213.375C286.672 213.375 288.868 213.707 289.214 212.523C289.56 211.338 289.707 210.766 289.707 210.766C289.707 210.766 290.372 215.025 291.383 215.278C292.395 215.53 294.338 215.49 294.484 213.641C294.484 213.641 295.362 215.078 296.307 214.705C297.252 214.333 298.41 213.707 298.357 212.563C298.303 211.418 298.357 210.261 298.357 210.261C298.357 210.261 298.796 211.951 299.687 211.591C300.579 211.232 301.364 211.378 301.896 209.981C302.429 208.584 303.733 205.829 303.733 205.829H307.672Z" fill="#FFD5BD"/>
<path d="M298.45 210.194C298.45 210.194 298.304 209.728 298.144 208.983C297.922 208.02 297.922 207.019 298.144 206.056C298.365 205.086 298.796 204.177 299.408 203.394C299.874 202.782 300.247 202.476 300.22 202.436C300.193 202.396 299.754 202.636 299.209 203.221C298.517 203.973 298.027 204.889 297.785 205.883C297.55 206.899 297.586 207.959 297.891 208.957C297.973 209.409 298.165 209.834 298.45 210.194Z" fill="#FFB294"/>
<path d="M294.245 201.983C293.984 202.504 293.8 203.06 293.699 203.634C293.38 204.998 293.237 206.398 293.273 207.799C293.314 209.2 293.528 210.59 293.912 211.937C294.051 212.501 294.266 213.042 294.551 213.548C294.065 211.66 293.762 209.731 293.646 207.786C293.656 205.837 293.857 203.893 294.245 201.983Z" fill="#FFB294"/>
<path d="M289.068 202.05C288.741 203.517 288.66 205.028 288.829 206.521C288.891 208.019 289.192 209.497 289.72 210.899C289.827 210.899 289.374 208.93 289.201 206.495C289.028 204.059 289.175 202.063 289.068 202.05Z" fill="#FFB294"/>
<path d="M209.434 241.454C207.698 239.559 206.181 237.474 204.91 235.24C203.64 232.981 203.171 230.359 203.579 227.801C203.859 226.337 204.537 224.939 204.67 223.449C204.87 221.386 204.071 219.204 204.857 217.301C206.094 214.307 210.18 213.961 212.695 211.978C214.664 210.408 215.676 207.799 217.818 206.495C219.809 205.517 222.083 205.281 224.232 205.83C226.362 206.378 228.555 206.633 230.753 206.588C232.297 206.303 233.825 205.939 235.331 205.497C236.851 205.065 238.477 205.227 239.882 205.949C240.55 206.34 241.04 206.974 241.249 207.719C241.457 208.464 241.368 209.261 241 209.942C243.555 208.851 246.696 210.913 247.308 213.628C247.522 215.006 247.351 216.417 246.813 217.704C246.275 218.991 245.392 220.105 244.26 220.921C241.97 222.514 239.316 223.507 236.542 223.808C228.77 225.033 220.413 223.968 213.919 219.59" fill="#407BFF"/>
<path d="M244.9 250.729C244.78 245.938 243.729 236.091 242.677 227.214C242.113 222.624 239.846 218.413 236.324 215.416C232.801 212.419 228.282 210.854 223.661 211.032H222.702C212.429 212.017 207.532 221.292 208.796 231.539L212.229 266.459C213.214 277.105 219.855 278.01 225.989 277.637C232.124 277.264 236.236 272.181 235.624 265.993C235.331 263.052 235.318 262.865 235.305 262.559C235.305 262.533 245.139 260.63 244.9 250.729Z" fill="#FFD5BD"/>
<path d="M235.318 262.4C230.75 262.65 226.211 261.538 222.276 259.206C222.276 259.206 225.59 266.219 235.438 264.955L235.318 262.4Z" fill="#FFB294"/>
<path d="M239.097 235.265C239.115 235.637 238.986 236.002 238.736 236.278C238.487 236.555 238.138 236.722 237.767 236.743C237.587 236.767 237.403 236.754 237.229 236.704C237.054 236.655 236.891 236.57 236.75 236.455C236.609 236.341 236.493 236.198 236.409 236.037C236.326 235.876 236.276 235.699 236.263 235.518C236.248 235.147 236.379 234.785 236.628 234.509C236.876 234.233 237.223 234.065 237.594 234.041C237.774 234.017 237.957 234.03 238.132 234.079C238.306 234.129 238.469 234.213 238.61 234.328C238.751 234.443 238.867 234.585 238.951 234.746C239.035 234.907 239.084 235.084 239.097 235.265Z" fill="#263238"/>
<path d="M240.735 232.152C240.562 232.351 239.404 231.593 237.94 231.659C236.476 231.726 235.279 232.524 235.159 232.338C235.039 232.152 235.239 231.925 235.718 231.553C236.355 231.071 237.128 230.801 237.927 230.781C238.721 230.737 239.507 230.957 240.163 231.406C240.642 231.739 240.815 232.072 240.735 232.152Z" fill="#263238"/>
<path d="M224.699 236.223C224.713 236.595 224.582 236.957 224.334 237.233C224.085 237.509 223.738 237.677 223.368 237.701C223.188 237.725 223.005 237.712 222.83 237.662C222.655 237.613 222.492 237.528 222.351 237.413C222.21 237.299 222.094 237.156 222.011 236.995C221.927 236.834 221.877 236.657 221.864 236.476C221.846 236.104 221.976 235.74 222.225 235.463C222.474 235.187 222.823 235.02 223.195 234.999C223.375 234.975 223.558 234.988 223.733 235.037C223.908 235.087 224.07 235.171 224.211 235.286C224.352 235.401 224.468 235.543 224.552 235.704C224.636 235.866 224.686 236.042 224.699 236.223Z" fill="#263238"/>
<path d="M225.791 233.004C225.618 233.19 224.527 232.445 222.996 232.498C221.466 232.551 220.335 233.363 220.228 233.19C220.122 233.017 220.308 232.764 220.774 232.391C221.416 231.909 222.193 231.639 222.996 231.62C223.784 231.591 224.561 231.81 225.219 232.245C225.698 232.591 225.871 232.91 225.791 233.004Z" fill="#263238"/>
<path d="M231.738 244.076C232.526 243.783 233.35 243.6 234.187 243.53C234.573 243.53 234.932 243.384 234.999 243.118C235.011 242.719 234.905 242.325 234.693 241.987L233.429 239.072C232.272 236.607 231.315 234.052 230.567 231.434C231.918 233.8 233.079 236.27 234.041 238.819L235.252 241.747C235.514 242.206 235.603 242.744 235.505 243.264C235.455 243.404 235.374 243.531 235.268 243.635C235.162 243.738 235.033 243.816 234.892 243.863C234.679 243.924 234.461 243.964 234.24 243.983C233.413 244.112 232.573 244.143 231.738 244.076Z" fill="#263238"/>
<path d="M227.293 245.286C227.546 245.286 227.612 246.923 229.063 248.041C230.513 249.159 232.27 248.906 232.297 249.145C232.323 249.385 231.911 249.478 231.165 249.518C230.209 249.564 229.266 249.272 228.504 248.693C227.776 248.129 227.298 247.303 227.173 246.391C227.013 245.699 227.186 245.286 227.293 245.286Z" fill="#263238"/>
<path d="M225.963 227.002C225.83 227.414 224.299 227.281 222.529 227.561C220.759 227.84 219.322 228.386 219.069 228.027C218.817 227.667 219.202 227.454 219.761 227.029C220.519 226.509 221.384 226.168 222.292 226.032C223.201 225.896 224.128 225.968 225.005 226.243C225.67 226.51 226.016 226.829 225.963 227.002Z" fill="#407BFF"/>
<path d="M240.002 227.773C239.749 228.132 238.672 227.773 237.434 227.773C236.196 227.773 235.118 228.092 234.852 227.773C234.586 227.453 234.852 227.24 235.345 226.908C235.954 226.483 236.678 226.256 237.421 226.256C238.161 226.241 238.887 226.46 239.497 226.881C239.962 227.254 240.122 227.6 240.002 227.773Z" fill="#407BFF"/>
<path d="M209.887 238.805C209.714 238.739 203.007 237.049 203.472 243.809C203.938 250.569 210.632 248.706 210.632 248.507C210.632 248.307 209.887 238.805 209.887 238.805Z" fill="#FFD5BD"/>
<path d="M208.383 246.084C208.383 246.084 208.277 246.178 208.077 246.284C207.806 246.426 207.491 246.454 207.199 246.364C206.744 246.119 206.363 245.756 206.096 245.314C205.83 244.871 205.686 244.365 205.682 243.849C205.619 243.268 205.692 242.68 205.895 242.132C205.941 241.918 206.039 241.718 206.18 241.551C206.322 241.384 206.503 241.254 206.706 241.174C206.838 241.127 206.982 241.128 207.114 241.177C207.245 241.226 207.355 241.319 207.425 241.44C207.531 241.626 207.491 241.759 207.531 241.773C207.571 241.786 207.678 241.653 207.598 241.374C207.545 241.213 207.443 241.073 207.305 240.974C207.108 240.847 206.87 240.799 206.64 240.841C206.367 240.917 206.118 241.06 205.915 241.258C205.713 241.456 205.564 241.701 205.482 241.972C205.237 242.58 205.141 243.237 205.203 243.889C205.215 244.491 205.403 245.076 205.743 245.572C206.084 246.069 206.562 246.455 207.119 246.683C207.304 246.726 207.496 246.725 207.681 246.681C207.865 246.637 208.037 246.551 208.183 246.43C208.383 246.257 208.41 246.098 208.383 246.084Z" fill="#FFB294"/>
<path d="M242.451 218.006C241.905 220.668 236.396 222.97 231.885 222.704C227.733 222.464 225.736 220.335 222.756 218.711C220.879 217.727 220.879 217.727 218.271 218.073C216.155 218.352 214.997 220.734 213.773 222.531C215.876 227.494 214.798 233.177 213.693 238.42C213.625 239.017 213.369 239.576 212.961 240.017C212.527 240.249 212.028 240.326 211.544 240.237C211.061 240.147 210.622 239.896 210.3 239.525C209.218 238.302 208.519 236.789 208.29 235.173C207.45 231.572 207.332 227.841 207.944 224.194C208.578 220.539 210.266 217.148 212.801 214.44C216.103 211.156 220.549 209.281 225.204 209.21C229.85 209.17 234.388 210.606 238.166 213.309C239.978 214.464 241.47 216.056 242.504 217.94" fill="#407BFF"/>
<path d="M232.976 236.876C232.976 236.876 232.882 236.304 232.976 235.292C233.028 233.864 233.552 232.493 234.466 231.393C235.139 230.596 236 229.978 236.971 229.594C237.941 229.211 238.992 229.075 240.029 229.198C241.25 229.337 242.4 229.843 243.329 230.648C244.337 231.497 245.046 232.646 245.353 233.927C245.659 235.209 245.547 236.555 245.032 237.768C244.564 238.902 243.767 239.871 242.743 240.549C241.877 241.13 240.878 241.484 239.839 241.58C238.8 241.675 237.753 241.508 236.795 241.095C235.481 240.538 234.39 239.559 233.694 238.313C233.202 237.422 233.095 236.849 233.029 236.876C233.015 237.013 233.015 237.151 233.029 237.289C233.121 237.676 233.26 238.052 233.441 238.406C234.097 239.755 235.203 240.833 236.569 241.454C237.379 241.823 238.254 242.025 239.144 242.05C240.033 242.074 240.919 241.92 241.747 241.596C242.576 241.272 243.332 240.785 243.969 240.164C244.606 239.543 245.113 238.801 245.458 237.981C246.013 236.66 246.135 235.196 245.804 233.802C245.475 232.408 244.705 231.157 243.608 230.236C242.93 229.66 242.142 229.226 241.293 228.96C240.444 228.694 239.549 228.601 238.664 228.686C237.778 228.772 236.918 229.034 236.135 229.458C235.352 229.882 234.663 230.459 234.107 231.154C233.17 232.328 232.672 233.791 232.696 235.292C232.695 235.692 232.745 236.09 232.843 236.477C232.871 236.615 232.915 236.749 232.976 236.876Z" fill="#263238"/>
<path d="M216.927 237.86C216.927 237.86 216.821 237.288 216.861 236.276C216.915 234.849 217.444 233.482 218.365 232.39C219.034 231.592 219.892 230.973 220.861 230.59C221.83 230.206 222.879 230.07 223.914 230.195C225.134 230.33 226.284 230.831 227.214 231.632C227.946 232.257 228.523 233.043 228.899 233.928C229.276 234.813 229.443 235.774 229.386 236.734C229.329 237.695 229.051 238.629 228.572 239.464C228.094 240.299 227.429 241.012 226.629 241.546C225.759 242.121 224.761 242.472 223.723 242.568C222.685 242.663 221.639 242.499 220.68 242.092C219.364 241.531 218.273 240.548 217.579 239.297C217.1 238.419 216.981 237.846 216.927 237.86C216.874 237.873 216.927 238.006 216.927 238.272C217.015 238.664 217.149 239.044 217.327 239.403C217.991 240.748 219.101 241.82 220.467 242.438C221.277 242.806 222.153 243.009 223.042 243.033C223.932 243.058 224.817 242.903 225.646 242.58C226.475 242.256 227.23 241.769 227.868 241.148C228.505 240.527 229.011 239.784 229.357 238.964C229.922 237.648 230.047 236.185 229.713 234.792C229.38 233.399 228.606 232.151 227.507 231.233C226.828 230.657 226.041 230.223 225.191 229.957C224.342 229.691 223.448 229.598 222.562 229.683C221.676 229.769 220.816 230.031 220.034 230.455C219.251 230.879 218.561 231.456 218.005 232.151C217.069 233.32 216.57 234.779 216.595 236.276C216.6 236.675 216.649 237.072 216.741 237.461C216.861 237.727 216.901 237.86 216.927 237.86Z" fill="#263238"/>
<path d="M229.675 234.985C229.768 235.105 230.5 234.519 231.538 234.586C232.576 234.653 233.228 235.305 233.335 235.198C233.441 235.092 233.335 234.919 233.015 234.639C232.611 234.288 232.101 234.081 231.566 234.052C231.031 234.023 230.501 234.174 230.061 234.48C229.782 234.772 229.622 234.985 229.675 234.985Z" fill="#263238"/>
<path d="M207.798 238.286C209.384 238.159 210.95 237.855 212.469 237.382C214.031 237.075 215.553 236.592 217.007 235.944C215.421 236.072 213.854 236.376 212.336 236.849C210.774 237.156 209.252 237.638 207.798 238.286Z" fill="#263238"/>
<path d="M243.995 211.032C244.034 211.243 244.034 211.46 243.995 211.671C243.936 212.265 243.715 212.831 243.356 213.308C242.82 214.015 242.082 214.544 241.24 214.825C240.228 215.155 239.176 215.347 238.113 215.397C236.188 215.568 234.256 215.639 232.324 215.61C231.592 215.61 230.993 215.61 230.581 215.544H230.102H229.929H232.444C233.921 215.544 235.97 215.544 238.219 215.291C239.273 215.239 240.315 215.051 241.32 214.732C242.132 214.463 242.849 213.963 243.383 213.295C243.745 212.842 243.975 212.299 244.048 211.724C244.055 211.492 244.037 211.26 243.995 211.032Z" fill="white"/>
<path d="M245.752 212.203C245.808 212.841 245.763 213.483 245.619 214.106C245.307 215.64 244.542 217.046 243.422 218.139C242.302 219.233 240.879 219.966 239.338 220.241C238.712 220.371 238.07 220.402 237.435 220.334C237.603 220.323 237.772 220.323 237.94 220.334C238.388 220.311 238.833 220.253 239.271 220.161C240.774 219.855 242.156 219.122 243.254 218.051C244.351 216.979 245.117 215.614 245.459 214.119C245.565 213.683 245.632 213.237 245.659 212.789C245.752 212.363 245.752 212.203 245.752 212.203Z" fill="white"/>
</svg>
