<svg width="621" height="402" viewBox="0 0 621 402" fill="none" xmlns="http://www.w3.org/2000/svg">
<path d="M578.721 56.759C580.016 65.9033 573.165 72.3018 558.956 74.2705L530.383 78.1562L523.078 25.246L550.148 21.5158C564.059 19.5988 571.636 24.3264 572.763 32.4864C573.136 34.8756 572.813 37.3215 571.835 39.5328C570.857 41.7442 569.264 43.6278 567.246 44.9595C573.501 46.2547 577.84 50.3347 578.721 56.759ZM539.385 34.0666L540.771 44.273L551.055 42.8482C556.042 42.1618 558.373 40.0635 557.907 36.67C557.441 33.2765 554.63 31.9553 549.643 32.6418L539.385 34.0666ZM563.373 57.1735C562.881 53.5468 559.914 52.1868 554.772 52.8992L542.222 54.6219L543.711 65.3593L556.314 63.6237C561.391 62.9243 563.878 60.8001 563.373 57.1735Z" fill="#E0E0E0"/>
<path d="M57.4953 0H0V9.10547H57.4953V0Z" fill="#EBEBEB"/>
<path d="M57.4953 33.1572H0V42.2627H57.4953V33.1572Z" fill="#EBEBEB"/>
<path d="M28.7412 17.1611H0V26.2666H28.7412V17.1611Z" fill="#EBEBEB"/>
<path d="M595.128 253.241H551V217H573.861V224.642H558.655V245.599H587.487V237.983H595.128V253.241Z" fill="#EBEBEB"/>
<path d="M620.58 253.241H601.773V245.599H612.938V224.642H584.093V234.408H576.451V217H620.58V253.241Z" fill="#EBEBEB"/>
<path d="M584.641 131.739H592.27L581.584 185.155H573.955L584.641 131.739Z" fill="#EBEBEB"/>
<path d="M9.73926 68.8691H128.771V241.446H10.5553L9.73926 68.8691Z" fill="#E0E0E0"/>
<path d="M0.802399 240.63L118.746 240.63L118.746 69.6724L0.802399 69.6724L0.802399 240.63Z" fill="white"/>
<path d="M119.563 68.8691V241.446H0V68.8691H119.563ZM117.944 239.84V70.4882H1.61904V239.827L117.944 239.84Z" fill="#E0E0E0"/>
<path d="M104.098 88.1934H15.4658V222.12H104.098V88.1934Z" fill="white"/>
<path d="M15.4654 88.1943C15.4654 88.1943 15.4654 88.4274 15.4654 88.8548C15.4654 89.2823 15.4654 89.9428 15.4654 90.7588C15.4654 92.4556 15.4654 94.9295 15.4654 98.1157C15.4654 104.592 15.5302 113.905 15.569 125.717C15.569 149.329 15.6856 182.707 15.7633 222.121L15.3747 221.733H103.994L103.58 222.16C103.58 171.646 103.58 125.018 103.658 88.2331L103.994 88.5699L39.5049 88.4015L21.7732 88.272H17.0974H15.4654C15.4654 88.272 15.9835 88.272 17.0197 88.272H21.6437L39.4013 88.1813L104.163 88H104.5V88.3368C104.5 125.173 104.5 171.75 104.59 222.264V222.691H104.15H15.5302H15.1416V222.302C15.2193 182.837 15.2841 149.316 15.3359 125.639C15.3359 113.866 15.4136 104.54 15.4395 98.1287C15.4395 94.9683 15.4395 92.5333 15.4395 90.8495C15.4395 90.0594 15.4395 89.4377 15.4395 88.9973C15.4395 88.5569 15.4654 88.1943 15.4654 88.1943Z" fill="#E0E0E0"/>
<path d="M0.479492 240.63C1.00134 239.581 1.64006 238.595 2.38348 237.69C3.67871 235.941 5.44022 233.571 7.5644 230.993C9.68858 228.416 11.5667 226.162 13.0303 224.517C13.7527 223.595 14.5931 222.772 15.5301 222.069C15.7114 222.225 12.3179 226.344 8.22497 231.473C4.13204 236.602 0.660824 240.785 0.479492 240.63Z" fill="#E0E0E0"/>
<path d="M0.81613 69.6863C0.997462 69.5438 4.42982 73.572 8.47094 78.6752C12.5121 83.7784 15.6465 88.0527 15.4652 88.1951C15.2839 88.3376 11.8515 84.3094 7.81038 79.2062C3.76926 74.103 0.660702 69.8288 0.81613 69.6863Z" fill="#E0E0E0"/>
<path d="M118.772 69.8154L103.32 88.8812L118.772 69.8154Z" fill="white"/>
<path d="M103.321 88.8809C103.139 88.7384 106.455 84.3476 110.716 79.0889C114.978 73.8303 118.591 69.6726 118.773 69.8151C118.954 69.9576 115.638 74.3484 111.377 79.62C107.116 84.8916 103.502 88.9974 103.321 88.8809Z" fill="#E0E0E0"/>
<path d="M118.76 240.63C118.566 240.785 115.172 236.744 111.183 231.731C107.194 226.719 104.072 222.406 104.279 222.315C104.487 222.224 107.854 226.201 111.856 231.213C115.859 236.226 118.941 240.539 118.76 240.63Z" fill="#E0E0E0"/>
<path d="M65.4992 157.113H49.8788L48.0136 161.413C47.4839 162.526 47.176 163.731 47.107 164.962C47.0719 165.51 47.1917 166.057 47.4528 166.54C47.7139 167.023 48.1058 167.424 48.5835 167.695C49.9676 168.21 51.4327 168.473 52.9096 168.472V169.676H38.2217V168.472C39.7032 168.277 41.0739 167.582 42.1074 166.503C43.7283 164.491 45.0382 162.247 45.9931 159.846L61.7949 124.615H62.4166L78.335 160.882C79.2086 163.236 80.4742 165.426 82.0782 167.358C82.9574 168.087 84.0575 168.498 85.1997 168.524V169.728H63.8025V168.524H64.6832C65.9307 168.629 67.1826 168.382 68.2969 167.811C68.5319 167.64 68.7203 167.413 68.8448 167.151C68.9692 166.888 69.0258 166.599 69.0093 166.309C69.0061 165.9 68.9406 165.493 68.815 165.104C68.815 164.91 68.4524 164.094 67.8436 162.669L65.4992 157.113ZM64.3853 154.703L57.8185 139.51L51.0445 154.703H64.3853Z" fill="#E0E0E0"/>
<path d="M560.072 387.583C558.64 386.359 555.439 382.477 557.906 377.961C558.79 376.306 560.735 375.488 562.468 374.757C564.263 374.155 565.954 373.282 567.482 372.169C570.197 369.871 570.948 366.051 572.788 362.978C574.857 359.457 578.712 356.816 582.797 357.01C587.466 357.221 591.366 361.015 593.134 365.346C594.903 369.678 594.956 374.493 595 379.167C595 381.755 594.903 384.669 592.993 386.421C591.224 388.032 588.571 388.05 586.202 387.979L560.594 387.196" fill="#F5F5F5"/>
<path d="M604 323H545L555.628 386.912C555.849 388.243 556.44 389.483 557.33 390.49C558.221 391.497 559.377 392.228 560.663 392.6L560.873 392.663C561.051 392.702 561.215 392.765 561.401 392.796C561.795 392.875 562.196 392.923 562.597 392.937V393L562.885 392.953H589.184C589.669 392.952 590.153 392.902 590.629 392.804C592.168 392.564 593.587 391.82 594.666 390.688C595.745 389.555 596.426 388.097 596.604 386.536L601.724 342.494L601.957 340.747L603.984 323.306L604 323ZM592.874 363.743H586.814L587.428 345.197H594.42L592.874 363.743ZM595.034 345.197H600.83L598.67 363.743H593.457L595.034 345.197ZM577.732 384.303L577.367 368.194H586.084L585.556 384.303H577.732ZM568.308 368.194H576.776L577.149 384.303H569.551L568.308 368.194ZM568.96 384.303H561.859C561.183 379.954 560.306 374.305 559.35 368.194H567.717L568.96 384.303ZM567.966 363.743L566.536 345.197H576.256L576.675 363.743H567.966ZM577.289 363.743L576.862 345.197H586.869L586.232 363.743H577.289ZM576.761 340.747L576.31 323.564H587.521L586.954 340.747H576.761ZM576.178 340.747H566.21L564.889 323.564H575.766L576.178 340.747ZM565.627 340.747H555.061C554.688 338.396 554.339 336.124 554.02 334.11C552.917 327.161 552.505 324.551 552.272 323.564H564.276L565.627 340.747ZM565.969 345.197L567.376 363.743H558.658C558.363 361.863 558.068 359.959 557.773 358.055C557.089 353.675 556.405 349.295 555.76 345.197H565.969ZM558.068 363.743H552.373L549.265 345.197H555.147C556.11 350.925 557.066 357.311 558.068 363.743ZM558.759 368.194C559.63 373.764 560.484 379.265 561.261 384.303H555.823L553.142 368.194H558.759ZM586.138 384.303L586.667 368.194H592.494L591.134 384.303H586.138ZM587.576 340.747L588.143 323.564H596.277L594.824 340.747H587.576ZM551.72 323.564C551.954 324.81 553.026 331.572 554.471 340.747H548.551L545.691 323.564H551.72ZM596.277 384.303H591.717L593.084 368.194H598.15L596.277 384.303ZM601.343 340.747H595.407L596.86 323.564H603.347L601.343 340.747Z" fill="#E0E0E0"/>
<path d="M496.085 15.3887H70.459V343.665H496.085V15.3887Z" fill="white"/>
<path d="M461.088 223.053H95.4707V234.062H461.088V223.053Z" fill="#EBEBEB"/>
<path d="M460.907 208.456H95.2891V219.466H460.907V208.456Z" fill="#EBEBEB"/>
<path d="M460.907 193.665H95.2891V204.674H460.907V193.665Z" fill="#EBEBEB"/>
<path d="M460.907 178.872H95.2891V189.882H460.907V178.872Z" fill="#EBEBEB"/>
<path d="M461.088 238.168H95.4707V249.177H461.088V238.168Z" fill="#EBEBEB"/>
<path d="M461.088 252.428H95.4707V263.437H461.088V252.428Z" fill="#EBEBEB"/>
<path d="M461.088 267.271H95.4707V278.281H461.088V267.271Z" fill="#EBEBEB"/>
<path d="M461.088 281.377H95.4707V292.386H461.088V281.377Z" fill="#EBEBEB"/>
<path d="M461.088 294.938H95.4707V305.948H461.088V294.938Z" fill="#EBEBEB"/>
<path d="M461.088 310.352H95.4707V321.361H461.088V310.352Z" fill="#EBEBEB"/>
<path d="M496.512 15.0645H70.459V39.4925H496.512V15.0645Z" fill="#407BFF"/>
<path d="M100.237 64.7759H97.6465V63.8174H104.006V64.7759H101.416V71.5111H100.328L100.237 64.7759Z" fill="#263238"/>
<path d="M103.863 68.5963C103.853 67.9948 104.022 67.4038 104.349 66.8986C104.676 66.3934 105.145 65.9969 105.698 65.7595C106.251 65.5222 106.862 65.4547 107.453 65.5657C108.044 65.6768 108.589 65.9613 109.018 66.383C109.447 66.8047 109.741 67.3446 109.863 67.9339C109.984 68.5232 109.927 69.1352 109.699 69.6921C109.471 70.2489 109.083 70.7254 108.583 71.0607C108.084 71.3961 107.496 71.5753 106.894 71.5754C106.496 71.5933 106.098 71.5289 105.726 71.3863C105.353 71.2436 105.014 71.0257 104.73 70.7461C104.445 70.4666 104.222 70.1314 104.073 69.7615C103.924 69.3916 103.852 68.995 103.863 68.5963ZM108.85 68.5963C108.835 68.2112 108.707 67.839 108.482 67.5259C108.257 67.2127 107.945 66.9725 107.585 66.835C107.225 66.6974 106.833 66.6686 106.457 66.7521C106.08 66.8355 105.737 67.0276 105.469 67.3045C105.2 67.5814 105.019 67.931 104.948 68.3097C104.877 68.6885 104.918 69.0799 105.067 69.4354C105.216 69.7909 105.466 70.0948 105.787 70.3094C106.107 70.524 106.483 70.64 106.868 70.6428C107.137 70.6525 107.404 70.6057 107.653 70.5054C107.903 70.4051 108.128 70.2536 108.315 70.0606C108.502 69.8677 108.646 69.6376 108.738 69.3854C108.83 69.1331 108.868 68.8643 108.85 68.5963Z" fill="#263238"/>
<path d="M113.824 66.3811C113.823 66.2831 113.84 66.1857 113.877 66.0946C113.913 66.0035 113.967 65.9206 114.036 65.8507C114.105 65.7807 114.187 65.7252 114.277 65.6873C114.367 65.6494 114.465 65.6299 114.563 65.6299C114.762 65.6299 114.953 65.709 115.094 65.8499C115.235 65.9908 115.314 66.1819 115.314 66.3811C115.314 66.5804 115.235 66.7714 115.094 66.9123C114.953 67.0532 114.762 67.1324 114.563 67.1324C114.465 67.1324 114.367 67.1129 114.277 67.0749C114.187 67.037 114.105 66.9815 114.036 66.9116C113.967 66.8416 113.913 66.7587 113.877 66.6676C113.84 66.5766 113.823 66.4792 113.824 66.3811ZM113.824 70.8108C113.823 70.7128 113.84 70.6154 113.877 70.5243C113.913 70.4332 113.967 70.3503 114.036 70.2804C114.105 70.2104 114.187 70.1549 114.277 70.117C114.367 70.0791 114.465 70.0596 114.563 70.0596C114.66 70.0595 114.757 70.0791 114.846 70.1172C114.936 70.1552 115.017 70.211 115.085 70.2811C115.153 70.3512 115.205 70.4343 115.24 70.5253C115.275 70.6163 115.291 70.7134 115.288 70.8108C115.291 70.9088 115.275 71.0066 115.241 71.0983C115.206 71.19 115.153 71.2739 115.086 71.3451C115.018 71.4162 114.937 71.4732 114.847 71.5127C114.757 71.5521 114.661 71.5733 114.563 71.575C114.371 71.5751 114.187 71.5009 114.05 71.368C113.912 71.2351 113.831 71.0539 113.824 70.8626V70.8108Z" fill="#263238"/>
<path d="M95.4707 109.862L95.8722 109.021C96.5837 109.594 97.4711 109.905 98.385 109.901C99.6802 109.901 100.263 109.383 100.263 108.723C100.263 106.871 95.665 108.036 95.665 105.213C95.665 104.047 96.5716 103.037 98.5663 103.037C99.4297 103.024 100.279 103.258 101.014 103.71L100.652 104.591C100.03 104.189 99.3064 103.974 98.5663 103.969C97.2711 103.969 96.7271 104.513 96.7271 105.174C96.7271 107.026 101.325 105.873 101.325 108.658C101.325 109.824 100.393 110.821 98.385 110.821C97.3312 110.853 96.2996 110.514 95.4707 109.862Z" fill="#263238"/>
<path d="M108.164 104.979V110.73H107.18V109.863C106.953 110.164 106.656 110.406 106.316 110.568C105.975 110.731 105.601 110.808 105.224 110.795C104.888 110.83 104.548 110.789 104.229 110.676C103.911 110.562 103.622 110.379 103.383 110.139C103.145 109.899 102.963 109.609 102.851 109.29C102.739 108.971 102.7 108.631 102.737 108.295V104.979H103.786V108.166C103.786 109.306 104.356 109.863 105.34 109.863C105.589 109.878 105.838 109.838 106.069 109.746C106.3 109.654 106.508 109.512 106.678 109.33C106.847 109.148 106.975 108.93 107.05 108.693C107.126 108.456 107.148 108.205 107.115 107.959V104.979H108.164Z" fill="#263238"/>
<path d="M116.065 107.856C116.085 108.244 116.024 108.632 115.885 108.995C115.747 109.358 115.535 109.689 115.262 109.965C114.989 110.242 114.661 110.459 114.3 110.602C113.939 110.745 113.552 110.811 113.163 110.796C112.767 110.814 112.372 110.735 112.013 110.566C111.654 110.396 111.342 110.142 111.104 109.824V110.731H110.106V102.675H111.143V105.835C111.384 105.534 111.692 105.294 112.043 105.135C112.394 104.975 112.778 104.9 113.163 104.916C113.552 104.899 113.94 104.963 114.302 105.106C114.665 105.248 114.993 105.465 115.266 105.742C115.54 106.019 115.752 106.35 115.89 106.714C116.027 107.078 116.087 107.467 116.065 107.856ZM115.015 107.856C114.998 107.476 114.869 107.11 114.645 106.802C114.421 106.495 114.112 106.26 113.755 106.127C113.399 105.993 113.012 105.968 112.641 106.053C112.27 106.137 111.933 106.329 111.67 106.604C111.407 106.879 111.231 107.225 111.163 107.599C111.095 107.974 111.139 108.36 111.288 108.709C111.437 109.059 111.686 109.357 112.003 109.567C112.32 109.777 112.692 109.889 113.073 109.889C113.338 109.897 113.601 109.849 113.847 109.749C114.092 109.648 114.314 109.497 114.497 109.305C114.68 109.114 114.821 108.885 114.91 108.636C115 108.386 115.035 108.12 115.015 107.856Z" fill="#263238"/>
<path d="M115.521 112.556L115.857 111.753C116.097 111.94 116.395 112.036 116.699 112.025C117.256 112.025 117.567 111.675 117.567 111.015V104.979H118.603V111.015C118.633 111.266 118.606 111.521 118.525 111.761C118.444 112.001 118.311 112.22 118.135 112.403C117.959 112.585 117.745 112.726 117.507 112.815C117.27 112.904 117.016 112.94 116.764 112.919C116.321 112.939 115.883 112.812 115.521 112.556ZM117.373 103.191C117.374 103.1 117.394 103.009 117.431 102.925C117.468 102.841 117.521 102.764 117.587 102.701C117.653 102.637 117.731 102.587 117.816 102.553C117.902 102.52 117.993 102.503 118.085 102.505C118.22 102.51 118.35 102.555 118.459 102.633C118.569 102.712 118.653 102.82 118.701 102.946C118.749 103.072 118.758 103.209 118.729 103.341C118.7 103.472 118.632 103.592 118.536 103.685C118.439 103.779 118.316 103.842 118.184 103.866C118.051 103.89 117.915 103.875 117.791 103.823C117.667 103.77 117.561 103.682 117.487 103.57C117.412 103.458 117.373 103.326 117.373 103.191Z" fill="#263238"/>
<path d="M125.78 108.204H121.117C121.185 108.697 121.438 109.146 121.826 109.459C122.213 109.772 122.706 109.925 123.202 109.888C123.513 109.899 123.822 109.842 124.108 109.721C124.395 109.6 124.651 109.418 124.86 109.188L125.443 109.862C125.154 110.174 124.8 110.42 124.407 110.581C124.013 110.742 123.589 110.815 123.163 110.794C122.762 110.825 122.359 110.772 121.98 110.637C121.601 110.502 121.254 110.29 120.962 110.012C120.67 109.735 120.44 109.4 120.286 109.028C120.132 108.657 120.058 108.257 120.068 107.854C120.052 107.469 120.115 107.084 120.254 106.724C120.393 106.364 120.604 106.037 120.875 105.762C121.146 105.488 121.471 105.272 121.829 105.128C122.187 104.985 122.571 104.916 122.956 104.927C123.344 104.915 123.729 104.985 124.088 105.131C124.447 105.278 124.771 105.498 125.04 105.777C125.308 106.057 125.515 106.39 125.647 106.754C125.779 107.118 125.833 107.507 125.806 107.893C125.793 107.971 125.78 108.1 125.78 108.204ZM121.104 107.453H124.795C124.757 106.99 124.545 106.559 124.204 106.244C123.862 105.93 123.414 105.755 122.95 105.755C122.485 105.755 122.038 105.93 121.696 106.244C121.354 106.559 121.143 106.99 121.104 107.453Z" fill="#263238"/>
<path d="M126.698 107.856C126.689 107.459 126.762 107.064 126.913 106.697C127.064 106.329 127.29 105.997 127.576 105.722C127.862 105.447 128.203 105.234 128.576 105.097C128.949 104.961 129.346 104.903 129.742 104.929C130.206 104.903 130.669 105.002 131.081 105.216C131.494 105.43 131.841 105.752 132.087 106.146L131.297 106.664C131.131 106.401 130.899 106.186 130.624 106.04C130.349 105.895 130.04 105.824 129.729 105.835C129.22 105.876 128.744 106.107 128.397 106.483C128.051 106.859 127.858 107.351 127.858 107.862C127.858 108.374 128.051 108.866 128.397 109.242C128.744 109.617 129.22 109.849 129.729 109.889C130.04 109.901 130.349 109.83 130.624 109.685C130.899 109.539 131.131 109.324 131.297 109.06L132.087 109.566C131.851 109.975 131.508 110.311 131.095 110.54C130.682 110.768 130.214 110.879 129.742 110.861C129.34 110.885 128.936 110.824 128.559 110.682C128.181 110.54 127.838 110.32 127.551 110.037C127.264 109.753 127.039 109.413 126.892 109.037C126.746 108.661 126.68 108.259 126.698 107.856Z" fill="#263238"/>
<path d="M136.75 110.394C136.378 110.674 135.92 110.816 135.455 110.795C135.21 110.824 134.963 110.797 134.73 110.717C134.497 110.637 134.286 110.506 134.11 110.333C133.935 110.16 133.801 109.95 133.717 109.719C133.634 109.487 133.604 109.24 133.629 108.995V105.835H132.657V104.98H133.629V103.685H134.678V104.98H136.323V105.835H134.678V108.956C134.66 109.082 134.67 109.21 134.709 109.331C134.747 109.452 134.812 109.562 134.9 109.654C134.987 109.747 135.094 109.818 135.212 109.863C135.331 109.908 135.458 109.926 135.584 109.915C135.879 109.92 136.167 109.824 136.4 109.643L136.75 110.394Z" fill="#263238"/>
<path d="M140.312 105.693C140.31 105.595 140.328 105.498 140.364 105.408C140.401 105.318 140.455 105.235 140.524 105.167C140.593 105.098 140.675 105.043 140.765 105.007C140.856 104.97 140.952 104.952 141.05 104.954C141.146 104.954 141.24 104.973 141.329 105.011C141.417 105.048 141.497 105.103 141.563 105.172C141.63 105.241 141.681 105.322 141.716 105.412C141.75 105.501 141.766 105.597 141.762 105.693C141.766 105.789 141.75 105.885 141.716 105.975C141.682 106.065 141.63 106.148 141.564 106.218C141.497 106.288 141.418 106.344 141.33 106.382C141.241 106.421 141.146 106.442 141.05 106.444C140.952 106.444 140.855 106.424 140.764 106.386C140.674 106.348 140.592 106.293 140.523 106.223C140.455 106.153 140.4 106.07 140.364 105.979C140.328 105.888 140.31 105.791 140.312 105.693ZM140.312 110.083C140.31 109.986 140.328 109.889 140.364 109.799C140.401 109.708 140.455 109.626 140.524 109.557C140.593 109.488 140.675 109.434 140.765 109.398C140.856 109.361 140.952 109.343 141.05 109.345C141.146 109.345 141.24 109.364 141.329 109.402C141.417 109.439 141.497 109.494 141.563 109.563C141.63 109.632 141.681 109.713 141.716 109.803C141.75 109.892 141.766 109.988 141.762 110.083C141.766 110.179 141.75 110.274 141.716 110.364C141.681 110.453 141.63 110.535 141.563 110.604C141.497 110.673 141.417 110.728 141.329 110.765C141.24 110.802 141.146 110.822 141.05 110.822C140.952 110.823 140.856 110.805 140.765 110.769C140.675 110.733 140.593 110.678 140.524 110.609C140.455 110.54 140.401 110.458 140.364 110.368C140.328 110.278 140.31 110.181 140.312 110.083Z" fill="#263238"/>
<path d="M85.4456 27.2789C85.4456 27.7913 85.2936 28.2921 85.009 28.7181C84.7244 29.1441 84.3198 29.4761 83.8464 29.6722C83.3731 29.8683 82.8522 29.9196 82.3497 29.8196C81.8472 29.7197 81.3857 29.473 81.0234 29.1107C80.6611 28.7484 80.4144 28.2868 80.3144 27.7843C80.2145 27.2818 80.2658 26.761 80.4618 26.2876C80.6579 25.8143 80.9899 25.4097 81.4159 25.1251C81.8419 24.8404 82.3428 24.6885 82.8551 24.6885C83.5421 24.6885 84.201 24.9614 84.6868 25.4472C85.1727 25.933 85.4456 26.5919 85.4456 27.2789Z" fill="white"/>
<path d="M94.8616 27.2789C94.8616 27.7913 94.7097 28.2921 94.425 28.7181C94.1404 29.1441 93.7358 29.4761 93.2625 29.6722C92.7891 29.8683 92.2683 29.9196 91.7658 29.8196C91.2633 29.7197 90.8017 29.473 90.4394 29.1107C90.0771 28.7484 89.8304 28.2868 89.7304 27.7843C89.6305 27.2818 89.6818 26.761 89.8778 26.2876C90.0739 25.8143 90.4059 25.4097 90.8319 25.1251C91.2579 24.8404 91.7588 24.6885 92.2711 24.6885C92.9582 24.6885 93.617 24.9614 94.1029 25.4472C94.5887 25.933 94.8616 26.5919 94.8616 27.2789Z" fill="white"/>
<path d="M104.279 27.2789C104.279 27.7913 104.127 28.2921 103.842 28.7181C103.557 29.1441 103.153 29.4761 102.679 29.6722C102.206 29.8683 101.685 29.9196 101.183 29.8196C100.68 29.7197 100.219 29.473 99.8564 29.1107C99.4941 28.7484 99.2474 28.2868 99.1474 27.7843C99.0475 27.2818 99.0988 26.761 99.2948 26.2876C99.4909 25.8143 99.8229 25.4097 100.249 25.1251C100.675 24.8404 101.176 24.6885 101.688 24.6885C102.375 24.6885 103.034 24.9614 103.52 25.4472C104.006 25.933 104.279 26.5919 104.279 27.2789Z" fill="white"/>
<path d="M169.894 156.672C169.894 156.672 169.894 156.555 169.894 156.361V155.493C169.894 154.69 169.894 153.576 169.894 152.152C169.894 149.224 169.894 145.015 169.778 139.704L169.972 139.886L93.5536 140.041L93.8903 139.704V148.292C93.8903 151.115 93.8903 153.913 93.8903 156.646L93.5276 156.348L147.927 156.504L164.027 156.594H168.379H169.519H169.92H169.558H168.47H164.182L148.16 156.685L93.5536 156.827H93.2168V139.73L93.5536 139.394L169.972 139.536H170.166V139.73C170.166 145.08 170.089 149.341 170.063 152.294C170.063 153.706 170.063 154.807 170.063 155.584V156.348C170.025 156.465 169.968 156.574 169.894 156.672Z" fill="#263238"/>
<path d="M217.041 156.673C217.023 156.565 217.023 156.456 217.041 156.349C217.041 156.103 217.041 155.805 217.041 155.455C217.041 154.613 217.041 153.486 216.976 152.049C216.976 149.083 216.911 144.873 216.846 139.705L217.093 139.938L175.283 140.042L175.619 139.705V148.396C175.619 151.246 175.619 153.991 175.619 156.647L175.295 156.323L205.176 156.478L213.906 156.569H216.264H217.106C216.851 156.587 216.596 156.587 216.341 156.569H214.049L205.397 156.66L175.295 156.815H174.972V148.241C174.972 146.829 174.972 145.391 174.972 143.928V139.55L175.308 139.213L217.118 139.304H217.352V139.55C217.352 144.731 217.248 149.031 217.222 152.036C217.222 153.447 217.222 154.626 217.222 155.39C217.222 156.154 217.054 156.686 217.041 156.673Z" fill="#263238"/>
<path d="M101.364 145.988H98.6182V144.99H105.25V145.988H102.504V152.995H101.364V145.988Z" fill="#263238"/>
<path d="M105.988 145.067C105.988 144.969 106.008 144.873 106.046 144.783C106.084 144.693 106.14 144.612 106.21 144.544C106.28 144.477 106.363 144.424 106.454 144.389C106.545 144.354 106.642 144.338 106.74 144.341C106.834 144.338 106.929 144.353 107.017 144.387C107.106 144.42 107.187 144.471 107.255 144.536C107.324 144.601 107.379 144.679 107.417 144.766C107.456 144.853 107.476 144.946 107.478 145.041C107.454 145.221 107.365 145.387 107.228 145.507C107.091 145.627 106.915 145.694 106.733 145.694C106.551 145.694 106.375 145.627 106.238 145.507C106.101 145.387 106.012 145.221 105.988 145.041V145.067ZM106.183 146.945H107.284V153.006H106.183V146.945Z" fill="#263238"/>
<path d="M112.788 152.658C112.416 152.94 111.96 153.091 111.493 153.085C111.235 153.116 110.972 153.088 110.726 153.003C110.48 152.919 110.256 152.78 110.071 152.597C109.885 152.414 109.743 152.192 109.656 151.947C109.568 151.702 109.536 151.44 109.563 151.181V147.852H108.54V146.946H109.563V145.65H110.664V146.946H112.4V147.852H110.664V151.168C110.664 151.829 111.001 152.191 111.61 152.191C111.922 152.194 112.227 152.094 112.478 151.906L112.788 152.658Z" fill="#263238"/>
<path d="M114.108 144.523H115.209V153.007H114.108V144.523Z" fill="#263238"/>
<path d="M122.762 150.339H117.84C117.908 150.862 118.175 151.337 118.585 151.668C118.995 151.998 119.517 152.158 120.042 152.114C120.369 152.128 120.694 152.07 120.996 151.945C121.299 151.819 121.569 151.63 121.79 151.388L122.399 152.101C122.096 152.43 121.725 152.689 121.31 152.859C120.896 153.029 120.45 153.107 120.003 153.085C119.58 153.116 119.156 153.058 118.757 152.915C118.358 152.771 117.993 152.546 117.687 152.253C117.381 151.96 117.139 151.606 116.978 151.214C116.817 150.822 116.74 150.4 116.752 149.977C116.734 149.57 116.8 149.163 116.946 148.783C117.092 148.403 117.315 148.057 117.6 147.766C117.886 147.476 118.228 147.247 118.606 147.095C118.983 146.943 119.389 146.87 119.796 146.881C120.204 146.871 120.609 146.946 120.986 147.102C121.363 147.258 121.704 147.491 121.985 147.786C122.267 148.081 122.484 148.432 122.622 148.816C122.76 149.2 122.817 149.608 122.788 150.015C122.785 150.124 122.776 150.232 122.762 150.339ZM117.84 149.549H121.726C121.65 149.088 121.413 148.669 121.057 148.367C120.701 148.065 120.25 147.899 119.783 147.899C119.316 147.899 118.864 148.065 118.508 148.367C118.152 148.669 117.915 149.088 117.84 149.549Z" fill="#263238"/>
<path d="M157.731 147.45H164.998L161.371 151.09L157.731 147.45Z" fill="#263238"/>
<path d="M203.895 147.45H211.161L207.521 151.09L203.895 147.45Z" fill="#263238"/>
<path d="M482.253 328.847C482.253 326.865 482.149 253.205 481.994 131.661L482.253 131.907L86.0674 131.998L86.4042 131.661C86.4042 201.163 86.4042 267.88 86.4042 328.847L86.0804 328.523L482.291 328.847L86.0804 329.158H85.7695V328.847C85.7695 267.88 85.7695 201.163 85.7695 131.661V131.324H86.1322L482.317 131.415H482.486V131.661C482.343 253.205 482.253 326.865 482.253 328.847Z" fill="#E0E0E0"/>
<path d="M482.253 124.136C482.253 124.136 482.253 123.359 482.253 121.895C482.253 120.431 482.253 118.243 482.253 115.419C482.253 109.707 482.253 101.288 482.175 90.4469L482.318 90.5764L85.5238 90.7837L85.8606 90.4469V124.123L85.5238 123.786L367.185 123.929L451.504 124.019H474.352H480.284C481.579 124.019 482.331 124.019 482.331 124.019H480.336H474.443H451.673L367.483 124.123L85.5757 124.265H85.1094V90.0713H85.4591L482.253 90.2915H482.383V90.421C482.383 101.301 482.318 109.733 482.305 115.471C482.305 118.307 482.305 120.483 482.305 121.947C482.305 123.411 482.253 124.136 482.253 124.136Z" fill="#E0E0E0"/>
<path d="M482.253 83.2843C482.253 83.2843 482.253 82.5201 482.253 81.0435C482.253 79.567 482.253 77.391 482.253 74.5674C482.253 68.8554 482.253 60.4494 482.175 49.6083L482.318 49.7378L85.5238 49.9451L85.8606 49.6083V83.2843L85.5238 82.9475L367.185 83.09L451.504 83.1936H474.352H480.284H482.331H480.336H474.443H451.673L367.483 83.2972L85.5757 83.4397H85.1094V49.2197H85.4591L482.253 49.427H482.383V49.5694C482.383 60.4364 482.318 68.8813 482.305 74.6062C482.305 77.4558 482.305 79.6188 482.305 81.0824C482.305 82.546 482.253 83.2843 482.253 83.2843Z" fill="#E0E0E0"/>
<path d="M379.1 141.207C378.475 141.185 377.865 141.406 377.399 141.824C376.933 142.241 376.647 142.823 376.601 143.447V152.229C376.743 153.05 377.17 153.794 377.808 154.331C378.445 154.868 379.252 155.162 380.085 155.162C380.918 155.162 381.724 154.868 382.362 154.331C382.999 153.794 383.427 153.05 383.569 152.229V145.144H382.882V151.931C382.815 152.633 382.489 153.285 381.966 153.76C381.444 154.234 380.764 154.497 380.059 154.497C379.353 154.497 378.673 154.234 378.151 153.76C377.629 153.285 377.303 152.633 377.235 151.931V143.525C377.235 143.041 377.428 142.576 377.77 142.234C378.113 141.891 378.577 141.699 379.062 141.699C379.546 141.699 380.01 141.891 380.353 142.234C380.695 142.576 380.888 143.041 380.888 143.525V150.649C380.822 150.867 380.687 151.058 380.504 151.194C380.321 151.33 380.099 151.404 379.871 151.404C379.643 151.404 379.421 151.33 379.238 151.194C379.055 151.058 378.92 150.867 378.854 150.649V145.157H378.181V150.403V150.649C378.264 151.03 378.474 151.372 378.778 151.617C379.082 151.862 379.461 151.996 379.852 151.996C380.242 151.996 380.621 151.862 380.925 151.617C381.229 151.372 381.44 151.03 381.522 150.649V150.506C381.522 150.506 381.522 150.429 381.522 150.39V143.395C381.461 142.795 381.18 142.239 380.733 141.835C380.285 141.431 379.703 141.207 379.1 141.207Z" fill="#263238"/>
<path d="M286.659 145.08H276.673V146.66H286.659V145.08Z" fill="#263238"/>
<path d="M286.659 150.844H276.673V152.424H286.659V150.844Z" fill="#263238"/>
<path d="M281.672 148.06H276.673V149.64H281.672V148.06Z" fill="#263238"/>
<path d="M324.156 145.08H314.17V146.66H324.156V145.08Z" fill="#263238"/>
<path d="M324.156 150.844H314.17V152.424H324.156V150.844Z" fill="#263238"/>
<path d="M324.157 148.06H319.157V149.64H324.157V148.06Z" fill="#263238"/>
<path d="M305.66 145.08H295.674V146.66H305.66V145.08Z" fill="#263238"/>
<path d="M305.66 150.844H295.674V152.424H305.66V150.844Z" fill="#263238"/>
<path d="M305.66 148.06H295.674V149.64H305.66V148.06Z" fill="#263238"/>
<path d="M349.167 151.906H340.994V145.196H345.23V146.608H342.419V150.481H347.755V149.082H349.167V151.906Z" fill="#263238"/>
<path d="M353.87 151.906H350.399V150.481H352.458V146.608H347.122V148.421H345.71V145.196H353.87V151.906Z" fill="#263238"/>
<path d="M357.185 148.021H361.537L359.361 150.041L357.185 148.021Z" fill="#263238"/>
<path d="M258.825 148.707V144.938H260.12V148.655C260.12 150.028 260.742 150.624 261.817 150.624C262.892 150.624 263.501 150.028 263.501 148.655V144.938H264.718V148.707C264.745 149.107 264.689 149.508 264.555 149.885C264.42 150.263 264.209 150.608 263.935 150.901C263.661 151.194 263.33 151.427 262.963 151.587C262.595 151.746 262.199 151.828 261.798 151.828C261.397 151.828 261 151.746 260.633 151.587C260.265 151.427 259.934 151.194 259.66 150.901C259.386 150.608 259.176 150.263 259.041 149.885C258.906 149.508 258.85 149.107 258.877 148.707H258.825Z" fill="#263238"/>
<path d="M247.621 144.187H248.735L247.168 151.958H246.054L247.621 144.187Z" fill="#263238"/>
<path d="M237.143 149.873C237.143 151.168 236.029 152.01 233.931 152.01H229.734V144.238H233.711C235.757 144.238 236.767 145.08 236.767 146.285C236.772 146.636 236.675 146.982 236.489 147.28C236.303 147.579 236.036 147.818 235.718 147.969C236.131 148.087 236.493 148.337 236.751 148.681C237.008 149.025 237.146 149.443 237.143 149.873ZM231.962 145.806V147.282H233.478C234.216 147.282 234.591 147.036 234.591 146.531C234.591 146.026 234.216 145.78 233.478 145.78L231.962 145.806ZM234.967 149.626C234.967 149.095 234.566 148.836 233.814 148.836H231.962V150.417H233.801C234.514 150.391 234.915 150.132 234.915 149.601L234.967 149.626Z" fill="#263238"/>
<path d="M270.624 157.139C270.291 154.168 270.179 151.176 270.287 148.189C270.178 145.197 270.291 142.201 270.624 139.226C270.965 142.2 271.077 145.197 270.961 148.189C271.077 151.176 270.965 154.168 270.624 157.139Z" fill="#E0E0E0"/>
<path d="M329.986 157.139C329.645 154.168 329.533 151.176 329.649 148.189C329.532 145.197 329.645 142.2 329.986 139.226C330.319 142.201 330.431 145.197 330.323 148.189C330.431 151.176 330.319 154.168 329.986 157.139Z" fill="#E0E0E0"/>
<path d="M365.915 157.502C365.582 154.531 365.47 151.539 365.578 148.552C365.469 145.564 365.582 142.572 365.915 139.602C366.249 142.572 366.361 145.564 366.252 148.552C366.361 151.539 366.248 154.531 365.915 157.502Z" fill="#E0E0E0"/>
<path d="M393.114 156.971C392.781 154 392.669 151.008 392.777 148.021C392.669 145.029 392.781 142.033 393.114 139.058C393.464 142.032 393.581 145.028 393.464 148.021C393.58 151.009 393.463 154.001 393.114 156.971Z" fill="#E0E0E0"/>
<path d="M266.027 152.606C263.369 153.055 260.654 153.055 257.996 152.606C260.654 152.157 263.369 152.157 266.027 152.606Z" fill="#263238"/>
<path d="M187.51 144.186V151.957H186.409V145.132H184.647V144.16L187.51 144.186Z" fill="#263238"/>
<path d="M194.686 151.013V151.984H189.09V151.168L192.263 148.111C193.092 147.308 193.248 146.816 193.248 146.337C193.248 145.534 192.678 145.042 191.59 145.042C191.215 145.022 190.841 145.087 190.496 145.233C190.15 145.379 189.842 145.601 189.595 145.884L188.831 145.236C189.189 144.841 189.63 144.53 190.123 144.326C190.616 144.122 191.148 144.03 191.681 144.057C193.313 144.057 194.349 144.886 194.349 146.22C194.334 146.7 194.209 147.17 193.985 147.594C193.76 148.019 193.442 148.386 193.053 148.668L190.67 150.961L194.686 151.013Z" fill="#263238"/>
<path d="M482.253 165.558C482.253 165.74 393.4 165.895 283.823 165.895C174.247 165.895 85.3809 165.74 85.3809 165.558C85.3809 165.377 174.208 165.222 283.823 165.222C393.439 165.222 482.253 165.416 482.253 165.558Z" fill="#E0E0E0"/>
<path d="M457.773 185.206C457.773 185.388 377.093 185.543 277.58 185.543C178.068 185.543 97.375 185.388 97.375 185.206C97.375 185.025 178.107 184.844 277.58 184.844C377.054 184.844 457.773 185.012 457.773 185.206Z" fill="#263238"/>
<path d="M457.773 199.804C457.773 199.998 377.093 200.14 277.58 200.14C178.068 200.14 97.375 199.998 97.375 199.804C97.375 199.609 178.042 199.467 277.58 199.467C377.119 199.467 457.773 199.622 457.773 199.804Z" fill="#263238"/>
<path d="M457.773 214.414C457.773 214.595 377.093 214.751 277.58 214.751C178.068 214.751 97.375 214.634 97.375 214.414C97.375 214.194 178.042 214.077 277.58 214.077C377.119 214.077 457.773 214.22 457.773 214.414Z" fill="#263238"/>
<path d="M457.773 229.011C457.773 229.205 377.093 229.347 277.58 229.347C178.068 229.347 97.375 229.205 97.375 229.011C97.375 228.816 178.042 228.674 277.58 228.674C377.119 228.674 457.773 228.881 457.773 229.011Z" fill="#263238"/>
<path d="M457.773 243.621C457.773 243.802 377.093 243.958 277.58 243.958C178.068 243.958 97.375 243.802 97.375 243.621C97.375 243.44 178.042 243.284 277.58 243.284C377.119 243.284 457.773 243.427 457.773 243.621Z" fill="#263238"/>
<path d="M457.773 258.218C457.773 258.412 377.093 258.554 277.58 258.554C178.068 258.554 97.375 258.412 97.375 258.218C97.375 258.023 178.042 257.881 277.58 257.881C377.119 257.881 457.773 258.036 457.773 258.218Z" fill="#263238"/>
<path d="M457.773 272.828C457.773 273.009 377.093 273.165 277.58 273.165C178.068 273.165 97.375 273.009 97.375 272.828C97.375 272.647 178.042 272.491 277.58 272.491C377.119 272.491 457.773 272.634 457.773 272.828Z" fill="#263238"/>
<path d="M458.032 286.908C458.032 287.089 377.352 287.245 277.839 287.245C178.327 287.245 97.6338 287.089 97.6338 286.908C97.6338 286.727 178.301 286.571 277.839 286.571C377.378 286.571 458.032 286.727 458.032 286.908Z" fill="#263238"/>
<path d="M458.292 300.987C458.292 301.181 377.612 301.324 278.112 301.324C178.612 301.324 97.8936 301.181 97.8936 300.987C97.8936 300.793 178.561 300.65 278.112 300.65C377.663 300.65 458.292 300.806 458.292 300.987Z" fill="#263238"/>
<path d="M98.165 315.066C98.165 314.885 178.845 314.729 278.345 314.729C377.844 314.729 458.55 314.885 458.55 315.066C458.55 315.248 377.883 315.403 278.345 315.403C178.806 315.403 98.165 315.261 98.165 315.066Z" fill="#263238"/>
<path d="M496.085 343.665C496.085 341.359 495.982 213.688 495.813 15.3886L496.085 15.6735H70.4986L70.8353 15.3368C70.8353 133.591 70.8353 245.473 70.8353 343.613L70.5374 343.315L496.163 343.613L70.5374 343.924H70.2266V343.613C70.2266 245.473 70.2266 133.591 70.2266 15.3368V15H70.6022L496.085 15.1684H496.37V15.4404C496.202 213.688 496.085 341.359 496.085 343.665Z" fill="#263238"/>
<path d="M329.648 117.323V145.559C329.648 148.06 330.642 150.458 332.41 152.227C334.179 153.995 336.577 154.989 339.078 154.989H373.686C374.189 154.989 374.685 155.106 375.134 155.33C375.584 155.555 375.975 155.882 376.277 156.284L384.748 174.741L394.954 156.608C395.262 156.263 395.639 155.987 396.061 155.797C396.483 155.608 396.94 155.509 397.402 155.507H433.668C436.165 155.476 438.547 154.456 440.293 152.672C442.039 150.887 443.005 148.483 442.981 145.987V117.142C442.981 115.903 442.737 114.677 442.262 113.532C441.787 112.388 441.091 111.349 440.214 110.474C439.337 109.6 438.296 108.907 437.15 108.435C436.005 107.963 434.778 107.722 433.539 107.726L339.117 107.894C337.875 107.889 336.645 108.129 335.496 108.601C334.348 109.072 333.304 109.766 332.424 110.642C331.544 111.518 330.846 112.559 330.37 113.706C329.894 114.852 329.648 116.082 329.648 117.323Z" fill="#407BFF"/>
<path d="M353.403 141.712H347.497V136.142L361.097 121.286L361.369 121.221C362.093 120.928 362.881 120.832 363.654 120.941C364.427 121.05 365.158 121.361 365.773 121.843C367.495 123.423 367.068 126.311 366.964 126.635V126.92L353.403 141.712ZM349.518 139.756H352.6L365.151 126.026C365.238 125.549 365.227 125.06 365.118 124.588C365.009 124.115 364.804 123.67 364.516 123.28C364.181 123.056 363.795 122.917 363.394 122.874C362.992 122.831 362.587 122.886 362.211 123.034L349.518 136.893V139.756Z" fill="white"/>
<path d="M391.82 137.957V139.887H380.59V124.422H391.509V126.339H382.805V131.092H390.576V133.035H382.805V138.022L391.82 137.957Z" fill="white"/>
<path d="M406.067 123.489V139.886H404.034V138.021C403.555 138.67 402.924 139.191 402.197 139.539C401.47 139.887 400.668 140.05 399.863 140.016C398.326 139.944 396.875 139.283 395.813 138.17C394.75 137.057 394.157 135.577 394.157 134.038C394.157 132.5 394.75 131.02 395.813 129.907C396.875 128.794 398.326 128.133 399.863 128.061C400.644 128.033 401.421 128.188 402.132 128.515C402.843 128.841 403.467 129.328 403.956 129.939V123.463L406.067 123.489ZM403.969 134.032C403.921 133.276 403.653 132.55 403.198 131.944C402.743 131.339 402.12 130.879 401.407 130.622C400.695 130.365 399.922 130.323 399.185 130.499C398.448 130.676 397.779 131.064 397.26 131.616C396.741 132.168 396.395 132.86 396.264 133.606C396.133 134.352 396.223 135.121 396.523 135.816C396.823 136.512 397.319 137.105 397.952 137.522C398.585 137.939 399.325 138.162 400.083 138.164C400.613 138.161 401.136 138.051 401.621 137.839C402.106 137.627 402.543 137.318 402.904 136.931C403.266 136.544 403.544 136.087 403.723 135.589C403.902 135.09 403.976 134.56 403.943 134.032H403.969Z" fill="white"/>
<path d="M409.706 124.551C409.704 124.364 409.74 124.18 409.811 124.007C409.883 123.835 409.988 123.679 410.121 123.548C410.254 123.418 410.412 123.315 410.586 123.247C410.759 123.179 410.945 123.147 411.131 123.152C411.493 123.134 411.847 123.261 412.117 123.503C412.386 123.746 412.548 124.085 412.569 124.447C412.574 124.637 412.54 124.826 412.47 125.002C412.399 125.178 412.294 125.338 412.159 125.471C412.024 125.605 411.863 125.71 411.686 125.778C411.51 125.847 411.321 125.879 411.131 125.872C410.951 125.879 410.771 125.85 410.601 125.788C410.432 125.725 410.277 125.63 410.145 125.507C410.012 125.384 409.905 125.237 409.83 125.072C409.755 124.908 409.713 124.731 409.706 124.551ZM410.082 128.165H412.193V139.822H410.082V128.165Z" fill="white"/>
<path d="M422.828 139.2C422.085 139.764 421.169 140.052 420.237 140.016C419.74 140.073 419.237 140.017 418.764 139.854C418.292 139.691 417.862 139.423 417.506 139.071C417.151 138.719 416.879 138.292 416.71 137.821C416.542 137.351 416.481 136.848 416.533 136.35V129.874H414.538V128.126H416.533V125.535H418.644V128.126H422.012V129.874H418.644V136.221C418.609 136.476 418.631 136.737 418.709 136.983C418.787 137.229 418.919 137.454 419.095 137.643C419.271 137.832 419.487 137.978 419.727 138.073C419.967 138.168 420.226 138.207 420.483 138.19C421.082 138.193 421.666 137.997 422.141 137.633L422.828 139.2Z" fill="white"/>
<path d="M78.0714 330.86C75.4514 330.73 74.6814 327.04 75.6614 324.61C76.6414 322.18 78.5514 320.02 78.5814 317.4C78.5814 315.13 77.1614 313.07 77.0214 310.8C76.7714 306.71 80.7314 303.37 80.9014 299.28C81.0314 296.08 78.8114 293.04 79.3514 289.89C79.9214 286.51 83.4514 284.3 84.2614 280.96C85.1214 277.42 82.6614 273.66 83.6014 270.14C84.5414 266.62 88.6814 264.04 88.0914 260.46C87.7439 259.309 87.3333 258.177 86.8614 257.07C86.1214 254.4 87.5814 251.6 89.3514 249.46C91.1214 247.32 93.2914 245.46 94.3514 242.87C96.0414 238.95 94.8714 234.17 96.8514 230.39C98.5114 227.25 102.191 225.13 102.651 221.61C104.511 224.78 102.651 228.81 103.111 232.47C103.391 234.85 104.631 237 105.381 239.28C106.144 241.611 106.415 244.075 106.175 246.516C105.936 248.957 105.192 251.322 103.991 253.46C102.391 256.27 99.9314 258.93 100.051 262.16C100.201 266.07 104.121 268.91 104.811 272.76C105.811 278.27 99.9314 283.23 100.741 288.76C100.951 290.19 101.601 291.54 101.741 292.98C102.151 297.88 96.6014 301.34 95.7414 306.19C95.1214 309.75 97.1814 313.43 96.3314 316.95C95.6714 319.66 93.3314 322.09 93.9014 324.82C94.296 325.962 94.7982 327.064 95.4014 328.11C95.8506 329.181 95.995 330.354 95.8185 331.501C95.642 332.649 95.1516 333.725 94.4014 334.61C93.6218 335.469 92.5895 336.058 91.4535 336.291C90.3175 336.525 89.1366 336.392 88.0814 335.91" fill="#407BFF"/>
<g opacity="0.5">
<path opacity="0.5" d="M95.432 328.16C94.8288 327.114 94.3266 326.012 93.932 324.87C93.362 322.14 95.702 319.71 96.362 317C97.212 313.48 95.152 309.8 95.772 306.24C96.622 301.39 102.172 297.93 101.772 293.03C101.642 291.59 100.992 290.24 100.772 288.81C99.962 283.27 105.832 278.31 104.842 272.81C104.152 268.96 100.242 266.12 100.082 262.21C99.962 258.98 102.422 256.32 104.022 253.51C105.223 251.372 105.967 249.007 106.206 246.566C106.445 244.125 106.175 241.661 105.412 239.33C104.662 237.05 103.412 234.9 103.142 232.52C102.722 228.86 104.542 224.83 102.682 221.66C102.222 225.18 98.542 227.3 96.882 230.44C94.882 234.22 96.072 239 94.382 242.92C93.292 245.47 91.122 247.37 89.382 249.51C87.642 251.65 86.152 254.45 86.892 257.12C87.3639 258.227 87.7745 259.358 88.122 260.51C88.712 264.09 84.572 266.67 83.632 270.19C82.692 273.71 85.152 277.47 84.292 281.01C83.482 284.35 79.952 286.56 79.382 289.94C78.842 293.09 81.062 296.13 80.932 299.33C80.762 303.42 76.802 306.76 77.052 310.85C77.192 313.12 78.632 315.18 78.612 317.45C78.612 320.07 76.612 322.23 75.692 324.66C74.772 327.09 75.482 330.78 78.102 330.91L88.162 335.97C89.2172 336.451 90.398 336.585 91.5341 336.351C92.6701 336.118 93.7024 335.529 94.482 334.67C95.2258 333.778 95.7083 332.698 95.8759 331.549C96.0436 330.4 95.8899 329.227 95.432 328.16Z" fill="white"/>
</g>
<path d="M92.0215 325.73C91.3281 324.561 90.9812 323.219 91.0215 321.86C91.2915 320.36 93.8215 319.05 94.4515 316.51C95.2615 313.21 93.7915 307.39 94.4515 304.06C95.3015 299.55 99.9715 296.58 99.7815 292.06C99.7215 290.74 99.9115 287.22 99.7815 285.92C99.2815 280.87 103.722 277.48 103.072 272.46C102.622 268.96 98.9915 264.85 98.9815 261.26C98.9815 258.26 101.111 255.69 102.521 253C104.659 248.965 105.229 244.281 104.121 239.85C103.571 237.8 102.611 235.85 102.462 233.73C102.222 230.39 103.861 226.55 102.462 223.73C101.972 227.01 98.8515 229.2 97.3815 232.2C95.6215 235.81 96.4415 240.13 94.9215 243.85C93.9215 246.27 92.0815 248.16 90.5415 250.25C89.0015 252.34 87.7115 255 88.2415 257.42C88.5995 258.403 88.9033 259.405 89.1515 260.42C89.5315 263.69 86.0215 266.33 85.1515 269.63C84.2815 272.93 86.1515 276.23 85.3515 279.55C84.5815 282.67 81.5215 286.91 80.9415 290.06C80.3915 293 83.0515 294.91 82.8415 297.85C82.5815 301.64 78.8415 306.21 78.8415 309.96C78.8415 312.04 80.6315 312.71 80.5415 314.8C80.4315 317.21 78.4115 322.01 77.5415 324.31C77.0693 325.349 76.879 326.494 76.9896 327.63C77.1002 328.766 77.5078 329.852 78.1715 330.78L89.4115 336.36C94.3215 334.05 94.1015 329.16 92.0215 325.73Z" fill="#407BFF"/>
<path d="M99.5722 240.87C99.5868 240.953 99.5868 241.037 99.5722 241.12C99.5722 241.31 99.5722 241.55 99.5722 241.85C99.5722 242.5 99.5722 243.44 99.4522 244.66C99.3586 246.152 99.0208 247.618 98.4522 249C97.7922 250.65 96.3922 252.13 95.0722 253.83C94.3573 254.698 93.8112 255.691 93.4622 256.76C93.1089 257.925 92.9733 259.146 93.0622 260.36C93.1822 262.9 93.9622 265.54 94.3322 268.42C94.5563 269.907 94.5054 271.422 94.1822 272.89C93.9928 273.651 93.6965 274.382 93.3022 275.06C92.871 275.704 92.477 276.371 92.1222 277.06C91.6181 278.535 91.5936 280.131 92.0522 281.62C92.2122 282.41 92.3922 283.21 92.4922 284.04C92.5791 284.883 92.5555 285.733 92.4222 286.57C92.1104 288.203 91.5895 289.79 90.8722 291.29C90.205 292.73 89.6272 294.209 89.1422 295.72C88.7216 297.16 88.5891 298.669 88.7522 300.16C88.9701 301.636 89.0237 303.132 88.9122 304.62C88.6474 306.019 88.1684 307.368 87.4922 308.62C86.8671 309.772 86.39 310.998 86.0722 312.27C85.6022 314.75 86.3022 317.13 86.2522 319.33C86.122 321.305 85.6869 323.248 84.9622 325.09C84.4411 326.469 84.0722 327.901 83.8622 329.36C83.7455 330.283 83.8412 331.22 84.1422 332.1C84.3722 332.69 84.5522 332.98 84.5222 333C84.3425 332.725 84.1885 332.434 84.0622 332.13C83.7161 331.243 83.5858 330.287 83.6822 329.34C83.8537 327.864 84.1891 326.412 84.6822 325.01C85.3761 323.191 85.7843 321.275 85.8922 319.33C85.8922 318.25 85.7422 317.13 85.6222 315.94C85.4379 314.697 85.4379 313.433 85.6222 312.19C86.1122 309.59 88.0222 307.36 88.4122 304.55C88.5134 303.092 88.4564 301.626 88.2422 300.18C88.0638 298.623 88.1964 297.046 88.6322 295.54C89.4922 292.47 91.3622 289.68 91.9022 286.44C92.0271 285.643 92.0472 284.833 91.9622 284.03C91.8722 283.23 91.6922 282.44 91.5322 281.65C91.0532 280.066 91.0918 278.371 91.6422 276.81C92.0051 276.12 92.4092 275.452 92.8522 274.81C93.2228 274.167 93.5053 273.478 93.6922 272.76C94.0011 271.341 94.0519 269.877 93.8422 268.44C93.4922 265.61 92.7122 262.94 92.6022 260.35C92.5207 259.09 92.6733 257.825 93.0522 256.62C93.4237 255.526 93.9931 254.509 94.7322 253.62C96.1022 251.91 97.4822 250.48 98.1422 248.89C98.718 247.534 99.079 246.097 99.2122 244.63C99.3422 243.43 99.3722 242.48 99.4122 241.84C99.4122 241.54 99.4122 241.3 99.4122 241.11C99.4122 240.92 99.5722 240.87 99.5722 240.87Z" fill="#263238"/>
<path d="M62.0117 332.16C58.3517 332.69 56.2717 327.79 56.9617 324.16C57.6517 320.53 59.7217 317.01 59.0417 313.37C58.4517 310.22 55.8817 307.76 55.0417 304.65C53.5717 299.05 58.1417 293.35 57.2517 287.65C56.5617 283.19 52.6517 279.58 52.5317 275.07C52.4417 270.16 56.7517 266.16 56.9217 261.32C57.1417 256.16 52.7017 251.64 53.0517 246.5C53.4017 241.36 58.4117 236.66 56.6117 231.85C56.0217 230.26 54.7417 229.02 53.9817 227.5C52.2217 224 53.4817 219.73 55.3517 216.28C57.2217 212.83 59.7017 209.6 60.5217 205.76C61.7717 199.87 58.8417 193.57 60.5217 187.76C61.9517 182.95 66.5217 179.01 66.1417 174C69.6017 177.89 68.1417 184 69.7617 188.93C70.7617 192.15 73.1017 194.79 74.7617 197.74C76.4608 200.754 77.5159 204.088 77.8602 207.53C78.2044 210.973 77.8304 214.449 76.7617 217.74C75.3117 222.07 72.6317 226.42 73.6817 230.87C74.9717 236.24 81.1717 239.1 83.1817 244.25C86.0617 251.62 79.2817 260.1 81.9317 267.56C82.6117 269.48 83.9317 271.16 84.4517 273.13C86.3717 279.8 79.6217 286.13 79.7717 293.06C79.8917 298.17 83.7717 302.71 83.5317 307.81C83.3717 311.75 80.7917 315.81 82.3317 319.38C83.0017 320.95 84.3317 322.12 85.3317 323.54C86.2499 324.894 86.7751 326.476 86.8493 328.111C86.9234 329.745 86.5435 331.368 85.7517 332.8C84.9082 334.205 83.6393 335.304 82.1289 335.939C80.6185 336.573 78.9452 336.71 77.3517 336.33" fill="#407BFF"/>
<g opacity="0.5">
<path opacity="0.5" d="M85.3222 323.6C84.3222 322.18 83.0122 321.01 82.3222 319.44C80.7822 315.82 83.3222 311.81 83.5222 307.87C83.7422 302.77 79.8822 298.23 79.7622 293.12C79.6122 286.18 86.3622 279.86 84.4422 273.19C83.8722 271.19 82.6022 269.54 81.9222 267.62C79.2722 260.16 86.0522 251.68 83.1722 244.31C81.1722 239.16 74.9622 236.31 73.6722 230.93C72.6722 226.48 75.3122 222.13 76.7522 217.8C77.8209 214.509 78.195 211.032 77.8507 207.59C77.5064 204.147 76.4514 200.813 74.7522 197.8C73.0822 194.85 70.7522 192.21 69.7522 188.99C68.1722 184.04 69.5922 177.99 66.1322 174.06C66.4622 179.06 61.9422 183.01 60.5122 187.82C58.7922 193.6 61.7222 199.9 60.5122 205.82C59.6922 209.66 57.2022 212.89 55.3422 216.34C53.4822 219.79 52.2122 224.06 53.9722 227.56C54.7322 229.08 55.9722 230.32 56.6022 231.91C58.4022 236.72 53.3722 241.43 53.0422 246.56C52.7122 251.69 57.1322 256.22 56.9122 261.38C56.7522 266.16 52.4422 270.16 52.5722 275.03C52.6822 279.54 56.5722 283.15 57.2822 287.61C58.1722 293.33 53.6022 299.03 55.0722 304.61C55.8822 307.72 58.4522 310.18 59.0722 313.33C59.7522 316.97 57.6722 320.49 56.9922 324.12C56.3122 327.75 58.3822 332.66 62.0422 332.12L77.3722 336.36C78.9658 336.74 80.6391 336.603 82.1495 335.968C83.6598 335.333 84.9288 334.234 85.7722 332.83C86.5537 331.399 86.9253 329.78 86.8459 328.151C86.7665 326.523 86.2392 324.948 85.3222 323.6Z" fill="white"/>
</g>
<path d="M79.9315 321.21C78.9315 320.11 77.5015 317.66 77.4715 316.13C77.4715 313.98 80.5815 311.46 80.7615 307.77C80.9915 302.98 77.3515 295.31 77.3115 290.54C77.3115 284.05 82.9115 278.65 81.4215 272.49C80.9815 270.68 80.2715 265.75 79.7415 263.98C77.6615 257.12 82.8815 251.21 80.6115 244.44C79.0315 239.71 72.8715 235.01 71.8815 230.04C71.0615 225.93 73.3015 221.74 74.5215 217.62C76.3756 211.442 75.8806 204.796 73.1315 198.96C71.8015 196.28 69.9615 193.91 69.1315 190.96C67.8815 186.4 69.1315 180.63 66.3315 177.15C66.5415 181.83 62.8315 185.71 61.6215 190.27C60.1615 195.76 62.4815 201.52 61.4015 207.09C60.6915 210.72 58.6415 213.84 57.0815 217.15C55.5215 220.46 54.4615 224.51 55.8515 227.72C56.4615 229.1 57.4815 230.21 57.9515 231.67C59.3715 236.09 55.2315 240.72 54.9515 245.53C54.6715 250.34 58.1815 254.4 57.9515 259.22C57.7315 263.76 54.6615 270.47 54.7115 274.99C54.7115 279.21 58.9715 281.12 59.4915 285.27C60.1515 290.58 56.1515 297.96 57.2915 303.13C57.9215 306 60.5115 306.45 60.9615 309.37C61.4715 312.74 59.9615 319.94 59.4015 323.37C58.8415 326.8 59.4015 329.24 62.0415 332.17L79.1415 336.81C85.4115 332.16 83.7515 325.41 79.9315 321.21Z" fill="#407BFF"/>
<path d="M67.1614 201.58C67.5634 203.32 67.8573 205.084 68.0414 206.86C68.2951 208.949 68.2175 211.065 67.8114 213.13C67.5173 214.415 67.0638 215.658 66.4614 216.83C65.8514 218.09 65.1114 219.35 64.4614 220.72C63.7018 222.126 63.2165 223.663 63.0314 225.25C62.861 226.968 63.0033 228.703 63.4514 230.37C64.3114 233.87 66.1214 237.37 67.4514 241.2C68.1614 243.192 68.5003 245.296 68.4514 247.41C68.3922 248.507 68.1836 249.59 67.8314 250.63C67.407 251.63 67.0365 252.651 66.7214 253.69C66.2114 255.82 67.0114 258.02 67.8914 260.09C68.3314 261.14 68.7914 262.2 69.1514 263.32C69.5013 264.456 69.703 265.632 69.7514 266.82C69.7547 269.16 69.4692 271.491 68.9014 273.76C68.3658 275.94 67.965 278.151 67.7014 280.38C67.5963 281.458 67.5963 282.543 67.7014 283.62C67.8332 284.678 68.0574 285.722 68.3714 286.74C69.0781 288.717 69.5611 290.766 69.8114 292.85C69.8417 294.86 69.5514 296.862 68.9514 298.78C68.3873 300.55 68.0513 302.385 67.9514 304.24C68.0049 305.969 68.3115 307.68 68.8614 309.32C69.3673 310.854 69.7945 312.413 70.1414 313.99C70.4072 315.444 70.4778 316.927 70.3514 318.4C70.2614 319.79 70.1014 321.09 69.9414 322.3C69.5997 324.358 69.489 326.448 69.6114 328.53C69.7052 329.843 70.1022 331.116 70.7714 332.25C71.2514 333.01 71.5814 333.36 71.5614 333.38C71.2384 333.048 70.9471 332.686 70.6914 332.3C69.9844 331.166 69.5528 329.881 69.4314 328.55C69.286 326.454 69.3732 324.347 69.6914 322.27C69.8314 321.06 69.9914 319.76 70.0714 318.39C70.1774 316.939 70.0968 315.481 69.8314 314.05C69.4768 312.486 69.0429 310.94 68.5314 309.42C67.941 307.753 67.604 306.007 67.5314 304.24C67.6356 302.353 67.9715 300.485 68.5314 298.68C69.1151 296.803 69.3953 294.845 69.3614 292.88C69.1016 290.835 68.6222 288.823 67.9314 286.88C67.6039 285.84 67.373 284.772 67.2414 283.69C67.1313 282.583 67.1313 281.467 67.2414 280.36C67.5005 278.114 67.9014 275.886 68.4414 273.69C69.0012 271.457 69.2833 269.163 69.2814 266.86C69.2348 265.713 69.0398 264.577 68.7014 263.48C68.3514 262.39 67.8914 261.34 67.4514 260.28C66.9831 259.232 66.6083 258.144 66.3314 257.03C66.0468 255.91 66.0263 254.739 66.2714 253.61C66.5904 252.553 66.9676 251.515 67.4014 250.5C67.743 249.499 67.9449 248.456 68.0014 247.4C68.0402 245.339 67.7013 243.289 67.0014 241.35C65.7314 237.51 63.9314 234.04 63.0714 230.48C62.6136 228.77 62.4779 226.99 62.6714 225.23C62.8674 223.607 63.3696 222.036 64.1514 220.6C64.8514 219.22 65.6014 217.96 66.2214 216.73C66.8198 215.581 67.2732 214.361 67.5714 213.1C67.9963 211.059 68.0976 208.963 67.8714 206.89C67.7214 205.18 67.5014 203.89 67.3614 202.97C67.3014 202.537 67.2514 202.203 67.2114 201.97C67.1755 201.843 67.1587 201.712 67.1614 201.58Z" fill="#263238"/>
<path d="M59.7519 334.56C57.6619 335.56 55.4719 333.05 55.1819 330.74C54.8919 328.43 55.4519 325.93 54.3419 323.88C53.3419 322.11 51.3419 321.13 50.2819 319.43C48.2819 316.36 49.9519 312.07 48.2819 308.81C47.0019 306.28 43.9719 304.87 43.0319 302.2C42.0319 299.33 43.7919 296.08 43.0319 293.15C42.1719 290.02 38.6419 288.15 37.8519 285.03C37.0619 281.91 39.1619 278.1 37.1519 275.57C36.3857 274.831 35.5813 274.134 34.7419 273.48C33.0119 271.72 32.9319 268.92 33.3919 266.48C33.8519 264.04 34.7019 261.64 34.4519 259.18C34.0619 255.41 31.0919 252.18 31.0019 248.42C30.9319 245.26 32.8719 242.03 31.7119 239.1C34.5219 240.75 34.8519 244.68 36.7119 247.33C37.9519 249.06 39.8419 250.19 41.4119 251.63C43.0027 253.116 44.2683 254.916 45.1289 256.916C45.9895 258.916 46.4263 261.072 46.4119 263.25C46.4119 266.12 45.6219 269.25 47.1119 271.7C48.9119 274.7 53.1819 275.18 55.3819 277.87C58.5319 281.73 56.1119 288.11 59.1319 292.06C59.9119 293.06 61.0019 293.84 61.7219 294.91C64.1619 298.53 61.3419 303.62 62.7219 307.74C63.7819 310.74 66.9719 312.74 67.8319 315.85C68.4919 318.23 67.7219 321.13 69.3419 323C70.1428 323.717 71.0101 324.356 71.9319 324.91C72.734 325.551 73.3446 326.4 73.6973 327.365C74.05 328.329 74.1311 329.372 73.9319 330.38C73.7143 331.366 73.1948 332.26 72.4457 332.937C71.6966 333.615 70.755 334.042 69.7519 334.16" fill="#407BFF"/>
<g opacity="0.5">
<path opacity="0.5" d="M72.0217 324.93C71.0999 324.377 70.2327 323.737 69.4317 323.02C67.8117 321.15 68.5817 318.25 67.9217 315.87C67.0617 312.77 63.9217 310.8 62.8117 307.76C61.3817 303.64 64.2017 298.55 61.8117 294.93C61.0917 293.86 60.0017 293.1 59.2217 292.08C56.2217 288.13 58.6217 281.75 55.4717 277.89C53.2717 275.2 49.0017 274.69 47.2017 271.72C45.7117 269.26 46.4717 266.14 46.5017 263.27C46.5161 261.093 46.0793 258.936 45.2187 256.936C44.3582 254.936 43.0926 253.137 41.5017 251.65C39.9317 250.21 38.0417 249.08 36.8017 247.35C34.8917 244.7 34.5617 240.77 31.8017 239.12C32.9617 242.05 31.0217 245.28 31.0917 248.44C31.1817 252.23 34.1517 255.44 34.5417 259.2C34.7917 261.66 33.9317 264.07 33.4817 266.5C33.0317 268.93 33.1017 271.72 34.8317 273.5C35.6711 274.154 36.4756 274.852 37.2417 275.59C39.2417 278.12 37.1517 281.91 37.9417 285.05C38.7317 288.19 42.2617 290.05 43.1217 293.17C43.9317 296.1 42.1217 299.35 43.1217 302.22C44.0617 304.89 47.1217 306.3 48.3717 308.83C50.0117 312.09 48.3717 316.38 50.3717 319.45C51.4517 321.15 53.4617 322.13 54.4317 323.9C55.5417 325.9 54.9717 328.46 55.2717 330.76C55.5717 333.06 57.7517 335.6 59.8417 334.58L69.8417 334.15C70.8685 334.07 71.8431 333.665 72.6249 332.994C73.4067 332.324 73.9554 331.423 74.1917 330.42C74.376 329.394 74.2705 328.336 73.8872 327.367C73.5039 326.397 72.8579 325.553 72.0217 324.93Z" fill="white"/>
</g>
<path d="M68.3323 324.55C67.291 323.94 66.442 323.049 65.8823 321.98C65.4423 320.7 66.8823 318.59 66.2323 316.34C65.4423 313.43 61.7823 309.55 60.8323 306.7C59.5523 302.82 61.8923 298.5 59.8323 295.1C59.2123 294.1 57.8323 291.29 57.1723 290.33C54.6123 286.63 56.5923 282.08 53.9223 278.47C52.0623 275.94 47.4623 274.32 45.9223 271.54C44.6423 269.23 45.1623 266.3 45.1023 263.59C45.0163 259.533 43.4351 255.652 40.6623 252.69C39.3523 251.35 37.7923 250.28 36.7323 248.69C35.1023 246.2 34.7323 242.52 32.3923 240.97C33.3923 243.73 31.9423 246.77 32.1023 249.73C32.2923 253.3 34.7923 256.3 35.2223 259.84C35.5023 262.15 34.8723 264.42 34.5823 266.7C34.2923 268.98 34.4323 271.61 35.8923 273.26C36.5223 273.97 37.3423 274.44 37.8923 275.26C39.5923 277.63 38.0023 281.2 38.7423 284.14C39.4823 287.08 42.3923 288.83 43.1823 291.76C43.9323 294.52 43.3923 299.13 44.2923 301.82C45.1423 304.34 48.0323 304.67 49.1423 307.05C50.5623 310.1 49.5923 315.29 51.2723 318.17C52.2123 319.76 53.8423 319.53 54.6823 321.17C55.6823 323.09 56.1423 327.68 56.4523 329.85C56.5425 330.855 56.8946 331.819 57.4737 332.645C58.0527 333.472 58.8384 334.132 59.7523 334.56L70.8823 334.03C73.7523 330.01 71.4423 326.32 68.3323 324.55Z" fill="#407BFF"/>
<path d="M37.5615 255.42C37.5615 255.42 37.5615 255.47 37.6915 255.6L38.0115 256.16C38.2915 256.66 38.7015 257.4 39.1415 258.39C39.7003 259.582 40.0681 260.854 40.2315 262.16C40.2789 263.913 40.0973 265.664 39.6915 267.37C39.5024 268.361 39.5024 269.379 39.6915 270.37C39.9196 271.437 40.3398 272.453 40.9315 273.37C42.1215 275.29 43.8715 277 45.4015 279.08C46.2203 280.138 46.8373 281.338 47.2215 282.62C47.4038 283.294 47.4913 283.991 47.4815 284.69C47.4157 285.354 47.3923 286.022 47.4115 286.69C47.6572 288.048 48.3257 289.294 49.3215 290.25C49.7915 290.79 50.3215 291.34 50.7115 291.95C51.1308 292.57 51.467 293.242 51.7115 293.95C52.1735 295.355 52.4558 296.814 52.5515 298.29C52.6472 299.694 52.8343 301.09 53.1115 302.47C53.4181 303.802 53.9931 305.058 54.8015 306.16C55.5916 307.216 56.2624 308.356 56.8015 309.56C57.2111 310.761 57.4238 312.021 57.4315 313.29C57.4481 314.452 57.6094 315.608 57.9115 316.73C58.6115 318.85 60.1815 320.4 61.0915 322.14C61.8418 323.72 62.3411 325.406 62.5715 327.14C62.7642 328.436 63.0995 329.707 63.5715 330.93C63.8802 331.692 64.3551 332.375 64.9615 332.93C65.1993 333.096 65.4264 333.276 65.6415 333.47C65.3838 333.337 65.1393 333.179 64.9115 333C64.2611 332.461 63.7472 331.775 63.4115 331C62.9236 329.762 62.5748 328.475 62.3715 327.16C62.1269 325.448 61.6175 323.785 60.8615 322.23C59.9715 320.55 58.3615 319.02 57.6015 316.78C56.8415 314.54 57.3715 311.99 56.4615 309.65C55.9174 308.477 55.2468 307.367 54.4615 306.34C53.6465 305.206 53.0652 303.921 52.7515 302.56C52.1015 299.81 52.3415 296.84 51.3615 294.1C51.1132 293.428 50.7769 292.793 50.3615 292.21C49.9515 291.63 49.4715 291.09 49.0015 290.54C47.9446 289.516 47.2437 288.181 47.0015 286.73C46.9837 286.032 47.0071 285.335 47.0715 284.64C47.0905 283.966 47.0131 283.292 46.8415 282.64C46.468 281.407 45.8752 280.252 45.0915 279.23C43.6015 277.23 41.8515 275.45 40.6415 273.48C40.0377 272.535 39.6107 271.488 39.3815 270.39C39.1915 269.372 39.1915 268.328 39.3815 267.31C39.8081 265.63 40.0132 263.903 39.9915 262.17C39.8522 260.873 39.515 259.605 38.9915 258.41C38.5715 257.41 38.1915 256.67 37.9915 256.15C37.8815 255.92 37.7815 255.73 37.7115 255.57C37.657 255.525 37.6068 255.474 37.5615 255.42Z" fill="#263238"/>
<path d="M105.212 313.99H38.4922V325.82H105.212V313.99Z" fill="#455A64"/>
<path d="M43.4717 323.47L51.5817 358.81H91.3517L100.232 323.47H43.4717Z" fill="#455A64"/>
<path d="M105.172 325.83C105.172 325.96 90.1721 326.07 71.5621 326.07C52.9521 326.07 37.9521 325.96 37.9521 325.83C37.9521 325.7 52.9521 325.6 71.5621 325.6C90.1721 325.6 105.172 325.7 105.172 325.83Z" fill="#263238"/>
<path d="M515.554 315.358C515.554 315.358 496.825 323.902 478.611 323.902C461.748 323.902 442.878 315.408 442.878 315.408L515.554 315.358Z" fill="#E0E0E0"/>
<path d="M476.703 391.834H483.928V316.171H476.703V391.834Z" fill="#E0E0E0"/>
<path d="M447.929 393.136H512.046V388.698H447.929V393.136Z" fill="#E0E0E0"/>
<path d="M504.531 395.044C504.53 396.012 504.815 396.959 505.352 397.765C505.889 398.571 506.652 399.199 507.547 399.571C508.441 399.942 509.425 400.041 510.375 399.853C511.324 399.665 512.197 399.199 512.882 398.515C513.568 397.831 514.035 396.959 514.224 396.01C514.414 395.06 514.317 394.076 513.947 393.181C513.577 392.286 512.95 391.522 512.145 390.984C511.34 390.445 510.393 390.158 509.425 390.158C508.129 390.158 506.885 390.673 505.968 391.589C505.05 392.505 504.533 393.747 504.531 395.044Z" fill="#263238"/>
<path d="M476.039 395.044C476.037 396.012 476.323 396.959 476.86 397.765C477.396 398.571 478.16 399.199 479.054 399.571C479.948 399.942 480.933 400.041 481.882 399.853C482.832 399.665 483.705 399.199 484.39 398.515C485.076 397.831 485.542 396.959 485.732 396.01C485.921 395.06 485.825 394.076 485.455 393.181C485.085 392.286 484.457 391.522 483.653 390.984C482.848 390.445 481.901 390.158 480.933 390.158C479.636 390.158 478.393 390.673 477.475 391.589C476.558 392.505 476.041 393.747 476.039 395.044Z" fill="#263238"/>
<path d="M443.044 395.044C443.042 396.012 443.328 396.959 443.865 397.765C444.401 398.571 445.165 399.199 446.059 399.571C446.953 399.942 447.938 400.041 448.887 399.853C449.837 399.665 450.71 399.199 451.395 398.515C452.08 397.831 452.547 396.959 452.737 396.01C452.926 395.06 452.83 394.076 452.46 393.181C452.09 392.286 451.462 391.522 450.657 390.984C449.852 390.445 448.906 390.158 447.938 390.158C446.641 390.158 445.398 390.673 444.48 391.589C443.563 392.505 443.046 393.747 443.044 395.044Z" fill="#263238"/>
<path d="M478.619 347.466H488.448V343.402H478.619V347.466Z" fill="#E0E0E0"/>
<path d="M486.657 350.311H490.231V340.548H486.657V350.311Z" fill="#E0E0E0"/>
<path d="M439.659 315.358H521.468C522.909 315.358 524.291 314.786 525.31 313.767C526.329 312.748 526.901 311.366 526.901 309.925C526.901 308.484 526.329 307.102 525.31 306.083C524.291 305.065 522.909 304.492 521.468 304.492H439.659C438.219 304.492 436.837 305.065 435.818 306.083C434.799 307.102 434.227 308.484 434.227 309.925C434.227 311.366 434.799 312.748 435.818 313.767C436.837 314.786 438.219 315.358 439.659 315.358Z" fill="#455A64"/>
<path d="M515.032 172.361C515.032 172.361 521.618 169.789 521.344 164.174C521.07 158.559 513.506 153.001 513.953 144.574C514.376 136.661 503.046 113.163 486.864 121.349C484.15 120.998 481.394 121.149 478.735 121.797C473.518 123.29 471.892 128.284 468.782 133.227C464.029 140.858 460.786 146.872 463.083 152.188C465.381 157.505 466.343 159.064 464.56 163.602C462.237 169.524 459.857 167.807 460.636 172.983L474.737 173.207L476.072 169.756L476.222 173.489L484.516 173.381L515.032 172.361Z" fill="#263238"/>
<path d="M474.779 129.652C474.953 131.834 473.526 133.8 472.083 135.458C470.64 137.117 469.039 138.776 468.765 140.974C468.235 144.806 472 148.348 471.254 152.147C470.856 154.179 469.197 155.822 468.906 157.879C468.616 159.936 469.736 161.802 471.038 163.311C472.34 164.821 473.974 166.065 475.185 167.699C475.185 167.699 477.632 171.672 485.139 169.084" fill="#263238"/>
<path d="M481.199 126.882L499.803 130.83C500.672 130.886 501.488 131.267 502.089 131.897C502.69 132.527 503.032 133.36 503.047 134.231L502.823 174.5C502.807 177.252 501.886 179.922 500.201 182.098L498.426 184.387C494.379 189.605 486.184 189.074 483.09 183.243C482.901 182.913 482.759 182.558 482.667 182.189C482.59 181.889 482.532 181.584 482.493 181.277L482.136 177.354C481.954 173.77 481.929 170.121 481.929 170.154C481.929 170.187 474.314 169.192 472.357 159.371C471.386 154.494 471.328 146.432 471.486 139.838C471.627 133.899 475.268 126.483 481.199 126.882Z" fill="#FFBE9D"/>
<path d="M474.315 147.419C474.325 147.749 474.463 148.062 474.7 148.293C474.937 148.523 475.253 148.653 475.584 148.655C475.749 148.661 475.913 148.633 476.067 148.573C476.221 148.513 476.361 148.423 476.479 148.307C476.597 148.192 476.69 148.053 476.753 147.901C476.816 147.748 476.847 147.584 476.844 147.419C476.834 147.089 476.696 146.776 476.459 146.546C476.222 146.315 475.906 146.185 475.575 146.183C475.41 146.178 475.246 146.206 475.092 146.265C474.938 146.325 474.798 146.416 474.68 146.531C474.562 146.647 474.469 146.785 474.406 146.938C474.343 147.09 474.312 147.254 474.315 147.419Z" fill="#263238"/>
<path d="M473.361 143.96C473.526 144.118 474.455 143.372 475.849 143.322C477.242 143.272 478.238 143.919 478.379 143.745C478.52 143.571 478.279 143.372 477.831 143.073C477.225 142.69 476.516 142.502 475.799 142.534C475.089 142.553 474.405 142.804 473.85 143.247C473.443 143.587 473.311 143.886 473.361 143.96Z" fill="#263238"/>
<path d="M486.524 147.087C486.535 147.417 486.673 147.73 486.91 147.96C487.147 148.191 487.463 148.32 487.793 148.322C487.956 148.329 488.118 148.303 488.27 148.247C488.422 148.19 488.561 148.103 488.679 147.992C488.797 147.881 488.892 147.747 488.958 147.599C489.024 147.45 489.059 147.29 489.063 147.128C489.052 146.797 488.912 146.484 488.674 146.254C488.435 146.025 488.116 145.898 487.785 145.9C487.624 145.894 487.463 145.919 487.312 145.976C487.161 146.032 487.023 146.118 486.905 146.228C486.788 146.339 486.694 146.472 486.628 146.619C486.563 146.766 486.528 146.925 486.524 147.087Z" fill="#263238"/>
<path d="M486.333 143.628C486.491 143.786 487.428 143.039 488.822 142.989C490.215 142.94 491.21 143.587 491.31 143.412C491.409 143.238 491.21 143.039 490.762 142.741C490.157 142.355 489.447 142.166 488.73 142.201C488.02 142.221 487.336 142.471 486.781 142.915C486.383 143.271 486.25 143.553 486.333 143.628Z" fill="#263238"/>
<path d="M482.244 153.989C481.515 153.794 480.766 153.689 480.013 153.673C479.664 153.673 479.332 153.599 479.266 153.366C479.225 153.007 479.291 152.643 479.457 152.321C479.755 151.492 480.062 150.571 480.386 149.634C481.663 145.802 482.576 142.667 482.426 142.617C482.277 142.567 481.107 145.628 479.822 149.451L478.943 152.155C478.741 152.586 478.695 153.072 478.81 153.532C478.868 153.651 478.952 153.756 479.055 153.839C479.158 153.923 479.278 153.982 479.407 154.013C479.6 154.059 479.798 154.078 479.996 154.072C480.746 154.145 481.502 154.117 482.244 153.989Z" fill="#263238"/>
<path d="M481.929 170.146C486.579 170.039 491.108 168.64 495.009 166.106C495.009 166.106 491.957 173.074 482.037 172.535L481.929 170.146Z" fill="#EB996E"/>
<path d="M482.949 157.248C483.198 156.914 483.526 156.648 483.904 156.475C484.283 156.301 484.698 156.224 485.114 156.253C485.415 156.269 485.709 156.346 485.98 156.478C486.251 156.611 486.492 156.797 486.69 157.024C486.881 157.243 487.001 157.516 487.032 157.806C487.063 158.095 487.004 158.387 486.864 158.642C486.654 158.894 486.374 159.078 486.06 159.171C485.745 159.264 485.41 159.262 485.097 159.164C484.444 158.967 483.837 158.64 483.314 158.202C483.157 158.096 483.02 157.964 482.907 157.812C482.856 157.738 482.829 157.65 482.829 157.559C482.829 157.469 482.856 157.381 482.907 157.306" fill="#EB996E"/>
<path d="M486.291 154.777C486.067 154.777 486.117 156.253 484.898 157.348C483.679 158.443 482.094 158.351 482.086 158.551C482.078 158.75 482.451 158.833 483.115 158.824C483.981 158.798 484.812 158.469 485.462 157.895C486.083 157.344 486.469 156.575 486.54 155.747C486.565 155.125 486.391 154.768 486.291 154.777Z" fill="#263238"/>
<path d="M486.408 139.58C486.557 139.945 487.909 139.721 489.518 139.846C491.127 139.97 492.43 140.368 492.629 140.028C492.72 139.862 492.479 139.522 491.948 139.199C491.236 138.78 490.434 138.535 489.609 138.486C488.789 138.417 487.963 138.548 487.204 138.867C486.632 139.124 486.341 139.406 486.408 139.58Z" fill="#263238"/>
<path d="M473.56 137.988C473.808 138.287 474.737 137.93 475.865 137.872C476.993 137.814 477.956 137.996 478.163 137.665C478.254 137.507 478.088 137.2 477.665 136.918C477.091 136.585 476.429 136.433 475.767 136.48C475.104 136.527 474.471 136.773 473.949 137.184C473.56 137.515 473.443 137.839 473.56 137.988Z" fill="#263238"/>
<path d="M508.031 130.83C506.654 126.774 501.097 122.328 495.863 120.329C494.386 119.78 492.801 119.589 491.236 119.773C489.672 119.956 488.173 120.508 486.863 121.383L480.228 125.779C480.572 127.398 481.348 128.895 482.472 130.111C483.596 131.327 485.027 132.217 486.614 132.688C488.273 133.169 490.339 133.269 491.367 134.704C492.396 136.139 491.865 138.328 492.852 139.838C494.212 141.928 497.828 141.754 498.857 143.985C499.313 144.981 499.106 146.175 499.579 147.162C500.201 148.473 503.585 150.082 504.962 149.65C506.339 149.219 506.289 146.822 506.72 145.578C507.26 144.175 507.301 142.628 506.836 141.198C506.164 138.395 508.951 133.509 508.031 130.83Z" fill="#263238"/>
<path d="M500.89 150.87C500.89 150.132 501.644 148.381 502.366 148.224C504.299 147.851 507.799 147.867 508.023 152.794C508.33 159.521 501.503 158.443 501.487 158.252C501.47 158.061 500.981 153.408 500.89 150.87Z" fill="#FFBE9D"/>
<path d="M503.428 155.606C503.428 155.606 503.544 155.68 503.752 155.763C504.033 155.88 504.349 155.88 504.631 155.763C505.328 155.473 505.875 154.32 505.85 153.101C505.842 152.524 505.703 151.957 505.444 151.442C505.368 151.24 505.244 151.06 505.084 150.916C504.924 150.771 504.732 150.667 504.523 150.613C504.386 150.583 504.243 150.602 504.118 150.667C503.994 150.732 503.896 150.839 503.843 150.969C503.768 151.16 503.843 151.293 503.777 151.301C503.71 151.309 503.627 151.201 503.669 150.919C503.701 150.749 503.788 150.595 503.918 150.48C504.098 150.335 504.326 150.264 504.556 150.281C504.834 150.324 505.096 150.438 505.318 150.61C505.54 150.783 505.715 151.009 505.825 151.268C506.141 151.837 506.312 152.475 506.323 153.126C506.323 154.486 505.701 155.788 504.739 156.112C504.56 156.171 504.371 156.19 504.185 156.167C503.998 156.144 503.819 156.08 503.661 155.979C503.445 155.772 503.403 155.622 503.428 155.606Z" fill="#EB996E"/>
<path d="M457.327 201.657L445.424 232.704L423.029 234.13L419.57 243.86L449.132 249.591C449.132 249.591 458.024 252.179 463.092 240.89L471.759 210.01L457.327 201.657Z" fill="#FFBE9D"/>
<path d="M401.771 238.982C401.9 239.246 402.105 239.465 402.359 239.613C402.613 239.761 402.905 239.83 403.198 239.811C403.322 239.802 403.445 239.777 403.563 239.737C404.392 239.463 404.334 237.738 404.334 237.738L408.39 237.074C408.39 237.074 413.665 240.475 415.548 242.731C417.431 244.987 422.184 243.162 422.184 243.162L423.843 234.511L416.378 227.759C416.378 227.759 416.842 228.158 416.32 226.93C415.797 225.702 413.458 226.142 413.458 226.142C413.093 225.52 411.559 225.312 411.559 225.312L405.014 226.067C404.341 226.138 403.693 226.361 403.118 226.719C402.544 227.077 402.057 227.56 401.696 228.133L398.926 232.512C398.926 232.512 397.458 235.672 397.699 236.411C397.809 236.71 398.025 236.959 398.306 237.112C398.586 237.265 398.913 237.31 399.225 237.24C399.225 237.24 399.548 239.314 400.054 239.388C400.626 239.362 401.189 239.23 401.713 238.998L401.771 238.982Z" fill="#FFBE9D"/>
<path d="M414.113 241.338C413.974 241.252 413.843 241.152 413.723 241.04L412.629 240.16C411.251 239.09 409.813 238.099 408.324 237.191H408.415L404.359 237.879L404.5 237.705C404.512 238.039 404.487 238.373 404.425 238.701C404.372 239.064 404.21 239.402 403.961 239.671C403.81 239.807 403.622 239.893 403.422 239.92C403.236 239.962 403.043 239.962 402.858 239.92C402.465 239.862 402.106 239.665 401.846 239.364C401.78 239.29 401.722 239.209 401.672 239.124L401.63 239.057C401.58 239.057 402.078 239.223 401.871 239.14L401.738 239.19C401.572 239.256 401.398 239.323 401.215 239.381C401.033 239.436 400.847 239.48 400.66 239.513C400.56 239.522 400.46 239.522 400.361 239.513C400.233 239.528 400.103 239.505 399.988 239.447C399.805 239.31 399.667 239.123 399.59 238.908C399.51 238.727 399.44 238.541 399.382 238.352C399.275 237.973 399.189 237.588 399.125 237.199L399.366 237.365C399.09 237.426 398.803 237.41 398.535 237.319C398.268 237.229 398.03 237.067 397.848 236.851C397.661 236.616 397.564 236.322 397.574 236.021C397.59 235.757 397.637 235.495 397.715 235.242C398.019 234.243 398.393 233.268 398.835 232.322C399.299 231.576 399.805 230.788 400.311 229.983C400.626 229.485 400.933 228.988 401.248 228.498C401.537 227.985 401.879 227.504 402.269 227.063C402.691 226.643 403.193 226.31 403.745 226.085C404.278 225.887 404.837 225.77 405.404 225.736L411.583 225.048H411.633C412.001 225.108 412.362 225.202 412.711 225.33C413.09 225.444 413.421 225.677 413.657 225.993L413.425 225.919C413.759 225.766 414.126 225.697 414.493 225.718C414.859 225.738 415.216 225.847 415.532 226.035C416.078 226.435 416.452 227.028 416.577 227.694L416.527 227.611L421.67 232.239L423.055 233.517C423.223 233.657 423.379 233.813 423.519 233.981C423.332 233.867 423.156 233.734 422.997 233.583L421.553 232.372L416.303 227.876V227.827C416.19 227.246 415.861 226.731 415.382 226.383C415.115 226.228 414.813 226.14 414.504 226.127C414.195 226.114 413.887 226.176 413.607 226.309L413.466 226.367L413.383 226.234C413.184 225.997 412.918 225.823 412.62 225.736C412.292 225.62 411.953 225.533 411.608 225.479H411.658L405.487 226.209C404.951 226.239 404.423 226.348 403.919 226.533C403.423 226.738 402.971 227.039 402.592 227.42C402.223 227.842 401.898 228.301 401.622 228.789L400.684 230.273L399.208 232.612C398.779 233.538 398.413 234.491 398.113 235.466C398.043 235.689 397.998 235.92 397.98 236.154C397.974 236.357 398.042 236.554 398.171 236.71C398.306 236.867 398.48 236.984 398.676 237.05C398.871 237.115 399.081 237.127 399.283 237.083H399.482V237.282C399.542 237.652 399.625 238.018 399.731 238.377C399.79 238.703 399.936 239.006 400.154 239.256C400.208 239.27 400.265 239.27 400.319 239.256H400.568C400.74 239.227 400.909 239.185 401.074 239.132L401.572 238.958L401.696 238.916L401.937 239.008V239.066C401.976 239.134 402.024 239.198 402.078 239.256C402.277 239.492 402.553 239.648 402.858 239.696C403.006 239.725 403.158 239.725 403.306 239.696C403.441 239.684 403.569 239.628 403.67 239.538C404.012 239.056 404.171 238.468 404.118 237.879V237.73H404.259L408.324 237.1H408.373H408.415C409.901 238.032 411.322 239.063 412.67 240.185C413.143 240.583 413.499 240.899 413.723 241.123C413.86 241.182 413.99 241.255 414.113 241.338Z" fill="#EB996E"/>
<path d="M412.371 228.424C411.703 228.724 410.997 228.934 410.273 229.046C408.495 229.41 406.677 229.541 404.865 229.436L405.08 229.295C404.972 229.618 404.856 229.958 404.715 230.29C403.948 232.205 402.822 233.956 401.398 235.449C400.967 235.895 400.507 236.31 400.021 236.693C399.664 236.959 399.465 237.092 399.44 237.067C399.415 237.042 400.153 236.403 401.174 235.242C402.501 233.726 403.566 231.999 404.326 230.132C404.458 229.801 404.574 229.469 404.682 229.162L404.74 229.004H404.898C406.679 229.112 408.467 229.028 410.231 228.756C411.558 228.565 412.355 228.357 412.371 228.424Z" fill="#EB996E"/>
<path d="M406.175 232.239C405.93 233.581 405.36 234.842 404.516 235.913C403.805 237.072 402.812 238.03 401.63 238.7C401.547 238.601 402.923 237.456 404.168 235.665C405.412 233.873 406.034 232.198 406.175 232.239Z" fill="#EB996E"/>
<path d="M423.502 240.534C423.502 240.534 423.436 240.583 423.295 240.65C423.087 240.751 422.87 240.834 422.648 240.899C421.814 241.159 420.939 241.26 420.068 241.197C418.728 241.108 417.44 240.642 416.352 239.853C414.968 238.835 413.978 237.37 413.549 235.706L413.789 235.864C412.229 236.158 410.635 236.233 409.053 236.088C408.466 236.03 407.881 235.942 407.303 235.822C406.724 235.73 406.164 235.546 405.644 235.275C405.356 235.12 405.132 234.867 405.014 234.562C404.967 234.404 404.952 234.238 404.971 234.074C404.989 233.91 405.041 233.751 405.122 233.608C405.284 233.328 405.549 233.123 405.86 233.035L406.615 232.853C408.605 232.372 410.422 232.023 411.948 231.783C413.474 231.542 414.718 231.401 415.581 231.327C416.026 231.268 416.476 231.245 416.925 231.26C416.493 231.376 416.051 231.454 415.606 231.493C414.776 231.617 413.516 231.808 411.998 232.082C410.48 232.355 408.68 232.737 406.714 233.234L405.968 233.434C405.865 233.459 405.769 233.506 405.686 233.572C405.603 233.638 405.535 233.721 405.487 233.815C405.432 233.907 405.397 234.008 405.384 234.114C405.371 234.22 405.381 234.327 405.412 234.429C405.498 234.641 405.661 234.812 405.868 234.91C406.35 235.154 406.868 235.319 407.403 235.399C407.967 235.515 408.538 235.601 409.111 235.656C410.654 235.799 412.208 235.729 413.731 235.449H413.922L413.972 235.64C414.326 237.048 415.105 238.313 416.203 239.263C417.301 240.213 418.665 240.801 420.11 240.948C420.943 241.027 421.784 240.968 422.598 240.774C422.895 240.677 423.197 240.597 423.502 240.534Z" fill="#EB996E"/>
<path d="M415.813 351.563C415.758 351.32 415.758 351.068 415.813 350.825C415.925 350.149 416.179 349.504 416.56 348.934C416.687 348.736 416.837 348.555 417.008 348.395C417.116 348.291 417.25 348.218 417.396 348.185C417.542 348.151 417.695 348.158 417.837 348.204C417.923 348.235 418.002 348.284 418.066 348.348C418.131 348.413 418.18 348.491 418.211 348.577C418.263 348.742 418.263 348.919 418.211 349.083C418.097 349.343 417.967 349.595 417.821 349.838C417.53 350.327 417.29 350.817 416.917 351.364C416.806 351.521 416.655 351.645 416.48 351.723C416.305 351.802 416.112 351.833 415.921 351.812C415.571 351.752 415.24 351.607 414.959 351.389C414.437 351.012 413.961 350.575 413.541 350.087C413.342 349.846 413.159 349.606 412.985 349.357C412.792 349.112 412.65 348.829 412.57 348.527C412.531 348.35 412.551 348.165 412.628 348C412.704 347.835 412.833 347.7 412.993 347.615C413.148 347.571 413.311 347.567 413.468 347.604C413.624 347.64 413.769 347.715 413.889 347.822C414.247 348.138 414.565 348.498 414.835 348.892C415.227 349.442 415.537 350.045 415.755 350.684C415.859 350.911 415.916 351.156 415.921 351.406C415.549 350.587 415.099 349.807 414.578 349.075C414.314 348.723 414.01 348.403 413.673 348.121C413.602 348.057 413.517 348.011 413.425 347.987C413.333 347.962 413.236 347.96 413.143 347.98C413.064 348.025 413.004 348.096 412.972 348.181C412.94 348.266 412.939 348.359 412.968 348.444C413.044 348.691 413.168 348.919 413.333 349.116C413.501 349.352 413.681 349.579 413.873 349.797C414.272 350.256 414.723 350.668 415.216 351.024C415.433 351.205 415.693 351.325 415.971 351.372C416.087 351.388 416.206 351.37 416.313 351.322C416.42 351.274 416.511 351.196 416.577 351.099C416.883 350.651 417.182 350.095 417.464 349.631C417.608 349.418 417.733 349.193 417.837 348.959C417.912 348.743 417.837 348.61 417.721 348.544C417.389 348.411 417.058 348.793 416.825 349.116C416.341 349.863 415.998 350.693 415.813 351.563Z" fill="#263238"/>
<path d="M435.04 352.227L444.587 372.913L459.99 365.797L450.111 340.191L435.04 352.227Z" fill="#FFBE9D"/>
<path d="M442.778 371.529L448.352 382.154C448.352 382.154 434.078 396.918 435.421 400.219L468.981 384.128L459.757 362.803L442.778 371.529Z" fill="#455A64"/>
<path d="M458.041 375.734C458.405 375.687 458.774 375.774 459.079 375.978C459.384 376.183 459.604 376.491 459.7 376.845C459.761 377.208 459.683 377.58 459.481 377.888C459.28 378.195 458.97 378.415 458.613 378.504C458.22 378.564 457.82 378.476 457.489 378.256C457.158 378.037 456.92 377.703 456.821 377.318C456.784 376.923 456.901 376.529 457.149 376.22C457.397 375.91 457.755 375.709 458.148 375.659" fill="#E0E0E0"/>
<g opacity="0.6">
<path opacity="0.6" d="M468.981 384.136L467.554 381.457L435.927 397.913C435.927 397.913 434.749 399.282 435.421 400.252L468.981 384.136Z" fill="white"/>
</g>
<path d="M447.73 382.253C447.813 382.419 448.667 382.096 449.729 382.253C450.791 382.411 451.546 382.875 451.67 382.743C451.794 382.61 451.089 381.772 449.804 381.623C448.518 381.474 447.647 382.154 447.73 382.253Z" fill="#263238"/>
<path d="M444.91 385.397C444.91 385.571 445.789 385.513 446.677 385.936C447.564 386.359 448.079 387.022 448.236 386.939C448.394 386.857 448.062 385.878 446.942 385.364C445.823 384.849 444.836 385.239 444.91 385.397Z" fill="#263238"/>
<path d="M444.927 390.572C445.093 390.572 444.927 389.602 444.097 388.913C443.268 388.225 442.306 388.233 442.306 388.399C442.306 388.565 443.002 388.822 443.691 389.403C444.379 389.983 444.761 390.63 444.927 390.572Z" fill="#263238"/>
<path d="M446.13 378.156C446.271 378.272 446.918 377.692 447.872 377.327C448.826 376.962 449.688 376.887 449.705 376.705C449.721 376.522 448.751 376.273 447.631 376.705C446.512 377.136 445.989 378.065 446.13 378.156Z" fill="#263238"/>
<path d="M439.635 368.766L414.47 305.844C414.47 305.844 415.034 295.061 417.008 291.702C418.982 288.343 478.935 268.519 478.935 268.519C478.935 268.519 494.205 264.844 504.382 268.519C514.56 272.193 525.218 275.893 524.082 283.009C522.406 293.402 513.398 304.185 513.398 304.185L469.321 305.496L445.267 314.255L461.442 360.621L439.635 368.766Z" fill="#263238"/>
<path d="M417.256 325.743L416.692 348.52L433.655 348.934L436.093 321.596L417.256 325.743Z" fill="#FFBE9D"/>
<path d="M415.68 346.487L415.987 358.498C415.987 358.498 396.661 365.44 396.412 368.99L433.621 369.363L434.766 346.139L415.68 346.487Z" fill="#455A64"/>
<path d="M427.508 356.988C427.866 357.102 428.17 357.343 428.361 357.665C428.552 357.988 428.618 358.37 428.545 358.738C428.442 359.095 428.207 359.399 427.888 359.588C427.569 359.778 427.19 359.839 426.828 359.759C426.449 359.639 426.127 359.383 425.926 359.04C425.725 358.696 425.659 358.29 425.742 357.901C425.885 357.536 426.163 357.242 426.519 357.078C426.874 356.914 427.279 356.894 427.649 357.022" fill="#E0E0E0"/>
<g opacity="0.6">
<path opacity="0.6" d="M433.621 369.356L433.555 366.345L397.888 367.108C397.888 367.108 396.229 367.813 396.403 368.982L433.621 369.356Z" fill="white"/>
</g>
<path d="M415.39 358.29C415.39 358.472 416.302 358.564 417.19 359.119C418.077 359.675 418.542 360.488 418.716 360.413C418.89 360.339 418.616 359.294 417.53 358.597C416.443 357.9 415.348 358.099 415.39 358.29Z" fill="#263238"/>
<path d="M411.467 359.866C411.426 360.04 412.206 360.356 412.819 361.135C413.433 361.915 413.599 362.72 413.782 362.72C413.964 362.72 414.088 361.683 413.309 360.737C412.529 359.792 411.476 359.692 411.467 359.866Z" fill="#263238"/>
<path d="M409.203 364.511C409.368 364.511 409.634 363.682 409.203 362.653C408.771 361.625 407.9 361.243 407.817 361.393C407.734 361.542 408.257 362.081 408.647 362.91C409.037 363.74 409.02 364.495 409.203 364.511Z" fill="#263238"/>
<path d="M415.764 353.951C415.838 354.117 416.668 353.869 417.696 353.951C418.725 354.034 419.521 354.366 419.62 354.209C419.72 354.051 418.949 353.379 417.738 353.321C416.527 353.263 415.672 353.761 415.764 353.951Z" fill="#263238"/>
<path d="M427.161 262.505C427.161 262.505 417 261.676 415.872 272.724C414.744 283.772 413.641 335.207 413.641 335.207L437.396 337.181L441.071 284.594L478.935 268.519C478.935 268.519 433.946 261.095 427.161 262.505Z" fill="#263238"/>
<path d="M469.047 247.625C469.047 247.625 462.884 264.919 464.071 266.843C465.257 268.768 481.107 276.706 481.107 276.706L520.797 291.943C520.797 291.943 524.869 285.465 524.869 275.503C524.869 265.541 511.067 247.625 511.067 247.625H469.047Z" fill="#263238"/>
<path d="M480.826 267.599L480.635 267.698L480.071 267.964L477.873 268.934L469.628 272.534L441.145 284.793L441.269 284.611C440.912 289.803 440.523 295.394 440.116 301.2C439.154 314.769 438.267 327.278 437.561 337.181V337.355H437.387L420.085 335.838L415.324 335.398L414.071 335.265C413.929 335.254 413.788 335.235 413.648 335.207C413.792 335.194 413.936 335.194 414.08 335.207L415.332 335.282L420.102 335.63L437.412 336.999L437.221 337.165C437.902 327.261 438.764 314.769 439.71 301.183C440.116 295.377 440.539 289.77 440.879 284.594V284.47L441.004 284.42L469.545 272.302L477.84 268.818L480.071 267.906L480.643 267.682C480.7 267.645 480.761 267.618 480.826 267.599Z" fill="#455A64"/>
<path d="M512.345 269.348C511.966 269.28 511.594 269.178 511.233 269.042L508.239 268.079C504.993 266.974 501.665 266.128 498.286 265.55C494.89 264.993 491.422 265.038 488.042 265.682C486.656 266.005 485.288 266.401 483.944 266.868C484.265 266.653 484.61 266.478 484.973 266.346C485.945 265.939 486.949 265.614 487.975 265.375C491.386 264.628 494.908 264.538 498.352 265.11C501.771 265.685 505.128 266.579 508.38 267.781C509.632 268.22 510.636 268.61 511.333 268.876C511.686 268.997 512.025 269.155 512.345 269.348Z" fill="#455A64"/>
<path d="M506.771 260.224C505.614 260.151 504.453 260.151 503.296 260.224C502.226 260.299 500.957 260.465 499.538 260.63C498.12 260.796 496.577 260.987 494.968 261.294C492.211 261.734 489.568 262.712 487.188 264.172C486.242 264.836 485.342 265.562 484.492 266.345C484.648 266.07 484.844 265.818 485.073 265.599C485.658 264.978 486.309 264.421 487.014 263.94C489.39 262.371 492.073 261.328 494.885 260.879C496.544 260.572 498.079 260.39 499.497 260.249C500.915 260.108 502.193 259.975 503.279 259.934C504.138 259.898 504.998 259.937 505.851 260.05C506.165 260.055 506.476 260.114 506.771 260.224Z" fill="#455A64"/>
<path d="M454.357 198.463C454.357 198.463 461.449 186.627 463.423 184.23C465.005 182.382 466.992 180.923 469.229 179.967C470.114 179.58 471.041 179.302 471.992 179.137L482.202 176.881C482.202 176.881 482.202 183.848 489.526 184.28C496.85 184.711 502.972 174.542 502.972 174.542C502.972 174.542 514.766 176.367 517.586 177.818C520.407 179.27 524.844 181.136 527.291 193.329L529 205.29L508.67 207.139L506.721 237.365L496.635 244.465C496.635 244.465 468.674 251.731 466.89 252.212C465.107 252.693 464.51 207.139 464.51 207.139C464.51 207.139 457.327 202.536 454.357 198.463Z" fill="#407BFF"/>
<path d="M467.737 193.379C467.579 193.656 467.449 193.947 467.348 194.25C467.115 194.822 466.817 195.66 466.518 196.738C464.807 202.229 464.102 207.984 464.436 213.725C464.503 214.829 464.586 215.716 464.677 216.322C464.7 216.639 464.756 216.953 464.843 217.259C464.882 216.942 464.882 216.622 464.843 216.305C464.801 215.691 464.76 214.812 464.735 213.717C464.562 208.013 465.259 202.316 466.8 196.821C467.09 195.768 467.348 194.922 467.53 194.333C467.642 194.026 467.711 193.705 467.737 193.379Z" fill="#263238"/>
<path d="M509.409 192.657C509.448 192.966 509.448 193.278 509.409 193.586C509.409 194.266 509.351 195.104 509.309 196.075C509.21 198.289 509.069 201.167 508.92 204.369C508.77 207.571 508.604 210.524 508.439 212.664C508.364 213.717 508.289 214.571 508.223 215.152C508.213 215.461 508.165 215.767 508.082 216.064C508.039 215.759 508.039 215.449 508.082 215.144C508.082 214.455 508.132 213.617 508.165 212.655C508.256 210.432 508.381 207.562 508.513 204.361C508.646 201.159 508.853 198.206 509.027 196.066C509.119 195.005 509.202 194.15 509.268 193.578C509.28 193.267 509.327 192.958 509.409 192.657Z" fill="#263238"/>
<path d="M468.608 242.881L506.903 234.586L508.67 207.214L525.699 205.646C525.699 205.646 524.504 224.317 524.413 229.916C524.164 246.057 518.74 248.836 515.978 251.017C513.215 253.199 466.891 252.212 466.891 252.212L468.608 242.881Z" fill="#FFBE9D"/>
<path d="M446.868 247.841C446.997 248.105 447.201 248.325 447.455 248.472C447.709 248.62 448.001 248.689 448.294 248.671C448.421 248.655 448.546 248.627 448.668 248.588C449.497 248.322 449.439 246.597 449.439 246.597L453.495 245.933C453.495 245.933 458.77 249.334 460.645 251.59C462.519 253.846 467.28 252.022 467.28 252.022L468.939 243.37L461.474 236.619C461.474 236.619 461.93 237.017 461.416 235.789C460.902 234.562 458.555 235.001 458.555 235.001C458.19 234.379 456.655 234.172 456.655 234.172L450.102 234.927C449.43 234.998 448.783 235.219 448.208 235.575C447.634 235.932 447.147 236.413 446.785 236.984L444.014 241.372C444.014 241.372 442.555 244.532 442.787 245.262C442.896 245.562 443.112 245.813 443.393 245.966C443.674 246.118 444.001 246.163 444.313 246.091C444.313 246.091 444.636 248.173 445.184 248.239C445.743 248.214 446.292 248.081 446.801 247.85L446.868 247.841Z" fill="#FFBE9D"/>
<path d="M460.819 241.628C460.819 241.703 459.94 241.628 458.538 241.678C456.717 241.765 454.916 242.103 453.188 242.682C452.24 243.001 451.319 243.395 450.434 243.86C449.646 244.308 448.817 244.689 448.559 245.245C448.505 245.372 448.484 245.511 448.497 245.648C448.51 245.786 448.557 245.918 448.634 246.033C448.754 246.218 448.928 246.363 449.132 246.448C449.317 246.506 449.51 246.534 449.704 246.53C449.704 246.53 449.497 246.713 449.074 246.597C448.823 246.524 448.602 246.373 448.443 246.166C448.332 246.022 448.259 245.852 448.231 245.672C448.204 245.492 448.222 245.308 448.286 245.137C448.465 244.755 448.754 244.434 449.115 244.216C449.472 243.984 449.845 243.744 450.26 243.52C452.799 242.116 455.653 241.382 458.554 241.388C459.317 241.355 460.08 241.436 460.819 241.628Z" fill="#EB996E"/>
<path d="M461.276 245.809C461.276 245.933 458.605 245.809 455.329 246.016C452.052 246.223 449.415 246.605 449.39 246.48C449.939 246.27 450.513 246.131 451.098 246.066C452.491 245.834 453.894 245.676 455.304 245.593C456.713 245.513 458.125 245.513 459.534 245.593C460.121 245.587 460.707 245.659 461.276 245.809Z" fill="#EB996E"/>
<path d="M446.91 247.675C446.852 247.447 446.825 247.213 446.827 246.979C446.784 246.341 446.784 245.7 446.827 245.063C446.847 244.616 446.908 244.171 447.009 243.735C447.126 243.222 447.343 242.738 447.648 242.309C448.304 241.323 449.15 240.477 450.136 239.82C451.104 239.151 452.159 238.618 453.272 238.236C454.192 237.975 455.143 237.833 456.1 237.813C456.929 237.813 457.568 237.813 458.016 237.813C458.251 237.802 458.486 237.827 458.713 237.888C457.853 238.013 456.985 238.085 456.117 238.103C455.191 238.169 454.275 238.338 453.388 238.609C452.319 238.993 451.306 239.517 450.377 240.169C449.438 240.806 448.631 241.617 447.996 242.558C447.489 243.319 447.202 244.206 447.167 245.121C446.959 246.672 447.001 247.684 446.91 247.675Z" fill="#EB996E"/>
<path d="M456.373 235.789C456.373 235.855 455.394 235.88 453.827 236.062C452.259 236.245 449.903 236.402 448.535 238.476C447.198 240.03 446.082 241.76 445.217 243.619C444.932 244.427 444.724 245.26 444.595 246.107C444.554 245.876 444.554 245.641 444.595 245.41C444.63 244.776 444.759 244.15 444.976 243.552C445.766 241.621 446.865 239.831 448.228 238.252C448.598 237.771 449.027 237.339 449.505 236.966C449.97 236.631 450.493 236.383 451.048 236.236C451.957 235.999 452.888 235.851 453.827 235.797C454.672 235.686 455.527 235.684 456.373 235.789Z" fill="#EB996E"/>
<path d="M459.26 250.204C459.12 250.118 458.99 250.018 458.87 249.906L457.767 249.027C456.39 247.955 454.953 246.963 453.462 246.057H453.561L449.505 246.754L449.646 246.58C449.656 246.911 449.628 247.242 449.564 247.567C449.515 247.932 449.356 248.274 449.107 248.546C448.956 248.679 448.768 248.766 448.568 248.794C448.379 248.832 448.185 248.832 447.996 248.794C447.606 248.734 447.25 248.537 446.992 248.239C446.927 248.162 446.866 248.082 446.81 247.998V247.932L447.05 248.015L446.918 248.064C446.743 248.131 446.569 248.197 446.395 248.247C446.213 248.307 446.028 248.354 445.839 248.388C445.74 248.396 445.64 248.396 445.541 248.388C445.409 248.403 445.276 248.377 445.159 248.313C444.982 248.175 444.845 247.991 444.761 247.782C444.686 247.592 444.62 247.409 444.562 247.218C444.455 246.842 444.369 246.46 444.305 246.074L444.537 246.24C444.262 246.3 443.977 246.283 443.711 246.193C443.445 246.102 443.208 245.941 443.027 245.725C442.839 245.491 442.739 245.197 442.745 244.896C442.769 244.629 442.819 244.365 442.895 244.108C443.193 243.11 443.568 242.137 444.014 241.197L445.491 238.858L446.428 237.373C446.717 236.858 447.062 236.377 447.457 235.938C447.875 235.516 448.375 235.183 448.925 234.959C449.458 234.763 450.017 234.646 450.584 234.611L456.755 233.914H456.805C457.176 233.969 457.54 234.063 457.891 234.196C458.266 234.307 458.595 234.537 458.828 234.851L458.605 234.785C458.938 234.63 459.305 234.56 459.672 234.58C460.04 234.601 460.396 234.711 460.711 234.901C461.257 235.301 461.628 235.895 461.748 236.56L461.698 236.477L466.725 241.147L468.11 242.424C468.278 242.565 468.434 242.721 468.575 242.889C468.387 242.775 468.212 242.641 468.052 242.491L466.609 241.271C465.331 240.176 463.556 238.634 461.375 236.751V236.693C461.259 236.116 460.93 235.604 460.454 235.258C460.187 235.103 459.886 235.015 459.577 235C459.268 234.986 458.96 235.046 458.679 235.175L458.538 235.241L458.455 235.108C458.256 234.87 457.99 234.697 457.692 234.611C457.363 234.496 457.024 234.41 456.68 234.354H456.73L450.551 235.084C450.017 235.109 449.491 235.219 448.991 235.407C448.493 235.609 448.041 235.911 447.664 236.295C447.288 236.711 446.962 237.17 446.694 237.663C446.378 238.153 446.072 238.65 445.756 239.148C445.25 239.977 444.744 240.74 444.28 241.487C443.848 242.409 443.479 243.36 443.177 244.332C443.111 244.56 443.066 244.793 443.044 245.029C443.04 245.232 443.111 245.43 443.243 245.584C443.376 245.741 443.548 245.859 443.743 245.924C443.937 245.99 444.146 246.002 444.346 245.958H444.554V246.157C444.613 246.526 444.693 246.891 444.794 247.252C444.865 247.574 445.01 247.875 445.217 248.131C445.272 248.139 445.328 248.139 445.383 248.131H445.632C445.806 248.131 445.972 248.056 446.146 248.006L446.644 247.832L446.76 247.782C446.553 247.7 447.059 247.89 447.009 247.865V247.915C447.048 247.982 447.093 248.046 447.142 248.106C447.344 248.343 447.623 248.501 447.93 248.554C448.075 248.582 448.224 248.582 448.369 248.554C448.506 248.539 448.636 248.484 448.742 248.396C449.079 247.912 449.237 247.325 449.19 246.737V246.588H449.323L453.387 245.958H453.437H453.479C454.968 246.888 456.393 247.919 457.742 249.043C458.215 249.441 458.571 249.757 458.795 249.981C458.958 250.039 459.113 250.114 459.26 250.204Z" fill="#EB996E"/>
<path d="M495.49 262.008H489.054V263.426L503.154 400.974H510.677L495.49 262.008Z" fill="#455A64"/>
<path d="M495.491 262.008C495.491 262.008 495.491 262.257 495.557 262.729C495.623 263.202 495.681 263.916 495.773 264.836C495.963 266.686 496.254 269.398 496.602 272.89C497.349 279.882 498.435 290.002 499.779 302.543C502.491 327.592 506.249 362.313 510.446 400.999L510.661 400.758H503.138L503.354 400.949C496.718 336.21 491.037 281.434 489.104 263.426C489.104 262.771 489.104 262.381 489.104 262.008L489.046 262.066H493.906H495.093H495.482H495.109H493.94L489.046 262.024H488.979V263.509C490.738 281.541 496.295 336.327 502.931 401.065V401.264H510.885V401.024C506.622 362.288 502.798 327.526 500.036 302.435C498.634 289.927 497.548 279.833 496.718 272.849C496.328 269.373 496.022 266.686 495.814 264.845C495.706 263.94 495.623 263.252 495.574 262.771C495.524 262.29 495.491 262.008 495.491 262.008Z" fill="#263238"/>
<path d="M381.665 262.008H375.22V263.459L388.649 400.941H395.259L381.665 262.008Z" fill="#263238"/>
<path d="M522.406 263.426L292.772 263.675L292.689 257.611H522.406V263.426Z" fill="#455A64"/>
<path d="M325.071 262.008H331.516V263.459L318.096 400.941H311.477L325.071 262.008Z" fill="#455A64"/>
<path d="M324.781 263.808C324.781 263.808 324.781 264.048 324.731 264.521C324.682 264.994 324.624 265.682 324.541 266.586C324.367 268.411 324.118 271.082 323.786 274.524C323.131 281.417 322.168 291.395 320.982 303.754C318.585 328.447 315.267 362.645 311.568 400.8L311.386 400.601H318.021L317.839 400.758C324.109 337.106 329.451 283.184 331.193 265.276V263.816L331.243 263.866H326.382H325.179H326.357H331.243H331.292V263.915C331.292 264.297 331.292 264.695 331.292 265.375C329.559 283.291 324.35 337.222 318.187 400.891V401.049H311.203V400.85C314.961 362.695 318.336 328.438 320.775 303.712C322.003 291.379 322.998 281.417 323.686 274.541C324.035 271.115 324.3 268.453 324.516 266.644C324.607 265.749 324.682 265.068 324.731 264.604L324.781 263.808Z" fill="#263238"/>
<path d="M418.127 262.53H411.683V263.99L425.111 400.941H431.73L418.127 262.53Z" fill="#455A64"/>
<path d="M418.417 264.371C418.417 264.371 418.417 264.612 418.475 265.076C418.533 265.541 418.583 266.237 418.666 267.141C418.84 268.95 419.089 271.612 419.412 275.046C420.076 281.914 421.071 291.851 422.216 304.16C424.613 328.761 427.939 362.852 431.638 400.824L431.821 400.625H425.185L425.359 400.783C419.089 337.371 413.747 283.656 412.014 265.814V264.371H411.98H416.849H418.425H418.052H416.874H411.98H411.931V265.881C413.639 283.631 418.865 337.363 425.019 400.783V400.94H431.995V400.741C428.238 362.736 424.862 328.579 422.423 303.977C421.187 291.685 420.2 281.765 419.512 274.947C419.163 271.529 418.898 268.883 418.682 267.083C418.583 266.188 418.517 265.507 418.467 265.043C418.417 264.578 418.417 264.371 418.417 264.371Z" fill="#263238"/>
<path d="M521.551 263.467C521.551 263.351 475.251 263.26 418.152 263.26C361.052 263.26 314.744 263.351 314.744 263.467C314.744 263.583 361.036 263.674 418.152 263.674C475.268 263.674 521.551 263.583 521.551 263.467Z" fill="#263238"/>
<path d="M377.7 215.027L428.139 215.434C429.798 215.434 431.341 216.222 431.589 217.839L437.097 254.6H463.075C463.478 254.6 463.864 254.76 464.149 255.045C464.433 255.33 464.593 255.716 464.593 256.118C464.593 256.521 464.433 256.907 464.149 257.192C463.864 257.476 463.478 257.636 463.075 257.636H380.13L374.465 218.835C374.395 218.367 374.426 217.889 374.556 217.434C374.686 216.979 374.912 216.557 375.218 216.197C375.525 215.836 375.904 215.545 376.333 215.343C376.761 215.142 377.227 215.034 377.7 215.027Z" fill="#E0E0E0"/>
<path d="M377.699 215.027C377.421 215.01 377.141 215.035 376.87 215.102C376.096 215.283 375.413 215.736 374.945 216.379C374.6 216.851 374.385 217.406 374.323 217.988C374.305 218.684 374.367 219.38 374.506 220.062C374.721 221.546 374.962 223.263 375.236 225.179L379.914 257.652V257.785H380.047L460.553 257.835H462.718C463.112 257.871 463.509 257.796 463.863 257.619C464.222 257.416 464.498 257.093 464.642 256.707C464.782 256.322 464.779 255.899 464.635 255.516C464.49 255.133 464.213 254.814 463.854 254.617C463.505 254.435 463.11 254.36 462.718 254.401H437.005L437.204 254.567C435.213 241.403 433.364 229.119 431.705 218.071C431.656 217.331 431.32 216.64 430.767 216.147C430.219 215.691 429.551 215.403 428.843 215.317C428.168 215.25 427.489 215.228 426.811 215.251H424.829L417.231 215.201L403.736 215.118L384.609 215.019H378.147H377.691H378.147H379.466L384.609 215.093L403.819 215.309L417.314 215.442L424.912 215.508H426.894C427.555 215.488 428.218 215.51 428.876 215.574C429.524 215.665 430.133 215.935 430.635 216.354C430.88 216.573 431.08 216.838 431.222 217.134C431.364 217.43 431.447 217.751 431.464 218.079L436.905 254.575V254.741H462.743C463.067 254.704 463.394 254.759 463.688 254.899C463.894 255.012 464.066 255.178 464.186 255.38C464.305 255.582 464.368 255.813 464.368 256.047C464.368 256.282 464.305 256.513 464.186 256.715C464.066 256.917 463.894 257.083 463.688 257.196C463.395 257.339 463.067 257.397 462.743 257.362H460.578L380.071 257.412L380.229 257.544C378.205 243.892 376.563 232.794 375.418 225.088L374.647 219.979C374.506 219.308 374.437 218.624 374.439 217.938C374.512 217.264 374.79 216.628 375.234 216.117C375.679 215.605 376.27 215.242 376.928 215.077C377.184 215.045 377.441 215.028 377.699 215.027Z" fill="#263238"/>
<path d="M408.216 235.863C408.216 236.489 408.03 237.1 407.683 237.62C407.335 238.14 406.841 238.545 406.263 238.784C405.685 239.023 405.049 239.085 404.436 238.962C403.823 238.84 403.26 238.538 402.818 238.095C402.377 237.652 402.076 237.088 401.955 236.475C401.834 235.861 401.898 235.226 402.138 234.648C402.379 234.071 402.785 233.578 403.306 233.232C403.827 232.885 404.439 232.701 405.064 232.703C405.901 232.705 406.702 233.039 407.293 233.632C407.884 234.224 408.216 235.027 408.216 235.863Z" fill="white"/>
<path d="M435.057 257.296C434.982 257.296 433.398 247.94 431.465 236.386C429.532 224.831 428.073 215.45 428.147 215.434C428.222 215.417 429.806 224.782 431.739 236.344C433.671 247.907 435.123 257.279 435.057 257.296Z" fill="#263238"/>
</svg>
