<svg width="439" height="430" viewBox="0 0 439 430" fill="none" xmlns="http://www.w3.org/2000/svg">
<path d="M345.19 273.41C329.4 259.64 327.91 237.08 330.73 217.26C331.2 213.95 331.22 210.4 333.11 207.66C335 204.92 338.91 203.32 341.73 205.04C344.07 206.47 344.84 209.45 345.96 211.98C347.469 215.342 349.895 218.212 352.96 220.26C354.96 221.58 357.5 222.54 359.71 221.61C362.71 220.34 363.52 216.41 363.85 213.11C364.477 206.95 365.103 200.786 365.73 194.62C366.06 191.32 366.42 187.94 367.78 184.92C369.14 181.9 371.73 179.23 374.97 178.68C378.21 178.13 381.9 180.37 382.21 183.68C382.187 185.059 382.071 186.436 381.86 187.8C381.81 189.18 382.28 190.8 383.54 191.29C384.8 191.78 386.24 191.03 387.34 190.17C391.11 187.17 393.88 183.17 396.51 179.11C399.14 175.05 401.7 170.92 405.19 167.62C408.68 164.32 413.26 161.89 418.02 162.13C422.78 162.37 427.51 165.84 428.2 170.61C428.89 175.38 425.68 179.83 422.31 183.28C417.324 188.407 411.621 192.786 405.38 196.28C404.185 196.786 403.18 197.658 402.51 198.77C401.56 200.89 403.41 203.31 405.51 204.26C407.88 205.35 410.58 205.38 413.12 205.96C415.66 206.54 418.34 207.96 419.05 210.52C420.05 214.04 416.83 217.28 413.8 219.3C407.731 223.341 401.014 226.311 393.94 228.08C391.42 228.7 388.77 229.21 386.63 230.7C384.49 232.19 382.98 235.04 383.92 237.5C384.86 239.96 387.81 241.03 390.41 240.83C393.01 240.63 395.41 239.49 397.95 238.83C402.68 237.61 408.51 238.55 410.95 242.83C412.59 245.61 412.37 249.22 411.07 252.19C409.637 255.101 407.634 257.696 405.18 259.82C397.053 267.687 386.984 273.257 376 275.96C365.08 278.47 355.21 278.41 345.16 273.46" fill="#F5F5F5"/>
<path d="M351.67 261.48C356.142 250.998 361.21 240.782 366.85 230.88L371.25 223.06C372.7 220.5 374.13 217.96 375.69 215.56C378.702 210.94 381.97 206.493 385.48 202.24C388.78 198.17 392.06 194.43 395.16 190.95C398.26 187.47 401.21 184.3 404.03 181.51C408.452 177.093 413.217 173.034 418.28 169.37C420.07 168.07 421.49 167.11 422.46 166.47L423.57 165.75C423.695 165.664 423.825 165.587 423.96 165.52C423.857 165.629 423.739 165.723 423.61 165.8L422.53 166.57C421.58 167.24 420.19 168.24 418.42 169.57C413.423 173.298 408.713 177.396 404.33 181.83C401.54 184.63 398.62 187.83 395.53 191.3C392.44 194.77 389.2 198.54 385.91 202.61C382.449 206.848 379.221 211.271 376.24 215.86C374.69 218.24 373.24 220.76 371.82 223.33L367.44 231.15C361.805 241.03 356.73 251.219 352.24 261.67" fill="#E0E0E0"/>
<path d="M375.86 215.55C375.753 215.077 375.696 214.595 375.69 214.11C375.62 213.18 375.55 211.82 375.5 210.11C375.39 206.77 375.39 202.16 375.41 197.11C375.43 192.06 375.41 187.41 375.21 184.11C375.13 182.44 375.05 181.11 374.99 180.17C374.938 179.685 374.938 179.195 374.99 178.71C375.125 179.177 375.212 179.656 375.25 180.14C375.39 181.07 375.53 182.41 375.67 184.08C375.94 187.41 376.07 192.08 376.05 197.14C376.03 202.2 375.99 206.7 375.96 210.14V214.14C375.985 214.612 375.952 215.086 375.86 215.55Z" fill="#E0E0E0"/>
<path d="M419.2 212.24C418.628 212.293 418.052 212.293 417.48 212.24C416.38 212.24 414.79 212.18 412.82 212.24C408.88 212.24 403.45 212.43 397.46 212.9C391.47 213.37 386.07 214.06 382.17 214.65C380.22 214.94 378.65 215.21 377.57 215.39C377.009 215.52 376.436 215.597 375.86 215.62C376.4 215.421 376.955 215.267 377.52 215.16C378.6 214.9 380.16 214.56 382.11 214.22C385.99 213.51 391.41 212.77 397.41 212.29C402.539 211.862 407.685 211.698 412.83 211.8C414.83 211.8 416.39 211.95 417.49 212.04C418.065 212.054 418.638 212.121 419.2 212.24Z" fill="#E0E0E0"/>
<path d="M352.27 260.76C352.166 260.59 352.088 260.404 352.04 260.21C351.89 259.77 351.7 259.21 351.48 258.59C351 257.19 350.36 255.14 349.59 252.59C348.07 247.5 346.18 240.41 344.21 232.59C342.24 224.77 340.42 217.59 339 212.52C338.3 210.03 337.73 207.99 337.31 206.47C337.12 205.81 336.98 205.27 336.85 204.82C336.72 204.37 336.71 204.24 336.74 204.23C336.838 204.404 336.915 204.589 336.97 204.78C337.12 205.22 337.31 205.78 337.53 206.4C338.01 207.8 338.66 209.85 339.42 212.4C340.94 217.48 342.83 224.58 344.8 232.4C346.77 240.22 348.59 247.4 350.01 252.47C350.71 254.96 351.28 257 351.7 258.47C351.89 259.13 352.03 259.68 352.16 260.12C352.29 260.56 352.3 260.75 352.27 260.76Z" fill="#E0E0E0"/>
<path d="M410.68 248.65C410.494 248.731 410.299 248.788 410.1 248.82L408.4 249.19L402.14 250.5C396.86 251.61 389.58 253.22 381.54 255.01C373.5 256.8 366.2 258.34 360.9 259.34C358.24 259.84 356.09 260.22 354.6 260.45L352.88 260.71C352.677 260.735 352.472 260.735 352.27 260.71C352.458 260.628 352.656 260.571 352.86 260.54L354.56 260.17L360.81 258.86C366.09 257.75 373.37 256.14 381.41 254.35C389.45 252.56 396.75 251.02 402.06 250.02C404.71 249.52 406.86 249.14 408.35 248.91L410.07 248.65C410.272 248.626 410.477 248.626 410.68 248.65Z" fill="#E0E0E0"/>
<path d="M16.0397 102.431C16.0397 102.431 9.80973 104.951 16.9897 118.181C24.1697 131.411 29.0997 137.931 29.0997 137.931C29.0997 137.931 30.3897 141.021 27.7797 141.571C25.1697 142.121 19.3797 141.351 18.2997 144.571C17.2197 147.791 19.6697 151.001 24.6397 153.621C29.6097 156.241 40.2797 162.401 41.2497 162.961C42.2197 163.521 43.1597 164.961 41.4497 165.601C39.7397 166.241 26.7897 167.951 27.9597 174.041C29.1297 180.131 44.1697 185.241 45.8097 185.781C47.4497 186.321 47.8097 187.041 47.7397 187.931C47.6697 188.821 43.2197 188.981 39.5597 189.611C35.8997 190.241 31.7597 191.611 32.7297 195.071C33.6997 198.531 42.7297 205.621 64.2197 207.171L74.2197 207.231L79.4797 198.641C89.4797 179.581 88.2897 168.181 85.8597 165.531C83.4297 162.881 80.0897 165.661 77.6097 168.431C75.1297 171.201 72.6797 174.861 71.8597 174.481C71.0397 174.101 70.6897 173.401 71.0597 171.711C71.4297 170.021 75.0597 154.581 70.5597 150.361C66.0597 146.141 57.7197 156.241 56.2497 157.361C54.7797 158.481 54.0897 156.891 54.1197 155.801C54.1497 154.711 54.5797 142.371 54.9797 136.801C55.3797 131.231 54.0897 127.451 50.6497 126.631C47.2097 125.811 44.9197 131.171 43.0697 133.091C41.2197 135.011 39.2897 132.281 39.2897 132.281C39.2897 132.281 36.3597 124.671 28.9297 111.571C21.4997 98.4705 15.9297 102.571 15.9297 102.571" fill="#EBEBEB"/>
<path d="M74.8 209.57C69.38 199.93 60.04 182.63 51.95 167.82C43.86 153.01 36.48 139.61 31.14 129.94L24.77 118.5C24.03 117.15 23.44 116.11 23.04 115.38C22.85 115.04 22.7 114.77 22.6 114.57C22.5481 114.479 22.5013 114.386 22.46 114.29L22.63 114.56L23.1 115.35L24.88 118.44C26.42 121.12 28.63 125.01 31.33 129.84C36.75 139.48 44.12 152.84 52.22 167.67C60.32 182.5 69.63 199.79 74.99 209.46" fill="#E0E0E0"/>
<path d="M26.3604 145.99C26.6001 146.022 26.8351 146.082 27.0604 146.17C27.5104 146.3 28.1503 146.51 28.9403 146.77C30.5103 147.3 32.6704 148.09 35.0304 149.01L41.0304 151.37L42.8603 152.08C43.0931 152.149 43.3178 152.243 43.5304 152.36C43.2879 152.331 43.0497 152.274 42.8203 152.19C42.3803 152.06 41.7404 151.85 40.9504 151.58C39.3804 151.03 37.2303 150.21 34.8703 149.3L28.8104 146.98L26.9704 146.28C26.7578 146.204 26.5534 146.107 26.3604 145.99Z" fill="#E0E0E0"/>
<path d="M44.2395 151.71C44.1595 151.71 45.5995 147.16 47.4495 141.61C49.2995 136.06 50.8595 131.61 50.9395 131.61C51.0195 131.61 49.5895 136.15 47.7395 141.7C45.8895 147.25 44.3295 151.73 44.2395 151.71Z" fill="#E0E0E0"/>
<path d="M55.6504 175.01C55.7515 174.783 55.8827 174.571 56.0404 174.38L57.1804 172.73C58.1804 171.33 59.4704 169.4 60.8504 167.21C62.2304 165.02 63.4204 163.01 64.2604 161.54L65.2604 159.8C65.3654 159.576 65.4999 159.368 65.6604 159.18C65.5794 159.414 65.479 159.642 65.3604 159.86C65.1604 160.29 64.8404 160.86 64.4404 161.65C63.6504 163.15 62.4404 165.19 61.1004 167.38C59.7604 169.57 58.3604 171.49 57.3504 172.86C56.8504 173.54 56.4304 174.08 56.1304 174.45C55.9898 174.652 55.829 174.84 55.6504 175.01Z" fill="#E0E0E0"/>
<path d="M38.3398 173.4C38.5659 173.376 38.7938 173.376 39.0198 173.4L40.8698 173.5C42.4398 173.6 44.5998 173.75 46.9798 173.94C49.3598 174.13 51.5198 174.33 53.0798 174.48L54.9298 174.68C55.1566 174.691 55.3814 174.728 55.5998 174.79C55.3738 174.813 55.1459 174.813 54.9198 174.79L53.0698 174.69C51.4998 174.59 49.3398 174.44 46.9598 174.24C44.5798 174.04 42.4198 173.86 40.8598 173.71L39.0098 173.51C38.7828 173.501 38.5576 173.464 38.3398 173.4Z" fill="#E0E0E0"/>
<path d="M45.79 195.24C46.0828 195.214 46.3773 195.214 46.67 195.24L49.04 195.36C51.04 195.47 53.82 195.65 56.88 195.86C59.94 196.07 62.7 196.29 64.7 196.46L67.07 196.68C67.3628 196.696 67.6538 196.736 67.94 196.8C67.6506 196.826 67.3595 196.826 67.07 196.8L64.69 196.68C62.69 196.57 59.91 196.39 56.85 196.17C53.79 195.95 51.03 195.75 49.03 195.58L46.66 195.36C46.3673 195.344 46.0763 195.304 45.79 195.24Z" fill="#E0E0E0"/>
<path d="M67.4199 196.62C67.552 196.337 67.7093 196.066 67.8899 195.81L69.2699 193.67C70.4299 191.86 72.0099 189.35 73.6899 186.52C75.3699 183.69 76.8199 181.11 77.8599 179.23C78.3599 178.33 78.7799 177.58 79.0899 177C79.2321 176.721 79.396 176.454 79.5799 176.2C79.4759 176.496 79.3489 176.784 79.1999 177.06C78.9399 177.6 78.5499 178.38 78.0599 179.34C77.0599 181.25 75.6399 183.86 73.9599 186.68C72.2799 189.5 70.6599 192.01 69.4499 193.79C68.8499 194.68 68.3499 195.4 67.9899 195.88C67.8228 196.144 67.632 196.391 67.4199 196.62Z" fill="#E0E0E0"/>
<path d="M354.21 312.88L343.24 369.365L427.045 385.64L438.014 329.155L354.21 312.88Z" fill="#EBEBEB"/>
<path d="M438.16 329.9C437.868 330.126 437.557 330.327 437.23 330.5L434.48 332.09L424.36 337.82L390.75 356.53L390.47 356.68L390.27 356.44L389.77 355.86L364.59 326.1L357.03 317.02L355.03 314.53C354.779 314.249 354.555 313.944 354.36 313.62C354.645 313.868 354.91 314.139 355.15 314.43L357.28 316.82L365.04 325.74C371.57 333.37 380.51 343.82 390.39 355.35L390.89 355.94L390.41 355.85L424.13 337.35L434.37 331.83C435.53 331.22 436.46 330.73 437.17 330.37C437.486 330.185 437.817 330.028 438.16 329.9Z" fill="#E0E0E0"/>
<path d="M343.381 370.11C343.251 369.95 351.051 363.43 360.811 355.55C370.571 347.67 378.601 341.43 378.741 341.6C378.881 341.77 371.071 348.28 361.301 356.16C351.531 364.04 343.481 370.24 343.381 370.11Z" fill="#E0E0E0"/>
<path d="M406.731 346.3C406.921 346.2 411.661 355.1 417.301 366.17C422.941 377.24 427.381 386.29 427.191 386.39C427.001 386.49 422.261 377.59 416.611 366.52C410.961 355.45 406.541 346.4 406.731 346.3Z" fill="#E0E0E0"/>
<path d="M401.56 66.88C401.087 66.9561 400.608 66.9895 400.13 66.98L396.03 67.06L380.93 67.21L331.14 67.35H327.14V66.88C327.19 48.28 327.24 31.6 327.28 19.45C327.34 13.45 327.39 8.66 327.43 5.2C327.43 3.6 327.49 2.31 327.51 1.34C327.493 0.891012 327.527 0.441611 327.61 0C327.678 0.443226 327.708 0.891572 327.7 1.34L327.78 5.2C327.78 8.66 327.87 13.5 327.93 19.45C327.93 31.6 328.02 48.28 328.07 66.88L327.61 66.41H331.16L380.95 66.55L396.05 66.7L400.15 66.79C400.621 66.7822 401.093 66.8123 401.56 66.88Z" fill="#E0E0E0"/>
<path d="M393.34 16.2402C392.664 16.9977 391.929 17.6999 391.14 18.3402L384.89 23.8302C379.59 28.4302 372.23 34.7302 364.06 41.6402L362.82 42.6402L362.5 42.9102L362.2 42.6302L352.93 34.0202H353.48L339.9 45.3002L335.95 48.4502C335.503 48.8589 335.01 49.2145 334.48 49.5102C334.871 49.0449 335.306 48.6195 335.78 48.2402C336.767 47.3602 338.03 46.2436 339.57 44.8902L352.96 33.4002L353.25 33.1502L353.53 33.4202L362.84 41.9802H362.22L363.46 40.9802C371.63 34.0602 379.06 27.8402 384.46 23.3702L390.9 18.1102C391.661 17.421 392.477 16.7955 393.34 16.2402Z" fill="#E0E0E0"/>
<path d="M393.34 31.7197C393.083 30.1972 392.975 28.6531 393.02 27.1096C392.93 24.2496 392.88 20.2796 392.87 15.8596L393.34 16.3296H392.54C387.94 16.3296 383.78 16.2796 380.76 16.1896C379.126 16.2399 377.492 16.1293 375.88 15.8596C377.493 15.5962 379.126 15.4857 380.76 15.5296C383.76 15.4496 387.94 15.3896 392.54 15.3896H393.81V15.8596C393.81 20.2796 393.75 24.2496 393.67 27.1096C393.715 28.6535 393.604 30.198 393.34 31.7197Z" fill="#E0E0E0"/>
<path d="M12.9603 313.421C14.3703 312.554 15.8906 311.881 17.4803 311.421L18.4103 306.951L25.9603 306.811L27.0503 311.251C28.6497 311.646 30.1898 312.251 31.6303 313.051L35.4503 310.551L40.8803 315.801L38.4803 319.741C39.3452 321.144 40.0179 322.658 40.4803 324.241L44.9503 325.171L45.0803 332.721L40.6503 333.811C40.257 335.411 39.6517 336.951 38.8503 338.391L41.3503 342.211L36.1003 347.651L32.2003 345.281C30.7902 346.147 29.2699 346.82 27.6803 347.281L26.7503 351.751L19.2003 351.891L18.1103 347.451C16.5102 347.057 14.9699 346.452 13.5303 345.651L9.71027 348.151L4.27028 342.901L6.64027 339.001C5.77368 337.591 5.10097 336.07 4.64027 334.481L0.170273 333.551L0.0302734 326.001L4.48027 324.891C4.87534 323.291 5.48061 321.751 6.28027 320.311L3.78027 316.491L9.03027 311.051L12.9303 313.421H12.9603ZM16.9603 323.481C15.8609 324.64 15.1292 326.099 14.8571 327.674C14.5851 329.248 14.7848 330.868 15.4313 332.33C16.0777 333.791 17.142 335.029 18.4901 335.887C19.8382 336.744 21.41 337.184 23.0076 337.151C24.6052 337.118 26.1573 336.613 27.4685 335.7C28.7797 334.786 29.7915 333.505 30.3765 332.018C30.9615 330.531 31.0936 328.905 30.7562 327.343C30.4188 325.781 29.6269 324.353 28.4803 323.241C27.7118 322.499 26.8041 321.916 25.8096 321.526C24.8151 321.137 23.7533 320.948 22.6853 320.97C21.6174 320.992 20.5644 321.225 19.587 321.656C18.6096 322.087 17.7271 322.707 16.9903 323.481H16.9603Z" fill="#E0E0E0"/>
<path d="M16.9901 323.48C17.4118 322.962 17.9151 322.516 18.4801 322.16C20.0408 321.141 21.9082 320.699 23.7601 320.91C25.1395 321.058 26.4589 321.553 27.5954 322.349C28.732 323.144 29.6487 324.215 30.2601 325.46C30.9881 326.937 31.263 328.597 31.0501 330.23C30.8191 331.99 30.0286 333.629 28.7953 334.905C27.562 336.182 25.951 337.028 24.2001 337.32C23.3756 337.455 22.5347 337.455 21.7101 337.32C20.9147 337.216 20.1394 336.994 19.4101 336.66C18.1435 336.094 17.0408 335.217 16.2049 334.11C15.3691 333.004 14.8273 331.703 14.6301 330.33C14.3537 328.483 14.7322 326.597 15.7001 325C16.0326 324.412 16.462 323.885 16.9701 323.44C16.9701 323.44 16.4801 323.98 15.8501 325.09C14.983 326.672 14.6697 328.499 14.9601 330.28C15.1504 331.497 15.6268 332.652 16.3501 333.65C17.1727 334.797 18.2883 335.702 19.5801 336.27C20.2757 336.581 21.0138 336.787 21.7701 336.88C22.5545 336.988 23.351 336.971 24.1301 336.83C25.7807 336.548 27.2979 335.746 28.4601 334.54C29.6224 333.335 30.3687 331.79 30.5901 330.13C30.7203 329.349 30.7203 328.551 30.5901 327.77C30.4761 327.019 30.2467 326.291 29.9101 325.61C29.2951 324.336 28.3487 323.252 27.1701 322.47C26.1413 321.792 24.9652 321.37 23.7401 321.24C21.9519 321.006 20.1371 321.383 18.5901 322.31C17.4801 322.98 17.0301 323.53 16.9901 323.48Z" fill="#E0E0E0"/>
<path d="M12.96 313.42L12.71 313.29L11.96 312.86L9.02 311.12H9.11L3.89 316.58V316.44L6.48 320.24V320.31V320.38C5.69331 321.816 5.09824 323.349 4.71 324.94V325.03H4.62L0.189999 326.13L0.32 325.97C0.37 328.34 0.420001 330.87 0.470001 333.52L0.32 333.34L4.8 334.26H4.91V334.37C5.35957 335.94 6.01528 337.443 6.86 338.84L6.92 338.94L6.86 339.04L4.48 342.99V342.73C6.19 344.38 8.03 346.16 9.92 347.97H9.65L13.46 345.46L13.58 345.39L13.69 345.45C15.0942 346.242 16.5973 346.844 18.16 347.24H18.29V347.37C18.63 348.76 19 350.27 19.38 351.8L19.15 351.63L26.71 351.49L26.48 351.68C26.78 350.26 27.09 348.74 27.41 347.21V347.07H27.55C29.1138 346.627 30.6107 345.974 32 345.13L32.12 345.06L32.24 345.13L36.14 347.5H35.85L41.1 342.06V342.35L38.6 338.53L38.52 338.41L38.59 338.29C39.4222 336.88 40.0581 335.363 40.48 333.78V333.64H40.62L45.05 332.56L44.88 332.78C44.84 330.2 44.8 327.68 44.76 325.22L44.93 325.43L40.48 324.46H40.36V324.34C39.921 322.77 39.2718 321.266 38.43 319.87L38.36 319.76L38.43 319.66L40.8 315.76V316L35.38 310.74H35.6L31.72 313.24L31.64 313.3L31.55 313.25C30.1237 312.45 28.5968 311.845 27.01 311.45H26.92V311.36L25.85 306.92L25.98 307.02L18.43 307.12L18.53 307.04C18.15 308.82 17.83 310.28 17.53 311.5C16.3371 311.833 15.1786 312.278 14.07 312.83L13.26 313.25L12.99 313.39L13.24 313.22C13.41 313.11 13.68 312.95 14.04 312.76C15.1382 312.175 16.2944 311.706 17.49 311.36L17.43 311.41C17.68 310.19 17.98 308.72 18.34 306.94V306.86H18.43L25.98 306.7H26.09V306.8C26.44 308.17 26.8 309.62 27.2 311.23L27.08 311.12C28.6975 311.513 30.2548 312.122 31.71 312.93H31.54L35.35 310.42L35.47 310.34L35.57 310.44L41.02 315.68L41.13 315.79L41.05 315.92L38.69 319.83V319.62C39.5538 321.046 40.2263 322.579 40.69 324.18L40.53 324.04L45.01 324.96H45.17V325.24C45.21 327.694 45.2567 330.21 45.31 332.79V332.97H45.14L40.7 334.06L40.87 333.89C40.4697 335.51 39.8578 337.07 39.05 338.53V338.3C39.87 339.56 40.71 340.83 41.55 342.11L41.65 342.27L41.52 342.4L36.28 347.84L36.15 347.97L35.99 347.87L32.09 345.51H32.32C30.894 346.38 29.3567 347.053 27.75 347.51L27.92 347.33C27.6 348.86 27.28 350.39 26.99 351.8V351.98H26.8L19.25 352.11H19.07V351.93L17.99 347.49L18.16 347.66C16.5389 347.259 14.9785 346.644 13.52 345.83H13.75L9.93 348.33L9.78 348.43L9.66 348.31L4.23 343.05L4.11 342.94L4.2 342.8C5.02 341.44 5.83 340.1 6.57 338.9V339.1C5.70371 337.672 5.03115 336.135 4.57 334.53L4.72 334.67L0.25 333.73H0.110001V333.58C0.0700006 330.914 0.0333333 328.397 0 326.03V325.9H0.119999L4.48 324.74L4.37 324.85C4.77278 323.241 5.38465 321.691 6.19 320.24V320.38L3.7 316.55V316.48L3.76 316.41L9.04 311L11.92 312.79L12.66 313.26L12.96 313.42Z" fill="#E0E0E0"/>
<path d="M67.3499 292.241C68.193 291.731 69.1013 291.337 70.0499 291.071L70.6099 288.391L75.1299 288.311L75.7799 290.971C76.7412 291.204 77.6664 291.568 78.5299 292.051L80.8099 290.551L84.0599 293.691L82.6499 296.031C83.1598 296.874 83.5534 297.782 83.8199 298.731L86.4799 299.241L86.5599 303.761L83.8999 304.411C83.6678 305.369 83.3043 306.291 82.8199 307.151L84.3199 309.441L81.1799 312.691L78.8399 311.281C77.9946 311.786 77.087 312.18 76.1399 312.451L75.5799 315.131L71.0599 315.211L70.4099 312.551C69.4512 312.318 68.5291 311.955 67.6699 311.471L65.3799 312.971L62.1299 309.831L63.5399 307.491C63.0341 306.645 62.6407 305.738 62.3699 304.791L59.7099 304.241L59.6299 299.721L62.2899 299.071C62.5236 298.109 62.887 297.184 63.3699 296.321L61.8699 294.041L65.0099 290.791L67.3499 292.241ZM69.7599 298.241C69.0939 298.931 68.6474 299.803 68.477 300.747C68.3066 301.691 68.4199 302.664 68.8025 303.543C69.1851 304.423 69.8199 305.169 70.6266 305.688C71.4333 306.207 72.3757 306.474 73.3347 306.458C74.2936 306.441 75.2261 306.14 76.0142 305.594C76.8022 305.047 77.4105 304.279 77.7622 303.386C78.1138 302.494 78.1929 301.518 77.9896 300.58C77.7863 299.643 77.3096 298.787 76.6199 298.121C76.1617 297.678 75.6207 297.33 75.0279 297.096C74.4351 296.863 73.8021 296.748 73.165 296.759C72.528 296.77 71.8993 296.907 71.3151 297.161C70.7308 297.415 70.2023 297.782 69.7599 298.241Z" fill="#F5F5F5"/>
<path d="M69.7599 298.24C70.0131 297.925 70.3173 297.655 70.6599 297.44C71.6001 296.837 72.7196 296.575 73.8299 296.7C74.597 296.778 75.3343 297.039 75.9799 297.46C76.7276 297.96 77.3283 298.651 77.7199 299.46C77.9333 299.889 78.0816 300.348 78.1599 300.82C78.24 301.314 78.24 301.817 78.1599 302.31C78.0162 303.362 77.5415 304.341 76.8043 305.105C76.0672 305.87 75.106 306.379 74.0599 306.56C73.5664 306.64 73.0633 306.64 72.5699 306.56C72.092 306.505 71.626 306.374 71.1899 306.17C70.3873 305.8 69.6972 305.224 69.1899 304.5C68.7474 303.87 68.4596 303.143 68.3499 302.38C68.1879 301.275 68.4141 300.148 68.9899 299.19C69.1874 298.839 69.4446 298.524 69.7499 298.26C69.7499 298.26 69.4599 298.57 69.0799 299.26C68.563 300.21 68.3766 301.304 68.5499 302.37C68.672 303.152 68.9901 303.891 69.4744 304.517C69.9587 305.143 70.5936 305.636 71.3199 305.95C71.7312 306.141 72.1699 306.266 72.6199 306.32C73.0903 306.395 73.5695 306.395 74.0399 306.32C75.0262 306.151 75.9331 305.672 76.6289 304.953C77.3247 304.234 77.7734 303.312 77.9099 302.32C77.9852 301.853 77.9852 301.377 77.9099 300.91C77.8371 300.46 77.699 300.022 77.4999 299.61C77.1261 298.852 76.5608 298.204 75.8599 297.73C75.1024 297.23 74.2186 296.954 73.3108 296.934C72.403 296.915 71.5082 297.153 70.7299 297.62C70.3939 297.807 70.0699 298.014 69.7599 298.24Z" fill="#F5F5F5"/>
<path d="M67.3498 292.24L67.1998 292.16L66.7498 291.9C66.3398 291.66 65.7498 291.32 64.9898 290.9L61.8698 294.17V294.08C62.3298 294.77 62.8698 295.54 63.3798 296.36C62.9089 297.22 62.5525 298.138 62.3198 299.09V299.14L59.6698 299.8L59.7398 299.7C59.7398 301.12 59.7998 302.63 59.8298 304.22L59.7498 304.11L62.4198 304.67H62.4798V304.74C62.7505 305.678 63.1439 306.576 63.6498 307.41V307.47V307.53C63.2098 308.26 62.7298 309.06 62.2298 309.87V309.72C63.2298 310.72 64.3598 311.72 65.4898 312.86H65.3298L67.6098 311.36H67.6798H67.7498C68.6034 311.829 69.5144 312.186 70.4598 312.42H70.5398V312.5C70.7498 313.33 70.9698 314.24 71.1898 315.15L71.0598 315.05L75.5798 314.97L75.4498 315.08C75.6198 314.23 75.8098 313.32 75.9998 312.4V312.32H76.0798C77.0182 312.056 77.9164 311.666 78.7498 311.16H78.8298H78.8998L81.2298 312.57H81.0598L84.1998 309.31V309.48L82.6998 307.2V307.13V307.06C83.1791 306.21 83.5392 305.298 83.7698 304.35V304.27H83.8498L86.5098 303.62L86.4098 303.75C86.4098 302.21 86.4098 300.7 86.3298 299.23L86.4298 299.35L83.7598 298.79H83.6798V298.71C83.4172 297.771 83.0269 296.873 82.5198 296.04V295.98V295.91L83.9498 293.58V293.72L80.7098 290.58H80.8398L78.5498 292.07C77.6954 291.593 76.7804 291.233 75.8298 291V290.95C75.5998 289.95 75.3898 289.11 75.1898 288.29L75.2698 288.35L70.7498 288.41L70.8098 288.36C70.5798 289.43 70.3898 290.36 70.2398 291.04C69.5284 291.238 68.8384 291.506 68.1798 291.84L67.6898 292.09L67.5298 292.17L67.6798 292.07C67.7798 292.01 67.9398 291.91 68.1598 291.8C68.8159 291.448 69.5061 291.163 70.2198 290.95C70.3698 290.22 70.5398 289.34 70.7598 288.27V288.22L75.2798 288.12H75.3398V288.18C75.5398 289 75.7598 289.87 75.9998 290.83L75.9298 290.77C76.8968 291.006 77.8283 291.369 78.6998 291.85H78.4798L80.7598 290.35H80.8298L80.8898 290.41C81.8898 291.41 83.0098 292.41 84.1498 293.55L84.2198 293.61V293.69C83.7598 294.45 83.2998 295.23 82.8098 296.03V295.9C83.327 296.756 83.7272 297.678 83.9998 298.64L83.9098 298.55L86.5898 299.1H86.6898V299.2C86.6898 300.68 86.6898 302.2 86.7698 303.73V303.83H86.6698L84.0198 304.48L84.1098 304.38C83.8745 305.352 83.5078 306.287 83.0198 307.16V307.02L84.5198 309.3L84.5798 309.39L84.4998 309.47L81.3598 312.73L81.2798 312.81L81.1898 312.75L78.8498 311.33H78.9898C78.1382 311.847 77.2196 312.244 76.2598 312.51L76.3598 312.41C76.1598 313.33 75.9698 314.24 75.7998 315.08V315.19H75.6898L71.1598 315.27H71.0498V315.17C70.8298 314.25 70.5998 313.34 70.3998 312.51L70.4998 312.61C69.5302 312.367 68.5959 312.001 67.7198 311.52H67.8598L65.4798 313.12L65.3998 313.17L65.3198 313.1L62.0698 309.96L61.9998 309.89V309.8C62.4998 308.99 62.9998 308.19 63.4198 307.47V307.59C62.906 306.737 62.5091 305.819 62.2398 304.86L62.3298 304.94L59.6498 304.38H59.5698V304.24C59.5698 302.66 59.5698 301.14 59.5098 299.72V299.64H59.5898L62.2498 299L62.1798 299.07C62.4222 298.105 62.7922 297.177 63.2798 296.31V296.39L61.7898 294.1V294.05L64.9498 290.82L66.6798 291.89L67.1198 292.17L67.3498 292.24Z" fill="#F5F5F5"/>
<path d="M81.8796 410.65L79.8196 402.25C76.7886 401.511 73.872 400.363 71.1496 398.84L63.8996 403.59L53.5696 393.59L58.0496 386.2C56.4367 383.532 55.1889 380.659 54.3396 377.66L45.8496 375.89L45.5996 361.54L53.9996 359.48C54.7636 356.433 55.9341 353.504 57.4796 350.77L52.7296 343.52L62.7296 333.19L70.1196 337.68C72.7929 336.068 75.6679 334.817 78.6696 333.96L80.4296 325.48L94.7796 325.22L96.8296 333.62C99.861 334.368 102.78 335.514 105.51 337.03L112.75 332.28L123.07 342.28L118.59 349.67C120.203 352.341 121.45 355.217 122.3 358.22L130.79 359.99L131.04 374.33L122.64 376.39C121.89 379.417 120.743 382.333 119.23 385.06L123.98 392.3L113.98 402.62L106.56 398.24C103.888 399.853 101.012 401.1 98.0096 401.95L96.2496 410.44L81.8796 410.65ZM71.1396 398.76C73.8674 400.282 76.7866 401.432 79.8196 402.18L81.8796 410.57L96.1696 410.32L97.9296 401.85C100.936 400.997 103.815 399.746 106.49 398.13L113.88 402.61L123.8 392.33L119.06 385.09C120.581 382.358 121.731 379.435 122.48 376.4L130.88 374.4L130.63 360.11L122.25 358.24C121.396 355.233 120.145 352.355 118.53 349.68L123.01 342.29L112.72 332.37L105.48 337.11C102.75 335.594 99.831 334.448 96.7996 333.7L94.7096 325.24L80.4196 325.49L78.6596 333.96C75.6477 334.806 72.7647 336.058 70.0896 337.68L62.6696 333.24L52.7496 343.52L57.4796 350.77C55.9585 353.502 54.8084 356.424 54.0596 359.46L45.6596 361.52L45.9096 375.81L54.3896 377.57C55.2466 380.575 56.4975 383.453 58.1096 386.13L53.6396 393.51L63.9196 403.44L71.1396 398.76ZM88.7596 382.87C85.7369 382.869 82.7813 381.978 80.2612 380.309C77.7412 378.64 75.768 376.266 74.5878 373.483C73.4075 370.7 73.0722 367.632 73.6238 364.66C74.1754 361.688 75.5894 358.944 77.6896 356.77C79.0939 355.314 80.7715 354.149 82.6265 353.343C84.4814 352.536 86.4772 352.104 88.4996 352.07H88.7796C92.7993 352.132 96.6352 353.765 99.4677 356.617C102.3 359.47 103.905 363.318 103.939 367.338C103.973 371.358 102.433 375.232 99.6494 378.132C96.8654 381.032 93.0577 382.729 89.0396 382.86L88.7596 382.87ZM77.7596 356.79C75.6733 358.955 74.269 361.686 73.721 364.642C73.173 367.599 73.5054 370.651 74.6771 373.421C75.8487 376.19 77.8079 378.554 80.3115 380.22C82.815 381.885 85.7526 382.779 88.7596 382.79H89.0396C93.0446 382.659 96.8398 380.968 99.6145 378.077C102.389 375.186 103.923 371.325 103.89 367.318C103.856 363.311 102.256 359.476 99.4328 356.633C96.6095 353.789 92.7862 352.162 88.7796 352.1H88.4796C86.4639 352.127 84.4737 352.555 82.6247 353.358C80.7758 354.162 79.1051 355.325 77.7096 356.78L77.7596 356.79Z" fill="#E0E0E0"/>
<path d="M77.7098 356.79C78.5182 355.801 79.4846 354.953 80.5698 354.28C83.5298 352.36 87.0629 351.522 90.5698 351.91C93.1866 352.19 95.6899 353.128 97.846 354.637C100.002 356.146 101.741 358.177 102.9 360.54C103.58 361.902 104.052 363.358 104.3 364.86C104.576 366.422 104.603 368.019 104.38 369.59C103.945 372.93 102.446 376.041 100.104 378.461C97.7626 380.882 94.7033 382.484 91.3798 383.03C88.2976 383.553 85.1293 383.146 82.2798 381.86C79.8809 380.785 77.7926 379.121 76.2086 377.023C74.6247 374.926 73.5966 372.461 73.2198 369.86C72.7006 366.36 73.4072 362.788 75.2198 359.75C75.8555 358.641 76.6698 357.644 77.6298 356.8C76.8738 357.803 76.1696 358.845 75.5198 359.92C73.8664 362.917 73.2677 366.382 73.8198 369.76C74.2143 372.237 75.2238 374.576 76.7559 376.562C78.288 378.549 80.2938 380.119 82.5898 381.13C85.2943 382.331 88.295 382.7 91.2098 382.19C94.3432 381.657 97.2241 380.136 99.4316 377.849C101.639 375.563 103.058 372.63 103.48 369.48C103.881 366.552 103.408 363.57 102.12 360.91C101.03 358.65 99.3904 356.7 97.3516 355.237C95.3128 353.775 92.9398 352.848 90.4498 352.54C87.0579 352.094 83.6145 352.799 80.6698 354.54C79.6465 355.24 78.6586 355.991 77.7098 356.79Z" fill="#E0E0E0"/>
<path d="M70.0703 337.71L69.5903 337.45L68.1703 336.63L62.5903 333.34H62.7703L52.8703 343.71V343.43L57.6503 350.66L57.7303 350.79L57.6603 350.92C56.1599 353.638 55.0267 356.544 54.2903 359.56V359.73H54.1203L45.7103 361.82L45.9503 361.51C46.0403 366.02 46.1403 370.81 46.2403 375.83L45.9603 375.5L54.4803 377.24H54.7003L54.7603 377.46C55.6161 380.434 56.8602 383.282 58.4603 385.93L58.5803 386.12L58.4603 386.32L53.9803 393.73L53.9203 393.24L64.1903 403.24H63.6803L70.9103 398.48L71.1303 398.34L71.3503 398.47C74.0517 399.969 76.9403 401.102 79.9403 401.84L80.1903 401.9L80.2503 402.15C80.9003 404.79 81.6103 407.66 82.3203 410.56L81.8903 410.23L96.2203 409.98L95.8003 410.33C96.3603 407.65 96.9603 404.76 97.5603 401.85L97.6203 401.58L97.8703 401.51C100.84 400.665 103.685 399.431 106.33 397.84L106.56 397.71L106.79 397.85L114.19 402.33L113.65 402.4L123.65 392.1L123.6 392.64C122.01 390.2 120.42 387.79 118.86 385.4L118.72 385.18L118.84 384.95C120.346 382.25 121.486 379.361 122.23 376.36L122.29 376.11L122.54 376.05L130.95 374L130.63 374.41C130.55 369.523 130.474 364.747 130.4 360.08L130.72 360.47L122.24 358.7L122.01 358.65L121.94 358.42C121.099 355.443 119.865 352.591 118.27 349.94L118.15 349.74L118.27 349.54C119.82 347.01 121.27 344.54 122.77 342.15L122.83 342.6L112.54 332.6H112.96L105.71 337.33L105.55 337.43L105.38 337.34C102.676 335.82 99.7802 334.67 96.7703 333.92H96.6003V333.75L94.6003 325.33L94.8603 325.53L80.5303 325.72L80.7203 325.56C79.9903 328.94 79.3903 331.72 78.9003 334.03V334.12H78.8203C76.5581 334.738 74.3637 335.583 72.2703 336.64L70.7203 337.44C70.5592 337.546 70.3884 337.636 70.2103 337.71C70.3579 337.583 70.5188 337.472 70.6903 337.38C71.0203 337.18 71.5103 336.88 72.2003 336.51C74.2809 335.396 76.473 334.505 78.7403 333.85L78.6403 333.95C79.1103 331.64 79.6403 328.85 80.3503 325.46V325.31H80.5103L94.8403 325H95.0403V325.2C95.6903 327.8 96.3703 330.55 97.1303 333.6L96.9203 333.39C99.987 334.136 102.94 335.29 105.7 336.82H105.37L112.6 332.05L112.83 331.91L113.02 332.09L123.35 342.03L123.56 342.23L123.41 342.48C121.96 344.89 120.47 347.35 118.93 349.89V349.5C120.568 352.202 121.836 355.111 122.7 358.15L122.4 357.87L130.88 359.63L131.2 359.69V360.02C131.28 364.687 131.367 369.463 131.46 374.35V374.68L131.13 374.76L122.72 376.83L123.03 376.52C122.28 379.595 121.12 382.555 119.58 385.32V384.87L124.33 392.11L124.52 392.4L124.28 392.65L114.33 402.97L114.09 403.22L113.79 403.04L106.38 398.55H106.83C104.121 400.187 101.205 401.455 98.1603 402.32L98.4703 401.98C97.8703 404.9 97.2603 407.79 96.7103 410.46L96.6303 410.81H96.2803L81.9603 411.06H81.6103L81.5303 410.73C80.8203 407.83 80.1203 404.95 79.4703 402.32L79.7903 402.63C76.7167 401.867 73.7577 400.7 70.9903 399.16H71.4203L64.1803 403.9L63.9003 404.08L63.6703 403.86L53.3703 393.86L53.1403 393.64L53.3103 393.37L57.8103 385.98V386.37C56.1781 383.661 54.9168 380.745 54.0603 377.7L54.3303 377.96L45.8103 376.24L45.5403 376.18V375.91C45.4603 370.91 45.3903 366.09 45.3203 361.58V361.24L45.5603 361.18L53.9803 359.18L53.7703 359.39C54.5381 356.334 55.7047 353.392 57.2403 350.64V350.91L52.5303 343.65L52.4303 343.5L52.5503 343.37L62.5503 333.12L62.6203 333.04L62.7203 333.1L68.1703 336.49L69.5803 337.38C69.7548 337.472 69.9191 337.583 70.0703 337.71Z" fill="#E0E0E0"/>
<path d="M356.392 24.4939L56.5605 46.6699L84.8654 429.365L384.696 407.189L356.392 24.4939Z" fill="white"/>
<path d="M84.4793 429.89V429.39L56.0293 46.2397H56.5293L356.859 23.9297V24.4297L385.229 407.62H384.729L84.4793 429.89ZM57.0993 47.1197L85.3593 428.82L384.189 406.7L355.929 24.9997L57.0993 47.1197Z" fill="#263238"/>
<path d="M329.934 41.1924L249.154 47.167L249.538 52.3528L330.317 46.3783L329.934 41.1924Z" fill="#407BFF"/>
<path d="M328.969 80.9996L328.479 81.0896L327.049 81.2396L321.809 81.7196L304.479 83.1596C297.709 83.7096 291.589 84.1596 287.149 84.4396L281.889 84.7496L280.459 84.8096C280.293 84.8272 280.125 84.8272 279.959 84.8096C280.117 84.7555 280.282 84.7251 280.449 84.7196L281.879 84.5596L287.119 84.0896L304.479 82.6396C311.239 82.0796 317.359 81.6396 321.799 81.3496L327.059 81.0396L328.489 80.9796C328.649 80.9601 328.811 80.9669 328.969 80.9996Z" fill="#407BFF"/>
<path d="M333.81 100.55C333.81 100.7 316.21 102.12 294.48 103.73C272.75 105.34 255.11 106.52 255.1 106.38C255.09 106.24 272.7 104.82 294.44 103.21C316.18 101.6 333.8 100.41 333.81 100.55Z" fill="#263238"/>
<path d="M335.139 125.48C335.139 125.63 317.539 127.05 295.809 128.66C274.079 130.27 256.479 131.46 256.479 131.31C256.479 131.16 274.079 129.75 295.819 128.14C317.559 126.53 335.129 125.34 335.139 125.48Z" fill="#263238"/>
<path d="M335.139 113.02C335.139 113.16 317.539 114.58 295.809 116.19C274.079 117.8 256.479 118.99 256.479 118.85C256.479 118.71 274.079 117.28 295.819 115.67C317.559 114.06 335.129 112.88 335.139 113.02Z" fill="#263238"/>
<path d="M169.929 287.579C169.929 287.719 160.809 288.519 149.539 289.349C138.269 290.179 129.119 290.749 129.109 290.599C129.099 290.449 138.229 289.669 149.499 288.829C160.769 287.989 169.919 287.439 169.929 287.579Z" fill="#407BFF"/>
<path d="M152.869 311.54C152.869 311.69 140.649 312.71 125.549 313.83C110.449 314.95 98.2092 315.73 98.1992 315.59C98.1892 315.45 110.409 314.43 125.519 313.31C140.629 312.19 152.859 311.4 152.869 311.54Z" fill="#407BFF"/>
<path d="M252.479 313.57C252.479 313.71 218.119 316.37 175.719 319.51C133.319 322.65 98.9192 325.08 98.9092 324.94C98.8992 324.8 133.259 322.13 175.679 318.99C218.099 315.85 252.479 313.43 252.479 313.57Z" fill="#263238"/>
<path d="M154.589 334.79C154.589 334.93 142.369 335.95 127.279 337.07C112.189 338.19 99.929 338.98 99.919 338.83C99.909 338.68 112.139 337.67 127.239 336.55C142.339 335.43 154.579 334.64 154.589 334.79Z" fill="#407BFF"/>
<path d="M254.179 336.809C254.179 336.959 219.819 339.619 177.419 342.759C135.019 345.899 100.619 348.319 100.609 348.179C100.599 348.039 134.959 345.379 177.379 342.239C219.799 339.099 254.169 336.669 254.179 336.809Z" fill="#263238"/>
<path d="M156.31 358.03C156.31 358.17 144.09 359.19 129 360.31C113.91 361.43 101.65 362.22 101.64 362.08C101.63 361.94 113.86 360.91 128.96 359.79C144.06 358.67 156.3 357.88 156.31 358.03Z" fill="#407BFF"/>
<path d="M255.899 360.05C255.899 360.2 221.539 362.86 179.139 366C136.739 369.14 102.339 371.57 102.329 371.42C102.319 371.27 136.679 368.62 179.099 365.48C221.519 362.34 255.889 359.91 255.899 360.05Z" fill="#263238"/>
<path d="M160.109 381.559C160.109 381.699 147.879 382.719 132.789 383.839C117.699 384.959 105.479 385.749 105.479 385.599C105.479 385.449 117.699 384.439 132.799 383.319C147.899 382.199 160.089 381.409 160.109 381.559Z" fill="#407BFF"/>
<path d="M259.699 383.58C259.699 383.73 225.329 386.39 182.929 389.58C140.529 392.77 106.129 395.15 106.119 395C106.109 394.85 140.479 392.2 182.889 389.06C225.299 385.92 259.679 383.44 259.699 383.58Z" fill="#263238"/>
<path d="M118.852 282.957L100.104 284.344L100.984 296.251L119.733 294.865L118.852 282.957Z" fill="#407BFF"/>
<path d="M114.115 295.287L106.586 295.844L106.862 299.574L114.391 299.017L114.115 295.287Z" fill="#407BFF"/>
<path d="M117.29 298.66C115.223 299.108 113.122 299.386 111.01 299.49C108.912 299.767 106.794 299.867 104.68 299.79C106.748 299.347 108.848 299.073 110.96 298.97C113.058 298.698 115.175 298.594 117.29 298.66Z" fill="#407BFF"/>
<path d="M270.35 269.42L282.07 262.99L293.61 267.37L282.8 274.17L270.35 269.42Z" fill="#407BFF"/>
<path d="M273.159 272.109L273.629 279.409L291.689 277.819L291.069 270.779L282.729 275.819L273.159 272.109Z" fill="#407BFF"/>
<path d="M344.479 270.84C344.479 270.99 335.359 271.78 324.089 272.61C312.819 273.44 303.669 274.01 303.659 273.87C303.649 273.73 312.779 272.93 324.049 272.09C335.319 271.25 344.479 270.7 344.479 270.84Z" fill="#407BFF"/>
<path d="M302.609 295.94C302.609 296.08 296.339 296.66 288.609 297.23C280.879 297.8 274.559 298.16 274.549 298.01C274.539 297.86 280.819 297.29 288.549 296.71C296.279 296.13 302.599 295.79 302.609 295.94Z" fill="#263238"/>
<path d="M354.119 302.239C354.119 302.389 336.489 303.809 314.729 305.419C292.969 307.029 275.299 308.219 275.289 308.079C275.279 307.939 292.919 306.509 314.689 304.899C336.459 303.289 354.109 302.139 354.119 302.239Z" fill="#263238"/>
<path d="M304.709 321.9C304.709 322.05 298.449 322.63 290.709 323.2C282.969 323.77 276.709 324.13 276.659 323.98C276.609 323.83 282.919 323.26 290.659 322.68C298.399 322.1 304.699 321.76 304.709 321.9Z" fill="#263238"/>
<path d="M356.22 328.239C356.22 328.389 338.59 329.809 316.83 331.419C295.07 333.029 277.41 334.219 277.39 334.079C277.37 333.939 295.02 332.509 316.79 330.899C338.56 329.289 356.21 328.109 356.22 328.239Z" fill="#263238"/>
<path d="M306.309 347.56C306.309 347.71 300.039 348.29 292.309 348.86C284.579 349.43 278.309 349.78 278.249 349.64C278.189 349.5 284.519 348.92 292.249 348.34C299.979 347.76 306.299 347.42 306.309 347.56Z" fill="#263238"/>
<path d="M357.819 353.91C357.819 354.06 340.189 355.48 318.429 357.09C296.669 358.7 278.999 359.89 278.989 359.75C278.979 359.61 296.619 358.18 318.389 356.57C340.159 354.96 357.809 353.77 357.819 353.91Z" fill="#263238"/>
<path d="M309.169 374.7C309.169 374.84 302.909 375.42 295.169 376C287.429 376.58 281.169 376.92 281.119 376.78C281.069 376.64 287.379 376.05 295.119 375.48C302.859 374.91 309.159 374.56 309.169 374.7Z" fill="#263238"/>
<path d="M360.679 381.05C360.679 381.19 343.049 382.61 321.289 384.23C299.529 385.85 281.869 387.03 281.859 386.88C281.849 386.73 299.479 385.32 321.249 383.71C343.019 382.1 360.669 380.9 360.679 381.05Z" fill="#263238"/>
<path d="M263.91 80.2394C264.696 79.8188 265.343 79.1771 265.769 78.3935C266.196 77.6098 266.384 76.7185 266.31 75.8294C266.309 75.2415 266.187 74.6602 265.952 74.1213C265.718 73.5824 265.375 73.0975 264.945 72.6967C264.515 72.296 264.007 71.9878 263.453 71.7914C262.899 71.595 262.31 71.5146 261.724 71.5551C261.138 71.5956 260.566 71.7562 260.044 72.0269C259.522 72.2976 259.062 72.6727 258.691 73.1288C258.32 73.5849 258.047 74.1124 257.888 74.6784C257.73 75.2444 257.69 75.837 257.77 76.4194C257.826 77.3058 258.14 78.1566 258.672 78.8672C259.205 79.5778 259.934 80.1173 260.77 80.4194C254.28 81.8894 255.11 89.0094 255.11 89.0094L270.64 87.9294C270.64 87.9294 270.48 80.7494 263.91 80.2394Z" fill="#407BFF"/>
<path d="M289.21 181.06C289.21 181.21 282.9 181.79 275.09 182.37C267.28 182.95 260.94 183.3 260.93 183.16C260.92 183.02 267.24 182.43 275.05 181.85C282.86 181.27 289.2 180.92 289.21 181.06Z" fill="#263238"/>
<path d="M290.279 193.55C290.279 193.69 283.969 194.28 276.159 194.86C268.349 195.44 262.009 195.79 261.999 195.64C261.989 195.49 268.309 194.91 276.119 194.34C283.929 193.77 290.269 193.41 290.279 193.55Z" fill="#263238"/>
<path d="M345.139 178.389L299.139 181.799C298.727 181.83 298.319 181.695 298.006 181.425C297.693 181.155 297.5 180.772 297.469 180.359C297.439 179.947 297.573 179.539 297.843 179.226C298.113 178.913 298.497 178.72 298.909 178.689L344.909 175.279C345.113 175.263 345.319 175.287 345.514 175.351C345.709 175.415 345.889 175.517 346.045 175.651C346.2 175.784 346.327 175.948 346.419 176.131C346.511 176.315 346.565 176.515 346.579 176.719C346.595 176.924 346.571 177.129 346.507 177.324C346.444 177.519 346.342 177.7 346.208 177.855C346.074 178.01 345.91 178.138 345.727 178.229C345.544 178.321 345.344 178.375 345.139 178.389Z" fill="#E0E0E0"/>
<path d="M338.42 178.89L299.11 181.8C298.697 181.83 298.29 181.695 297.977 181.425C297.664 181.155 297.47 180.772 297.44 180.36C297.409 179.947 297.544 179.54 297.814 179.227C298.084 178.913 298.467 178.72 298.88 178.69L338.19 175.78C338.602 175.749 339.01 175.884 339.323 176.154C339.636 176.424 339.829 176.807 339.86 177.22C339.887 177.631 339.752 178.037 339.482 178.35C339.213 178.662 338.831 178.856 338.42 178.89Z" fill="#407BFF"/>
<path d="M346.009 190.139L300.009 193.539C299.597 193.57 299.19 193.435 298.876 193.165C298.563 192.895 298.37 192.512 298.339 192.099C298.312 191.688 298.447 191.282 298.717 190.969C298.986 190.656 299.368 190.463 299.779 190.429L345.779 187.029C345.984 187.013 346.19 187.037 346.385 187.101C346.58 187.165 346.76 187.267 346.915 187.401C347.071 187.534 347.198 187.698 347.289 187.881C347.381 188.065 347.436 188.265 347.449 188.469C347.48 188.882 347.345 189.289 347.075 189.602C346.805 189.916 346.422 190.109 346.009 190.139Z" fill="#E0E0E0"/>
<path d="M332.279 191.149L299.979 193.539C299.567 193.57 299.159 193.435 298.846 193.165C298.533 192.895 298.34 192.512 298.309 192.099C298.282 191.688 298.417 191.282 298.687 190.969C298.956 190.656 299.338 190.463 299.749 190.429L332.049 188.039C332.462 188.009 332.869 188.144 333.182 188.414C333.495 188.684 333.688 189.067 333.719 189.479C333.749 189.892 333.615 190.299 333.345 190.612C333.075 190.926 332.692 191.119 332.279 191.149Z" fill="#407BFF"/>
<path d="M291.639 206.299C291.639 206.439 285.329 207.029 277.519 207.599C269.709 208.169 263.369 208.529 263.359 208.389C263.349 208.249 269.669 207.659 277.479 207.079C285.289 206.499 291.629 206.149 291.639 206.299Z" fill="#263238"/>
<path d="M292.71 218.78C292.71 218.93 286.4 219.51 278.59 220.09C270.78 220.67 264.44 221.02 264.43 220.88C264.42 220.74 270.74 220.15 278.55 219.57C286.36 218.99 292.7 218.64 292.71 218.78Z" fill="#263238"/>
<path d="M347.57 203.62L301.57 207.03C301.157 207.06 300.75 206.926 300.437 206.656C300.124 206.386 299.93 206.002 299.9 205.59C299.869 205.178 300.004 204.77 300.274 204.457C300.544 204.144 300.927 203.951 301.34 203.92L347.34 200.51C347.752 200.48 348.16 200.614 348.473 200.884C348.786 201.154 348.979 201.538 349.01 201.95C349.026 202.155 349.002 202.36 348.938 202.555C348.874 202.75 348.772 202.93 348.639 203.086C348.505 203.241 348.341 203.368 348.158 203.46C347.974 203.552 347.774 203.606 347.57 203.62Z" fill="#E0E0E0"/>
<path d="M340.839 204.12L301.539 207.03C301.127 207.06 300.72 206.926 300.406 206.656C300.093 206.386 299.9 206.002 299.869 205.59C299.839 205.178 299.974 204.77 300.244 204.457C300.514 204.144 300.897 203.951 301.309 203.92L340.609 201.01C341.022 200.98 341.429 201.114 341.742 201.384C342.056 201.654 342.249 202.038 342.279 202.45C342.296 202.655 342.271 202.86 342.208 203.055C342.144 203.25 342.042 203.43 341.908 203.586C341.774 203.741 341.611 203.868 341.427 203.96C341.244 204.052 341.044 204.106 340.839 204.12Z" fill="#407BFF"/>
<path d="M348.479 215.37L302.479 218.78C302.067 218.81 301.659 218.676 301.346 218.406C301.033 218.136 300.84 217.752 300.809 217.34C300.779 216.928 300.913 216.52 301.183 216.207C301.453 215.894 301.837 215.701 302.249 215.67L348.249 212.26C348.661 212.23 349.069 212.364 349.382 212.634C349.695 212.904 349.888 213.288 349.919 213.7C349.949 214.112 349.815 214.52 349.545 214.833C349.275 215.146 348.891 215.339 348.479 215.37Z" fill="#E0E0E0"/>
<path d="M334.71 216.39L302.41 218.78C301.997 218.81 301.59 218.675 301.277 218.405C300.963 218.135 300.77 217.752 300.74 217.34C300.709 216.927 300.844 216.52 301.114 216.207C301.384 215.893 301.767 215.7 302.18 215.67L334.48 213.24C334.892 213.209 335.299 213.344 335.613 213.614C335.926 213.884 336.119 214.267 336.15 214.68C336.17 214.887 336.149 215.096 336.087 215.295C336.026 215.494 335.925 215.679 335.79 215.838C335.656 215.998 335.491 216.129 335.306 216.223C335.12 216.318 334.917 216.375 334.71 216.39Z" fill="#407BFF"/>
<path d="M294.319 232.089C294.319 232.239 287.999 232.819 280.189 233.399C272.379 233.979 266.039 234.329 266.029 234.189C266.019 234.049 272.339 233.459 280.149 232.879C287.959 232.299 294.309 231.949 294.319 232.089Z" fill="#263238"/>
<path d="M350.249 229.42L304.249 232.82C303.837 232.85 303.429 232.716 303.116 232.446C302.803 232.175 302.61 231.792 302.579 231.38C302.554 230.969 302.691 230.564 302.96 230.252C303.229 229.94 303.609 229.746 304.019 229.71L350.019 226.31C350.433 226.28 350.841 226.414 351.156 226.684C351.471 226.953 351.666 227.337 351.699 227.75C351.727 228.163 351.59 228.571 351.318 228.884C351.046 229.196 350.662 229.389 350.249 229.42Z" fill="#E0E0E0"/>
<path d="M329.749 230.93L304.209 232.82C303.797 232.85 303.389 232.716 303.076 232.446C302.763 232.176 302.57 231.792 302.539 231.38C302.514 230.969 302.651 230.564 302.92 230.252C303.189 229.94 303.569 229.746 303.979 229.71L329.479 227.82C329.891 227.792 330.297 227.928 330.609 228.197C330.922 228.467 331.116 228.849 331.149 229.26C331.18 229.666 331.051 230.068 330.789 230.38C330.527 230.692 330.154 230.889 329.749 230.93Z" fill="#407BFF"/>
<path d="M273.9 168.34L272.28 165.49C273.303 163.87 273.683 161.925 273.344 160.039C273.006 158.152 271.973 156.461 270.45 155.298C268.927 154.135 267.024 153.584 265.115 153.754C263.206 153.924 261.43 154.802 260.136 156.216C258.843 157.63 258.125 159.477 258.125 161.393C258.125 163.31 258.842 165.157 260.136 166.571C261.429 167.985 263.205 168.863 265.114 169.033C267.023 169.203 268.926 168.653 270.45 167.49L273.9 168.34Z" fill="#407BFF"/>
<path d="M333.009 157.49C333.009 157.64 322.359 158.55 309.189 159.49C296.019 160.43 285.339 161.14 285.329 161C285.319 160.86 295.979 159.95 309.149 159C322.319 158.05 332.999 157.35 333.009 157.49Z" fill="#407BFF"/>
<path d="M62.5703 46.6197L81.6703 272.57L250.2 260.03L232 33.6797L62.5703 46.6197Z" fill="#EBEBEB"/>
<path d="M236.315 27.1243L69.2852 38.8164L85.1696 265.736L252.2 254.044L236.315 27.1243Z" fill="#FAFAFA"/>
<path d="M85.4802 265.05V264.55L68.7002 37.7498H69.1902L236.26 25.3398V25.8398L253.05 252.64H252.55L85.4802 265.05ZM69.7702 38.6698L86.4802 263.98L252.05 251.72L235.34 26.4198L69.7702 38.6698Z" fill="#263238"/>
<path d="M202.29 60.1398C202.256 60.0152 202.233 59.8881 202.22 59.7598C202.22 59.4798 202.13 59.1098 202.06 58.6398C201.93 57.6398 201.74 56.1698 201.51 54.3198C201.28 52.4698 200.99 50.1298 200.66 47.4698C200.527 46.0515 200.31 44.6423 200.01 43.2498C199.837 42.5035 199.528 41.7951 199.1 41.1598C198.658 40.5003 198.012 40.0048 197.26 39.7498C196.437 39.522 195.568 39.5129 194.741 39.7234C193.913 39.9338 193.154 40.3565 192.54 40.9498C191.222 42.3164 190.374 44.0681 190.12 45.9498C189.5 50.1084 189.622 54.3438 190.48 58.4598C190.87 60.6498 191.29 62.9098 191.79 65.1898C192.242 67.5118 193.069 69.7444 194.24 71.7998C195.468 73.903 197.398 75.5067 199.69 76.3298C200.848 76.7395 202.095 76.8294 203.3 76.5898C204.518 76.3373 205.64 75.7483 206.54 74.8898C208.336 73.1321 209.458 70.7999 209.71 68.2998C209.938 65.8543 209.874 63.3903 209.52 60.9598C208.98 56.1198 208.46 51.4598 207.96 46.9598C207.71 44.7398 207.47 42.5698 207.24 40.4698C207.01 38.3698 206.8 36.3198 206.42 34.3798C206.102 32.5031 205.526 30.6793 204.71 28.9598C203.956 27.3838 202.86 25.9965 201.5 24.8998C199.084 23.0644 196.088 22.1593 193.06 22.3498C190.77 22.4229 188.568 23.2449 186.79 24.6898C185.699 25.6356 184.872 26.8485 184.39 28.2098C184.07 29.1498 184 29.6698 183.96 29.6698C184.015 29.1625 184.125 28.6628 184.29 28.1798C184.738 26.7779 185.553 25.5212 186.65 24.5398C188.448 23.0309 190.695 22.159 193.04 22.0598C196.146 21.8323 199.23 22.7382 201.72 24.6098C203.138 25.7283 204.283 27.1542 205.07 28.7798C205.913 30.5298 206.512 32.3871 206.85 34.2998C207.23 36.2998 207.45 38.2998 207.7 40.4198C207.95 42.5398 208.18 44.6898 208.44 46.9098C208.94 51.3498 209.44 56.0198 210.02 60.8498C210.388 63.3226 210.455 65.8309 210.22 68.3198C209.955 70.9424 208.776 73.3882 206.89 75.2298C205.918 76.148 204.709 76.7781 203.4 77.0498C202.109 77.3022 200.774 77.2091 199.53 76.7798C197.125 75.9078 195.098 74.2246 193.8 72.0198C192.612 69.9115 191.771 67.6255 191.31 65.2498C190.81 62.9498 190.4 60.6998 190.01 58.4898C189.14 54.3075 189.022 50.0037 189.66 45.7798C189.954 43.8248 190.857 42.0122 192.24 40.5998C192.908 39.9621 193.731 39.511 194.628 39.2916C195.525 39.0722 196.463 39.0923 197.35 39.3498C198.168 39.6391 198.87 40.1866 199.35 40.9098C199.794 41.5801 200.113 42.3256 200.29 43.1098C200.582 44.5229 200.789 45.9521 200.91 47.3898C201.2 50.0498 201.46 52.3898 201.67 54.2398C201.88 56.0898 202.02 57.5498 202.13 58.5698C202.13 59.0498 202.21 59.4198 202.23 59.6998C202.264 59.8442 202.284 59.9916 202.29 60.1398Z" fill="#263238"/>
<path d="M133.701 52.1101L120.481 46.6201C116.911 48.8901 111.081 55.1401 109.481 62.1201C108.56 65.9441 108.223 69.8853 108.481 73.8101C108.701 78.0401 108.321 82.5201 105.981 86.0501C104.311 88.5601 101.621 90.7501 101.571 93.7701C101.521 97.2401 105.111 100.23 104.381 103.63C103.791 106.35 100.761 107.72 99.1808 110.01C96.8808 113.33 97.9908 117.87 99.4908 121.62C103.111 130.67 95.4108 143.69 102.191 150.69C108.881 145.2 128.661 135.02 135.351 129.53C136.925 128.422 138.227 126.973 139.161 125.29C140.321 122.74 139.691 119.79 139.091 117.06C134.392 95.7495 132.579 73.9038 133.701 52.1101Z" fill="#263238"/>
<path d="M212.76 208.18L206.24 201.58L136.54 221.24C136.54 221.24 132.71 251.88 133.1 253.84C133.49 255.8 133.1 261.4 133.1 261.4L229.29 253.9C229.29 253.9 230.38 227.81 212.76 208.18Z" fill="#263238"/>
<path d="M155.39 234.82C155.298 235.099 155.163 235.363 154.99 235.6C154.7 236.07 154.28 236.76 153.68 237.6C152.987 238.553 152.188 239.425 151.3 240.2C150.173 241.124 148.875 241.817 147.48 242.24C144.982 243.037 142.372 243.425 139.75 243.39C138.962 243.387 138.174 243.34 137.39 243.25C137.096 243.248 136.805 243.194 136.53 243.09C136.53 243.01 137.77 243.09 139.75 243.02C142.32 242.944 144.868 242.513 147.32 241.74C148.654 241.308 149.896 240.629 150.98 239.74C151.859 238.997 152.663 238.17 153.38 237.27C154.63 235.8 155.32 234.77 155.39 234.82Z" fill="#455A64"/>
<path d="M178.32 257.94C178.189 257.637 178.098 257.317 178.05 256.99C177.91 256.38 177.72 255.48 177.52 254.36C177.1 252.13 176.61 249.04 176.23 245.6C175.85 242.16 175.65 239.02 175.57 236.76C175.57 235.63 175.51 234.76 175.52 234.07C175.487 233.736 175.508 233.398 175.58 233.07C175.772 234.279 175.892 235.498 175.94 236.72C176.12 238.97 176.37 242.09 176.75 245.52C177.13 248.95 177.56 252.04 177.88 254.28C178.109 255.489 178.256 256.712 178.32 257.94Z" fill="#455A64"/>
<path d="M184.98 256.339C184.83 256.339 184.24 251.159 183.66 244.749C183.08 238.339 182.66 233.129 182.85 233.109C183.04 233.089 183.59 238.289 184.17 244.699C184.75 251.109 185.12 256.329 184.98 256.339Z" fill="#455A64"/>
<path d="M218.78 220.58C218.596 220.868 218.378 221.133 218.13 221.37C217.69 221.86 217.04 222.55 216.13 223.37C215.133 224.333 214.045 225.197 212.88 225.95C211.433 226.884 209.815 227.523 208.12 227.83C206.407 228.103 204.651 227.906 203.04 227.26C201.749 226.732 200.534 226.033 199.43 225.18C198.688 224.616 197.98 224.008 197.31 223.36C197.047 223.14 196.812 222.888 196.61 222.61C196.67 222.54 197.75 223.53 199.61 224.88C200.71 225.672 201.906 226.32 203.17 226.81C204.708 227.4 206.374 227.573 208 227.31C209.627 227.02 211.182 226.419 212.58 225.54C213.739 224.818 214.833 223.999 215.85 223.09C217.68 221.54 218.72 220.52 218.78 220.58Z" fill="#455A64"/>
<path d="M224.111 239.979C223.828 240.198 223.519 240.379 223.191 240.52L220.621 241.859C218.451 242.999 215.481 244.63 212.311 246.59C209.141 248.55 206.311 250.489 204.311 251.919L201.961 253.62C201.688 253.852 201.385 254.047 201.061 254.199C201.291 253.927 201.549 253.679 201.831 253.46C202.351 253.01 203.121 252.38 204.091 251.62C209.186 247.693 214.68 244.311 220.481 241.53C221.591 241 222.481 240.589 223.141 240.329C223.446 240.168 223.772 240.05 224.111 239.979Z" fill="#455A64"/>
<path d="M160.53 231.81C160.46 231.81 160.22 231.33 159.9 230.48C159.49 229.363 159.195 228.207 159.02 227.03C158.85 225.835 158.918 224.618 159.22 223.45C159.316 222.956 159.525 222.49 159.83 222.09C159.485 223.689 159.387 225.331 159.54 226.96C159.71 228.109 159.947 229.248 160.25 230.37C160.425 230.83 160.519 231.317 160.53 231.81Z" fill="#455A64"/>
<path d="M164.73 232.06C164.491 231.613 164.325 231.13 164.24 230.63C163.917 229.452 163.699 228.247 163.59 227.03C163.549 226.362 163.583 225.691 163.69 225.03C163.798 224.477 163.983 223.942 164.24 223.44C164.68 222.59 165.13 222.2 165.17 222.24C165.004 222.704 164.803 223.155 164.57 223.59C164.166 224.692 164.009 225.87 164.11 227.04C164.2 228.42 164.47 229.67 164.61 230.59C164.732 231.07 164.772 231.567 164.73 232.06Z" fill="#455A64"/>
<path d="M190.48 229.64C190.468 227.145 189.951 224.679 188.959 222.389C187.967 220.1 186.522 218.035 184.71 216.32C185.369 216.674 185.959 217.145 186.45 217.71C187.711 219.007 188.728 220.522 189.45 222.18C190.169 223.839 190.58 225.614 190.66 227.42C190.732 228.165 190.671 228.917 190.48 229.64Z" fill="#455A64"/>
<path d="M195.11 228.019C194.659 225.771 194.044 223.558 193.27 221.399C192.324 219.322 191.228 217.317 189.99 215.399C190.525 215.827 190.984 216.341 191.35 216.919C193.304 219.602 194.568 222.723 195.03 226.009C195.161 226.671 195.188 227.349 195.11 228.019Z" fill="#455A64"/>
<path d="M177.4 224.57C177.4 224.57 177.58 224.3 178.1 224.06C178.844 223.735 179.683 223.703 180.45 223.97C180.992 224.147 181.476 224.469 181.85 224.9C182.274 225.41 182.517 226.047 182.54 226.71C182.568 227.436 182.376 228.154 181.99 228.77C181.781 229.106 181.507 229.398 181.184 229.628C180.862 229.858 180.496 230.021 180.11 230.11C179.366 230.262 178.591 230.164 177.909 229.829C177.227 229.494 176.675 228.942 176.34 228.26C176.087 227.653 176.024 226.983 176.16 226.34C176.237 225.771 176.469 225.235 176.83 224.79C177.394 224.207 178.152 223.852 178.96 223.79C179.107 223.765 179.258 223.771 179.402 223.807C179.547 223.843 179.682 223.908 179.8 224C179.527 223.977 179.253 223.977 178.98 224C178.254 224.129 177.594 224.503 177.11 225.06C176.819 225.459 176.64 225.928 176.59 226.42C176.484 226.978 176.547 227.556 176.77 228.08C177.072 228.649 177.549 229.106 178.13 229.384C178.712 229.661 179.368 229.744 180 229.62C180.617 229.444 181.157 229.065 181.531 228.544C181.905 228.023 182.091 227.39 182.06 226.75C182.053 226.185 181.864 225.638 181.52 225.19C181.2 224.812 180.791 224.52 180.33 224.34C179.64 224.069 178.877 224.044 178.17 224.27C177.67 224.42 177.48 224.61 177.4 224.57Z" fill="#455A64"/>
<path d="M115.101 127.49C114.551 128.16 98.5106 138.38 96.1006 144.96C93.6906 151.54 97.5706 178.38 98.2406 183.02C98.9106 187.66 108.011 205.18 108.011 205.18C108.011 205.18 106.101 212.74 108.601 217.4C110.225 220.283 112.659 222.626 115.601 224.14L131.721 215.31L121.721 170.05L115.101 127.49Z" fill="#407BFF"/>
<path d="M116.851 175.03C117.311 174.38 117.931 173.96 118.311 173.47C118.691 172.98 119.511 172.76 119.901 173.23C120.291 173.7 119.901 174.57 119.391 175.09C121.011 175.15 122.241 172.93 123.811 173.37C124.051 173.478 124.267 173.632 124.447 173.824C124.627 174.016 124.768 174.241 124.861 174.487C124.954 174.733 124.997 174.995 124.989 175.258C124.98 175.521 124.92 175.78 124.811 176.02C124.307 176.968 123.511 177.729 122.541 178.19C121.57 178.639 120.697 179.274 119.971 180.06C119.631 180.5 119.411 181.17 119.781 181.59C120.411 182.31 121.871 181.46 122.431 182.23C122.801 182.75 122.351 183.45 121.921 183.93C120.341 185.636 118.768 187.353 117.201 189.08C116.823 189.573 116.323 189.958 115.751 190.2C115.462 190.307 115.143 190.301 114.858 190.185C114.573 190.068 114.342 189.849 114.211 189.57C114.166 189.269 114.217 188.963 114.358 188.693C114.498 188.424 114.719 188.206 114.991 188.07C115.546 187.824 116.078 187.53 116.581 187.19C116.827 187.014 116.994 186.75 117.048 186.454C117.102 186.157 117.039 185.85 116.871 185.6C116.341 185.06 115.441 185.51 114.871 185.98L109.371 190.3C108.994 190.655 108.527 190.9 108.021 191.01C107.768 191.052 107.509 190.995 107.297 190.852C107.085 190.709 106.936 190.49 106.881 190.24C106.887 189.972 106.97 189.711 107.121 189.49C108.117 187.746 109.482 186.241 111.121 185.08C111.785 184.699 112.383 184.212 112.891 183.64C113.138 183.349 113.287 182.988 113.318 182.607C113.348 182.227 113.258 181.846 113.061 181.52C111.98 182.537 110.786 183.427 109.501 184.17C109.051 184.44 108.391 184.66 108.051 184.25C107.711 183.84 108.051 183.25 108.421 182.8L114.111 176.12C114.316 175.808 114.58 175.539 114.889 175.33C115.198 175.121 115.545 174.974 115.911 174.9L116.851 175.03Z" fill="white"/>
<path d="M124.78 112.849L123.48 120.759L111.64 130.239C111.64 130.239 108.84 148.099 111.51 166.239C111.51 166.239 128.86 213.239 129.28 215.239C130.07 219.049 137.07 222.239 137.07 222.239C137.07 222.239 163.5 222.489 172.58 221.179C181.66 219.869 203.58 206.019 205.68 204.179C207.78 202.339 210.15 193.499 210.15 193.499L193.99 148.239L193.08 116.399L168.93 110.199L160.73 103.859L124.78 112.849Z" fill="#407BFF"/>
<path d="M196 145.87C196.46 145.22 197.08 144.8 197.45 144.31C197.82 143.82 198.66 143.6 199.05 144.07C199.44 144.54 199.05 145.41 198.53 145.93C200.16 145.99 201.39 143.77 202.96 144.21C203.2 144.318 203.416 144.472 203.596 144.664C203.776 144.855 203.917 145.081 204.01 145.327C204.103 145.573 204.146 145.835 204.138 146.098C204.129 146.361 204.069 146.62 203.96 146.86C203.456 147.808 202.66 148.569 201.69 149.03C200.719 149.479 199.846 150.114 199.12 150.9C198.78 151.35 198.56 152.01 198.93 152.43C199.55 153.15 201.02 152.3 201.58 153.07C201.95 153.59 201.5 154.29 201.07 154.77C199.49 156.483 197.917 158.2 196.35 159.92C195.972 160.412 195.472 160.798 194.9 161.04C194.611 161.149 194.292 161.145 194.006 161.028C193.72 160.911 193.489 160.69 193.36 160.41C193.314 160.111 193.365 159.805 193.506 159.537C193.646 159.269 193.868 159.052 194.14 158.92C194.693 158.667 195.225 158.369 195.73 158.03C195.974 157.853 196.14 157.589 196.194 157.293C196.248 156.997 196.185 156.691 196.02 156.44C195.49 155.9 194.59 156.35 194.02 156.82L188.48 161.14C188.108 161.496 187.644 161.742 187.14 161.85C186.888 161.891 186.629 161.835 186.417 161.692C186.204 161.549 186.055 161.329 186 161.08C186.006 160.812 186.089 160.551 186.24 160.33C187.236 158.586 188.601 157.081 190.24 155.92C190.904 155.539 191.502 155.052 192.01 154.48C192.257 154.189 192.406 153.827 192.437 153.447C192.467 153.067 192.378 152.686 192.18 152.36C191.099 153.377 189.905 154.266 188.62 155.01C188.16 155.28 187.51 155.5 187.17 155.09C186.83 154.68 187.17 154.09 187.54 153.64C189.44 151.406 191.337 149.18 193.23 146.96C193.435 146.648 193.699 146.379 194.008 146.17C194.317 145.96 194.664 145.814 195.03 145.74L196 145.87Z" fill="white"/>
<path d="M192.69 116.55C192.69 116.55 206.06 121.24 209.56 129.24C213.06 137.24 226.46 175.24 225.62 182.24C224.78 189.24 222.55 197.24 216.49 197.6C210.43 197.96 203.49 191.79 203.49 191.79L198.05 182.94L198.34 173.67L192.16 148.99L192.69 116.55Z" fill="#407BFF"/>
<path d="M125.29 116.72C125.29 116.78 152.91 150.56 152.91 150.56L156.66 119.26L161.89 103.85L125.89 112.74L125.29 116.72Z" fill="#967262"/>
<g opacity="0.3">
<path opacity="0.3" d="M182.29 114.29C180.66 113.47 178.7 114.12 177.05 114.89C167.71 119.3 157.56 124.65 154.82 134.6L154.71 140.6C155.57 144.22 159.31 146.6 163.02 146.92C166.73 147.24 170.38 145.86 173.7 144.18C176.683 142.68 179.527 140.92 182.2 138.92C183.68 137.81 185.2 136.45 185.49 134.62C185.86 132.12 183.76 129.94 183.29 127.46C182.84 125.15 183.83 122.83 184.29 120.52C184.75 118.21 184.4 115.34 182.29 114.29Z" fill="black"/>
</g>
<path d="M111.48 166.29C111.595 166.471 111.686 166.666 111.75 166.87L112.43 168.57C113 170.06 113.82 172.21 114.8 174.88C116.8 180.22 119.29 187.67 122.12 195.88C123.55 199.98 124.94 203.88 126.22 207.41C126.86 209.18 127.45 210.87 128.07 212.41C128.643 213.84 129.35 215.213 130.18 216.51C131.401 218.378 133.007 219.964 134.89 221.16C136.24 221.99 137.07 222.31 137.04 222.36C136.833 222.309 136.632 222.235 136.44 222.14C135.87 221.913 135.319 221.642 134.79 221.33C132.824 220.183 131.145 218.603 129.88 216.71C129.01 215.409 128.27 214.026 127.67 212.58C127.02 211.02 126.42 209.34 125.76 207.58C124.46 204.05 123.05 200.16 121.63 196.05C118.83 187.87 116.3 180.46 114.45 175.05C113.53 172.4 112.78 170.25 112.24 168.68L111.65 166.94C111.572 166.73 111.515 166.512 111.48 166.29Z" fill="#263238"/>
<path d="M152.781 151.63C152.682 151.54 152.595 151.44 152.521 151.33L151.811 150.42C151.191 149.63 150.291 148.42 149.111 147.02C145.895 143.083 142.41 139.374 138.681 135.92L139.081 135.75C138.971 140.33 138.851 145.47 138.721 150.89C138.721 151.37 138.721 151.89 138.721 152.29V153.36L138.261 152.36C134.011 143.65 130.201 135.82 127.421 130.1C126.081 127.3 125.001 125.02 124.211 123.38C123.861 122.62 123.581 122.01 123.371 121.54C123.264 121.33 123.174 121.113 123.101 120.89C123.244 121.079 123.364 121.283 123.461 121.5C123.701 121.95 124.011 122.5 124.391 123.29L127.751 129.94C130.571 135.64 134.431 143.44 138.751 152.13L138.261 152.24C138.261 151.79 138.261 151.32 138.261 150.84C138.411 145.42 138.541 140.28 138.661 135.7V135.17L139.041 135.53C142.762 139.022 146.215 142.789 149.371 146.8C150.521 148.27 151.371 149.47 151.971 150.29L152.621 151.24C152.691 151.362 152.745 151.493 152.781 151.63Z" fill="#263238"/>
<path d="M192.101 176.059C192.211 176.159 184.101 184.789 174.101 195.329C164.101 205.869 155.821 214.329 155.721 214.239C155.621 214.149 163.671 205.519 173.721 194.969C183.771 184.419 192.001 175.959 192.101 176.059Z" fill="#263238"/>
<path d="M177.11 219.55C176.779 218.525 176.519 217.48 176.33 216.42C175.88 214.48 175.2 211.82 174.27 208.94C173.34 206.06 172.32 203.5 171.54 201.67C171.078 200.695 170.674 199.693 170.33 198.67C170.936 199.565 171.455 200.516 171.88 201.51C172.996 203.865 173.958 206.29 174.76 208.77C175.569 211.245 176.213 213.77 176.69 216.33C176.939 217.386 177.08 218.465 177.11 219.55Z" fill="#263238"/>
<path d="M109.411 164.629C107.083 163.365 104.841 161.949 102.701 160.389C100.457 158.98 98.3088 157.423 96.2705 155.729C98.6019 156.989 100.847 158.402 102.991 159.959C105.231 161.373 107.376 162.933 109.411 164.629Z" fill="#263238"/>
<path d="M216.481 197.539C216.481 197.539 216.361 197.539 216.131 197.539H215.131C214.581 197.544 214.033 197.5 213.491 197.409C212.752 197.311 212.023 197.15 211.311 196.929C209.402 196.297 207.645 195.276 206.151 193.929C204.244 192.197 202.736 190.072 201.731 187.699C200.791 183.899 199.731 179.699 198.651 175.239C196.651 166.779 194.761 159.129 193.411 153.509L191.871 146.909L191.481 145.109C191.425 144.904 191.392 144.692 191.381 144.479C191.477 144.673 191.548 144.878 191.591 145.089C191.711 145.549 191.871 146.139 192.071 146.859C192.491 148.479 193.071 150.699 193.761 153.419C195.161 159.029 197.061 166.669 199.161 175.119C200.241 179.559 201.271 183.789 202.161 187.589C203.132 189.902 204.58 191.984 206.411 193.699C207.856 195.029 209.557 196.05 211.411 196.699C213.06 197.188 214.763 197.47 216.481 197.539Z" fill="#263238"/>
<path d="M118.811 198.16C118.153 198.344 117.485 198.49 116.811 198.6C113.66 199.382 110.894 201.266 109.011 203.91C108.663 204.489 108.286 205.049 107.881 205.59C108.024 204.914 108.303 204.274 108.701 203.71C109.582 202.287 110.755 201.067 112.141 200.13C113.518 199.178 115.083 198.533 116.731 198.24C117.41 198.063 118.12 198.035 118.811 198.16Z" fill="#263238"/>
<path d="M118.991 197.02C117.54 197.876 115.954 198.478 114.301 198.8C112.683 199.296 110.991 199.506 109.301 199.42C109.301 199.27 111.491 198.96 114.151 198.3C116.811 197.64 118.931 196.88 118.991 197.02Z" fill="#263238"/>
<path d="M115.86 141.47C116.33 140.82 116.95 140.4 117.32 139.91C117.69 139.42 118.52 139.19 118.92 139.67C119.32 140.15 118.92 141 118.4 141.52C120.03 141.59 121.26 139.37 122.83 139.81C123.07 139.918 123.287 140.072 123.467 140.264C123.647 140.456 123.787 140.681 123.88 140.927C123.973 141.173 124.017 141.435 124.008 141.698C123.999 141.961 123.939 142.22 123.83 142.46C123.326 143.408 122.53 144.169 121.56 144.63C120.594 145.082 119.725 145.717 119 146.5C118.66 146.94 118.44 147.61 118.81 148.03C119.43 148.75 120.9 147.9 121.45 148.67C121.83 149.19 121.38 149.89 120.94 150.36L116.23 155.52C115.852 156.012 115.353 156.398 114.78 156.64C114.491 156.747 114.173 156.741 113.888 156.625C113.603 156.508 113.372 156.288 113.24 156.01C113.196 155.709 113.247 155.403 113.387 155.133C113.527 154.864 113.749 154.646 114.02 154.51C114.572 154.258 115.104 153.964 115.61 153.63C115.854 153.453 116.02 153.188 116.072 152.891C116.125 152.595 116.059 152.289 115.89 152.04C115.37 151.49 114.47 151.95 113.89 152.41L108.38 156.74C108.008 157.096 107.544 157.342 107.04 157.45C106.788 157.492 106.529 157.435 106.317 157.292C106.105 157.149 105.956 156.929 105.9 156.68C105.905 156.411 105.988 156.151 106.14 155.93C107.148 154.179 108.531 152.673 110.19 151.52C110.849 151.135 111.443 150.649 111.95 150.08C112.199 149.79 112.35 149.429 112.382 149.049C112.415 148.668 112.327 148.287 112.13 147.96C111.045 148.972 109.851 149.861 108.57 150.61C108.11 150.88 107.46 151.09 107.12 150.69C106.78 150.29 107.12 149.69 107.48 149.23L113.18 142.56C113.594 141.928 114.242 141.486 114.98 141.33L115.86 141.47Z" fill="white"/>
<path d="M157.88 155.05C158.34 154.4 158.96 153.98 159.34 153.49C159.72 153 160.54 152.77 160.93 153.25C161.32 153.73 160.93 154.58 160.41 155.1C162.04 155.17 163.27 152.95 164.84 153.39C165.08 153.498 165.296 153.652 165.476 153.844C165.657 154.036 165.797 154.261 165.89 154.507C165.983 154.753 166.026 155.015 166.018 155.278C166.009 155.541 165.949 155.8 165.84 156.04C165.334 156.984 164.539 157.742 163.57 158.2C162.601 158.656 161.729 159.294 161 160.08C160.66 160.52 160.44 161.19 160.81 161.61C161.44 162.32 162.9 161.48 163.46 162.25C163.83 162.77 163.38 163.47 162.95 163.94L158.23 169.1C157.855 169.6 157.355 169.993 156.78 170.24C156.49 170.346 156.17 170.339 155.885 170.221C155.6 170.102 155.37 169.88 155.24 169.6C155.196 169.301 155.248 168.996 155.388 168.728C155.528 168.46 155.749 168.244 156.02 168.11C156.571 167.856 157.103 167.562 157.61 167.23C158.07 166.84 158.32 166.07 157.9 165.64C157.48 165.21 156.47 165.55 155.9 166.01L150.4 170.34C150.019 170.689 149.554 170.933 149.05 171.05C148.798 171.092 148.539 171.035 148.327 170.892C148.115 170.749 147.966 170.53 147.91 170.28C147.914 170.012 147.998 169.751 148.15 169.53C149.141 167.782 150.507 166.275 152.15 165.12C152.812 164.735 153.409 164.25 153.92 163.68C154.167 163.389 154.317 163.028 154.347 162.647C154.378 162.267 154.288 161.886 154.09 161.56C153.007 162.574 151.813 163.463 150.53 164.21C150.08 164.47 149.42 164.69 149.08 164.29C148.74 163.89 149.08 163.29 149.45 162.83C151.35 160.61 153.247 158.383 155.14 156.15C155.56 155.526 156.205 155.089 156.94 154.93L157.88 155.05Z" fill="white"/>
<path d="M141.87 194.86C142.34 194.21 142.96 193.79 143.33 193.3C143.7 192.81 144.53 192.59 144.93 193.06C145.33 193.53 144.93 194.4 144.41 194.91C146.04 194.98 147.27 192.76 148.84 193.2C149.08 193.308 149.296 193.462 149.476 193.654C149.657 193.846 149.797 194.071 149.89 194.317C149.983 194.563 150.026 194.826 150.018 195.089C150.009 195.351 149.949 195.61 149.84 195.85C149.336 196.798 148.54 197.559 147.57 198.02C146.604 198.472 145.735 199.107 145.01 199.89C144.67 200.33 144.45 201 144.82 201.42C145.44 202.14 146.91 201.29 147.46 202.06C147.84 202.58 147.39 203.28 146.95 203.75L142.24 208.91C141.862 209.403 141.362 209.789 140.79 210.03C140.501 210.137 140.183 210.131 139.897 210.015C139.612 209.898 139.381 209.679 139.25 209.4C139.205 209.099 139.257 208.793 139.397 208.523C139.537 208.254 139.759 208.036 140.03 207.9C140.585 207.654 141.117 207.36 141.62 207.02C141.864 206.843 142.03 206.578 142.082 206.281C142.134 205.985 142.069 205.679 141.9 205.43C141.38 204.88 140.48 205.34 139.9 205.8L134.39 210.13C134.018 210.486 133.554 210.732 133.05 210.84C132.798 210.882 132.539 210.825 132.327 210.682C132.115 210.539 131.966 210.32 131.91 210.07C131.914 209.802 131.998 209.541 132.15 209.32C133.146 207.576 134.511 206.071 136.15 204.91C136.813 204.531 137.408 204.044 137.91 203.47C138.159 203.18 138.31 202.819 138.342 202.439C138.375 202.058 138.286 201.677 138.09 201.35C137.008 202.365 135.813 203.254 134.53 204C134.07 204.27 133.42 204.49 133.08 204.08C132.74 203.67 133.08 203.08 133.44 202.63L139.14 195.95C139.554 195.318 140.201 194.876 140.94 194.72L141.87 194.86Z" fill="white"/>
<path d="M189.641 191.359C190.101 190.709 190.731 190.289 191.101 189.799C191.471 189.309 192.301 189.079 192.701 189.559C193.101 190.039 192.651 190.889 192.181 191.409C193.811 191.479 195.041 189.259 196.611 189.699C196.851 189.807 197.067 189.962 197.247 190.153C197.427 190.345 197.568 190.571 197.661 190.817C197.753 191.063 197.797 191.325 197.788 191.588C197.78 191.851 197.719 192.11 197.611 192.349C197.105 193.294 196.309 194.051 195.341 194.509C194.376 194.968 193.507 195.606 192.781 196.389C192.441 196.829 192.221 197.499 192.591 197.919C193.211 198.629 194.681 197.789 195.231 198.559C195.611 199.079 195.151 199.779 194.721 200.249L190.001 205.409C189.625 205.904 189.124 206.29 188.551 206.529C188.26 206.633 187.942 206.625 187.657 206.507C187.372 206.389 187.142 206.168 187.011 205.889C186.966 205.589 187.018 205.282 187.161 205.014C187.303 204.746 187.527 204.531 187.801 204.399C188.349 204.148 188.878 203.853 189.381 203.519C189.841 203.129 190.091 202.359 189.671 201.929C189.251 201.499 188.251 201.839 187.671 202.299L182.171 206.629C181.792 206.982 181.326 207.227 180.821 207.339C180.568 207.381 180.309 207.325 180.097 207.181C179.885 207.038 179.736 206.819 179.681 206.569C179.684 206.299 179.771 206.037 179.931 205.819C180.935 204.066 182.319 202.559 183.981 201.409C184.638 201.022 185.231 200.537 185.741 199.969C185.989 199.679 186.14 199.319 186.173 198.938C186.205 198.558 186.117 198.177 185.921 197.849C184.836 198.861 183.642 199.75 182.361 200.499C181.901 200.769 181.241 200.979 180.901 200.579C180.561 200.179 180.901 199.579 181.271 199.119L186.971 192.449C187.174 192.135 187.438 191.865 187.747 191.654C188.056 191.443 188.404 191.295 188.771 191.219L189.641 191.359Z" fill="white"/>
<path d="M171.401 196.709C171.292 196.586 171.201 196.448 171.131 196.299L170.431 195.069C169.831 194.009 168.991 192.439 168.001 190.489C166.001 186.589 163.391 181.109 160.821 174.939C158.251 168.769 156.211 163.049 154.821 158.879C154.141 156.789 153.621 155.099 153.281 153.879C153.131 153.339 153.011 152.879 152.911 152.519C152.854 152.361 152.821 152.197 152.811 152.029C152.896 152.174 152.963 152.328 153.011 152.489C153.131 152.849 153.291 153.289 153.481 153.819C153.901 155.049 154.481 156.709 155.171 158.719C156.611 162.849 158.701 168.529 161.261 174.719C163.821 180.909 166.371 186.369 168.261 190.299C169.191 192.219 169.961 193.789 170.541 194.959L171.151 196.229C171.257 196.376 171.342 196.538 171.401 196.709Z" fill="#263238"/>
<path d="M225.66 181.38C225.66 182.13 222.2 183.7 221.46 183.62L220.59 183.35C220.03 183.92 219.35 184.24 218.91 184.67C218.47 185.1 217.61 185.19 217.29 184.67C216.97 184.15 217.54 183.36 218.09 182.92C216.49 182.61 214.93 184.61 213.45 183.92C213.008 183.628 212.699 183.173 212.592 182.653C212.485 182.134 212.589 181.593 212.88 181.15C213.526 180.292 214.431 179.664 215.46 179.36C216.485 179.062 217.442 178.57 218.28 177.91C218.68 177.52 219 176.91 218.7 176.42C218.2 175.62 216.62 176.23 216.19 175.42C215.9 174.85 216.45 174.23 216.96 173.83C218.77 172.37 221.26 170.34 223.08 168.88C223.08 168.83 225.59 177.96 225.66 181.38Z" fill="white"/>
<g opacity="0.3">
<path opacity="0.3" d="M155.98 213.68C170.48 205.77 183.42 193.03 190.44 178.08L155.98 213.68Z" fill="black"/>
</g>
<g opacity="0.3">
<path opacity="0.3" d="M107.91 205.59C110.75 199.49 116.34 197.82 121.77 197.89C121.824 197.573 121.759 197.247 121.587 196.976C121.416 196.705 121.149 196.506 120.84 196.42C120.215 196.249 119.555 196.249 118.93 196.42C116.292 196.8 113.748 197.672 111.43 198.99C110.364 199.677 109.49 200.624 108.89 201.742C108.29 202.859 107.984 204.111 108 205.38" fill="black"/>
</g>
<g opacity="0.3">
<path opacity="0.3" d="M123.21 121.1C126.898 134.615 132.631 147.487 140.21 159.27C143.005 154.932 144.194 149.752 143.57 144.63C145.673 147.364 148.557 149.393 151.84 150.45C147.99 145.16 143.99 140.13 138.99 135.92C138.99 135.92 138.56 152.92 138.57 152.45C133.34 141.94 128.25 131.59 123.19 121.1" fill="black"/>
</g>
<path d="M167.27 73.8998C165.78 78.7498 163.66 82.4798 158.96 84.3898C154.85 86.0598 150.2 85.7398 145.86 84.8498C131.75 81.9398 116.94 74.4198 109.45 62.1198L113.45 53.3998C117.68 46.7498 128.02 38.8698 140.02 42.7698C143.267 41.8415 146.695 41.7527 149.985 42.5118C153.275 43.2709 156.319 44.853 158.83 47.1098C168.03 54.9398 167.27 73.8998 167.27 73.8998Z" fill="#263238"/>
<path d="M133.37 49.4093C125.13 48.4093 114.49 58.4093 113.81 66.6993C113.05 75.8993 112.49 87.1593 113.44 94.0493C115.37 107.909 125.93 109.869 125.93 109.869L125.42 116.919L156.98 110.859L158.34 61.4293L158.51 56.9693L133.37 49.4093Z" fill="#967262"/>
<path d="M118.94 76.6804C118.926 77.1416 119.093 77.5899 119.405 77.9298C119.717 78.2698 120.15 78.4745 120.61 78.5004C120.836 78.5237 121.064 78.5017 121.281 78.4354C121.498 78.3692 121.7 78.2602 121.874 78.1148C122.049 77.9694 122.192 77.7906 122.296 77.5889C122.4 77.3872 122.463 77.1667 122.48 76.9404C122.494 76.4792 122.327 76.0309 122.015 75.6909C121.703 75.3509 121.271 75.1462 120.81 75.1204C120.584 75.097 120.356 75.1191 120.139 75.1853C119.922 75.2515 119.72 75.3605 119.546 75.5059C119.372 75.6513 119.228 75.8301 119.124 76.0319C119.02 76.2336 118.958 76.4541 118.94 76.6804Z" fill="#263238"/>
<path d="M116.62 72.6295C116.83 72.8595 118.19 71.8995 120.1 71.9395C122.01 71.9795 123.39 72.9395 123.6 72.7295C123.81 72.5195 123.49 72.2095 122.89 71.7295C122.072 71.1451 121.095 70.8242 120.09 70.8095C119.098 70.7897 118.125 71.0837 117.31 71.6495C116.72 72.1095 116.48 72.5195 116.62 72.6295Z" fill="#263238"/>
<path d="M136.741 77.37C136.73 77.8305 136.897 78.2774 137.209 78.6168C137.52 78.9562 137.951 79.1616 138.411 79.19C138.636 79.2119 138.863 79.1888 139.079 79.1219C139.295 79.0551 139.495 78.9458 139.668 78.8005C139.842 78.6553 139.984 78.4769 140.087 78.2759C140.191 78.0749 140.253 77.8553 140.271 77.63C140.285 77.1678 140.118 76.7183 139.806 76.3767C139.495 76.0352 139.062 75.8283 138.601 75.8C138.375 75.778 138.147 75.8015 137.931 75.869C137.714 75.9365 137.513 76.0466 137.34 76.1929C137.167 76.3392 137.024 76.5187 136.921 76.7209C136.818 76.923 136.757 77.1437 136.741 77.37Z" fill="#263238"/>
<path d="M135.351 73.3495C135.571 73.5795 136.931 72.6195 138.841 72.6595C140.751 72.6995 142.121 73.6595 142.331 73.4495C142.541 73.2395 142.221 72.9295 141.621 72.4495C140.807 71.8652 139.833 71.5442 138.831 71.5295C137.839 71.5076 136.865 71.8017 136.051 72.3695C135.481 72.8295 135.251 73.2395 135.351 73.3495Z" fill="#263238"/>
<path d="M128.161 87.3494C127.158 87.0243 126.121 86.8195 125.071 86.7394C124.591 86.6794 124.131 86.5694 124.071 86.2394C124.039 85.7337 124.164 85.2306 124.431 84.7994C124.911 83.6294 125.431 82.3994 125.941 81.1194C128.041 75.8794 129.571 71.5694 129.361 71.4894C129.151 71.4094 127.271 75.5794 125.171 80.8194C124.661 82.1094 124.171 83.3494 123.721 84.5294C123.398 85.107 123.295 85.7818 123.431 86.4294C123.496 86.6046 123.601 86.7619 123.738 86.8888C123.876 87.0156 124.041 87.1083 124.221 87.1594C124.487 87.2364 124.763 87.28 125.041 87.2894C126.074 87.4427 127.122 87.4628 128.161 87.3494Z" fill="#263238"/>
<path d="M125.931 109.91C132.586 110.143 139.18 108.556 145.001 105.32C145.001 105.32 139.951 114.86 125.681 113.32L125.931 109.91Z" fill="#77574A"/>
<path d="M128.88 91.97C129.25 91.5185 129.729 91.1692 130.271 90.9556C130.814 90.742 131.403 90.6712 131.98 90.75C132.4 90.7944 132.806 90.9237 133.174 91.13C133.542 91.3363 133.864 91.6153 134.12 91.95C134.369 92.2734 134.513 92.6652 134.533 93.0727C134.552 93.4803 134.447 93.8841 134.23 94.23C133.918 94.5661 133.512 94.801 133.064 94.9043C132.617 95.0077 132.149 94.9748 131.72 94.81C130.824 94.478 130.004 93.9678 129.31 93.31C129.101 93.153 128.922 92.96 128.78 92.74C128.709 92.6353 128.671 92.5116 128.671 92.385C128.671 92.2583 128.709 92.1346 128.78 92.03" fill="#77574A"/>
<path d="M133.74 88.7794C133.43 88.7794 133.39 90.7794 131.59 92.2594C129.79 93.7394 127.59 93.4294 127.59 93.7194C127.59 93.8394 128.07 94.1294 129 94.1694C130.215 94.2116 131.405 93.8219 132.36 93.0694C133.275 92.35 133.874 91.3027 134.03 90.1494C134.11 89.2894 133.89 88.7694 133.74 88.7794Z" fill="#263238"/>
<path d="M135.011 65.8693C135.181 66.3893 137.091 66.1793 139.321 66.4893C141.551 66.7993 143.321 67.4893 143.661 66.9893C143.801 66.7693 143.491 66.2793 142.771 65.7593C141.812 65.1177 140.716 64.7101 139.571 64.5693C138.43 64.4098 137.267 64.5264 136.181 64.9093C135.351 65.2393 134.931 65.6193 135.011 65.8693Z" fill="#263238"/>
<path d="M117.48 67.1194C117.8 67.5594 119.13 67.1194 120.7 67.1194C122.27 67.1194 123.62 67.4694 123.93 67.0194C124.07 66.7994 123.87 66.3694 123.29 65.9394C122.521 65.42 121.608 65.1543 120.68 65.1794C119.753 65.1826 118.85 65.4687 118.09 65.9994C117.48 66.4694 117.28 66.9094 117.48 67.1194Z" fill="#263238"/>
<path d="M157.231 55.5898C156.121 53.2598 153.391 52.2998 150.971 51.4198C147.551 50.1798 144.231 48.6498 140.741 47.6298C137.27 46.4738 133.556 46.2497 129.971 46.9798C126.321 47.8598 123.161 50.1298 120.371 52.6398C116.691 55.9498 113.371 60.0098 112.431 64.8698V66.5398C120.361 64.2898 128.251 55.9998 133.991 50.0898C138.941 56.9898 147.181 69.2398 154.481 72.2398C154.971 68.7098 157.481 63.5898 157.761 60.0398C157.959 58.5355 157.776 57.0056 157.231 55.5898Z" fill="#263238"/>
<path d="M183.9 111.389C183.36 108.629 180.63 106.959 178.24 105.479C175.85 103.999 173.29 101.879 173.43 99.0694C173.57 96.2594 176.7 93.8394 176.43 90.9094C176.16 87.9794 172.53 86.4194 170.6 84.0094C167.8 80.5294 167.26 78.3594 167.26 73.8994C167.26 65.1694 163.77 53.7694 156.08 49.6094L146.04 58.0394C148.96 66.1894 151.92 74.7094 150.9 83.3194C150.29 88.4194 148.29 93.3794 148.58 98.5094C148.89 104.019 151.8 109.039 152.79 114.459C153.73 119.599 152.92 124.889 153.18 130.109C153.44 135.329 155.18 140.969 159.6 143.739L176.29 135.739C178.1 134.869 180.14 133.739 180.4 131.739C180.66 129.739 178.89 127.979 178.4 125.979C177.2 120.749 184.92 116.649 183.9 111.389Z" fill="#263238"/>
<path d="M166.99 68.7295C166.198 69.0887 165.37 69.3636 164.52 69.5495C162.488 70.1214 160.405 70.4932 158.3 70.6595C156.183 70.7894 154.06 70.5595 152.02 69.9795C151.165 69.7835 150.343 69.4634 149.58 69.0295C149.63 68.8195 153.39 70.4695 158.27 70.1395C160.345 69.956 162.404 69.6218 164.43 69.1395C165.269 68.9234 166.126 68.7862 166.99 68.7295Z" fill="#455A64"/>
<path d="M167.311 71.9395C166.627 72.4604 165.868 72.875 165.061 73.1695C163.143 73.977 161.091 74.418 159.011 74.4695C156.934 74.4872 154.866 74.2042 152.871 73.6295C152.038 73.4408 151.231 73.1485 150.471 72.7595C151.312 72.8679 152.144 73.0383 152.961 73.2695C154.927 73.7294 156.941 73.9576 158.961 73.9495C160.984 73.8915 162.986 73.5135 164.891 72.8295C165.681 72.4899 166.489 72.1928 167.311 71.9395Z" fill="#455A64"/>
<path d="M108.681 66.7699C109.559 66.6447 110.444 66.5712 111.331 66.5499C112.202 66.3585 113.083 66.2182 113.971 66.1299C113.198 66.6368 112.318 66.9583 111.401 67.0694C110.483 67.1804 109.552 67.0779 108.681 66.7699Z" fill="#455A64"/>
<path d="M108.181 68.35C108.271 68.23 109.331 68.96 110.801 69.46C112.271 69.96 113.551 70.05 113.551 70.21C112.575 70.4486 111.548 70.3572 110.631 69.95C109.657 69.7074 108.794 69.1437 108.181 68.35Z" fill="#455A64"/>
<path d="M154.93 137.029C154.682 136.994 154.439 136.923 154.21 136.819C153.53 136.533 152.919 136.103 152.42 135.559C151.623 134.694 151.101 133.612 150.92 132.449C150.811 131.716 150.865 130.968 151.08 130.259C151.331 129.483 151.684 128.743 152.13 128.059C152.611 127.333 153.042 126.574 153.42 125.789C153.785 124.935 153.979 124.018 153.99 123.089C153.918 121.013 153.3 118.992 152.2 117.229C150.944 115.279 149.582 113.4 148.12 111.599C146.513 109.621 145.405 107.285 144.89 104.789C144.51 102.273 144.66 99.7046 145.33 97.2493C145.942 94.9887 146.728 92.7787 147.68 90.6393C148.54 88.5893 149.38 86.6393 150.01 84.7893C150.618 83.0686 151.044 81.2889 151.28 79.4793C151.691 76.866 151.53 74.1948 150.81 71.6493C150.514 70.7269 150.101 69.8463 149.58 69.0293C149.759 69.2072 149.917 69.4052 150.05 69.6193C150.465 70.2418 150.801 70.9136 151.05 71.6193C151.854 74.1849 152.073 76.898 151.69 79.5593C151.473 81.3978 151.061 83.208 150.46 84.9593C149.84 86.8493 149.01 88.7993 148.16 90.8593C147.228 92.9799 146.462 95.1698 145.87 97.4093C145.22 99.793 145.074 102.286 145.44 104.729C145.942 107.148 147.015 109.411 148.57 111.329C150.039 113.148 151.404 115.048 152.66 117.019C153.788 118.862 154.409 120.97 154.46 123.129C154.44 124.111 154.226 125.08 153.83 125.979C153.43 126.761 152.979 127.516 152.48 128.239C152.045 128.894 151.693 129.599 151.43 130.339C151.232 130.986 151.17 131.667 151.25 132.339C151.401 133.451 151.874 134.494 152.61 135.339C153.235 136.082 154.032 136.662 154.93 137.029Z" fill="#263238"/>
<path d="M140.55 42.6197C139.065 43.2895 137.711 44.2172 136.55 45.3597C135.513 46.6099 134.7 48.0311 134.15 49.5597C134.092 49.0631 134.165 48.5599 134.36 48.0997C134.731 46.9498 135.347 45.8939 136.165 45.0048C136.984 44.1157 137.985 43.4146 139.1 42.9497C139.547 42.7169 140.047 42.6032 140.55 42.6197Z" fill="#455A64"/>
<path d="M193.54 136.619L186.73 125.889L186.26 115.34L188.93 108.119C188.93 108.119 191.06 107.609 191.41 110.119C191.537 112.027 191.268 113.941 190.62 115.739L192.08 120.859C192.08 120.859 192.56 121.409 193.01 119.279C193.46 117.149 192.68 101.359 192.67 100.279C192.66 99.1995 192.75 96.6095 194.36 96.8495C195.97 97.0895 196.48 99.2395 196.48 100.329C196.48 101.419 197.66 112.019 197.66 112.019C197.66 112.019 198.04 112.969 198.42 112.829C198.8 112.689 198.08 101.459 198.01 99.6895C197.94 97.9195 197.54 93.9795 199.62 93.9795C201.7 93.9795 201.7 95.9795 201.82 98.1195C201.94 100.259 203.29 112.45 203.29 112.45C203.29 112.45 203.61 113.209 203.91 112.189C204.21 111.169 204.58 97.9495 204.81 97.3295C205.04 96.7095 206.26 95.8895 207.2 97.3895C208.14 98.8895 207.92 102.389 207.79 108.539C207.67 114.089 207.5 116.389 208.13 116.829C208.76 117.269 211.13 113.829 211.13 113.829C211.13 113.829 213.97 106.509 216.38 106.769C218.79 107.029 217.17 108.899 216.76 110.599C216.41 112.039 212.2 120.599 212.11 120.709C212.02 120.819 207.88 136.069 207.88 136.069L217.02 153.539C218.638 156.578 219.257 160.049 218.79 163.459C218.24 167.189 216.33 171.349 210.86 173.049C206.86 174.309 203.86 172.509 201.86 170.389C200.166 168.51 199.046 166.185 198.63 163.689C197.46 156.949 193.52 136.599 193.52 136.599L193.54 136.619Z" fill="#967262"/>
<path d="M200.34 128.919C200.25 128.919 200.34 128.099 200.12 126.859C199.823 125.24 199.05 123.746 197.9 122.569C196.991 121.61 195.78 120.993 194.47 120.819C193.652 120.722 192.826 120.909 192.13 121.349L192.03 121.409V121.319C191.9 121.039 191.84 120.879 191.87 120.869C191.9 120.859 192 120.969 192.19 121.229H192.05C192.39 120.936 192.786 120.714 193.214 120.577C193.642 120.44 194.092 120.389 194.54 120.429C195.976 120.541 197.32 121.183 198.31 122.229C199.539 123.474 200.32 125.092 200.53 126.829C200.643 127.531 200.578 128.25 200.34 128.919Z" fill="#77574A"/>
<path d="M206.09 120.81C206.18 120.94 205.26 121.73 204.36 122.9C203.874 123.663 203.34 124.395 202.76 125.09C202.968 124.176 203.375 123.32 203.95 122.58C204.525 121.841 205.256 121.236 206.09 120.81Z" fill="#77574A"/>
<path d="M113.69 216.34C113.817 220.798 115.55 225.059 118.57 228.34C120.809 230.767 123.172 233.077 125.65 235.26L142.87 242.98C142.87 242.98 147.36 243.66 151.87 239.27C153.314 238.008 154.502 236.48 155.37 234.77C155.37 234.77 160.53 237.08 162.55 236.99C165.95 236.84 165.41 234.44 165.41 234.44C165.41 234.44 154.04 228.18 151.34 225.76C148.64 223.34 140.86 221.76 135.34 222.47L132.14 221.84L130.98 217.54C130.98 217.54 124.74 208.25 118.98 211.54C113.22 214.83 113.69 216.34 113.69 216.34Z" fill="#967262"/>
</svg>
