<svg width="687" height="620" viewBox="0 0 687 620" fill="none" xmlns="http://www.w3.org/2000/svg"> <path d="M210.264 168.336C215.561 172.456 221.911 175 228.586 175.678C235.262 176.356 241.994 175.14 248.01 172.17C254.027 169.199 259.085 164.594 262.605 158.882C266.126 153.169 267.966 146.581 267.916 139.871C267.865 133.161 265.926 126.601 262.319 120.943C258.713 115.284 253.586 110.756 247.525 107.876C241.465 104.997 234.715 103.882 228.051 104.661C221.386 105.44 215.075 108.08 209.842 112.279L202.021 106.24L190.381 109.878L191.71 98.2381L181.896 90.6138L170.271 94.2373L171.6 82.5971L163.16 76.0447L156.064 78.249L156.88 71.1531L151.912 67.2881L140.77 68.3752L139.261 85.4958L197.628 130.864C195.814 137.66 196.046 144.841 198.293 151.506C200.541 158.172 204.705 164.026 210.264 168.336ZM252.794 156.152C251.552 157.75 249.864 158.944 247.944 159.583C246.024 160.222 243.957 160.277 242.005 159.742C240.053 159.207 238.304 158.105 236.978 156.576C235.652 155.046 234.81 153.159 234.557 151.151C234.304 149.143 234.651 147.105 235.556 145.294C236.461 143.484 237.882 141.982 239.64 140.979C241.398 139.977 243.414 139.517 245.433 139.66C247.451 139.802 249.383 140.54 250.983 141.779C253.124 143.449 254.516 145.898 254.856 148.592C255.195 151.285 254.454 154.004 252.794 156.152Z" fill="#B9CAD2"/> <path d="M257.308 31.8845C259.583 29.1035 261.03 25.7378 261.481 22.1729C261.932 18.608 261.37 14.9881 259.859 11.7279C258.348 8.46764 255.95 5.69889 252.938 3.73878C249.927 1.77868 246.424 0.706494 242.831 0.645048C239.238 0.583602 235.701 1.53539 232.624 3.39136C229.547 5.24733 227.055 7.93244 225.433 11.1391C223.812 14.3458 223.127 17.9443 223.456 21.5226C223.785 25.1008 225.115 28.514 227.294 31.3711L223.927 35.4777L225.724 41.7582L219.504 40.8977L215.322 46.061L217.118 52.3416L210.913 51.466L207.29 55.9046L208.377 59.7243L204.587 59.1959L202.489 61.7776L202.927 67.8166L212.076 68.8432L237.107 38.1801C240.721 39.2324 244.564 39.1964 248.157 38.0767C251.749 36.957 254.932 34.8032 257.308 31.8845ZM251.269 8.96637C252.107 9.6531 252.723 10.573 253.039 11.6098C253.355 12.6465 253.356 13.7536 253.042 14.7911C252.729 15.8285 252.115 16.7497 251.278 17.4383C250.441 18.1268 249.419 18.5518 248.34 18.6594C247.262 18.767 246.176 18.5525 245.22 18.043C244.263 17.5334 243.479 16.7517 242.967 15.7967C242.454 14.8416 242.237 13.7561 242.341 12.6774C242.446 11.5987 242.868 10.5752 243.554 9.73635C244.009 9.1685 244.573 8.69729 245.213 8.35037C245.853 8.00344 246.556 7.78779 247.28 7.71607C248.004 7.64435 248.735 7.718 249.431 7.93271C250.126 8.14741 250.772 8.49883 251.329 8.96637H251.269Z" fill="#B9CAD2" fill-opacity="0.5"/> <path d="M488.016 539.407L529.111 599.166L543.806 599.515L516.874 538.062L488.016 539.407Z" fill="#263238"/> <path d="M54.3629 542.446L32.7109 598.9H43.5369L81.3448 542.695L54.3629 542.446Z" fill="#263238"/> <path d="M45.0316 337.334L46.692 410.392C46.7978 415.363 48.8185 420.101 52.3328 423.619C55.8471 427.136 60.5836 429.161 65.5545 429.271L474.334 438.37C476.906 438.428 479.464 437.971 481.857 437.026C484.25 436.082 486.43 434.668 488.269 432.869C490.108 431.07 491.569 428.922 492.567 426.551C493.564 424.179 494.077 421.632 494.077 419.06V331.057C494.072 318.512 489.531 306.392 481.292 296.932C473.053 287.472 461.671 281.311 449.245 279.584C374.41 269.289 220.107 253.465 95.3259 275.948C81.0033 278.509 68.0661 286.1 58.845 297.355C49.624 308.609 44.7253 322.787 45.0316 337.334Z" fill="#407BFF"/> <path d="M43.238 362.854C43.238 362.854 9.5646 347.263 2.67384 362.854C-4.21692 378.446 3.52066 397.574 11.0922 408.234C18.6637 418.894 18.6305 550.599 18.6305 550.599L529.344 545.136L535.388 418.495C535.388 418.495 559.879 388.325 558.352 375.324C556.824 362.323 536.152 343.394 512.424 362.805C488.697 382.215 482.536 422.779 482.536 422.779L75.3506 425.851C75.3506 425.851 76.7454 368.882 43.238 362.854Z" fill="#407BFF"/> <path d="M477.372 448.084C477.372 448.316 386.896 448.516 275.315 448.516C163.735 448.516 73.2583 448.366 73.2583 448.084C73.2583 447.802 163.702 447.652 275.315 447.652C386.929 447.652 477.372 447.885 477.372 448.084Z" fill="#263238"/> <path d="M73.2581 503.874C73.2368 503.742 73.2368 503.608 73.2581 503.476C73.2581 503.16 73.2581 502.762 73.2581 502.297C73.2581 501.256 73.2249 499.745 73.1585 497.764C73.1585 493.762 73.1585 488.1 73.1585 481.16C73.1585 467.112 73.2582 447.702 72.6106 426.366C72.4841 416.319 71.7076 406.291 70.286 396.345C69.9871 395.249 69.6882 394.153 69.406 393.024C69.1237 391.895 68.5758 390.949 68.144 389.936C67.264 387.927 66.3674 386.001 65.3877 384.191C63.619 380.822 61.54 377.626 59.1777 374.643C57.2053 372.201 54.9789 369.974 52.536 368.002C50.6805 366.525 48.6839 365.235 46.5751 364.15C44.7379 363.303 42.8593 362.549 40.9463 361.891H41.3282L42.4739 362.207C43.9393 362.627 45.3624 363.183 46.7246 363.867C48.8933 364.896 50.9424 366.16 52.8349 367.636C55.3294 369.596 57.6011 371.823 59.6095 374.278C62.0369 377.266 64.172 380.48 65.9855 383.875C66.9984 385.702 67.9116 387.628 68.8082 389.654C69.2565 390.666 69.6716 391.713 70.0867 392.759L71.0332 396.079C72.5145 406.07 73.3189 416.15 73.4408 426.249C74.0884 447.669 73.8725 467.079 73.7397 481.126C73.64 488.084 73.557 493.746 73.5072 497.731C73.5072 499.64 73.5072 501.151 73.5072 502.264V503.426C73.2582 503.725 73.2581 503.874 73.2581 503.874Z" fill="#263238"/> <path d="M39.2697 392.244C39.6662 391.974 40.1348 391.829 40.6146 391.829C41.9494 391.727 43.2776 392.097 44.3672 392.875C45.1333 393.411 45.7596 394.123 46.1937 394.95C46.69 395.923 46.8589 397.029 46.6752 398.105C46.4944 399.344 45.9422 400.5 45.0914 401.419C44.2407 402.338 43.1314 402.977 41.9098 403.253C40.679 403.429 39.4234 403.238 38.3009 402.703C37.1783 402.169 36.2387 401.314 35.6002 400.247C35.0408 399.316 34.7586 398.245 34.7866 397.159C34.8463 396.016 35.2123 394.911 35.8462 393.959C36.4802 393.006 37.3587 392.242 38.3897 391.746C38.8131 391.517 39.2867 391.397 39.7678 391.397C39.7678 391.48 39.2863 391.596 38.5391 392.045C37.4948 392.691 36.6589 393.625 36.1315 394.735C35.737 395.513 35.5482 396.379 35.5831 397.251C35.6179 398.123 35.8753 398.972 36.3308 399.716C36.8995 400.627 37.7191 401.354 38.691 401.811C39.663 402.267 40.746 402.433 41.8102 402.29C42.851 402.046 43.7975 401.502 44.5324 400.726C45.2673 399.95 45.7583 398.975 45.9446 397.923C46.091 397.056 45.9912 396.165 45.6566 395.352C45.322 394.539 44.7659 393.836 44.0517 393.323C43.1054 392.57 41.94 392.145 40.7309 392.111C39.7678 392.161 39.2863 392.327 39.2697 392.244Z" fill="#263238"/> <path d="M41.5771 425.02C40.6089 424.302 39.8192 423.37 39.2691 422.297C37.7533 419.801 36.9351 416.943 36.9001 414.022C36.8651 411.102 37.6144 408.225 39.0698 405.693C39.5993 404.608 40.3653 403.654 41.3114 402.904C41.4276 403.003 40.5642 404.049 39.651 405.975C38.405 408.47 37.7677 411.224 37.7913 414.012C37.837 416.803 38.5365 419.544 39.8336 422.015C40.7967 423.908 41.7099 424.937 41.5771 425.02Z" fill="#263238"/> <path d="M36.2307 375.723C36.1404 376.566 35.9737 377.4 35.7326 378.213C35.004 382.186 35.8754 386.287 38.1568 389.62C38.6949 390.273 39.1886 390.961 39.6346 391.679C39.6346 391.679 38.7047 391.214 37.6587 390.019C36.3114 388.373 35.3741 386.432 34.9238 384.353C34.4734 382.275 34.523 380.119 35.0684 378.064C35.2542 377.198 35.6538 376.394 36.2307 375.723Z" fill="#263238"/> <path d="M26.2856 394.087C26.4849 393.921 28.0291 395.482 30.3869 396.694C32.7447 397.906 34.8866 398.354 34.8534 398.554C33.1534 398.772 31.4308 398.384 29.9884 397.458C28.401 396.797 27.0922 395.606 26.2856 394.087Z" fill="#263238"/> <path d="M531.303 503.874C531.303 504.107 416.119 504.306 274.037 504.306C131.954 504.306 16.8037 504.107 16.8037 503.874C16.8037 503.642 131.971 503.442 274.169 503.442C416.368 503.442 531.303 503.625 531.303 503.874Z" fill="#263238"/> <path d="M475.596 423.26C475.845 423.26 476.028 441.293 476.028 463.526C476.028 485.759 475.845 503.824 475.596 503.824C475.347 503.824 475.164 485.792 475.164 463.526C475.164 441.259 475.363 423.26 475.596 423.26Z" fill="#263238"/> <path d="M305.054 283.934H304.257L301.932 284.017L293.016 284.266L260.173 285.03L151.847 287.205C141.27 287.454 130.925 287.421 120.996 288.085C111.434 288.496 101.975 290.223 92.8849 293.216C84.6848 295.968 77.3466 300.816 71.5983 307.28C68.9908 310.2 66.7595 313.435 64.9566 316.91C63.3123 320.106 61.9511 323.44 60.8886 326.873C59.182 332.837 58.0696 338.955 57.5677 345.137C57.053 350.617 57.0032 355.349 56.97 359.234C56.9368 363.12 56.97 366.109 57.0862 368.151C57.0862 369.147 57.0862 369.911 57.0862 370.476C57.0862 371.04 57.0862 371.273 57.0862 371.273C57.0862 371.273 57.0862 371.007 57.0862 370.476C57.0862 369.944 57.0862 369.147 56.9534 368.151C56.8537 366.125 56.7209 363.17 56.6877 359.234C56.6545 355.299 56.6877 350.6 57.136 345.088C57.6248 338.843 58.7373 332.663 60.4569 326.64C61.5081 323.147 62.8638 319.752 64.5083 316.495C66.2956 312.95 68.5274 309.646 71.15 306.665C76.9763 300.104 84.4179 295.181 92.7355 292.386C101.856 289.341 111.357 287.581 120.963 287.155C130.925 286.491 141.286 286.508 151.863 286.259L260.206 284.333L293.033 283.851L301.966 283.752H304.29L305.054 283.934Z" fill="#263238"/> <path d="M174.312 340.821C174.312 340.821 173.764 341.086 172.917 341.734C171.72 342.652 170.824 343.907 170.343 345.337C169.956 346.356 169.837 347.458 169.997 348.536C170.156 349.615 170.59 350.634 171.256 351.497C172.007 352.633 173.089 353.511 174.355 354.012C175.621 354.512 177.011 354.612 178.335 354.297C179.66 353.981 180.856 353.266 181.761 352.249C182.665 351.231 183.236 349.96 183.394 348.608C183.597 347.535 183.523 346.428 183.18 345.391C182.838 344.354 182.237 343.421 181.435 342.68C180.358 341.628 178.995 340.918 177.516 340.638C176.47 340.455 175.856 340.522 175.856 340.455C176.386 340.26 176.959 340.208 177.516 340.306C178.87 340.461 180.159 340.972 181.252 341.785C182.346 342.598 183.205 343.686 183.743 344.938C184.232 346.149 184.364 347.474 184.125 348.757C183.91 350.243 183.254 351.631 182.241 352.739C181.228 353.848 179.906 354.626 178.445 354.973C176.984 355.321 175.453 355.221 174.05 354.687C172.646 354.153 171.436 353.209 170.576 351.979C169.788 350.943 169.31 349.705 169.197 348.409C169.123 347.277 169.298 346.143 169.712 345.088C170.279 343.58 171.315 342.293 172.668 341.418C173.152 341.076 173.72 340.869 174.312 340.821Z" fill="#263238"/> <path d="M167.322 383.842C166.69 382.243 166.266 380.569 166.06 378.861C165.25 374.806 165.341 370.623 166.326 366.607C167.39 362.538 169.944 359.018 173.482 356.744C174.552 356.082 175.725 355.605 176.953 355.333C177.392 355.194 177.856 355.149 178.314 355.2C176.733 355.707 175.217 356.398 173.798 357.259C170.526 359.572 168.174 362.964 167.156 366.839C166.22 370.744 166.05 374.793 166.658 378.761C167.056 381.916 167.455 383.809 167.322 383.842Z" fill="#263238"/> <path d="M173.365 315.25C172.484 316.421 171.669 317.64 170.925 318.903C169.238 322.01 168.741 325.625 169.527 329.072C170.312 332.519 172.326 335.562 175.192 337.632C176.413 338.457 177.682 339.205 178.994 339.874C178.583 339.872 178.177 339.788 177.799 339.625C176.753 339.256 175.76 338.754 174.843 338.131C171.71 336.084 169.494 332.901 168.66 329.253C167.827 325.604 168.443 321.775 170.377 318.571C170.934 317.611 171.615 316.729 172.402 315.947C172.967 315.366 173.332 315.134 173.365 315.25Z" fill="#263238"/> <path d="M171.838 348.458C168.803 348.967 165.798 349.644 162.838 350.484C159.971 351.606 157.167 352.881 154.437 354.303C159.235 350.128 165.492 348.027 171.838 348.458Z" fill="#263238"/> <g opacity="0.3"> <path opacity="0.3" d="M118.189 449.645C134.31 461.998 154.382 468.049 174.644 466.664C170.437 486.179 166.242 505.701 162.058 525.227C160.945 530.424 159.899 536.219 162.622 540.802C166.441 547.228 175.325 547.859 182.797 547.759C191.099 547.643 199.766 547.444 207.138 543.591C217.582 538.145 223.195 526.589 227.246 515.53C231.298 504.472 234.801 492.616 243.136 484.298C252.705 495.199 265.656 502.572 279.915 505.236C284.066 505.999 288.781 506.232 292.102 503.575C295.423 500.919 296.37 496.236 295.523 492.118C294.418 488.06 292.578 484.238 290.093 480.844L265.785 443.152C262.464 438.055 258.91 432.675 253.348 430.251C248.981 428.341 244.033 428.59 239.284 428.806C199.598 431.118 160.207 437.071 121.61 446.589" fill="black"/> </g> <g opacity="0.3"> <path opacity="0.3" d="M248.068 262.78C238.238 288.749 201.576 294.71 188.642 319.235C175.906 343.543 191.697 375.689 178.579 399.865C173.714 408.798 165.296 415.456 160.614 424.456C157.426 430.5 155.782 437.739 150.651 442.206C144.64 447.436 135.325 447.337 128.102 443.949C120.88 440.562 115.334 434.485 110.186 428.391C100.556 416.967 91.5067 404.614 86.9405 390.351C79.2029 365.826 86.3095 338.081 101.884 317.591C117.459 297.101 140.522 283.27 164.881 274.985C189.239 266.699 215.009 263.577 240.629 261.17" fill="black"/> </g> <path d="M130.012 194.487C133.733 188.687 138.878 183.937 144.956 180.689C151.077 177.432 158.232 176.711 164.881 178.68C168.147 179.717 171.089 181.584 173.417 184.098C175.746 186.613 177.381 189.689 178.164 193.026C179.21 198.356 177.782 204.3 180.538 208.983C183.693 214.363 191.315 216.056 194.004 221.702C194.711 223.45 195.005 225.338 194.864 227.218C194.723 229.098 194.15 230.921 193.191 232.544C191.255 235.776 188.791 238.661 185.902 241.079C187.642 242.169 189.181 243.55 190.451 245.163C191.082 245.976 191.5 246.933 191.668 247.947C191.836 248.962 191.749 250.002 191.414 250.975C190.331 252.897 188.546 254.325 186.433 254.96C177.157 258.87 166.902 259.832 157.06 257.716C154.437 257.152 151.431 256.438 149.273 258.032" fill="#263238"/> <path d="M196.479 214.197L191.149 230.452L227.445 251.058L190.916 252.237L193.639 281.842L263.958 264.574C263.958 264.574 268.176 235.898 196.479 214.197L191.497 213.001C190.599 212.79 189.766 212.364 189.068 211.759C188.371 211.155 187.832 210.39 187.496 209.531C186.926 208.132 185.862 206.992 184.507 206.326L178.513 203.205V207.953L181.834 211.822L181.302 221.004C181.163 222.971 181.728 224.923 182.896 226.511C184.064 228.099 185.759 229.219 187.678 229.672L190.999 230.452" fill="#B78876"/> <path d="M116.961 272.975C115.517 272.975 102.117 276.296 94.4459 285.993C86.7747 295.69 75.6831 332.385 75.6831 332.385L103.91 337.267L116.098 367.869C116.098 367.869 188.243 358.421 184.408 354.585C180.7 351.174 176.821 347.954 172.785 344.938L189.389 289.63L209.314 278.87L202.589 251.241L162.457 256.67L116.961 272.975Z" fill="#FAFAFA"/> <path d="M185.935 302.415C185.935 302.647 163.436 302.847 135.707 302.847C107.978 302.847 85.4624 302.647 85.4624 302.415C85.4624 302.182 107.961 301.983 135.707 301.983C163.453 301.983 185.935 302.182 185.935 302.415Z" fill="#FF725E"/> <path d="M181.435 318.67C181.435 318.903 158.936 319.102 131.207 319.102C103.478 319.102 80.9629 318.903 80.9629 318.67C80.9629 318.438 103.445 318.239 131.207 318.239C158.97 318.239 181.435 318.438 181.435 318.67Z" fill="#FF725E"/> <path d="M181.435 336.221C181.435 336.47 164.399 336.669 143.378 336.669C122.357 336.669 105.338 336.47 105.338 336.221C105.338 335.972 122.374 335.789 143.378 335.789C164.383 335.789 181.435 335.989 181.435 336.221Z" fill="#FF725E"/> <path d="M187.263 353.141C187.263 353.373 170.227 353.572 149.223 353.572C128.219 353.572 111.183 353.373 111.183 353.141C111.183 352.908 128.202 352.709 149.223 352.709C170.244 352.709 187.263 352.892 187.263 353.141Z" fill="#FF725E"/> <path d="M205.279 280.547C205.279 280.796 194.021 280.979 180.157 280.979C166.292 280.979 155.018 280.796 155.018 280.547C155.018 280.298 166.259 280.115 180.157 280.115C194.055 280.115 205.279 280.381 205.279 280.547Z" fill="#FF725E"/> <path d="M207.105 263.312C207.105 263.561 195.897 264.009 182.083 264.325C168.268 264.64 157.027 264.723 157.027 264.491C157.027 264.258 168.218 263.793 182.049 263.461C195.881 263.129 207.105 263.079 207.105 263.312Z" fill="#FF725E"/> <path d="M109.788 310.85C109.17 315.429 108.266 319.966 107.081 324.432C106.178 328.967 104.997 333.442 103.544 337.832C104.162 333.253 105.061 328.718 106.234 324.249C107.129 319.711 108.316 315.235 109.788 310.85Z" fill="#263238"/> <path d="M188.326 518.17L167.305 584.471L192.643 587.028L216.453 529.412L188.326 518.17Z" fill="#B78876"/> <path d="M206.873 561.225L194.801 591.113C194.801 591.113 221.169 613.446 219.475 619.191L160.597 597.921L177.483 550.499L206.873 561.225Z" fill="#455A64"/> <path d="M177.517 582.014C176.888 581.981 176.269 582.182 175.779 582.577C175.288 582.972 174.961 583.534 174.86 584.156C174.802 584.782 174.987 585.407 175.376 585.901C175.766 586.395 176.33 586.722 176.952 586.812C177.618 586.845 178.272 586.631 178.79 586.212C179.308 585.792 179.653 585.196 179.758 584.538C179.758 583.276 178.513 581.831 177.268 582.014" fill="#E0E0E0"/> <path d="M160.597 597.921L162.49 593.205L218.247 615.421C218.247 615.421 220.455 617.497 219.475 619.24L160.597 597.921Z" fill="#E0E0E0"/> <path d="M195.864 591.212C195.748 591.495 194.204 591.113 192.543 591.511C190.883 591.91 189.604 592.873 189.388 592.657C189.173 592.441 190.185 590.997 192.311 590.482C194.436 589.967 196.013 590.963 195.864 591.212Z" fill="#263238"/> <path d="M201.111 595.994C201.111 596.31 199.65 596.343 198.239 597.207C196.827 598.07 196.13 599.183 195.798 599.183C195.466 599.183 195.914 597.373 197.691 596.343C199.468 595.314 201.211 595.729 201.111 595.994Z" fill="#263238"/> <path d="M201.941 604.662C201.659 604.662 201.775 603.002 203.087 601.74C204.399 600.478 205.976 600.295 206.009 600.577C206.043 600.86 204.897 601.408 203.851 602.487C202.805 603.566 202.24 604.745 201.941 604.662Z" fill="#263238"/> <path d="M197.791 584.089C197.575 584.305 196.396 583.425 194.735 582.944C193.075 582.462 191.614 582.529 191.547 582.23C191.481 581.931 193.092 581.333 195.034 581.931C196.977 582.528 198.073 583.907 197.791 584.089Z" fill="#263238"/> <path d="M200.182 577.995C199.123 577.904 198.109 577.531 197.243 576.916C196.244 576.345 195.323 575.647 194.503 574.841C194.002 574.377 193.541 573.871 193.125 573.33C192.863 573.027 192.65 572.686 192.494 572.317C192.378 572.045 192.356 571.743 192.431 571.457C192.506 571.171 192.674 570.919 192.909 570.739C193.125 570.591 193.373 570.495 193.632 570.46C193.892 570.426 194.156 570.453 194.404 570.54C194.779 570.678 195.136 570.862 195.466 571.088C196.058 571.468 196.614 571.902 197.127 572.383C197.959 573.194 198.659 574.129 199.202 575.156C199.796 576.05 200.098 577.106 200.066 578.178C199.899 578.178 199.567 577.082 198.555 575.538C197.967 574.642 197.263 573.827 196.462 573.114C195.997 572.684 195.491 572.3 194.951 571.968C194.387 571.586 193.856 571.387 193.606 571.603C193.357 571.819 193.49 571.736 193.606 571.952C193.736 572.219 193.898 572.47 194.088 572.699C194.472 573.207 194.882 573.694 195.317 574.16C196.073 574.938 196.895 575.649 197.774 576.285C198.616 576.798 199.42 577.37 200.182 577.995Z" fill="#263238"/> <path d="M199.65 578.278C199.397 577.23 199.49 576.129 199.915 575.139C200.462 573.361 201.491 571.769 202.888 570.54C203.186 570.21 203.564 569.962 203.986 569.82C204.407 569.678 204.858 569.645 205.295 569.727C205.556 569.831 205.783 570.005 205.95 570.231C206.117 570.457 206.218 570.725 206.242 571.005C206.271 571.406 206.237 571.81 206.142 572.201C206.007 572.892 205.767 573.559 205.428 574.176C204.871 575.223 204.06 576.114 203.07 576.767C201.41 577.879 200.032 577.796 200.048 577.68C200.936 577.229 201.796 576.725 202.622 576.169C203.44 575.507 204.103 574.674 204.565 573.728C204.824 573.201 205.013 572.643 205.129 572.068C205.262 571.42 205.212 570.822 204.946 570.806C204.681 570.789 203.983 570.988 203.568 571.404C203.09 571.804 202.651 572.249 202.257 572.732C201.583 573.566 201.024 574.488 200.596 575.472C199.915 577.099 199.832 578.294 199.65 578.278Z" fill="#263238"/> <path d="M268.109 455.755L299.491 510.3L325.161 493.829L293.646 438.453L268.109 455.755Z" fill="#B78876"/> <path d="M316.295 478.237L332.517 506.199C332.517 506.199 366.323 499.092 369.827 503.957L316.826 537.332L289.778 494.841L316.295 478.237Z" fill="#455A64"/> <path d="M314.668 514.185C314.246 514.652 314.013 515.259 314.013 515.887C314.013 516.516 314.246 517.123 314.668 517.589C315.121 518.005 315.713 518.235 316.328 518.235C316.943 518.235 317.535 518.005 317.988 517.589C318.424 517.082 318.657 516.432 318.641 515.764C318.626 515.095 318.364 514.456 317.905 513.97C317.377 513.575 316.718 513.397 316.062 513.475C315.407 513.552 314.807 513.878 314.385 514.385" fill="#E0E0E0"/> <path d="M316.827 537.298L314.27 532.915L366.042 502.562C366.042 502.562 369.047 502.097 369.827 503.924L316.827 537.298Z" fill="#E0E0E0"/> <path d="M333.198 505.352C333.347 505.618 332.135 506.547 331.388 508.175C330.641 509.802 330.641 511.329 330.342 511.379C330.043 511.429 329.479 509.719 330.342 507.726C331.205 505.734 333.098 505.07 333.198 505.352Z" fill="#263238"/> <path d="M340.205 504.14C340.421 504.356 339.574 505.501 339.392 507.162C339.209 508.822 339.674 510.117 339.392 510.267C339.109 510.416 338.047 509.071 338.312 506.946C338.578 504.821 340.039 503.907 340.205 504.14Z" fill="#263238"/> <path d="M347.561 508.806C347.345 509.022 346.183 507.959 345.9 506.116C345.618 504.273 346.531 502.961 346.78 503.094C347.029 503.227 346.78 504.472 346.963 505.983C347.146 507.494 347.793 508.623 347.561 508.806Z" fill="#263238"/> <path d="M328.798 499.391C328.798 499.707 327.42 500.088 326.025 501.052C324.63 502.015 323.783 503.243 323.501 503.11C323.219 502.978 323.75 501.35 325.411 500.171C327.071 498.993 328.798 499.109 328.798 499.391Z" fill="#263238"/> <path d="M325.427 493.829C325.427 493.928 324.58 494.742 322.77 495.489C321.7 495.911 320.586 496.212 319.449 496.386C318.772 496.471 318.09 496.521 317.407 496.535C317.004 496.55 316.601 496.505 316.212 496.402C315.928 496.325 315.678 496.156 315.501 495.922C315.324 495.687 315.229 495.401 315.232 495.107C315.246 494.843 315.322 494.587 315.455 494.359C315.588 494.131 315.773 493.937 315.996 493.795C316.333 493.589 316.696 493.427 317.075 493.314C318.831 492.712 320.711 492.569 322.538 492.899C324.497 493.264 325.527 493.978 325.46 494.078C325.394 494.177 324.298 493.795 322.455 493.646C321.378 493.566 320.296 493.622 319.234 493.812C318.618 493.922 318.013 494.083 317.424 494.293C316.76 494.509 316.278 494.808 316.295 495.14C316.311 495.472 316.295 495.306 316.544 495.406C316.832 495.473 317.128 495.501 317.424 495.489C319.144 495.512 320.857 495.271 322.505 494.775C323.454 494.388 324.431 494.072 325.427 493.829Z" fill="#263238"/> <path d="M325.327 494.41C325.327 494.509 324.165 493.895 323.003 492.284C322.336 491.332 321.842 490.27 321.541 489.146C321.362 488.483 321.245 487.805 321.193 487.12C321.118 486.679 321.158 486.225 321.309 485.803C321.46 485.382 321.717 485.006 322.056 484.713C322.29 484.565 322.56 484.487 322.836 484.487C323.113 484.487 323.383 484.565 323.617 484.713C323.952 484.935 324.253 485.204 324.514 485.51C324.971 486.053 325.351 486.656 325.643 487.303C326.115 488.39 326.314 489.575 326.224 490.757C326.058 492.783 325.178 493.779 325.095 493.696C325.278 492.719 325.406 491.732 325.477 490.74C325.455 489.692 325.206 488.661 324.746 487.718C324.483 487.168 324.142 486.66 323.733 486.207C323.301 485.709 322.803 485.377 322.621 485.576C322.455 485.774 322.335 486.006 322.269 486.256C322.203 486.506 322.192 486.767 322.239 487.021C322.268 487.647 322.352 488.269 322.488 488.881C322.731 489.922 323.123 490.922 323.65 491.853C324.547 493.48 325.443 494.277 325.327 494.41Z" fill="#263238"/> <path d="M174.693 448.084L236.328 406.175L275.199 481.84L310.533 462.696C310.533 462.696 269.836 363.402 255.224 360.247C247.038 358.454 153.158 376.37 153.158 376.37L142.664 371.107L116.097 367.869L114.436 372.169C109.799 383.912 107.666 396.495 108.175 409.11C108.684 421.726 111.824 434.096 117.392 445.427L118.687 448.067L174.693 448.084Z" fill="#263238"/> <path d="M153.059 395.648C153.524 397.723 204.532 445.46 204.532 445.46L175.142 544.239L219.011 552.624L263.062 433.638L182.548 354.652L145.703 370.044L153.059 395.648Z" fill="#263238"/> <path d="M236.329 406.158C236.461 406.357 222.763 415.888 205.76 427.461C188.757 439.035 174.843 448.25 174.694 448.084C174.544 447.918 188.243 438.337 205.262 426.764C222.281 415.191 236.179 405.959 236.329 406.158Z" fill="#455A64"/> <path d="M267.96 467.727C267.392 467.017 266.892 466.255 266.466 465.452C265.553 463.957 264.291 461.749 262.746 459.026C259.675 453.563 255.59 445.925 251.273 437.441C246.956 428.956 243.137 421.135 240.464 415.473C239.119 412.634 238.056 410.326 237.342 408.732C236.922 407.926 236.583 407.08 236.329 406.208C236.83 406.965 237.274 407.759 237.657 408.582L240.978 415.224C243.867 420.953 247.736 428.607 252.003 437.092C256.271 445.577 260.306 453.281 263.245 458.81C264.656 461.483 265.835 463.692 266.731 465.369C267.201 466.122 267.612 466.91 267.96 467.727Z" fill="#455A64"/> <path d="M213.681 427.793C212.371 431.435 210.794 434.976 208.965 438.387C207.385 441.915 205.548 445.323 203.469 448.582C206.353 441.409 209.766 434.46 213.681 427.793Z" fill="#455A64"/> <path d="M75.6827 332.385L65.7202 369.18C64.4343 373.94 65.0288 379.011 67.3806 383.344C69.3872 387.069 72.5627 390.031 76.418 391.774C80.2734 393.517 84.5949 393.945 88.7171 392.991L167.67 373.547L159.368 357.142L97.1686 362.539L103.81 337.267L75.6827 332.385Z" fill="#B78876"/> <path d="M110.701 388.225L111.731 382.879L154.52 375.191L166.956 309.222L246.424 299.758L233.074 370.177L110.701 388.225Z" fill="#455A64"/> <path d="M202.639 344.756C201.726 344.716 200.846 344.397 200.119 343.843C199.391 343.289 198.851 342.526 198.569 341.656C198.288 340.786 198.28 339.85 198.545 338.975C198.811 338.1 199.337 337.327 200.055 336.76C200.772 336.193 201.646 335.859 202.558 335.802C203.471 335.746 204.379 335.97 205.161 336.444C205.943 336.919 206.561 337.621 206.932 338.456C207.303 339.292 207.41 340.221 207.238 341.119C207.105 342.209 206.548 343.202 205.686 343.883C204.825 344.564 203.73 344.878 202.639 344.756Z" fill="#EBEBEB"/> <path d="M122.324 199.02L122.474 203.786L124.267 275.184C124.483 283.486 131.772 289.895 140.639 289.596C149.605 289.314 156.811 282.291 156.745 273.905C156.662 265.122 156.745 255.857 156.745 255.857C156.745 255.857 168.052 253.847 170.227 239.036C171.307 231.681 170.792 219.626 170.061 209.78C169.906 207.68 169.326 205.633 168.359 203.763C167.391 201.892 166.055 200.237 164.43 198.897C162.806 197.557 160.928 196.559 158.908 195.964C156.888 195.369 154.768 195.188 152.677 195.434L122.324 199.02Z" fill="#B78876"/> <path d="M164.333 218.065C164.342 218.561 164.159 219.04 163.821 219.403C163.483 219.765 163.018 219.982 162.523 220.008C162.285 220.028 162.046 220.002 161.818 219.929C161.591 219.857 161.38 219.74 161.198 219.586C161.016 219.431 160.866 219.242 160.757 219.03C160.648 218.817 160.583 218.586 160.564 218.348C160.554 217.855 160.736 217.378 161.07 217.016C161.404 216.654 161.865 216.435 162.357 216.405C162.839 216.363 163.318 216.515 163.689 216.826C164.059 217.138 164.291 217.583 164.333 218.065Z" fill="#263238"/> <path d="M167.521 216.139C167.289 216.388 165.861 215.342 163.802 215.359C161.743 215.375 160.282 216.438 160.049 216.189C159.817 215.94 160.182 215.624 160.83 215.143C161.704 214.523 162.747 214.187 163.818 214.18C164.88 214.17 165.918 214.489 166.791 215.093C167.422 215.624 167.637 216.023 167.521 216.139Z" fill="#263238"/> <path d="M144.208 218.796C144.222 219.292 144.04 219.774 143.701 220.138C143.363 220.501 142.895 220.717 142.399 220.738C141.916 220.78 141.438 220.628 141.067 220.317C140.697 220.006 140.465 219.56 140.423 219.078C140.414 218.584 140.598 218.107 140.936 217.747C141.274 217.387 141.739 217.173 142.233 217.152C142.47 217.129 142.71 217.154 142.939 217.224C143.167 217.294 143.379 217.409 143.563 217.562C143.747 217.715 143.898 217.903 144.009 218.114C144.12 218.326 144.188 218.558 144.208 218.796Z" fill="#263238"/> <path d="M147.48 216.754C147.247 217.003 145.819 215.957 143.76 215.973C141.701 215.99 140.24 217.052 140.008 216.803C139.775 216.554 140.124 216.239 140.772 215.757C141.652 215.137 142.7 214.801 143.777 214.794C144.833 214.784 145.866 215.103 146.732 215.707C147.363 216.189 147.596 216.637 147.48 216.754Z" fill="#263238"/> <path d="M155.051 231.78C156.128 231.433 157.243 231.222 158.372 231.149C158.903 231.149 159.385 230.983 159.468 230.618C159.507 230.083 159.379 229.55 159.102 229.091L157.525 225.139C156.054 221.798 154.855 218.344 153.938 214.811C155.682 218.002 157.154 221.335 158.339 224.773L159.866 228.742C160.196 229.369 160.301 230.089 160.165 230.784C160.091 230.969 159.976 231.135 159.829 231.27C159.683 231.405 159.508 231.505 159.318 231.565C159.026 231.645 158.725 231.689 158.422 231.697C157.306 231.871 156.173 231.899 155.051 231.78Z" fill="#263238"/> <path d="M156.744 255.907C149.769 256.13 142.869 254.405 136.819 250.925C136.819 250.925 141.801 261.021 156.512 259.46L156.744 255.907Z" fill="#AA6550"/> <path d="M148.293 213.383C148.077 213.931 146.051 213.582 143.644 213.748C141.236 213.914 139.277 214.495 138.978 213.981C138.845 213.732 139.21 213.234 140.007 212.735C141.074 212.109 142.276 211.751 143.511 211.689C144.741 211.597 145.975 211.796 147.114 212.271C147.977 212.669 148.393 213.134 148.293 213.383Z" fill="#263238"/> <path d="M166.674 208.983C166.309 209.448 164.897 208.983 163.22 208.983C161.543 208.983 160.099 209.331 159.767 208.85C159.435 208.368 159.767 208.153 160.447 207.704C161.283 207.164 162.26 206.887 163.255 206.908C164.249 206.928 165.214 207.246 166.026 207.82C166.624 208.352 166.823 208.833 166.674 208.983Z" fill="#263238"/> <path d="M150.452 238.084C151.08 237.901 151.743 237.898 152.377 238.073L154.213 238.397C154.73 238.509 155.308 238.691 155.958 238.864C156.602 238.974 157.208 239.268 157.711 239.713C158.142 240.178 158.174 241.09 157.414 241.997C156.875 242.522 156.223 242.901 155.513 243.104C154.803 243.306 154.056 243.325 153.333 243.16C152.61 242.994 151.932 242.649 151.357 242.153C150.781 241.657 150.324 241.024 150.023 240.307C149.514 239.164 149.886 238.32 150.452 238.084Z" fill="#AA6550"/> <path d="M147.444 235.131C147.788 234.913 149.057 238.469 152.798 239.866C155.113 240.445 157.536 240.403 159.839 239.744C159.839 239.744 159.326 240.587 157.951 241.15C156.137 241.874 154.136 241.897 152.317 241.214C150.49 240.539 148.966 239.201 148.025 237.447C147.32 236.123 147.278 235.17 147.444 235.131Z" fill="#263238"/> <path d="M139.427 189.423C141.707 193.019 142.686 197.288 142.199 201.518C141.713 205.749 139.791 209.684 136.753 212.669C133.217 215.99 127.953 218.53 127.604 223.345C127.206 228.675 133.383 232.66 133.383 238.007C133.383 243.353 127.056 247.006 125.811 252.37C124.815 256.687 127.472 261.004 130.394 264.275C133.316 267.546 137.036 270.435 138.696 274.486C139.577 276.769 139.988 279.207 139.902 281.652C139.817 284.098 139.237 286.501 138.198 288.716C136.096 293.12 133.292 297.152 129.896 300.655C125.48 299.074 120.884 298.053 116.214 297.616C116.496 295.856 116.795 294.079 117.094 292.319C117.05 293.348 116.681 294.337 116.039 295.142C115.398 295.948 114.517 296.529 113.524 296.803C111.522 297.312 109.428 297.34 107.414 296.886C101.19 295.902 95.0744 294.328 89.1489 292.187C91.7988 289.798 94.0421 286.994 95.7906 283.884C96.6524 282.311 97.1192 280.553 97.151 278.76C97.1828 276.966 96.7787 275.192 95.9733 273.59C94.5121 271.099 91.8222 269.505 90.4773 266.948C88.4682 263.129 90.1286 258.281 92.9845 255.043C95.8404 251.805 99.7258 249.696 103.13 247.04C106.534 244.383 109.655 240.796 109.921 236.479C110.286 230.9 105.753 225.803 106.318 220.24C106.949 213.898 113.657 210.012 116.28 204.201C118.19 200 117.941 194.819 120.863 191.249C122.009 189.975 123.434 188.983 125.027 188.349C126.62 187.716 128.337 187.458 130.045 187.596C133.459 187.893 136.746 189.034 139.609 190.917" fill="#263238"/> <path d="M157.941 257.5C155.284 258.962 155.433 263.03 157.061 265.603C158.688 268.177 161.295 270.02 162.905 272.61C164.267 274.975 164.742 277.747 164.246 280.431C163.75 283.114 162.315 285.533 160.199 287.255L166.575 289.663L167.97 288.882L171.888 286.657L170.045 291.19H174.13C176.3 291.235 178.439 290.671 180.305 289.563C182.17 288.455 183.689 286.846 184.688 284.919C185.686 282.992 186.126 280.824 185.956 278.661C185.786 276.497 185.014 274.424 183.727 272.677C182.067 270.352 179.443 268.509 178.862 265.703C178.181 262.299 180.755 259.227 182 256.006C182.991 253.285 183.094 250.32 182.295 247.536C181.495 244.753 179.834 242.295 177.55 240.514" fill="#263238"/> <path d="M581.144 42.5381L344.022 3.57608L284.878 363.526L522 402.488L581.144 42.5381Z" fill="#F1F1F1"/> <path d="M577.719 60.8013L340.528 21.828L315.075 176.735L552.265 215.709L577.719 60.8013Z" fill="#B9CAD2" fill-opacity="0.37"/> <path d="M519.418 263.133C519.39 263.305 478.733 256.755 428.632 248.522C378.532 240.29 337.916 233.487 337.945 233.315C337.973 233.142 378.618 239.691 428.73 247.925C478.842 256.159 519.445 262.972 519.418 263.133Z" fill="black"/> <path d="M479.082 266.473C479.056 266.633 455.752 262.946 427.026 258.226C398.3 253.506 375.03 249.541 375.056 249.38C375.083 249.219 398.398 252.909 427.124 257.628C455.85 262.348 479.116 266.266 479.082 266.473Z" fill="black"/> <path d="M482.891 140.778C487.272 137.858 490.743 133.764 492.905 128.964C495.067 124.163 495.833 118.851 495.116 113.636C494.399 108.42 492.228 103.512 488.85 99.4729C485.473 95.4342 481.026 92.4284 476.02 90.7997C471.013 89.171 465.649 88.9853 460.542 90.2638C455.435 91.5423 450.791 94.2334 447.143 98.0289C443.494 101.824 440.988 106.571 439.912 111.724C438.836 116.878 439.233 122.23 441.058 127.169L434.568 131.493L434.389 141.053L426.041 137.228L417.921 142.641L417.797 152.152L409.47 148.271L402.49 152.916L402.374 158.795L397.29 156.426L393.235 159.133L391.286 167.695L403.65 173.065L451.932 140.893C456.534 143.915 461.923 145.516 467.429 145.495C472.934 145.475 478.312 143.834 482.891 140.778ZM484.344 106.089C485.228 107.413 485.698 108.969 485.697 110.56C485.695 112.151 485.222 113.706 484.337 115.028C483.451 116.35 482.194 117.38 480.723 117.987C479.252 118.595 477.634 118.752 476.074 118.439C474.514 118.127 473.082 117.359 471.958 116.232C470.835 115.105 470.071 113.67 469.763 112.109C469.455 110.548 469.617 108.931 470.229 107.462C470.84 105.993 471.874 104.738 473.199 103.857C474.973 102.676 477.144 102.248 479.233 102.667C481.323 103.085 483.162 104.316 484.344 106.089Z" fill="#455A64"/> <path d="M484.345 106.089C484.345 106.089 483.907 105.522 482.96 104.682C481.605 103.538 479.914 102.866 478.143 102.77C476.708 102.691 475.279 103.012 474.016 103.699C472.753 104.386 471.707 105.411 470.994 106.659C470.281 107.907 469.929 109.329 469.979 110.765C470.028 112.202 470.477 113.596 471.274 114.792C472.071 115.988 473.186 116.938 474.493 117.537C475.8 118.135 477.248 118.357 478.674 118.179C480.1 118.001 481.449 117.429 482.568 116.528C483.688 115.627 484.535 114.431 485.013 113.076C485.615 111.408 485.645 109.587 485.097 107.9C484.711 106.657 484.282 106.114 484.347 106.078C484.412 106.041 484.479 106.206 484.669 106.485C484.949 106.888 485.183 107.322 485.365 107.779C486.038 109.516 486.082 111.435 485.488 113.201C485.139 114.253 484.583 115.224 483.852 116.056C483.121 116.889 482.23 117.566 481.232 118.048C480.234 118.53 479.15 118.806 478.043 118.861C476.937 118.916 475.83 118.748 474.79 118.368C473.111 117.766 471.671 116.64 470.683 115.156C469.695 113.672 469.21 111.909 469.302 110.129C469.351 109.023 469.622 107.938 470.099 106.938C470.575 105.939 471.247 105.045 472.075 104.31C472.903 103.575 473.87 103.013 474.919 102.659C475.968 102.304 477.078 102.164 478.182 102.246C480.045 102.378 481.804 103.159 483.151 104.454C483.527 104.793 483.86 105.176 484.143 105.596C484.369 105.94 484.415 106.089 484.345 106.089Z" fill="#455A64"/> <path d="M482.892 140.778C482.892 140.778 482.743 140.895 482.427 141.091L481.021 142.039C479.15 143.112 477.165 143.973 475.103 144.605C471.188 145.747 467.072 146.026 463.039 145.423C459.006 144.819 455.152 143.347 451.743 141.109L451.973 141.147L403.749 173.399L403.613 173.507L403.441 173.479L391.075 168.12L390.82 168.019L390.865 167.744C391.47 165.071 392.127 162.148 392.803 159.18L392.849 158.904L392.956 158.828L397.102 156.064L397.249 155.959L397.432 155.989L402.517 158.358L402.031 158.656C402.06 156.832 402.105 154.834 402.148 152.777L402.176 152.605L402.321 152.511L409.303 147.854L409.463 147.739L409.647 147.769L417.974 151.65L417.487 151.959C417.549 148.926 417.61 145.68 417.677 142.4L417.708 142.217L417.864 142.124L420.012 140.684L425.985 136.712L426.145 136.596L426.329 136.627L434.667 140.509L434.169 140.817C434.234 137.595 434.298 134.409 434.359 131.258L434.387 131.086L434.535 130.98L441.025 126.656L440.9 127.06C439.358 122.833 438.837 118.301 439.381 113.835C439.626 111.674 440.133 109.551 440.891 107.513C441.608 105.504 442.556 103.585 443.718 101.796C446.649 97.2706 450.814 93.6772 455.72 91.4396C460.626 89.202 466.069 88.4134 471.409 89.1667C476.748 89.9201 481.761 92.184 485.856 95.6917C489.952 99.1994 492.959 103.805 494.524 108.965C495.987 113.831 496.104 119.003 494.861 123.93C493.957 127.607 492.306 131.058 490.01 134.068C489.781 134.384 489.556 134.677 489.331 134.971L488.625 135.751C488.153 136.251 487.747 136.786 487.309 137.151C486.416 137.924 485.709 138.634 485.048 139.138L483.419 140.44L482.903 140.779C482.903 140.779 483.056 140.639 483.381 140.386L484.838 139.269C485.472 138.783 486.215 138.068 487.042 137.272C487.464 136.858 487.853 136.355 488.311 135.865C488.542 135.608 488.773 135.351 489.008 135.071L489.673 134.178C491.906 131.192 493.516 127.788 494.406 124.167C495.295 120.546 495.447 116.784 494.852 113.103C494.257 109.423 492.928 105.9 490.943 102.744C488.958 99.5879 486.358 96.8638 483.298 94.7337C480.238 92.6036 476.781 91.1111 473.132 90.3452C469.484 89.5792 465.718 89.5554 462.06 90.2753C458.402 90.9951 454.926 92.4438 451.84 94.5351C448.753 96.6263 446.119 99.3174 444.094 102.448C442.966 104.199 442.04 106.073 441.336 108.034C440.605 110.028 440.114 112.101 439.873 114.211C439.36 118.559 439.876 122.967 441.38 127.08L441.469 127.33L441.243 127.482L434.764 131.808L434.917 131.526C434.858 134.662 434.793 137.852 434.724 141.097L434.72 141.627L434.226 141.404L425.898 137.523L426.245 137.497L420.272 141.47L418.142 142.878L418.296 142.585C418.229 145.865 418.165 149.122 418.105 152.143L418.099 152.685L417.605 152.462L409.28 148.57L409.614 148.542C407.215 150.153 404.832 151.732 402.633 153.199L402.797 152.919C402.75 154.928 402.705 156.926 402.669 158.796L402.655 159.312L402.183 159.094L397.111 156.727L397.434 156.697L393.368 159.403L393.508 159.201C392.831 162.169 392.162 165.091 391.558 167.763L391.372 167.391L403.736 172.76L403.436 172.794L451.764 140.7L451.882 140.625L452.008 140.646C455.366 142.873 459.165 144.35 463.146 144.976C467.127 145.601 471.196 145.361 475.075 144.271C477.125 143.677 479.107 142.872 480.99 141.869L482.414 141.029L482.892 140.778Z" fill="#455A64"/> <path d="M482.477 137.489C486.856 134.571 490.324 130.48 492.486 125.682C494.647 120.885 495.414 115.575 494.698 110.362C493.983 105.149 491.813 100.243 488.439 96.2058C485.064 92.1685 480.621 89.163 475.617 87.5337C470.614 85.9043 465.253 85.7169 460.148 86.9929C455.043 88.2689 450.401 90.9568 446.753 94.7487C443.104 98.5405 440.598 103.283 439.52 108.434C438.442 113.584 438.836 118.934 440.657 123.87L434.18 128.185L433.988 137.755L425.662 133.863L417.552 139.289L417.361 148.848L409.034 144.967L402.053 149.624L401.924 155.5L396.85 153.145L392.784 155.85L390.835 164.412L403.201 169.771L451.483 137.598C456.086 140.633 461.483 142.242 466.996 142.222C472.51 142.203 477.895 140.556 482.477 137.489ZM483.976 102.808C484.859 104.132 485.33 105.688 485.328 107.279C485.327 108.87 484.854 110.425 483.968 111.747C483.083 113.069 481.825 114.099 480.354 114.706C478.884 115.314 477.266 115.471 475.706 115.158C474.145 114.846 472.713 114.078 471.589 112.951C470.466 111.824 469.702 110.389 469.394 108.828C469.086 107.267 469.248 105.65 469.86 104.181C470.472 102.712 471.505 101.457 472.83 100.576C473.708 99.9896 474.693 99.5824 475.729 99.3774C476.765 99.1723 477.831 99.1735 478.866 99.3809C479.901 99.5882 480.885 99.9977 481.762 100.586C482.639 101.174 483.391 101.929 483.976 102.808Z" fill="#407BFF"/> <path d="M483.975 102.808C483.975 102.808 483.538 102.241 482.591 101.401C481.256 100.229 479.568 99.5367 477.794 99.4334C476.363 99.3569 474.938 99.6803 473.679 100.367C472.421 101.054 471.378 102.078 470.668 103.324C469.958 104.569 469.608 105.988 469.658 107.421C469.708 108.854 470.156 110.245 470.952 111.438C471.747 112.631 472.858 113.58 474.162 114.177C475.465 114.774 476.909 114.998 478.333 114.821C479.756 114.645 481.101 114.076 482.22 113.179C483.338 112.281 484.185 111.09 484.665 109.739C485.264 108.069 485.29 106.247 484.737 104.561C484.352 103.318 483.933 102.778 483.987 102.739C484.04 102.701 484.119 102.867 484.321 103.148C484.597 103.551 484.826 103.985 485.005 104.44C485.682 106.181 485.725 108.105 485.126 109.874C484.776 110.924 484.219 111.892 483.489 112.723C482.758 113.554 481.869 114.231 480.873 114.712C479.877 115.194 478.794 115.471 477.69 115.528C476.585 115.585 475.48 115.42 474.439 115.042C472.759 114.458 471.311 113.348 470.31 111.877C469.309 110.406 468.808 108.652 468.881 106.875C468.934 105.77 469.207 104.686 469.684 103.688C470.162 102.69 470.834 101.798 471.661 101.063C472.488 100.329 473.454 99.7671 474.502 99.4113C475.549 99.0555 476.657 98.9128 477.761 98.9914C479.626 99.1262 481.384 99.9119 482.728 101.211C483.107 101.547 483.44 101.931 483.72 102.353C483.92 102.646 484 102.8 483.975 102.808Z" fill="#455A64"/> <path d="M482.476 137.489C482.476 137.489 482.327 137.606 482.024 137.804L480.629 138.684C478.755 139.752 476.771 140.613 474.71 141.25C470.793 142.391 466.676 142.669 462.641 142.065C458.606 141.462 454.751 139.99 451.34 137.752L451.569 137.79L403.356 170.044L403.211 170.138L403.05 170.112L390.673 164.751L390.431 164.641L390.475 164.377C391.079 161.704 391.748 158.783 392.413 155.813L392.435 155.675L392.54 155.61L396.608 152.893L396.767 152.789L396.951 152.819L402.025 155.175L401.538 155.484C401.578 153.662 401.611 151.663 401.654 149.605L401.683 149.433L401.841 149.329L408.809 144.683L408.97 144.567L409.156 144.657L417.483 148.538L416.984 148.845L417.171 139.309L417.201 139.126L417.348 139.02L419.505 137.593L425.466 133.619L425.627 133.503L425.813 133.593L434.14 137.474L433.641 137.781C433.706 134.56 433.77 131.373 433.832 128.222L433.862 128.038L434.019 127.946L440.509 123.622L440.372 124.024C438.83 119.797 438.309 115.266 438.853 110.799C439.104 108.639 439.611 106.517 440.364 104.477C441.082 102.469 442.031 100.551 443.19 98.7607C446.802 93.1144 452.305 88.9377 458.715 86.9778C465.124 85.0179 472.022 85.4028 478.174 88.0637C484.326 90.7246 489.33 95.4878 492.291 101.501C495.252 107.514 495.976 114.384 494.335 120.883C493.43 124.559 491.779 128.01 489.484 131.021L488.805 131.923L488.099 132.704C487.627 133.204 487.221 133.739 486.795 134.106C485.901 134.879 485.195 135.588 484.534 136.093L482.992 137.149C482.658 137.389 482.474 137.501 482.474 137.501C482.474 137.501 482.641 137.351 482.965 137.098L484.409 135.99C485.044 135.505 485.786 134.789 486.613 133.993C487.033 133.59 487.434 133.09 487.894 132.588L488.589 131.805L489.245 130.899C491.481 127.898 493.084 124.472 493.954 120.832C495.502 114.462 494.747 107.75 491.822 101.883C488.897 96.0159 483.991 91.3729 477.972 88.7753C471.953 86.1777 465.209 85.793 458.934 87.6892C452.658 89.5855 447.256 93.6404 443.683 99.1365C442.558 100.889 441.636 102.764 440.936 104.725C440.2 106.716 439.708 108.791 439.473 110.901C438.957 115.248 439.469 119.656 440.969 123.768L441.069 124.021L440.843 124.172L434.353 128.497L434.505 128.215C434.454 131.352 434.39 134.538 434.315 137.774L434.308 138.315L433.827 138.083L425.468 134.185L425.803 134.157L419.839 138.144L417.682 139.57L417.835 139.289C417.779 142.571 417.706 145.814 417.644 148.847L417.638 149.389L417.157 149.157L408.818 145.274L409.165 145.248L402.185 149.893L402.336 149.623C402.289 151.632 402.257 153.621 402.217 155.442L402.201 155.971L401.73 155.752L396.657 153.385L396.98 153.355L392.926 156.063L393.067 155.85C392.391 158.817 391.72 161.751 391.106 164.41L390.92 164.037L403.282 169.418L402.982 169.452L451.31 137.358L451.428 137.283L451.545 137.361C454.907 139.581 458.706 141.053 462.685 141.678C466.664 142.304 470.732 142.068 474.612 140.986C476.664 140.391 478.65 139.587 480.539 138.586L481.951 137.745L482.476 137.489Z" fill="#455A64"/> <path d="M480.293 134.913C481.897 133.677 483.399 132.314 484.784 130.838C486.367 129.079 487.676 127.091 488.667 124.941C490.006 122.096 490.787 119.022 490.969 115.883C491.204 112.092 490.547 108.3 489.049 104.81C487.321 100.812 484.56 97.3457 481.05 94.7664C479.174 93.3612 477.092 92.2551 474.877 91.4873C473.741 91.0758 472.578 90.7428 471.396 90.4907C470.183 90.2721 468.957 90.1337 467.725 90.0762C462.555 89.8244 457.441 91.237 453.133 94.1066C448.825 96.9762 445.55 101.151 443.791 106.019C443.369 107.177 443.025 108.362 442.76 109.566C442.54 110.755 442.401 111.958 442.345 113.166C442.198 115.506 442.417 117.854 442.994 120.126C444.021 124.36 446.16 128.242 449.191 131.371C451.828 134.102 455.073 136.171 458.662 137.41C461.617 138.449 464.745 138.911 467.875 138.77C470.242 138.677 472.581 138.23 474.816 137.445C476.711 136.74 478.544 135.882 480.298 134.878C480.298 134.878 480.201 134.968 479.978 135.109L478.988 135.748C478.457 136.095 477.898 136.398 477.317 136.653C476.541 137.062 475.735 137.411 474.905 137.696C472.656 138.535 470.292 139.026 467.895 139.151C462.105 139.481 456.382 137.773 451.72 134.325C447.057 130.876 443.749 125.904 442.369 120.271C441.77 117.924 441.54 115.499 441.687 113.081C441.756 110.601 442.235 108.149 443.103 105.824C444.906 100.814 448.271 96.5154 452.702 93.5629C457.133 90.6104 462.396 89.1601 467.714 89.4256C470.225 89.5132 472.706 90.0084 475.058 90.8918C477.328 91.6966 479.463 92.8429 481.388 94.2911C484.979 96.9479 487.794 100.518 489.539 104.631C490.913 107.894 491.578 111.413 491.488 114.953C491.399 118.493 490.557 121.974 489.019 125.164C487.983 127.334 486.616 129.33 484.968 131.081C484.393 131.736 483.765 132.343 483.09 132.895C482.625 133.333 482.126 133.732 481.596 134.089L480.625 134.755C480.421 134.851 480.302 134.926 480.293 134.913Z" fill="#455A64"/> <path d="M482.404 115.101C482.347 115.091 483.077 114.598 484.048 113.495C485.419 111.919 486.219 109.928 486.322 107.841C486.409 106.315 486.11 104.791 485.452 103.411C484.795 102.03 483.799 100.838 482.559 99.9449C481.113 98.8777 479.381 98.2684 477.585 98.1958C476.176 98.1354 474.772 98.4029 473.484 98.9773C472.195 99.5517 471.058 100.417 470.161 101.506C469.264 102.595 468.632 103.877 468.314 105.251C467.997 106.626 468.003 108.055 468.332 109.427C468.722 111.007 469.516 112.458 470.636 113.639C471.625 114.663 472.836 115.448 474.176 115.931C476.143 116.638 478.291 116.663 480.274 116.001C481.672 115.535 482.356 115.034 482.404 115.101C482.452 115.167 482.249 115.252 481.919 115.469C481.435 115.798 480.912 116.065 480.361 116.263C478.639 116.915 476.764 117.053 474.965 116.659C473.165 116.265 471.52 115.356 470.228 114.044C468.933 112.74 468.037 111.095 467.642 109.301C467.248 107.506 467.372 105.637 468 103.911C468.702 101.953 470.017 100.273 471.748 99.1215C473.48 97.9697 475.537 97.4069 477.614 97.5164C479.545 97.5988 481.405 98.2621 482.952 99.4197C484.347 100.466 485.436 101.867 486.107 103.477C486.813 105.176 487.014 107.043 486.685 108.853C486.356 110.663 485.512 112.34 484.253 113.682C483.845 114.109 483.387 114.486 482.889 114.803C482.593 115.026 482.412 115.125 482.404 115.101Z" fill="#455A64"/> <path d="M400.061 167.627C399.958 167.469 410.863 159.965 424.419 150.975C437.975 141.985 449.061 134.747 449.165 134.906C449.269 135.064 438.363 142.567 424.807 151.558C411.251 160.548 400.165 167.786 400.061 167.627Z" fill="#455A64"/> <path d="M414.259 113.671L414.789 112.885L415.166 113.749C415.477 114.441 415.977 115.03 416.609 115.449L417.408 115.969L416.542 116.358C415.845 116.664 415.251 117.164 414.831 117.799L414.312 118.586L413.924 117.72C413.616 117.027 413.115 116.437 412.481 116.021L411.693 115.502L412.559 115.113C413.255 114.81 413.846 114.308 414.259 113.671Z" fill="#407BFF"/> <path d="M389.683 103.074L389.983 102.616L390.208 103.113C390.384 103.518 390.677 103.862 391.048 104.1L391.504 104.411L390.996 104.634C390.596 104.812 390.254 105.1 390.01 105.463L389.709 105.933L389.486 105.424C389.309 105.019 389.017 104.676 388.645 104.437L388.189 104.126L388.684 103.912C389.088 103.73 389.434 103.44 389.683 103.074Z" fill="#407BFF"/> <path d="M463.216 160.016L463.515 159.558L463.738 160.066C463.926 160.464 464.216 160.805 464.579 161.054L465.037 161.353L464.54 161.578C464.135 161.754 463.791 162.047 463.553 162.418L463.242 162.874L463.017 162.377C462.841 161.974 462.554 161.628 462.19 161.38L461.72 161.079L462.229 160.856C462.634 160.68 462.977 160.387 463.216 160.016Z" fill="#407BFF"/> <path d="M506.407 144.111L506.926 143.323L507.314 144.189C507.622 144.883 508.123 145.473 508.757 145.889L509.545 146.408L508.679 146.796C507.985 147.103 507.395 147.604 506.979 148.239L506.449 149.025L506.072 148.161C505.758 147.471 505.258 146.883 504.629 146.461L503.83 145.94L504.696 145.552C505.393 145.246 505.987 144.745 506.407 144.111Z" fill="#407BFF"/> <path d="M506.429 111.888L507.308 110.558L507.952 112.021C508.472 113.184 509.311 114.177 510.372 114.883L511.704 115.751L510.241 116.395C509.078 116.922 508.086 117.764 507.377 118.826L506.497 120.156L505.853 118.694C505.334 117.53 504.495 116.537 503.434 115.831L502.104 114.952L503.566 114.308C504.73 113.788 505.723 112.949 506.429 111.888Z" fill="#407BFF"/> <path d="M410.597 86.2099L411.476 84.8798L412.122 86.3307C412.638 87.4971 413.477 88.4907 414.541 89.1936L415.871 90.0727L414.421 90.719C413.252 91.2307 412.257 92.0714 411.558 93.1386L410.679 94.4686L410.032 93.0177C409.515 91.8481 408.671 90.8531 407.601 90.1529L406.283 89.2757L407.734 88.6294C408.9 88.1137 409.894 87.2739 410.597 86.2099Z" fill="#407BFF"/> <path d="M496.606 324.945C496.606 324.945 496.973 325.006 497.7 325.031C498.149 325.097 498.604 325.121 499.057 325.1L499.918 325.1L500.913 325.004C502.652 324.848 504.352 324.402 505.943 323.684C509.434 322.139 512.291 319.444 514.039 316.049C514.743 314.66 515.249 313.179 515.54 311.649C515.672 310.845 515.81 310.006 515.946 309.179L516.085 307.904C516.155 307.479 516.098 307.034 516.099 306.597C516.058 304.767 515.722 302.956 515.105 301.232C513.695 297.391 510.91 294.209 507.289 292.304C505.318 291.299 503.183 290.652 500.985 290.396L494.025 289.252L345.396 264.925C341.822 264.341 338.156 264.953 334.966 266.667C333.405 267.52 331.985 268.607 330.756 269.891C329.552 271.185 328.565 272.664 327.83 274.271C327.466 275.07 327.161 275.895 326.917 276.739C326.776 277.601 326.519 278.443 326.397 279.331C326.065 281.045 325.992 282.798 326.179 284.533C326.385 286.24 326.847 287.907 327.549 289.476C328.285 291.024 329.242 292.457 330.389 293.73C331.533 294.989 332.87 296.057 334.352 296.893C335.079 297.31 335.835 297.674 336.614 297.984C337.405 298.271 338.214 298.502 339.037 298.677C342.343 299.303 345.71 299.774 348.995 300.314L368.302 303.486L435.105 314.521L480.135 322.027L492.369 324.096L495.562 324.62L496.642 324.798C496.642 324.798 496.274 324.737 495.562 324.62L492.369 324.096L480.116 322.141L435.054 314.832L368.23 303.922L348.911 300.748C345.615 300.206 342.307 299.663 338.919 299.106C338.07 298.927 337.234 298.691 336.416 298.4C335.608 298.075 334.823 297.694 334.068 297.259C332.534 296.398 331.15 295.294 329.969 293.991C327.542 291.354 326.024 288.008 325.64 284.444C325.45 282.654 325.524 280.846 325.861 279.078C326.004 278.205 326.153 277.298 326.39 276.429C326.646 275.555 326.964 274.7 327.341 273.872C328.106 272.204 329.131 270.668 330.377 269.322C331.65 267.987 333.125 266.86 334.748 265.982C338.055 264.221 341.852 263.6 345.548 264.218L494.148 288.718L501.108 289.861C503.347 290.139 505.521 290.804 507.533 291.825C511.214 293.793 514.039 297.05 515.466 300.973C516.094 302.735 516.431 304.587 516.464 306.457L516.446 307.787C516.374 308.223 516.305 308.648 516.235 309.073C516.095 309.923 515.961 310.739 515.825 311.566C515.518 313.118 514.998 314.621 514.278 316.03C513.608 317.297 512.784 318.477 511.825 319.543C510.217 321.338 508.236 322.76 506.021 323.709C504.405 324.415 502.684 324.849 500.926 324.995L499.924 325.066L499.053 325.053C498.6 325.06 498.148 325.029 497.7 324.96L496.606 324.945Z" fill="#455A64"/> <path d="M363.09 292.344C363.124 292 363.18 291.658 363.258 291.322C363.375 290.609 363.528 289.679 363.659 288.521C364.063 286.063 364.553 282.652 365.169 278.542L365.373 278.812L344.836 275.508L345.184 275.258L344.591 278.865C344.403 280.014 344.203 281.231 344.014 282.38C343.637 284.677 343.27 286.905 342.925 289.007L342.695 288.686L357.385 291.241L361.624 292.008L362.772 292.197L363.186 292.265C362.696 292.241 362.209 292.184 361.727 292.096L357.523 291.476L342.569 289.161L342.213 289.102L342.259 288.827C342.604 286.725 342.968 284.508 343.348 282.199C343.536 281.051 343.725 279.902 343.925 278.685L344.503 275.17C344.195 275.391 344.931 274.863 344.852 274.909L365.366 278.35L365.607 278.39L365.567 278.631C364.825 282.791 364.213 286.229 363.78 288.718C363.592 289.866 363.444 290.762 363.26 291.452C363.224 291.753 363.167 292.051 363.09 292.344Z" fill="#455A64"/> <path d="M365.353 278.572C364.302 279.414 363.191 280.178 362.028 280.857C359.942 282.213 357.024 284.034 353.795 286.027L353.347 285.954L353.287 285.885L353.168 285.747L352.942 285.474L352.499 284.941L351.633 283.891L349.993 281.887L347.248 278.488C346.364 277.472 345.556 276.393 344.83 275.259C345.811 276.15 346.721 277.116 347.552 278.148L350.392 281.469L352.061 283.442L352.94 284.483L353.393 285.029L353.607 285.301L353.728 285.427L353.788 285.495L353.432 285.437C356.671 283.457 359.608 281.733 361.769 280.425C362.913 279.714 364.111 279.094 365.353 278.572Z" fill="#455A64"/> <path d="M351.184 282.826C349.957 284.092 348.586 285.209 347.098 286.154C345.714 287.254 344.21 288.194 342.615 288.956C343.848 287.698 345.219 286.581 346.701 285.628C348.087 284.532 349.591 283.592 351.184 282.826Z" fill="#455A64"/> <path d="M363.09 292.344C361.9 291.034 360.867 289.589 360.011 288.04C358.987 286.599 358.125 285.049 357.444 283.419C358.63 284.732 359.662 286.176 360.523 287.723C361.552 289.16 362.414 290.711 363.09 292.344Z" fill="#455A64"/> <path d="M376.163 290.245L376.087 290.705L371.321 289.921L372.453 283.03L377.047 283.785L376.972 284.244L372.86 283.569L372.413 286.291L376.088 286.895L376.015 287.343L372.339 286.739L371.875 289.564L376.163 290.245Z" fill="#455A64"/> <path d="M386.724 289.362L386.229 292.371L385.735 292.29L386.224 289.315C386.413 288.167 385.908 287.435 384.909 287.271C384.649 287.216 384.381 287.219 384.122 287.278C383.864 287.336 383.621 287.451 383.411 287.612C383.201 287.774 383.028 287.979 382.904 288.213C382.781 288.448 382.709 288.706 382.695 288.971L382.244 291.716L381.75 291.635L382.239 288.66C382.427 287.512 381.922 286.78 380.923 286.616C380.664 286.561 380.396 286.564 380.137 286.623C379.878 286.682 379.636 286.796 379.425 286.957C379.215 287.119 379.042 287.324 378.919 287.558C378.795 287.793 378.724 288.052 378.709 288.316L378.258 291.061L377.764 290.98L378.612 285.823L379.083 285.901L378.894 287.049C379.132 286.712 379.465 286.453 379.85 286.307C380.236 286.16 380.656 286.131 381.058 286.225C381.471 286.258 381.861 286.429 382.166 286.71C382.471 286.991 382.672 287.366 382.738 287.775C382.986 287.416 383.336 287.138 383.742 286.978C384.149 286.818 384.594 286.782 385.021 286.876C385.307 286.902 385.585 286.991 385.833 287.137C386.081 287.282 386.294 287.481 386.457 287.718C386.62 287.956 386.728 288.226 386.774 288.51C386.82 288.794 386.803 289.085 386.724 289.362Z" fill="#455A64"/> <path d="M392.511 290.041L391.973 293.315L391.502 293.237L391.653 292.318C391.408 292.601 391.091 292.811 390.735 292.925C390.379 293.039 389.999 293.054 389.635 292.966C388.487 292.777 387.883 292.076 388.028 291.192C388.173 290.308 388.758 289.838 390.182 290.072L391.951 290.362L392.019 289.949C392.073 289.749 392.082 289.539 392.043 289.336C392.005 289.132 391.92 288.94 391.796 288.774C391.672 288.608 391.512 288.472 391.327 288.378C391.143 288.283 390.94 288.232 390.733 288.227C390.082 288.114 389.413 288.238 388.847 288.578L388.664 288.182C389.32 287.799 390.091 287.662 390.839 287.797C391.109 287.802 391.374 287.868 391.615 287.992C391.855 288.115 392.064 288.292 392.225 288.509C392.387 288.726 392.496 288.976 392.546 289.242C392.595 289.508 392.583 289.781 392.511 290.041ZM391.73 291.706L391.888 290.741L390.131 290.452C389.063 290.277 388.622 290.664 388.525 291.25C388.429 291.836 388.863 292.426 389.77 292.575C390.147 292.661 390.541 292.623 390.894 292.466C391.247 292.309 391.54 292.043 391.73 291.706Z" fill="#455A64"/> <path d="M394.962 286.823C394.97 286.77 394.989 286.719 395.018 286.674C395.046 286.629 395.083 286.589 395.126 286.558C395.17 286.527 395.219 286.504 395.271 286.492C395.323 286.48 395.377 286.478 395.43 286.487C395.509 286.5 395.583 286.536 395.642 286.591C395.701 286.646 395.742 286.718 395.76 286.796C395.779 286.875 395.773 286.957 395.745 287.032C395.717 287.108 395.667 287.173 395.601 287.22C395.536 287.267 395.458 287.293 395.377 287.296C395.297 287.299 395.217 287.277 395.149 287.235C395.08 287.192 395.026 287.131 394.993 287.057C394.96 286.984 394.949 286.902 394.962 286.823ZM394.841 288.49L395.381 288.578L394.534 293.736L394.04 293.654L394.841 288.49Z" fill="#455A64"/> <path d="M397.77 286.742L398.264 286.823L397.06 294.151L396.566 294.07L397.77 286.742Z" fill="#455A64"/> <path d="M577.707 60.7994C577.681 60.9602 524.56 52.3733 459.069 41.6123C393.577 30.8512 340.502 21.9887 340.528 21.8279C340.555 21.6671 393.664 30.2521 459.167 41.015C524.67 51.7779 577.734 60.6386 577.707 60.7994Z" fill="#455A64"/> <path d="M355.467 14.6102C355.372 15.1795 355.109 15.7076 354.713 16.1279C354.318 16.5482 353.806 16.8418 353.244 16.9717C352.681 17.1015 352.093 17.0618 351.553 16.8575C351.013 16.6532 350.545 16.2935 350.21 15.8238C349.874 15.3541 349.685 14.7955 349.666 14.2185C349.648 13.6414 349.801 13.0719 350.106 12.5817C350.411 12.0914 350.854 11.7026 351.38 11.4642C351.906 11.2258 352.49 11.1485 353.06 11.2421C353.44 11.3044 353.803 11.4411 354.13 11.6443C354.456 11.8475 354.74 12.1132 354.963 12.4261C355.187 12.7391 355.347 13.0931 355.433 13.4679C355.52 13.8427 355.531 14.2309 355.467 14.6102Z" fill="#455A64"/> <path d="M363.806 15.9803C363.71 16.5496 363.448 17.0778 363.052 17.4981C362.656 17.9184 362.145 18.212 361.582 18.3419C361.02 18.4717 360.431 18.432 359.892 18.2277C359.352 18.0234 358.884 17.6637 358.548 17.194C358.213 16.7243 358.024 16.1657 358.005 15.5886C357.987 15.0116 358.14 14.442 358.445 13.9518C358.75 13.4616 359.193 13.0727 359.719 12.8343C360.245 12.5959 360.829 12.5186 361.399 12.6122C361.779 12.6746 362.142 12.8113 362.469 13.0145C362.795 13.2177 363.079 13.4834 363.302 13.7963C363.526 14.1092 363.686 14.4632 363.772 14.838C363.859 15.2128 363.87 15.601 363.806 15.9803Z" fill="#455A64"/> <path d="M372.098 17.3428C372.002 17.9135 371.739 18.4429 371.341 18.8636C370.944 19.2844 370.43 19.5776 369.866 19.7061C369.301 19.8345 368.712 19.7925 368.171 19.5852C367.631 19.3779 367.164 19.0148 366.83 18.5419C366.497 18.069 366.311 17.5076 366.297 16.929C366.282 16.3503 366.44 15.7805 366.751 15.2918C367.061 14.8031 367.509 14.4176 368.039 14.1841C368.568 13.9506 369.155 13.8797 369.725 13.9803C370.485 14.1144 371.16 14.543 371.604 15.1728C372.049 15.8027 372.226 16.5826 372.098 17.3428Z" fill="#455A64"/> <path d="M522.001 402.476C522.405 400.018 546.221 254.361 580.868 42.4928L581.098 42.8138L343.586 3.78754L343.934 3.53798C321.615 139.368 301.039 264.596 284.723 363.465L284.531 363.197L522.028 402.457L284.453 363.668L284.212 363.629L284.252 363.387C300.499 264.507 321.076 139.279 343.337 3.43985L343.386 3.14122L343.707 3.19406L581.22 42.2203L581.495 42.2656L581.45 42.5412C546.45 254.399 522.403 400.03 522.001 402.476Z" fill="#455A64"/> <path d="M640.176 559.332C640.099 559.099 640.005 558.871 639.894 558.652C639.661 558.17 639.363 557.539 638.981 556.709C637.868 554.195 636.973 551.589 636.307 548.922C634.163 539.01 634.237 528.747 636.523 518.868C637.951 512.02 639.815 505.271 642.102 498.66C644.46 491.504 647.216 483.899 649.441 475.68C651.978 467.097 653.204 458.179 653.078 449.23C652.729 439.881 649.973 430.55 646.917 421.251C643.862 411.953 640.741 402.854 639.794 393.705C638.734 384.913 640.477 376.01 644.776 368.267C648.81 360.845 653.875 354.486 657.677 347.911C661.217 341.811 663.83 335.219 665.431 328.351C667.71 318.389 667.874 308.06 665.913 298.031C665.214 294.367 664.158 290.78 662.758 287.322C662.798 287.565 662.859 287.804 662.941 288.036C663.107 288.55 663.306 289.231 663.588 290.095C664.379 292.727 665.033 295.398 665.547 298.098C667.358 308.074 667.092 318.316 664.767 328.185C663.148 334.979 660.524 341.493 656.98 347.512C653.194 354.004 648.113 360.331 643.995 367.836C639.558 375.724 637.738 384.816 638.798 393.805C639.744 403.103 642.899 412.269 645.938 421.55C648.976 430.832 651.716 440.081 652.065 449.263C652.202 458.113 651.009 466.934 648.528 475.431C646.32 483.617 643.547 491.222 641.272 498.411C639.002 505.058 637.171 511.848 635.793 518.735C633.236 531.387 633.966 542.081 635.876 549.021C636.591 551.692 637.547 554.293 638.732 556.792L639.744 558.701C639.865 558.927 640.009 559.139 640.176 559.332Z" fill="#263238"/> <path d="M652.596 354.336C652.596 354.336 660.301 329.696 646.469 315.267C646.362 315.149 646.224 315.064 646.071 315.022C645.918 314.979 645.756 314.98 645.604 315.025C645.451 315.07 645.314 315.157 645.209 315.276C645.104 315.395 645.034 315.542 645.008 315.698C644.278 319.766 643.348 332.153 652.596 354.336Z" fill="#407BFF"/> <path d="M647.98 323.552C647.994 325.082 648.166 326.607 648.495 328.102C648.993 331.24 649.591 334.91 650.255 338.978C650.919 343.046 651.484 346.715 651.916 349.837C652.038 351.36 652.31 352.867 652.729 354.336C652.864 352.808 652.814 351.27 652.58 349.754C652.331 346.948 651.833 343.112 651.135 338.811C650.438 334.511 649.707 330.742 649.093 327.986C648.883 326.472 648.51 324.985 647.98 323.552Z" fill="#263238"/> <path d="M643.547 412.435C643.547 412.435 638.831 387.063 619.869 380.77C619.72 380.722 619.56 380.715 619.407 380.75C619.254 380.786 619.114 380.862 619.001 380.972C618.888 381.081 618.808 381.219 618.767 381.371C618.727 381.522 618.729 381.682 618.773 381.833C620.019 385.768 625 397.159 643.547 412.435Z" fill="#407BFF"/> <path d="M625.033 387.329C625.762 388.668 626.625 389.931 627.606 391.098L634.248 399.882C636.722 403.203 638.947 406.158 640.89 408.682C641.727 409.961 642.671 411.166 643.712 412.285C643.115 410.874 642.358 409.537 641.454 408.3C639.91 405.926 637.652 402.738 635.045 399.301C632.438 395.863 630.064 392.842 628.188 390.683C627.262 389.453 626.204 388.328 625.033 387.329Z" fill="#263238"/> <path d="M648.661 476.112C648.661 476.112 651.533 450.458 635.211 438.935C635.082 438.844 634.931 438.79 634.774 438.779C634.617 438.768 634.46 438.8 634.319 438.872C634.179 438.944 634.061 439.052 633.978 439.186C633.896 439.321 633.851 439.475 633.85 439.632C633.899 443.767 635.361 456.104 648.661 476.112Z" fill="#407BFF"/> <path d="M638.25 446.706C638.55 448.207 639.012 449.671 639.628 451.073C640.724 454.045 642.002 457.548 643.413 461.401C644.825 465.253 646.103 468.756 647.183 471.745C647.6 473.211 648.156 474.635 648.843 475.996C648.69 474.471 648.35 472.971 647.83 471.529C647.05 468.823 645.821 465.103 644.327 461.068C642.832 457.034 641.371 453.414 640.259 450.824C639.74 449.382 639.067 448.001 638.25 446.706Z" fill="#263238"/> <path d="M634.381 540.171C634.381 540.171 636.324 514.418 619.603 503.492C619.473 503.402 619.319 503.35 619.16 503.342C619.001 503.334 618.844 503.372 618.705 503.45C618.567 503.528 618.453 503.643 618.377 503.783C618.301 503.923 618.265 504.081 618.275 504.24C618.474 508.357 620.367 520.645 634.381 540.171Z" fill="#407BFF"/> <path d="M622.858 511.18C623.236 512.665 623.753 514.11 624.403 515.497C625.598 518.436 627.009 521.873 628.57 525.676C630.131 529.478 631.509 532.948 632.705 535.871C633.161 537.33 633.768 538.738 634.515 540.072C634.295 538.553 633.899 537.065 633.336 535.638C632.456 532.965 631.094 529.295 629.45 525.31C627.806 521.325 626.229 517.772 625.017 515.215C624.458 513.79 623.734 512.436 622.858 511.18Z" fill="#263238"/> <path d="M663.671 332.684C663.671 332.684 686.552 320.729 687 300.754C687.002 300.597 686.962 300.441 686.882 300.305C686.803 300.169 686.687 300.057 686.549 299.982C686.41 299.906 686.254 299.871 686.096 299.878C685.938 299.885 685.786 299.936 685.655 300.024C682.251 302.382 672.836 310.468 663.671 332.684Z" fill="#407BFF"/> <path d="M682.251 307.629C681.17 308.709 680.212 309.906 679.396 311.199L672.937 320.115C670.529 323.436 668.337 326.458 666.461 329.015C665.492 330.193 664.62 331.448 663.854 332.767C665.036 331.792 666.095 330.677 667.009 329.447C668.819 327.271 671.21 324.183 673.65 320.68C676.091 317.176 678.366 314.038 679.894 311.58C680.816 310.349 681.606 309.025 682.251 307.629Z" fill="#263238"/> <path d="M639.097 385.602C639.097 385.602 662.708 375.025 664.368 355.1C664.387 354.941 664.36 354.78 664.291 354.636C664.222 354.491 664.113 354.369 663.978 354.284C663.842 354.199 663.685 354.154 663.525 354.154C663.365 354.155 663.208 354.201 663.073 354.287C659.487 356.478 649.591 363.983 639.097 385.602Z" fill="#407BFF"/> <path d="M659.155 361.742C658.026 362.742 657.002 363.855 656.099 365.063L649.109 373.564L642.119 382.066C641.065 383.172 640.115 384.373 639.279 385.652C640.506 384.74 641.62 383.687 642.6 382.514C644.543 380.455 647.116 377.533 649.84 374.212C652.563 370.891 654.954 367.786 656.614 365.511C657.607 364.36 658.46 363.095 659.155 361.742Z" fill="#263238"/> <path d="M652.646 444.614C652.646 444.614 668.835 424.506 661.247 406.025C661.188 405.878 661.09 405.75 660.963 405.654C660.837 405.559 660.686 405.5 660.528 405.485C660.371 405.47 660.212 405.498 660.069 405.567C659.926 405.636 659.805 405.743 659.719 405.876C657.544 409.396 652.164 420.604 652.646 444.614Z" fill="#407BFF"/> <path d="M659.636 414.211C659.094 415.64 658.699 417.12 658.457 418.628C657.777 421.733 656.996 425.369 656.116 429.388L653.758 440.131C653.326 441.595 653.026 443.096 652.862 444.614C653.558 443.252 654.077 441.807 654.406 440.313C655.203 437.59 656.166 433.804 657.063 429.604C657.959 425.403 658.723 421.55 659.122 418.761C659.461 417.268 659.634 415.742 659.636 414.211Z" fill="#263238"/> <path d="M636.622 514.069C636.622 514.069 660.001 503.144 661.329 483.202C661.341 483.046 661.309 482.889 661.237 482.75C661.165 482.611 661.056 482.494 660.922 482.413C660.788 482.332 660.633 482.29 660.477 482.292C660.32 482.293 660.167 482.338 660.034 482.422C656.531 484.613 646.767 492.285 636.622 514.069Z" fill="#407BFF"/> <path d="M656.282 489.86C655.17 490.905 654.163 492.056 653.277 493.297L646.452 501.932C643.879 505.153 641.571 508.059 639.578 510.533C638.551 511.659 637.629 512.876 636.822 514.169C638.054 513.245 639.169 512.174 640.143 510.981C642.052 508.889 644.576 505.917 647.233 502.529C649.889 499.142 652.214 496.02 653.874 493.712C654.815 492.52 655.623 491.229 656.282 489.86Z" fill="#263238"/> <path d="M590.048 412.584C590.048 412.584 590.048 412.783 590.048 413.149C590.048 413.514 590.048 414.145 590.048 414.809C590.131 416.37 590.214 418.462 590.33 421.069C590.629 426.581 591.061 434.253 591.559 443.435C593.219 452.766 597.985 463.127 604.377 473.173C609.06 480.578 613.975 487.32 618.225 493.58C622.075 499.048 625.537 504.779 628.586 510.732C630.598 514.766 632.227 518.979 633.451 523.318C633.866 524.862 634.165 526.057 634.348 526.888C634.417 527.315 634.534 527.732 634.697 528.133C634.669 527.698 634.614 527.266 634.531 526.838C634.414 526.008 634.165 524.779 633.817 523.218C632.715 518.811 631.169 514.527 629.201 510.433C626.225 504.401 622.8 498.601 618.956 493.081C614.755 486.772 609.857 480.03 605.191 472.658C598.848 462.696 594.116 452.467 592.372 443.269C591.725 434.087 591.177 426.432 590.795 420.936C590.579 418.329 590.413 416.237 590.297 414.676C590.297 414.029 590.164 413.481 590.131 413.016C590.116 412.87 590.088 412.725 590.048 412.584Z" fill="#263238"/> <path d="M603.962 471.33C603.962 471.33 593.999 447.486 606.519 431.862C606.615 431.735 606.745 431.638 606.894 431.581C607.042 431.525 607.204 431.512 607.36 431.543C607.516 431.574 607.66 431.649 607.775 431.758C607.891 431.867 607.973 432.007 608.013 432.161C609.126 436.112 611.235 448.366 603.962 471.33Z" fill="#407BFF"/> <path d="M605.772 440.147C605.346 441.619 605.084 443.134 604.992 444.664C604.643 447.453 604.245 451.305 603.929 455.639C603.614 459.973 603.481 463.825 603.481 466.664C603.381 468.192 603.476 469.726 603.763 471.23C604.03 469.729 604.163 468.206 604.162 466.681C604.378 463.509 604.627 459.807 604.892 455.705C605.158 451.604 605.44 447.885 605.673 444.713C605.857 443.198 605.89 441.669 605.772 440.147Z" fill="#263238"/> <g opacity="0.3"> <path opacity="0.3" d="M603.962 471.33C603.962 471.33 593.999 447.486 606.519 431.862C606.615 431.735 606.745 431.638 606.894 431.581C607.042 431.525 607.204 431.512 607.36 431.543C607.516 431.574 607.66 431.649 607.775 431.758C607.891 431.867 607.973 432.007 608.013 432.161C609.126 436.112 611.235 448.366 603.962 471.33Z" fill="black"/> </g> <path d="M634.646 528.747C634.646 528.747 626.71 504.173 640.391 489.611C640.5 489.5 640.637 489.42 640.787 489.38C640.938 489.339 641.096 489.341 641.246 489.383C641.395 489.426 641.531 489.508 641.638 489.621C641.745 489.734 641.819 489.874 641.853 490.026C642.633 494.094 643.679 506.481 634.646 528.747Z" fill="#407BFF"/> <path d="M638.963 497.897C638.418 499.327 638.033 500.814 637.818 502.33C637.237 505.087 636.539 508.972 635.875 513.173C635.211 517.374 634.763 521.309 634.53 524.132C634.342 525.653 634.342 527.193 634.53 528.714C634.912 527.239 635.168 525.733 635.294 524.215C635.759 521.076 636.307 517.39 636.954 513.322C637.602 509.254 638.133 505.585 638.615 502.446C638.886 500.946 639.003 499.421 638.963 497.897Z" fill="#263238"/> <g opacity="0.3"> <path opacity="0.3" d="M634.646 528.747C634.646 528.747 626.71 504.173 640.391 489.611C640.5 489.5 640.637 489.42 640.787 489.38C640.938 489.339 641.096 489.341 641.246 489.383C641.395 489.426 641.531 489.508 641.638 489.621C641.745 489.734 641.819 489.874 641.853 490.026C642.633 494.094 643.679 506.481 634.646 528.747Z" fill="black"/> </g> <path d="M591.31 442.156C591.31 442.156 570.156 427.345 572.298 407.487C572.31 407.329 572.366 407.178 572.46 407.05C572.553 406.922 572.681 406.824 572.828 406.765C572.975 406.706 573.135 406.69 573.291 406.717C573.447 406.745 573.592 406.816 573.709 406.922C576.831 409.695 585.133 418.944 591.31 442.156Z" fill="#407BFF"/> <g opacity="0.3"> <path opacity="0.3" d="M591.31 442.156C591.31 442.156 570.156 427.345 572.298 407.487C572.31 407.329 572.366 407.178 572.46 407.05C572.553 406.922 572.681 406.824 572.828 406.765C572.975 406.706 573.135 406.69 573.291 406.717C573.447 406.745 573.592 406.816 573.709 406.922C576.831 409.695 585.133 418.944 591.31 442.156Z" fill="black"/> </g> <path d="M576.167 414.876C576.596 416.342 577.186 417.757 577.927 419.093C579.123 421.65 580.883 425.137 582.908 428.923C584.934 432.709 586.927 436.096 588.438 438.47C589.185 439.811 590.088 441.06 591.127 442.19C590.56 440.771 589.859 439.409 589.035 438.122C587.508 435.349 585.714 432.078 583.755 428.474L578.508 418.794C577.862 417.412 577.077 416.1 576.167 414.876Z" fill="#263238"/> <path d="M626.178 504.389C626.178 504.389 600.674 500.404 593.85 481.641C593.792 481.495 593.776 481.335 593.803 481.18C593.831 481.025 593.901 480.88 594.006 480.763C594.112 480.645 594.248 480.56 594.399 480.516C594.55 480.471 594.711 480.47 594.863 480.512C598.781 481.641 610.305 486.274 626.178 504.389Z" fill="#407BFF"/> <g opacity="0.3"> <path opacity="0.3" d="M626.178 504.389C626.178 504.389 600.674 500.404 593.85 481.641C593.792 481.495 593.776 481.335 593.803 481.18C593.831 481.025 593.901 480.88 594.006 480.763C594.112 480.645 594.248 480.56 594.399 480.516C594.55 480.471 594.711 480.47 594.863 480.512C598.781 481.641 610.305 486.274 626.178 504.389Z" fill="black"/> </g> <path d="M600.475 486.606C601.501 487.742 602.654 488.756 603.912 489.628C606.121 491.388 609.226 493.746 612.729 496.269C616.233 498.793 619.504 500.935 621.911 502.396C623.17 503.276 624.53 504.001 625.963 504.555C624.824 503.531 623.59 502.619 622.276 501.832L613.294 495.489L604.327 489.096C603.128 488.142 601.838 487.308 600.475 486.606Z" fill="#263238"/> <path d="M656.299 551.329L648.977 599.315L619.77 599.266L609.923 551.329H656.299Z" fill="#455A64"/> <path d="M629.632 566.738C630.427 565.54 630.891 564.154 630.977 562.72C631.064 561.917 630.925 561.107 630.576 560.379C630.227 559.652 629.682 559.036 629.001 558.602C628.227 558.212 627.36 558.042 626.496 558.113C625.632 558.183 624.804 558.49 624.103 559C622.652 560.063 621.656 561.635 621.314 563.4C620.925 565.182 620.802 567.012 620.948 568.83C621.04 570.725 621.438 572.592 622.127 574.359C622.825 576.216 623.965 577.874 625.448 579.191C627.012 580.578 628.992 581.407 631.077 581.549C633.147 581.593 635.184 581.015 636.922 579.888C638.587 578.823 640.063 577.487 641.289 575.937C642.541 574.446 643.311 572.611 643.497 570.673C643.57 569.721 643.42 568.764 643.06 567.88C642.7 566.995 642.139 566.206 641.421 565.576C640.68 565.03 639.797 564.71 638.878 564.654C637.959 564.598 637.043 564.808 636.241 565.26C635.477 565.643 634.811 566.195 634.293 566.874C633.775 567.553 633.419 568.341 633.252 569.179C633.035 570.669 633.272 572.191 633.932 573.544C634.593 574.898 635.646 576.021 636.955 576.767C639.109 577.941 641.612 578.306 644.012 577.796C645.772 577.424 647.456 576.755 648.993 575.82C649.972 575.248 650.914 574.616 651.816 573.928C652.146 573.706 652.447 573.444 652.712 573.147C652.369 573.345 652.036 573.561 651.716 573.795C651.068 574.21 650.056 574.857 648.843 575.555C647.292 576.42 645.609 577.026 643.862 577.348C641.592 577.774 639.244 577.399 637.221 576.285C636.038 575.583 635.092 574.545 634.5 573.303C633.909 572.061 633.7 570.672 633.9 569.312C634.056 568.578 634.377 567.89 634.837 567.297C635.297 566.705 635.885 566.224 636.556 565.891C637.238 565.508 638.015 565.329 638.795 565.376C639.576 565.423 640.326 565.694 640.956 566.157C641.577 566.714 642.06 567.407 642.368 568.182C642.676 568.957 642.801 569.792 642.733 570.623C642.546 572.407 641.822 574.091 640.658 575.455C639.487 576.923 638.085 578.191 636.507 579.208C634.905 580.259 633.026 580.809 631.11 580.785C629.206 580.643 627.399 579.886 625.963 578.627C624.558 577.398 623.471 575.848 622.791 574.11C622.127 572.418 621.741 570.629 621.646 568.813C621.497 567.075 621.603 565.324 621.961 563.616C622.25 562.018 623.134 560.588 624.435 559.615C625.027 559.174 625.727 558.903 626.462 558.83C627.196 558.756 627.936 558.884 628.603 559.2C629.178 559.58 629.637 560.111 629.93 560.735C630.223 561.359 630.338 562.051 630.263 562.736C630.196 564.062 629.778 565.345 629.051 566.456C627.725 568.37 625.814 569.803 623.605 570.54C621.945 571.124 620.176 571.334 618.424 571.155C616.924 570.975 615.464 570.543 614.107 569.876C614.107 569.876 614.107 569.876 614.34 570.059C614.592 570.216 614.853 570.36 615.12 570.49C616.164 571.002 617.287 571.334 618.441 571.47C620.25 571.714 622.091 571.538 623.821 570.955C626.15 570.225 628.178 568.756 629.599 566.771" fill="#263238"/> </svg>