<svg width="647" height="663" viewBox="0 0 647 663" fill="none" xmlns="http://www.w3.org/2000/svg">
<path d="M180.008 79.5597C180.039 85.3681 178.386 91.0551 175.259 95.8997C172.132 100.744 167.671 104.529 162.443 106.773C157.215 109.017 151.454 109.619 145.891 108.505C140.329 107.39 135.214 104.608 131.196 100.511C127.178 96.4138 124.437 91.1866 123.322 85.4917C122.206 79.7968 122.766 73.8908 124.929 68.5222C127.093 63.1535 130.764 58.5641 135.476 55.3357C140.188 52.1073 145.729 50.3852 151.398 50.3877C158.962 50.3841 166.22 53.4518 171.582 58.9192C176.944 64.3866 179.974 71.8083 180.008 79.5597Z" fill="#F5F5F5"/>
<path d="M173.189 79.5598C173.209 83.9839 171.947 88.3146 169.564 92.0031C167.18 95.6916 163.781 98.5719 159.798 100.279C155.815 101.986 151.427 102.443 147.19 101.592C142.953 100.74 139.059 98.6195 135.999 95.4977C132.94 92.3759 130.854 88.3937 130.006 84.0558C129.158 79.7179 129.585 75.2196 131.235 71.131C132.884 67.0424 135.68 63.5475 139.27 61.0893C142.859 58.6311 147.08 57.3202 151.398 57.3228C157.163 57.3157 162.696 59.6533 166.782 63.8224C170.867 67.9915 173.171 73.6515 173.189 79.5598Z" fill="#EBEBEB"/>
<path d="M173.189 78.9102C172.91 78.0481 172.715 77.1598 172.606 76.2582C172.123 73.8532 171.276 71.5402 170.096 69.4028C169.276 67.9467 168.304 66.5862 167.197 65.3453C165.932 63.9308 164.492 62.6916 162.914 61.659C162.06 61.1013 161.17 60.6051 160.249 60.1739C158.295 59.2549 156.219 58.6382 154.089 58.344C152.973 58.2041 151.849 58.1509 150.725 58.1849C149.601 58.2277 148.481 58.3518 147.373 58.5561C146.304 58.7677 145.253 59.0647 144.229 59.4446C143.232 59.8026 142.267 60.2461 141.343 60.7706C140.44 61.2487 139.575 61.7984 138.755 62.4148C135.903 64.548 133.606 67.3666 132.065 70.6227C131.016 72.8251 130.313 75.1835 129.982 77.6108C129.933 78.507 129.794 79.3956 129.568 80.2628C129.3 79.3663 129.221 78.4217 129.335 77.4914C129.429 74.9276 129.991 72.4044 130.991 70.0526C131.666 68.4113 132.535 66.8614 133.579 65.4381C134.787 63.7996 136.206 62.3365 137.798 61.0888C138.665 60.4137 139.577 59.8022 140.528 59.2589C141.526 58.7165 142.565 58.2554 143.634 57.8799C144.742 57.4674 145.88 57.1438 147.037 56.9119C148.227 56.6696 149.434 56.5277 150.647 56.4876C151.858 56.4492 153.07 56.5112 154.27 56.6732C155.439 56.8298 156.594 57.0781 157.725 57.4158C158.811 57.7494 159.871 58.166 160.896 58.6622C161.88 59.1404 162.827 59.6944 163.73 60.3197C165.4 61.4563 166.91 62.8214 168.22 64.3773C169.346 65.7341 170.314 67.2203 171.105 68.8061C172.254 71.0881 172.974 73.5711 173.227 76.1257C173.417 77.0452 173.404 77.9966 173.189 78.9102Z" fill="#E0E0E0"/>
<path d="M153.857 92.9526L153.986 96.798H150.596V93.0189C147.584 92.9642 144.648 92.0455 142.12 90.3669L143.789 86.19C145.755 87.5547 148.034 88.3684 150.402 88.5503L150.324 82.7557C146.546 81.8672 142.314 80.6473 142.25 75.6748C142.25 72.0018 144.76 68.7929 150.104 68.0901V64.2314H153.494V68.0238C155.933 68.0972 158.32 68.7655 160.456 69.973L158.774 74.256C157.178 73.3315 155.418 72.7411 153.598 72.5189L153.688 78.4329C157.467 79.2815 161.621 80.5015 161.698 85.4077C161.75 89.0409 159.162 92.21 153.857 92.9526ZM150.246 77.6373L150.169 72.7046C148.383 73.1554 147.684 74.1764 147.697 75.3566C147.71 76.5367 148.81 77.1865 150.246 77.6373ZM156.199 85.9248C156.199 84.7181 155.19 84.0684 153.727 83.5645V88.3646C155.487 87.9536 156.212 87.0386 156.199 85.9248Z" fill="#E0E0E0"/>
<path d="M106.107 222.9C106.619 226.438 106.095 230.052 104.601 233.284C103.107 236.516 100.711 239.222 97.7166 241.058C94.7218 242.894 91.2626 243.779 87.777 243.6C84.2914 243.42 80.936 242.186 78.1356 240.051C75.3351 237.917 73.2155 234.98 72.045 231.61C70.8745 228.241 70.7057 224.592 71.5601 221.125C72.4144 217.657 74.2534 214.527 76.8444 212.131C79.4353 209.735 82.6617 208.181 86.1152 207.665C90.7377 206.97 95.4401 208.185 99.1889 211.042C102.938 213.899 105.426 218.164 106.107 222.9Z" fill="#F5F5F5"/>
<path d="M101.941 223.523C102.33 226.22 101.93 228.974 100.791 231.438C99.6526 233.901 97.8263 235.963 95.5435 237.363C93.2607 238.762 90.624 239.437 87.9672 239.3C85.3104 239.163 82.7528 238.222 80.6182 236.596C78.4835 234.969 76.8678 232.73 75.9754 230.162C75.083 227.594 74.9541 224.812 75.6049 222.169C76.2558 219.526 77.6571 217.14 79.6317 215.314C81.6063 213.487 84.0653 212.302 86.6975 211.908C88.4427 211.645 90.2213 211.737 91.9319 212.178C93.6425 212.619 95.2514 213.402 96.6669 214.48C98.0824 215.559 99.2767 216.913 100.182 218.464C101.087 220.016 101.684 221.735 101.941 223.523Z" fill="#EBEBEB"/>
<path d="M101.877 223.099C101.633 222.589 101.438 222.056 101.295 221.508C100.786 220.078 100.066 218.736 99.1595 217.53C98.5332 216.727 97.8262 215.994 97.0502 215.342C96.1532 214.596 95.1659 213.972 94.1129 213.486C93.5471 213.221 92.9633 213 92.366 212.823C91.1049 212.449 89.7965 212.271 88.484 212.292C87.7943 212.307 87.1066 212.373 86.4265 212.491C85.7476 212.624 85.0777 212.801 84.4208 213.022C83.7855 213.25 83.1671 213.525 82.5704 213.844C81.996 214.152 81.4465 214.507 80.927 214.905C80.4214 215.281 79.9454 215.698 79.5036 216.151C78.676 216.979 77.9582 217.916 77.3685 218.936C76.8344 219.824 76.4003 220.771 76.0745 221.76C75.6305 223.201 75.4036 224.704 75.4016 226.215C75.4648 226.779 75.4648 227.349 75.4016 227.913C75.1637 227.389 75.0359 226.82 75.0264 226.242C74.8578 224.668 74.9808 223.075 75.3887 221.548C75.6738 220.487 76.0777 219.464 76.5921 218.498C77.1864 217.388 77.9265 216.366 78.7919 215.462C79.2538 214.976 79.756 214.532 80.2929 214.136C80.8475 213.698 81.4361 213.308 82.0528 212.969C82.6915 212.612 83.358 212.31 84.0455 212.067C84.7481 211.809 85.4711 211.614 86.2065 211.484C86.942 211.354 87.6861 211.283 88.4322 211.271C89.1596 211.253 89.8872 211.302 90.6061 211.417C91.2984 211.517 91.982 211.672 92.6506 211.881C93.2906 212.081 93.9138 212.334 94.514 212.637C96.5891 213.659 98.3719 215.211 99.69 217.146C100.606 218.438 101.278 219.895 101.67 221.442C101.846 221.974 101.917 222.538 101.877 223.099Z" fill="#E0E0E0"/>
<path d="M91.292 233.376L91.6672 235.736L89.5968 236.081L89.2863 233.813C87.4456 234.053 85.5762 233.759 83.8903 232.965L84.6149 230.193C85.9334 230.851 87.3965 231.143 88.8593 231.042L88.3028 227.515C85.9219 227.316 83.2433 226.958 82.7775 223.921C82.4281 221.681 83.7091 219.493 86.9183 218.617L86.543 216.27L88.6134 215.939L88.9757 218.246C90.4635 218.082 91.9679 218.287 93.3624 218.843L92.7413 221.614C91.6766 221.197 90.5422 220.999 89.4027 221.031L89.9721 224.624C92.3401 224.81 94.9799 225.168 95.4457 228.151C95.7563 230.313 94.4623 232.474 91.292 233.376ZM87.7723 224.359L87.3065 221.442C86.2454 221.866 85.9089 222.556 86.0125 223.258C86.116 223.961 86.8148 224.253 87.7723 224.399V224.359ZM92.1202 228.881C92.0037 228.138 91.3438 227.833 90.3991 227.661L90.852 230.578C91.8743 230.22 92.2237 229.597 92.1202 228.92V228.881Z" fill="#E0E0E0"/>
<path d="M557.412 397.312L551.358 429.255L597.609 438.459L603.663 406.516L557.412 397.312Z" fill="#EBEBEB"/>
<path d="M603.754 406.949C603.592 407.079 603.419 407.195 603.236 407.294L601.735 408.182L596.145 411.431L577.602 422.039L577.447 422.119L577.331 421.986L577.124 421.668C571.715 415.038 566.772 409.177 563.226 404.841L559.008 399.669L557.882 398.25C557.745 398.096 557.623 397.927 557.52 397.747C557.676 397.882 557.819 398.033 557.947 398.197L559.124 399.523L563.407 404.575L577.395 421.31L577.667 421.641H577.408L596.016 411.179L601.671 408.05L603.211 407.227C603.382 407.115 603.564 407.022 603.754 406.949Z" fill="#E0E0E0"/>
<path d="M551.451 429.69C551.374 429.597 555.683 425.911 561.066 421.456C566.449 417 570.887 413.5 570.965 413.566C571.042 413.632 566.733 417.345 561.337 421.8C555.941 426.256 551.529 429.783 551.451 429.69Z" fill="#E0E0E0"/>
<path d="M586.402 416.218C586.518 416.218 589.119 421.204 592.238 427.462C595.356 433.721 597.828 438.906 597.698 438.906C597.569 438.906 594.981 433.933 591.862 427.674C588.744 421.416 586.298 416.271 586.402 416.218Z" fill="#E0E0E0"/>
<path d="M458.84 69.2435C458.672 68.536 458.589 67.8102 458.594 67.0821C458.569 66.1917 458.474 65.3048 458.309 64.4301C458.165 63.2539 457.945 62.0888 457.649 60.9428C456.915 57.7868 455.724 54.761 454.116 51.9657C452.018 48.261 449.251 44.9987 445.964 42.3522C442.006 39.1368 437.365 36.9202 432.416 35.8814C426.746 34.6854 420.868 35.0608 415.387 36.9687C412.427 37.9682 409.635 39.426 407.105 41.2914C405.8 42.2428 404.555 43.2792 403.379 44.3943C402.212 45.5708 401.127 46.8291 400.131 48.1601C395.928 53.7249 393.57 60.5206 393.403 67.5553C393.235 74.59 395.266 81.4955 399.199 87.2639C400.132 88.6594 401.157 89.9885 402.266 91.2419C403.392 92.4144 404.589 93.5128 405.85 94.5303C408.284 96.5234 411.003 98.12 413.912 99.2642C420.942 102.072 428.703 102.304 435.881 99.9218C443.059 97.5392 449.213 92.6882 453.301 86.1898C455.04 83.4769 456.374 80.514 457.261 77.3984C457.612 76.2696 457.889 75.1178 458.089 73.9508C458.282 73.1041 458.416 72.2445 458.49 71.3784C458.527 70.6511 458.644 69.9304 458.84 69.2303C458.914 69.9532 458.914 70.682 458.84 71.4049C458.839 72.2943 458.761 73.1818 458.607 74.0569C458.47 75.2571 458.245 76.445 457.934 77.6106C457.143 80.8421 455.868 83.9285 454.155 86.76C451.64 90.9428 448.281 94.5264 444.305 97.2707C440.328 100.015 435.824 101.857 431.096 102.672C425.102 103.699 418.948 103.058 413.278 100.816C410.211 99.6244 407.34 97.961 404.763 95.8829C403.43 94.8164 402.164 93.6649 400.972 92.4353C399.798 91.1384 398.713 89.7605 397.724 88.3114C393.549 82.2347 391.39 74.9442 391.565 67.5147C391.739 60.0853 394.239 52.9099 398.694 47.0463C399.755 45.644 400.905 44.3151 402.136 43.0683C403.384 41.8918 404.707 40.8021 406.096 39.8063C408.764 37.8559 411.711 36.3397 414.831 35.3112C420.214 33.4663 425.965 33.0472 431.549 34.0929C437.133 35.1385 442.368 37.6149 446.767 41.2914C450.118 44.0929 452.909 47.5331 454.983 51.4221C456.559 54.3203 457.685 57.4516 458.322 60.7041C458.583 61.8823 458.756 63.0792 458.84 64.2843C458.953 65.1632 458.987 66.0509 458.943 66.9363C458.994 67.7069 458.959 68.481 458.84 69.2435Z" fill="#EBEBEB"/>
<path d="M452.201 48.0008C452.266 48.0937 451.671 48.6373 450.519 49.5125L448.384 51.0904C447.957 51.3821 447.517 51.7136 447.025 52.0319L445.382 52.907C439.45 56.3735 432.708 58.1156 425.881 57.9458L422.931 57.8132L420.097 57.3491C419.631 57.2696 419.165 57.2165 418.712 57.1105L417.418 56.7524C416.551 56.5138 415.684 56.3016 414.83 56.0231C411.942 55.0312 409.165 53.7242 406.549 52.1247C402.098 49.3666 399.937 46.8207 400.079 46.7014C400.221 46.582 402.667 48.5843 407.157 50.9711C409.794 52.3461 412.544 53.4819 415.374 54.3656C416.163 54.5911 416.991 54.7767 417.833 54.9889L419.127 55.3204L420.421 55.5193L423.125 55.9303L425.946 56.0497C432.484 56.1858 438.957 54.6981 444.812 51.7136L446.456 50.9843C446.96 50.7059 447.426 50.4142 447.866 50.1755L450.131 48.8495C451.386 48.2263 452.124 47.8948 452.201 48.0008Z" fill="#EBEBEB"/>
<path d="M399.108 89.3324C399.031 89.2263 399.639 88.6959 400.79 87.8208L402.925 86.1898C403.353 85.8981 403.792 85.5666 404.284 85.2483L405.915 84.3732C411.85 80.9044 418.597 79.1622 425.428 79.3344L428.378 79.467L431.212 79.9311C431.678 80.0106 432.144 80.0637 432.597 80.1565L433.891 80.5278C434.758 80.7665 435.625 80.9786 436.479 81.2438C439.369 82.2666 442.145 83.6 444.76 85.2218C449.199 87.9799 451.36 90.5258 451.23 90.6452C451.101 90.7645 448.642 88.7622 444.165 86.3754C441.55 84.9949 438.822 83.8502 436.013 82.9544C435.224 82.7289 434.383 82.5433 433.554 82.3179L432.26 81.9996L430.966 81.8007L428.249 81.3897L425.441 81.2703C418.893 81.1341 412.411 82.6264 406.549 85.6196L404.892 86.3489C404.388 86.6274 403.935 86.9191 403.495 87.1578L401.23 88.4838C399.923 89.107 399.186 89.4385 399.108 89.3324Z" fill="#EBEBEB"/>
<path d="M458.814 70.0261C458.814 70.5432 443.933 70.5963 425.623 70.1322C407.313 69.6681 392.458 68.952 392.471 68.3819C392.484 67.8117 407.339 67.8117 425.662 68.2758C443.985 68.7399 458.827 69.509 458.814 70.0261Z" fill="#EBEBEB"/>
<path d="M424.108 102.38C423.604 102.38 423.565 87.1446 424.005 68.3685C424.445 49.5923 425.221 34.3963 425.726 34.4759C426.23 34.5555 426.269 49.7116 425.829 68.4878C425.389 87.264 424.613 102.394 424.108 102.38Z" fill="#EBEBEB"/>
<path d="M424.108 102.328C423.992 102.526 420.33 99.9805 416.111 94.2389C413.655 90.8521 411.665 87.1355 410.198 83.1933C408.4 78.3335 407.522 73.1673 407.61 67.9708C407.738 62.7628 408.877 57.633 410.961 52.881C412.638 49.0361 414.814 45.4411 417.431 42.1934C421.895 36.6507 425.583 34.2374 425.713 34.3965C425.842 34.5556 422.542 37.3933 418.44 43.0023C416.057 46.2867 414.059 49.8472 412.488 53.6103C410.583 58.1767 409.542 63.0725 409.421 68.0371C409.338 73.0029 410.127 77.9436 411.75 82.6232C413.103 86.458 414.916 90.1059 417.146 93.4831C421.002 99.2645 424.289 102.102 424.108 102.328Z" fill="#EBEBEB"/>
<path d="M426.463 34.4757C426.593 34.2768 430.242 36.8094 434.46 42.5643C436.925 45.9447 438.924 49.657 440.4 53.5966C442.198 58.4608 443.077 63.6315 442.988 68.8323C442.865 74.037 441.726 79.1636 439.636 83.909C437.956 87.7562 435.78 91.3552 433.166 94.6098C428.702 100.139 425.014 102.566 424.898 102.393C424.781 102.221 428.055 99.3967 432.157 93.7877C434.553 90.5121 436.552 86.9499 438.109 83.1797C440.016 78.609 441.056 73.7086 441.176 68.7395C441.259 63.7749 440.474 58.8352 438.86 54.1535C437.503 50.318 435.686 46.6701 433.451 43.2936C429.608 37.4857 426.282 34.6215 426.463 34.4757Z" fill="#EBEBEB"/>
<path d="M104.348 450.999L105.991 447.26C107.38 443.993 107.444 440.294 106.172 436.978C105.541 435.336 104.602 433.838 103.406 432.568C102.211 431.298 100.783 430.282 99.2044 429.578C97.6258 428.873 95.9272 428.494 94.2056 428.463C92.4841 428.431 90.7733 428.747 89.171 429.393C85.935 430.697 83.3371 433.265 81.9489 436.532L80.2279 440.325C78.5303 439.86 76.7263 440.034 75.1429 440.814C73.5595 441.595 72.3015 442.932 71.5969 444.581L62.2413 466.752C61.4701 468.573 61.4317 470.632 62.1344 472.482C62.8371 474.332 64.2242 475.823 65.9939 476.631L88.4966 486.642C90.2795 487.437 92.2978 487.475 94.1079 486.747C95.9179 486.018 97.3717 484.583 98.1498 482.757L107.544 460.599C108.277 458.879 108.356 456.94 107.764 455.164C107.173 453.387 105.954 451.902 104.348 450.999ZM85.6109 470.597L79.7362 467.945L82.4924 463.967C82.0166 463.26 81.7769 462.414 81.8094 461.555C81.8418 460.697 82.1446 459.872 82.6724 459.205C83.2002 458.538 83.9246 458.063 84.7374 457.853C85.5502 457.642 86.4077 457.707 87.1815 458.037C87.9554 458.368 88.6041 458.946 89.0306 459.686C89.4571 460.425 89.6385 461.286 89.5476 462.14C89.4568 462.994 89.0986 463.795 88.5266 464.423C87.9546 465.052 87.1996 465.473 86.3744 465.625C86.1027 467.574 85.6109 470.597 85.6109 470.597ZM101.773 449.806L82.9065 441.399L84.5369 437.699C85.6678 435.206 87.7044 433.265 90.2125 432.288C92.7205 431.312 95.5015 431.378 97.9625 432.473C100.423 433.568 102.37 435.605 103.386 438.149C104.402 440.693 104.409 443.544 103.403 446.093L101.773 449.806Z" fill="#EBEBEB"/>
<path d="M563.356 209.269C563.358 211.139 562.82 212.968 561.808 214.524C560.796 216.08 559.357 217.294 557.672 218.012C555.987 218.73 554.132 218.92 552.342 218.558C550.552 218.196 548.907 217.297 547.615 215.977C546.323 214.657 545.442 212.973 545.083 211.14C544.725 209.307 544.905 207.405 545.601 205.677C546.297 203.948 547.477 202.47 548.993 201.429C550.509 200.388 552.292 199.831 554.117 199.828C555.328 199.826 556.528 200.069 557.648 200.543C558.768 201.016 559.786 201.711 560.644 202.588C561.502 203.465 562.183 204.506 562.648 205.652C563.114 206.799 563.354 208.028 563.356 209.269Z" fill="#EBEBEB"/>
<path d="M588.136 194.575C590.437 189.916 588.618 184.228 584.072 181.87C579.525 179.511 573.974 181.376 571.673 186.035C569.372 190.693 571.191 196.382 575.737 198.74C580.284 201.098 585.835 199.233 588.136 194.575Z" fill="#EBEBEB"/>
<path d="M580.013 240.687C585.109 240.68 589.233 236.067 589.225 230.384C589.218 224.702 585.081 220.101 579.985 220.108C574.89 220.115 570.765 224.728 570.773 230.411C570.781 236.094 574.918 240.695 580.013 240.687Z" fill="#EBEBEB"/>
<path d="M577.279 229.186C576.878 229.782 570.745 226.216 563.576 221.23C556.407 216.244 550.908 211.696 551.296 211.099C551.684 210.502 557.766 214.083 564.999 219.055C572.233 224.028 577.667 228.589 577.279 229.186Z" fill="#EBEBEB"/>
<path d="M578.017 189.618C578.444 190.188 573.708 194.683 567.432 199.669C561.156 204.655 555.786 208.222 555.294 207.625C554.803 207.028 559.603 202.56 565.879 197.587C572.155 192.615 577.59 189.101 578.017 189.618Z" fill="#EBEBEB"/>
<path d="M582.662 629.465C582.662 629.651 466.617 629.81 323.513 629.81C180.41 629.81 64.3379 629.651 64.3379 629.465C64.3379 629.28 180.358 629.121 323.513 629.121C466.668 629.121 582.662 629.266 582.662 629.465Z" fill="#263238"/>
<path d="M333.412 400.001C311.191 400.004 289.469 393.254 270.993 380.606C252.516 367.957 238.114 349.979 229.609 328.943C221.104 307.907 218.877 284.759 223.211 262.426C227.544 240.094 238.243 219.58 253.954 203.478C269.666 187.376 289.683 176.411 311.477 171.967C333.27 167.524 355.859 169.803 376.388 178.516C396.918 187.229 414.464 201.985 426.809 220.917C439.155 239.85 445.744 262.108 445.744 284.878C445.71 315.397 433.864 344.657 412.806 366.239C391.747 387.821 363.195 399.962 333.412 400.001ZM333.412 171.094C311.447 171.091 289.974 177.763 271.71 190.266C253.446 202.77 239.21 220.542 230.803 241.337C222.397 262.131 220.196 285.013 224.481 307.089C228.765 329.164 239.342 349.442 254.874 365.358C270.405 381.273 290.194 392.112 311.737 396.502C333.28 400.893 355.61 398.638 375.902 390.023C396.195 381.409 413.538 366.821 425.74 348.105C437.941 329.389 444.452 307.386 444.45 284.878C444.426 254.704 432.721 225.773 411.903 204.433C391.086 183.094 362.857 171.089 333.412 171.054V171.094Z" fill="#407BFF"/>
<path d="M475.428 283.234C475.428 283.234 475.428 282.438 475.337 280.873C475.337 280.091 475.337 279.123 475.246 277.969C475.156 276.816 475.246 275.476 475.052 273.991C474.858 272.506 474.793 270.782 474.651 268.913C474.509 267.043 474.172 265.014 473.901 262.8C473.292 258.398 472.361 253.345 471.015 247.737C469.472 241.498 467.527 235.372 465.192 229.398C462.449 222.31 459.147 215.463 455.319 208.924C445.954 192.951 433.716 178.944 419.255 167.646C410.868 161.085 401.782 155.52 392.172 151.058C381.773 146.151 370.819 142.588 359.563 140.45C341.184 136.974 322.321 137.194 304.024 141.1C297.599 142.526 291.271 144.377 285.08 146.642C258.726 156.484 235.804 174.1 219.203 197.269C214.873 203.303 211.01 209.674 207.647 216.324C206.832 218.021 205.913 219.665 205.189 221.402L202.898 226.587C201.527 230.127 200.116 233.668 199.016 237.314C196.614 244.676 194.809 252.229 193.62 259.896C192.427 267.625 191.804 275.435 191.757 283.26C191.806 291.089 192.424 298.903 193.607 306.637C194.801 314.264 196.606 321.777 199.003 329.1C200.129 332.76 201.591 336.3 202.885 339.84L205.176 345.025C205.9 346.775 206.832 348.42 207.647 350.104C210.997 356.762 214.857 363.138 219.19 369.172C235.794 392.346 258.721 409.965 285.08 419.812C291.293 422.063 297.643 423.896 304.089 425.301C322.385 429.208 341.249 429.428 359.628 425.951C381.293 421.778 401.709 412.484 419.255 398.808C433.709 387.503 445.935 373.486 455.28 357.503C459.108 350.964 462.41 344.117 465.153 337.029C467.486 331.077 469.431 324.973 470.976 318.757C472.27 313.148 473.254 308.149 473.862 303.707C474.134 301.493 474.431 299.464 474.612 297.594C474.793 295.724 474.884 294.027 475.013 292.502C475.143 290.977 475.182 289.651 475.208 288.524C475.233 287.397 475.272 286.403 475.298 285.62C475.298 284.056 475.389 283.26 475.389 283.26C475.389 283.26 475.389 284.056 475.389 285.62C475.389 286.403 475.389 287.371 475.389 288.524C475.389 289.678 475.389 291.03 475.22 292.502C475.052 293.974 474.988 295.724 474.858 297.594C474.729 299.464 474.405 301.506 474.146 303.72C473.551 308.136 472.633 313.188 471.313 318.81C469.782 325.043 467.85 331.165 465.528 337.135C462.802 344.252 459.508 351.126 455.681 357.688C446.337 373.738 434.098 387.818 419.617 399.179C402.015 412.961 381.504 422.322 359.731 426.508C347.641 428.848 335.303 429.557 323.033 428.616C316.622 428.163 310.249 427.255 303.96 425.898C297.492 424.483 291.125 422.627 284.899 420.342C258.411 410.477 235.37 392.791 218.685 369.516C214.322 363.455 210.428 357.053 207.039 350.369C206.224 348.672 205.292 347.014 204.555 345.264C203.817 343.513 203.028 341.79 202.251 340.053C200.88 336.499 199.456 332.945 198.369 329.272C195.959 321.924 194.146 314.384 192.947 306.73C190.463 291.183 190.463 275.324 192.947 259.777C194.157 252.124 195.975 244.584 198.382 237.235C199.508 233.562 200.97 230.008 202.264 226.454C203.041 224.717 203.804 222.98 204.568 221.243C205.331 219.506 206.224 217.848 207.052 216.138C210.44 209.457 214.334 203.06 218.698 197.004C235.381 173.732 258.417 156.047 284.899 146.178C291.117 143.878 297.475 142 303.934 140.556C322.307 136.663 341.242 136.456 359.692 139.946C370.984 142.075 381.973 145.639 392.405 150.554C402.05 155.041 411.167 160.637 419.579 167.235C434.063 178.595 446.306 192.676 455.655 208.726C459.477 215.291 462.77 222.165 465.503 229.279C467.824 235.249 469.756 241.371 471.287 247.604C472.581 253.226 473.525 258.291 474.121 262.707C474.379 264.921 474.651 266.95 474.832 268.82C475.013 270.69 475.091 272.4 475.195 273.925C475.298 275.45 475.35 276.776 475.363 277.903C475.376 279.03 475.363 280.025 475.363 280.807C475.44 282.438 475.428 283.234 475.428 283.234Z" fill="#263238"/>
<path d="M335.146 448.731V447.405C367.478 447.398 399.082 437.566 425.962 419.153C452.842 400.74 473.79 374.573 486.158 343.961C498.525 313.349 501.757 279.666 495.445 247.171C489.133 214.677 473.559 184.83 450.694 161.405C427.829 137.98 398.699 122.029 366.987 115.568C335.275 109.107 302.406 112.427 272.536 125.108C242.665 137.789 217.135 159.261 199.172 186.81C181.21 214.359 171.623 246.747 171.623 279.879H170.329C170.329 186.78 244.255 111.039 335.107 111.039C378.554 111.434 420.091 129.397 450.678 161.018C481.264 192.64 498.425 235.362 498.425 279.885C498.425 324.409 481.264 367.13 450.678 398.752C420.091 430.374 378.554 448.337 335.107 448.731H335.146Z" fill="#407BFF"/>
<path d="M333.425 432.064V425.434C370.229 425.434 405.525 410.452 431.549 383.784C457.573 357.117 472.193 320.947 472.193 283.234C472.193 245.52 457.573 209.351 431.549 182.683C405.525 156.015 370.229 141.033 333.425 141.033V134.403C371.944 134.403 408.886 150.084 436.124 177.995C463.361 205.906 478.663 243.761 478.663 283.234C478.663 322.706 463.361 360.561 436.124 388.472C408.886 416.384 371.944 432.064 333.425 432.064Z" fill="#407BFF"/>
<path d="M502.46 279.879H495.99C495.61 236.409 478.491 194.852 448.36 164.252C418.229 133.651 377.523 116.483 335.101 116.483C292.678 116.483 251.973 133.651 221.841 164.252C191.71 194.852 174.592 236.409 174.211 279.879H167.741C167.741 185.322 242.793 108.387 335.107 108.387C379.476 108.44 422.013 126.525 453.387 158.674C484.76 190.824 502.409 234.413 502.46 279.879Z" fill="#407BFF"/>
<path d="M336.349 474.204C233.541 474.204 149.896 388.478 149.896 283.127C149.896 177.777 233.541 92.0508 336.349 92.0508V98.6808C237.112 98.6808 156.366 181.423 156.366 283.127C156.366 384.832 237.112 467.574 336.349 467.574C435.586 467.574 516.306 384.832 516.306 283.127H522.776C522.776 388.518 439.17 474.204 336.349 474.204Z" fill="#407BFF"/>
<path d="M333.412 496.627H330.164V495.301H333.399L333.412 496.627Z" fill="#407BFF"/>
<path d="M317.03 495.924C314.869 495.751 312.669 495.539 310.56 495.287L310.702 493.961C312.85 494.2 315.037 494.412 317.172 494.584L317.03 495.924ZM297.62 493.444C295.459 493.059 293.285 492.635 291.15 492.184L291.421 490.858C293.518 491.309 295.666 491.733 297.814 492.118L297.62 493.444ZM278.43 489.028C276.346 488.445 274.224 487.808 272.141 487.145L272.529 485.819C274.599 486.482 276.696 487.145 278.779 487.702L278.43 489.028ZM259.731 482.743C257.687 481.948 255.642 481.099 253.624 480.237L254.128 479.017C256.121 479.879 258.165 480.714 260.197 481.51L259.731 482.743ZM241.628 474.708C239.674 473.713 237.746 472.679 235.792 471.618L236.4 470.451C238.316 471.499 240.282 472.533 242.198 473.527L241.628 474.708ZM224.431 464.882C222.58 463.702 220.717 462.482 218.918 461.249L219.63 460.135C221.429 461.368 223.279 462.588 225.117 463.755L224.431 464.882ZM208.243 453.439C206.509 452.113 204.775 450.694 203.067 449.275L203.895 448.254C205.564 449.646 207.285 451.038 209.006 452.378L208.243 453.439ZM193.181 440.47C191.563 438.945 189.972 437.381 188.432 435.829L189.338 434.888C190.865 436.426 192.456 437.977 194.061 439.502L193.181 440.47ZM179.387 426.043C177.937 424.373 176.488 422.675 175.091 420.965L176.087 420.116C177.472 421.813 178.908 423.511 180.357 425.168L179.387 426.043ZM166.99 410.423C165.696 408.606 164.402 406.777 163.186 404.947L164.247 404.204C165.463 406.008 166.731 407.837 168.025 409.628L166.99 410.423ZM156.095 393.662C154.982 391.766 153.869 389.804 152.808 387.855L153.986 387.192C155.034 389.128 156.134 391.064 157.233 392.96L156.095 393.662ZM146.804 375.934C145.859 373.918 144.94 371.863 144.073 369.834L145.264 369.304C146.118 371.319 147.037 373.361 147.968 375.364L146.804 375.934ZM139.208 357.37C138.458 355.275 137.733 353.14 137.06 351.032L138.354 350.607C139.027 352.716 139.739 354.837 140.489 356.919L139.208 357.37ZM133.359 338.13C132.816 335.968 132.298 333.78 131.819 331.606L133.113 331.314C133.579 333.475 134.097 335.65 134.64 337.798L133.359 338.13ZM129.4 318.425C129.063 316.237 128.753 313.996 128.468 311.795L129.762 311.636C130.034 313.837 130.344 316.065 130.681 318.266L129.4 318.425ZM127.187 298.35C127.044 296.135 126.941 293.868 126.876 291.64H128.17C128.17 293.854 128.338 296.095 128.481 298.27L127.187 298.35ZM128.106 278.3H126.812C126.889 276.06 126.993 273.805 127.122 271.578L128.416 271.67C128.326 273.832 128.235 276.073 128.106 278.3ZM129.632 258.331L128.338 258.172C128.61 255.957 128.921 253.716 129.257 251.542L130.551 251.754C130.267 253.915 129.956 256.13 129.684 258.331H129.632ZM132.997 238.613L131.703 238.322C132.182 236.147 132.699 233.946 133.243 231.798L134.537 232.129C134.032 234.264 133.514 236.452 133.049 238.68L132.997 238.613ZM138.173 219.307L136.944 218.896C137.629 216.774 138.354 214.639 139.092 212.531L140.308 212.982C139.622 215.077 138.897 217.212 138.225 219.307H138.173ZM145.16 200.57L143.97 200.04C144.85 197.998 145.769 195.943 146.7 193.914L147.878 194.484C146.985 196.5 146.079 198.542 145.212 200.57H145.16ZM153.856 182.603L152.73 181.967C153.791 180.004 154.887 178.059 156.017 176.132L157.117 176.822C156.056 178.718 154.956 180.667 153.908 182.603H153.856ZM164.208 165.59L163.134 164.835C164.428 163.005 165.657 161.162 166.951 159.358L167.987 160.141C166.731 161.931 165.45 163.761 164.234 165.59H164.208ZM176.048 149.678L175.065 148.817C176.462 147.119 177.912 145.409 179.361 143.738L180.318 144.626C178.908 146.257 177.472 147.955 176.074 149.652L176.048 149.678ZM189.312 134.96L188.406 134.018C189.946 132.467 191.55 130.902 193.142 129.377L194.022 130.359C192.456 131.844 190.877 133.395 189.338 134.933L189.312 134.96ZM203.869 121.607L203.054 120.573C204.736 119.167 206.47 117.775 208.23 116.422L209.019 117.483C207.285 118.796 205.564 120.188 203.895 121.581L203.869 121.607ZM219.578 109.673L218.867 108.572C220.652 107.339 222.516 106.119 224.366 104.939L225.052 106.066C223.227 107.26 221.39 108.48 219.604 109.7L219.578 109.673ZM236.336 99.4496L235.728 98.2695C237.643 97.2219 239.61 96.1876 241.538 95.1931L242.12 96.3865C240.192 97.328 238.251 98.349 236.336 99.4496ZM253.947 90.8306L253.442 89.6107C255.448 88.7488 257.493 87.9001 259.511 87.1178L259.977 88.351C257.971 89.0935 255.94 89.9289 253.947 90.7908V90.8306ZM272.283 83.9752L271.895 82.7155C273.978 82.0525 276.1 81.3895 278.184 80.8193L278.533 82.1453C276.45 82.6492 274.328 83.2724 272.283 83.9354V83.9752ZM291.15 78.9099L290.891 77.5839C293.026 77.1198 295.187 76.6954 297.361 76.2579L297.594 77.5839C295.471 78.0347 293.311 78.459 291.15 78.9099ZM310.443 75.754L310.301 74.428C312.462 74.176 314.662 73.9639 316.771 73.7915L316.874 75.1175C314.817 75.2899 312.63 75.5816 310.482 75.754H310.443Z" fill="#407BFF"/>
<path d="M330.177 74.4813V73.1553H333.425V74.4813H330.177Z" fill="#407BFF"/>
<path d="M604.76 327.164L534.305 328.677L535.3 377.344L605.755 375.831L604.76 327.164Z" fill="#407BFF"/>
<path d="M604.972 327.774C604.785 328.018 604.572 328.241 604.338 328.437L602.41 330.24L595.241 336.804L571.38 358.272L571.185 358.444L570.978 358.285L570.474 357.887L544.969 337.785C541.773 335.213 539.159 333.131 537.283 331.633C536.429 330.917 535.743 330.307 535.212 329.935C534.961 329.75 534.731 329.536 534.526 329.299C534.796 329.452 535.051 329.629 535.29 329.829L537.438 331.42L545.202 337.414L570.823 357.37L571.328 357.768H570.927L594.904 336.446L602.203 330.055L604.208 328.344C604.449 328.136 604.704 327.945 604.972 327.774Z" fill="#263238"/>
<path d="M535.51 377.91C535.381 377.791 540.544 371.015 547.04 362.754C553.536 354.493 558.932 347.903 559.074 348.022C559.216 348.141 554.053 354.917 547.544 363.178C541.036 371.439 535.717 378.069 535.51 377.91Z" fill="#263238"/>
<path d="M582.482 346.948C582.612 346.842 587.982 353.339 594.465 361.534C600.947 369.729 606.111 376.372 605.968 376.478C605.826 376.584 600.456 370.087 593.973 361.892C587.49 353.697 582.301 347.067 582.482 346.948Z" fill="#263238"/>
<path d="M121.183 141.749C121.67 149.006 120.044 156.248 116.512 162.557C112.98 168.867 107.701 173.961 101.342 177.194C94.9834 180.428 87.8315 181.655 80.7918 180.721C73.7521 179.787 67.1411 176.733 61.7958 171.947C56.4505 167.161 52.6113 160.857 50.7641 153.833C48.9169 146.81 49.1448 139.383 51.4191 132.492C53.6933 125.602 57.9115 119.557 63.5398 115.125C69.168 110.692 75.9531 108.07 83.0362 107.591C87.7298 107.267 92.4397 107.893 96.8971 109.435C101.354 110.976 105.472 113.401 109.014 116.573C112.557 119.745 115.455 123.601 117.543 127.921C119.631 132.241 120.868 136.94 121.183 141.749Z" fill="#407BFF"/>
<g opacity="0.3">
<path opacity="0.3" d="M112.578 141.457C112.153 140.39 111.841 139.278 111.647 138.142C110.835 135.181 109.587 132.364 107.946 129.789C106.825 128.037 105.523 126.414 104.064 124.949C102.345 123.274 100.423 121.835 98.3442 120.666C97.2324 120.037 96.0777 119.492 94.8892 119.035C93.6568 118.549 92.3891 118.163 91.0978 117.881C89.7634 117.588 88.4096 117.398 87.0476 117.311C85.6414 117.231 84.2315 117.258 82.8291 117.39C81.4294 117.545 80.0416 117.798 78.6754 118.146C77.3527 118.495 76.0555 118.938 74.7934 119.472C73.5869 120.015 72.4194 120.644 71.2996 121.355C70.2148 122.034 69.1849 122.801 68.2199 123.649C66.4196 125.199 64.8233 126.982 63.4709 128.953C62.2925 130.675 61.3031 132.525 60.5206 134.469C59.3876 137.321 58.6977 140.336 58.4761 143.407C58.495 144.559 58.3952 145.71 58.1784 146.841C57.7689 145.738 57.5925 144.558 57.6608 143.38C57.5722 140.166 58.0725 136.964 59.136 133.939C59.8912 131.852 60.8905 129.866 62.1122 128.025C63.4877 125.87 65.1467 123.92 67.0423 122.23C68.0637 121.305 69.154 120.463 70.3032 119.711C71.4952 118.915 72.7505 118.223 74.0558 117.642C75.4027 117.024 76.7961 116.519 78.2225 116.131C81.1751 115.334 84.2335 115.03 87.2805 115.229C88.7525 115.33 90.2148 115.547 91.6542 115.879C93.0401 116.212 94.3986 116.656 95.7174 117.205C96.9856 117.714 98.2142 118.321 99.3923 119.021C101.566 120.315 103.563 121.898 105.332 123.729C106.854 125.331 108.187 127.112 109.304 129.033C110.911 131.796 112.007 134.839 112.539 138.01C112.795 139.143 112.808 140.319 112.578 141.457Z" fill="black"/>
</g>
<g opacity="0.3">
<path opacity="0.3" d="M89.5577 160.632L89.9459 165.498L85.7016 165.843L85.4039 161.122C81.6223 161.298 77.8688 160.379 74.5732 158.47L76.4883 152.981C79.0571 154.524 81.9736 155.356 84.951 155.394L84.3817 148.141C79.5809 147.358 74.1979 146.178 73.7191 139.973C73.3568 135.371 76.3071 131.155 82.9324 129.815L82.5571 125.002L86.6979 124.644L87.0732 129.378C90.1186 129.3 93.1386 129.964 95.8853 131.314L94.1902 136.83C92.1001 135.815 89.836 135.229 87.5261 135.106L88.1084 142.492C92.8962 143.235 98.1887 144.415 98.6804 150.528C99.0556 155.142 96.1441 159.266 89.5577 160.632ZM83.8123 141.802L83.3206 135.637C81.1208 136.339 80.3315 137.665 80.4479 139.111C80.5644 140.556 81.8972 141.338 83.8123 141.802ZM91.8739 151.655C91.7575 150.143 90.4635 149.414 88.5872 148.91L89.053 154.903C91.1881 154.254 92.0292 153.047 91.8739 151.655Z" fill="black"/>
</g>
<path d="M58.127 146.032C58.2046 146.032 58.2952 147.252 58.7093 149.427C59.3286 152.48 60.4393 155.406 61.996 158.085C63.0672 159.933 64.3344 161.654 65.7745 163.217C67.4592 164.974 69.3499 166.511 71.4034 167.792C73.6801 169.188 76.1429 170.238 78.7145 170.908C81.4814 171.602 84.3329 171.874 87.1773 171.717C90.0147 171.486 92.8043 170.833 95.4588 169.781C97.9176 168.781 100.223 167.423 102.304 165.75C105.851 162.877 108.633 159.132 110.392 154.863C111.607 151.976 112.346 148.902 112.578 145.767C112.708 143.566 112.643 142.333 112.721 142.333C112.781 142.624 112.807 142.923 112.798 143.221C112.85 144.073 112.85 144.928 112.798 145.78C112.68 148.969 112.014 152.111 110.832 155.062C110.016 157.087 108.983 159.013 107.752 160.804C106.295 162.826 104.6 164.657 102.705 166.254C100.594 167.969 98.254 169.367 95.7565 170.404C90.3085 172.675 84.291 173.084 78.598 171.571C75.955 170.895 73.4222 169.827 71.0799 168.402C68.9899 167.083 67.0723 165.496 65.3734 163.681C63.9185 162.065 62.6467 160.286 61.5819 158.377C60.0411 155.63 58.9813 152.628 58.4505 149.506C58.3257 148.65 58.2522 147.786 58.2305 146.92C58.1615 146.63 58.1268 146.331 58.127 146.032Z" fill="#263238"/>
<path d="M102.55 547.731C102.55 547.731 111.233 553.485 115.244 553.287C119.255 553.088 135.029 533.052 135.029 533.052L126.812 526.687L106.574 530.121L102.576 547.545" fill="#263238"/>
<path d="M274.691 253.876C276.408 260.538 276.47 267.535 274.872 274.229C273.274 280.922 270.067 287.099 265.542 292.197C261.389 296.785 256.096 300.538 253.469 306.187C250.558 312.445 251.503 319.805 250.209 326.62C248.915 333.436 243.273 340.676 236.803 339.032C242.936 348.314 252.253 355.09 262.243 359.744C272.232 364.398 282.947 367.13 293.596 369.848C299.523 371.346 305.915 372.831 311.583 370.498C318.92 367.488 322.569 359.227 325.506 351.708L351.102 286.191" fill="#263238"/>
<path d="M362.32 227.754C362.315 225.297 361.411 222.931 359.787 221.124C358.162 219.317 355.936 218.2 353.546 217.994L308.425 196.778C292.133 195.373 275.868 225.248 275.195 241.982C274.444 260.546 276.799 282.929 279.232 296.732C284.123 324.499 302.407 325.029 302.407 325.029L303.96 369.954L360.586 369.848L362.32 227.754Z" fill="#B5715A"/>
<path d="M287.074 264.192C287.088 265.123 287.455 266.013 288.097 266.671C288.74 267.33 289.608 267.706 290.516 267.719C290.96 267.744 291.404 267.678 291.823 267.525C292.241 267.372 292.626 267.134 292.954 266.827C293.281 266.519 293.546 266.148 293.732 265.734C293.918 265.32 294.021 264.873 294.036 264.418C294.026 263.488 293.662 262.598 293.021 261.94C292.381 261.281 291.514 260.904 290.607 260.89C290.162 260.862 289.715 260.925 289.294 261.077C288.874 261.229 288.487 261.466 288.157 261.774C287.828 262.082 287.562 262.455 287.376 262.87C287.19 263.286 287.087 263.735 287.074 264.192Z" fill="#263238"/>
<path d="M282.61 254.698C282.985 255.03 285.728 254.579 289.39 255.414C293.052 256.25 295.576 257.841 296.015 257.695C296.223 257.629 295.86 257.098 294.721 256.369C293.094 255.365 291.314 254.648 289.455 254.247C287.674 253.821 285.832 253.731 284.02 253.982C282.856 254.194 282.416 254.592 282.61 254.698Z" fill="#263238"/>
<path d="M322.452 262.336C322.462 263.269 322.828 264.162 323.471 264.823C324.114 265.485 324.983 265.862 325.894 265.876C326.338 265.901 326.782 265.835 327.201 265.682C327.619 265.528 328.004 265.291 328.331 264.984C328.659 264.676 328.924 264.305 329.11 263.891C329.296 263.477 329.399 263.03 329.414 262.574C329.404 261.643 329.04 260.752 328.4 260.091C327.76 259.43 326.893 259.051 325.985 259.034C325.54 259.009 325.096 259.075 324.676 259.228C324.257 259.381 323.872 259.618 323.543 259.926C323.214 260.233 322.948 260.604 322.761 261.018C322.574 261.432 322.469 261.88 322.452 262.336Z" fill="#263238"/>
<path d="M317.315 256.793C317.859 256.926 320.227 254.976 324.135 253.81C328.042 252.643 331.29 252.868 331.627 252.484C331.795 252.298 331.174 251.966 329.75 251.847C327.688 251.722 325.62 251.974 323.643 252.59C321.721 253.116 319.915 254.017 318.324 255.242C317.302 256.157 317.03 256.753 317.315 256.793Z" fill="#263238"/>
<path d="M304.091 282.438C304.091 282.213 301.761 281.855 297.97 281.443C297.012 281.364 296.107 281.192 295.925 280.515C295.829 279.505 296.032 278.488 296.508 277.598C297.362 275.198 298.255 272.692 299.186 270.053C302.9 259.326 305.566 250.521 305.139 250.362C304.712 250.203 301.36 258.795 297.646 269.523C296.767 272.175 295.913 274.694 295.058 277.094C294.478 278.294 294.331 279.666 294.644 280.966C294.79 281.331 295.018 281.656 295.311 281.912C295.603 282.168 295.952 282.348 296.327 282.438C296.86 282.57 297.408 282.633 297.957 282.624C301.748 282.716 304.091 282.677 304.091 282.438Z" fill="#263238"/>
<path d="M302.408 325.348C315.223 325.274 327.766 321.556 338.64 314.607C338.64 314.607 330.656 335.107 303.405 333.091L302.408 325.348Z" fill="#884C3B"/>
<path d="M304.932 291.786C305.674 290.455 306.698 289.311 307.927 288.437C309.156 287.563 310.559 286.981 312.036 286.734C312.895 286.632 313.764 286.8 314.528 287.214C315.293 287.628 315.917 288.27 316.319 289.054C316.75 290.082 316.932 291.2 316.851 292.315C316.77 293.43 316.428 294.509 315.853 295.459C315.3 296.459 314.474 297.27 313.476 297.794C312.477 298.317 311.351 298.529 310.237 298.403C308.393 297.906 306.736 296.858 305.475 295.393C305.045 295.041 304.707 294.585 304.492 294.067C304.38 293.734 304.344 293.379 304.387 293.03C304.429 292.68 304.549 292.346 304.738 292.051" fill="#884C3B"/>
<path d="M315.219 284.878C314.598 284.878 314.675 289.028 311.259 292.065C307.843 295.101 303.495 294.717 303.495 295.327C303.495 295.592 304.479 296.109 306.316 296.122C308.689 296.097 310.979 295.219 312.786 293.643C314.524 292.115 315.618 289.958 315.84 287.623C315.969 285.872 315.491 284.851 315.219 284.878Z" fill="#263238"/>
<path d="M314.442 238.534C314.934 239.529 318.596 238.534 323.022 238.534C327.447 238.534 331.135 239.303 331.614 238.296C331.808 237.818 331.083 236.97 329.543 236.094C327.495 235.099 325.251 234.596 322.984 234.623C320.717 234.651 318.486 235.208 316.461 236.254C314.947 237.142 314.235 238.057 314.442 238.534Z" fill="#263238"/>
<path d="M279.207 250.044C280.048 250.906 283.244 249.911 287.1 249.765C290.956 249.619 294.243 250.176 294.98 249.235C295.291 248.784 294.76 247.909 293.311 247.14C291.302 246.132 289.073 245.675 286.841 245.814C284.63 245.889 282.477 246.551 280.591 247.736C279.271 248.718 278.844 249.633 279.207 250.044Z" fill="#263238"/>
<path d="M390.128 296.56C387.786 284.201 380.462 244.607 369.67 223.961C358.878 203.315 346.546 195.161 334.564 192.137C330.015 190.871 325.224 190.827 320.655 192.012C316.085 193.197 311.891 195.569 308.477 198.9C303.21 203.965 301.696 218.366 301.696 218.366C301.696 218.366 330.591 224.213 340.646 240.775C352.214 259.79 355.126 269.43 355.126 269.43L359.008 279.892C359.008 279.892 362.061 330.824 361.052 340.888L404.453 356.946C395.136 337.308 392.483 308.958 390.128 296.56Z" fill="#263238"/>
<path d="M303.469 218.14C303.469 218.14 284.421 217.132 278.779 236.293C276.191 244.965 275.932 270.172 275.932 270.172C275.932 270.172 271.856 250.19 272.477 238.905C273.099 227.621 278.262 213.26 286.504 205.172C294.514 197.309 301.347 193.543 316.008 194.1C316.008 194.1 313.911 198.369 310.301 204.151C308.49 207.055 305.643 207.373 303.469 218.14Z" fill="#263238"/>
<path d="M354.957 270.902C355.125 264.723 361.582 260.453 366.862 263.423C369.76 265.041 372.038 268.396 371.921 274.959C371.624 292.423 354.569 288.511 354.543 288.007C354.556 287.742 354.776 278.128 354.957 270.902Z" fill="#B5715A"/>
<path d="M359.861 281.483C359.939 281.483 360.159 281.709 360.664 281.947C361.362 282.269 362.154 282.302 362.876 282.04C364.688 281.39 366.254 278.486 366.396 275.41C366.462 273.911 366.201 272.417 365.632 271.034C365.486 270.485 365.209 269.982 364.828 269.568C364.447 269.154 363.972 268.842 363.446 268.661C363.106 268.558 362.742 268.581 362.417 268.727C362.093 268.872 361.829 269.131 361.673 269.456C361.44 269.947 361.543 270.292 361.453 270.318C361.362 270.345 361.091 270.026 361.246 269.31C361.34 268.875 361.583 268.489 361.932 268.223C362.406 267.872 362.996 267.725 363.575 267.812C364.274 267.964 364.923 268.297 365.46 268.78C365.997 269.263 366.404 269.88 366.642 270.57C367.338 272.099 367.662 273.778 367.586 275.463C367.418 278.977 365.594 282.239 363.122 282.928C362.662 283.055 362.181 283.074 361.713 282.985C361.245 282.895 360.802 282.699 360.418 282.411C359.887 281.907 359.809 281.51 359.861 281.483Z" fill="#884C3B"/>
<path d="M322.776 191.594C322.776 191.726 320.835 192.151 317.884 193.49C314.038 195.237 310.728 198.024 308.309 201.552C305.931 205.106 304.074 208.997 302.796 213.101C301.761 216.244 301.243 218.246 301.127 218.207C301.151 217.722 301.229 217.241 301.36 216.774C301.541 215.86 301.89 214.56 302.343 212.956C303.505 208.739 305.337 204.747 307.765 201.141C309.137 199.162 310.795 197.409 312.682 195.943C314.226 194.763 315.908 193.787 317.69 193.039C318.369 192.743 319.064 192.491 319.774 192.283C320.297 192.095 320.834 191.944 321.378 191.832C321.832 191.69 322.302 191.61 322.776 191.594Z" fill="#455A64"/>
<path d="M382.571 326.832C382.504 326.716 382.452 326.591 382.415 326.461C382.312 326.183 382.196 325.811 382.027 325.36C381.547 323.933 381.175 322.47 380.914 320.985C380.154 315.496 380.154 309.925 380.914 304.436C381.264 300.949 381.756 297.143 382.079 293.059C382.498 288.724 382.415 284.353 381.833 280.038C381.055 275.297 379.432 270.744 377.045 266.605C374.48 262.157 371.322 258.095 367.664 254.539C360.172 247.153 351.424 242.127 343.531 237.725C335.637 233.323 328.339 229.53 322.568 225.791C318 222.849 313.59 219.658 309.356 216.231C307.855 215.011 306.768 214.029 305.966 213.366L305.099 212.597C304.918 212.412 304.814 212.319 304.827 212.306L305.151 212.544C305.384 212.73 305.681 212.955 306.044 213.26L309.524 216.018C312.552 218.379 317.017 221.707 322.827 225.38C328.637 229.053 335.844 232.859 343.828 237.195C351.812 241.531 360.547 246.596 368.13 254.075C371.83 257.677 375.026 261.787 377.628 266.287C380.042 270.506 381.678 275.145 382.454 279.971C383.023 284.338 383.083 288.758 382.635 293.139C382.286 297.249 381.768 301.095 381.341 304.502C380.556 309.958 380.491 315.498 381.147 320.971C381.386 322.45 381.714 323.911 382.131 325.347C382.273 325.811 382.377 326.169 382.454 326.461C382.503 326.581 382.542 326.705 382.571 326.832Z" fill="#455A64"/>
<path d="M108.839 525.587C109.137 525.31 109.478 525.086 109.848 524.924C110.82 524.388 111.838 523.944 112.889 523.598C116.381 522.449 120.102 522.244 123.694 523.001C127.279 523.774 130.614 525.467 133.386 527.92C134.215 528.657 134.978 529.469 135.664 530.347C136.155 530.983 136.375 531.355 136.336 531.381C136.298 531.408 135.211 530.055 133.076 528.305C130.311 526.004 127.047 524.417 123.558 523.679C120.07 522.941 116.46 523.072 113.031 524.062C110.392 524.831 108.891 525.706 108.839 525.587Z" fill="#263238"/>
<path d="M127.537 515.708C128.417 516.167 129.217 516.772 129.905 517.498C133.426 520.804 135.911 525.104 137.048 529.856C137.336 530.823 137.472 531.83 137.449 532.84C136.59 529.609 135.361 526.493 133.787 523.558C132.015 520.697 129.917 518.062 127.537 515.708Z" fill="#263238"/>
<path d="M226.347 629.466C226.347 629.466 240.089 560.898 269.217 547.638L384.706 544.164C384.706 544.164 422.866 570.353 428.974 629.85L226.347 629.466Z" fill="#263238"/>
<path d="M302.977 337.401C302.977 337.401 306.38 359.346 329.232 356.694C352.084 354.042 361.026 340.955 361.026 340.955L392.781 351.39L397.776 414.335C379.668 450.47 369.509 490.233 368.014 530.825C367.755 537.627 367.522 545.092 363.096 550.171C360.379 553.3 356.445 555.011 352.563 556.363C340.202 560.601 327.13 562.221 314.139 561.125C301.149 560.029 288.511 556.239 276.994 549.985C276.994 549.985 267.289 442.288 268.479 439.238C269.67 436.188 285.56 345.582 285.56 345.582L302.977 337.401Z" fill="#E0E0E0"/>
<path d="M269.217 342.373C269.217 342.373 249.031 343.832 243.622 346.603C238.213 349.374 167.444 440.351 164.688 441.743C162.436 442.897 120.316 483.009 102.938 521.834C99.5088 529.485 96.8561 540.398 102.498 547.638C102.498 547.638 122.788 521.529 134.977 532.986L189.481 476.379L246.417 442.353L269.217 342.373Z" fill="#455A64"/>
<g opacity="0.3">
<path opacity="0.3" d="M289.856 520.176C313.821 472.758 313.821 404.045 302.395 340.954L292.147 430.605L289.856 520.176Z" fill="black"/>
</g>
<path d="M238.174 359.001L239.973 435.909C239.973 435.909 247.154 521.118 248.539 521.118C249.924 521.118 253.948 551.138 248.539 564.531C243.13 577.924 225.558 595.944 225.558 595.944L247.646 620.422C247.646 620.422 268.35 586.702 274.691 564.995C281.031 543.288 298.578 510.51 301.282 449.514C303.987 388.518 302.874 329.007 302.874 329.007L285.509 341.896L268.816 342.254L238.174 359.001Z" fill="#455A64"/>
<path d="M278.21 560.898C278.21 560.898 278.21 560.646 278.391 560.169C278.572 559.691 278.715 558.962 278.973 558.047L281.16 549.865C282.998 542.745 285.599 532.415 288.006 519.487C289.209 513.029 290.361 505.909 291.15 498.271C291.525 494.425 291.81 490.434 291.901 486.337C292.027 482.113 291.802 477.885 291.228 473.7C290.908 471.539 290.41 469.41 289.74 467.335C289.054 465.227 288.446 463.079 287.527 460.984L286.233 457.801L284.835 454.645C283.93 452.524 282.894 450.429 281.872 448.307C277.731 439.861 272.892 431.387 267.638 422.901C263.109 415.568 258.464 408.501 253.753 401.818L253.572 401.552L253.818 401.353L287.604 372.937L287.824 373.468L258.062 376.982L257.467 377.048L257.842 376.571C266.344 365.963 273.241 357.264 278.016 351.257L283.515 344.402L284.965 342.625C285.301 342.227 285.482 342.042 285.482 342.042L285.016 342.678L283.632 344.495L278.21 351.297L258.218 376.756L257.998 376.358L287.76 372.738L288.756 372.619L287.98 373.269L254.232 401.778L254.297 401.314C259.02 408.01 263.665 415.078 268.207 422.424C273.383 430.923 278.301 439.41 282.441 447.909C283.477 450.031 284.512 452.126 285.418 454.274L286.815 457.443L288.109 460.639C288.989 462.747 289.636 464.909 290.335 467.03C291.005 469.141 291.502 471.306 291.823 473.501C292.394 477.722 292.611 481.985 292.47 486.244C292.379 490.381 292.082 494.386 291.694 498.244C290.878 505.962 289.701 513.082 288.471 519.553C285.987 532.495 283.295 542.811 281.406 549.919C280.436 553.459 279.646 556.204 279.09 558.06C278.805 558.962 278.598 559.665 278.443 560.169C278.288 560.672 278.21 560.898 278.21 560.898Z" fill="#263238"/>
<path d="M361.026 322.072C361.026 322.072 372.206 339.735 373.371 340.955C373.371 340.955 420.602 354.652 423.397 360.42C434.887 384.209 425.609 392.761 423.397 425.46C420.64 466.102 407.364 522.67 407.364 522.67C407.364 522.67 426.049 596.461 428.068 600.532C430.087 604.603 364.468 629.333 357.506 620.024C350.544 610.716 345.097 578.653 345.097 578.653C345.097 578.653 338.627 513.507 341.124 487.557C343.622 461.607 355.358 434.928 359.499 403.581C363.717 370.458 361.026 322.072 361.026 322.072Z" fill="#455A64"/>
<path d="M343.492 503.88C343.507 503.558 343.554 503.238 343.635 502.925C343.777 502.249 343.958 501.347 344.178 500.273C344.398 499.199 344.747 497.621 345.097 496.017C345.446 494.412 346.171 492.543 346.805 490.514C350.433 480.002 355.355 470.007 361.453 460.772C367.543 451.543 374.411 442.877 381.976 434.875C384.887 431.812 387.346 429.438 389.093 427.847C389.96 427.052 390.671 426.521 391.15 426.07C391.39 425.866 391.65 425.688 391.927 425.54C391.927 425.54 388.045 429.014 382.325 435.207C374.887 443.283 368.098 451.961 362.022 461.156C355.965 470.337 351.004 480.229 347.245 490.62C346.598 492.636 345.951 494.452 345.459 496.07C344.967 497.688 344.721 499.107 344.437 500.287C344.152 501.467 343.932 502.276 343.764 502.939C343.696 503.259 343.605 503.573 343.492 503.88Z" fill="#263238"/>
<path d="M373.319 341.776C373.511 342.058 373.672 342.36 373.798 342.678C374.109 343.341 374.523 344.229 375.092 345.33C376.166 347.717 377.68 351.058 379.556 355.156C380.497 357.242 381.515 359.505 382.61 361.945L384.318 365.724C384.888 367.05 385.535 368.376 386.013 369.781C388.084 375.457 390.361 381.715 392.755 388.2L398.112 402.945L398.242 403.303L397.879 403.382L385.263 406.18L385.444 405.782L391.785 420.05C392.496 421.721 393.079 423.06 393.506 424.028L393.933 425.089C393.991 425.206 394.03 425.331 394.049 425.46C393.971 425.359 393.906 425.247 393.855 425.129L393.35 424.108L391.5 420.196L384.952 406.021L384.797 405.703L385.147 405.623L397.737 402.746L397.517 403.183L392.082 388.518C389.714 381.981 387.463 375.762 385.405 370.1C384.926 368.654 384.292 367.342 383.723 366.029L382.067 362.237L379.142 355.368C377.37 351.244 375.907 347.876 374.872 345.476L373.746 342.824C373.575 342.488 373.432 342.137 373.319 341.776Z" fill="#263238"/>
<path d="M404.414 514.408C404.414 514.408 428.573 539.165 440.995 537.746C453.418 536.327 469.645 508.746 469.645 499.199C469.645 489.652 457.999 428.099 457.999 428.099L462.825 404.934L417.535 404.045L408.477 475.397L404.414 514.408Z" fill="#455A64"/>
<path d="M433.801 349.03C433.769 349.208 433.717 349.381 433.646 349.547L433.102 351.019L432.196 353.406C431.795 354.334 431.355 355.408 430.838 356.601C429.79 359.001 428.418 361.905 426.697 365.194C424.976 368.482 422.815 372.129 420.227 376.001C414.142 385.099 406.935 393.353 398.785 400.558C393.994 404.837 388.841 408.671 383.387 412.015C377.531 415.656 371.131 418.286 364.443 419.798C357.711 421.296 350.728 421.123 344.075 419.295C340.921 418.398 337.904 417.059 335.108 415.317C332.443 413.623 330.032 411.542 327.952 409.137C324.239 404.623 321.047 399.684 318.441 394.419C315.853 389.579 313.498 385.031 311.531 380.788C309.737 376.975 308.177 373.051 306.86 369.039C305.882 366.006 305.121 362.904 304.582 359.757C304.113 357.075 303.905 354.353 303.961 351.629C303.975 351.81 303.975 351.991 303.961 352.172C303.961 352.557 303.961 353.074 304.052 353.737C304.196 355.742 304.442 357.738 304.789 359.717C305.369 362.843 306.165 365.923 307.17 368.933C308.521 372.911 310.102 376.803 311.906 380.589C313.899 384.805 316.28 389.327 318.881 394.154C321.48 399.373 324.658 404.267 328.353 408.74C330.405 411.086 332.776 413.118 335.392 414.773C338.143 416.471 341.108 417.774 344.204 418.645C350.754 420.432 357.625 420.595 364.248 419.122C370.865 417.619 377.198 415.022 382.999 411.431C388.423 408.114 393.554 404.316 398.332 400.081C406.46 392.928 413.666 384.742 419.774 375.722C422.362 371.877 424.51 368.23 426.322 365.008C428.133 361.786 429.466 358.869 430.553 356.495C431.084 355.302 431.549 354.241 431.963 353.326L432.921 350.966L433.529 349.52C433.601 349.347 433.692 349.182 433.801 349.03Z" fill="#263238"/>
<path d="M424.238 350.727C424.009 351.038 423.754 351.326 423.474 351.589L421.223 353.949L412.786 362.528L400.324 375.258C397.825 377.747 395.085 379.968 392.146 381.888C388.971 384.006 385.354 385.328 381.587 385.746C377.795 386.203 373.959 385.448 370.601 383.585C369.054 382.686 367.699 381.477 366.616 380.031C365.534 378.584 364.746 376.93 364.299 375.165C363.536 372.013 363.179 368.772 363.238 365.525C363.238 362.502 363.342 359.691 363.394 357.118C363.634 353.085 363.356 349.037 362.566 345.078C362.292 344.02 361.924 342.99 361.466 342.002C361.296 341.657 361.144 341.303 361.013 340.941C361.233 341.253 361.424 341.586 361.582 341.935C362.101 342.911 362.514 343.943 362.811 345.012C363.712 348.982 364.069 353.061 363.872 357.131C363.872 359.704 363.756 362.515 363.795 365.525C363.764 368.712 364.134 371.889 364.895 374.979C365.325 376.662 366.08 378.239 367.116 379.617C368.152 380.995 369.447 382.146 370.925 383.002C374.169 384.782 377.868 385.499 381.523 385.057C385.185 384.647 388.703 383.367 391.797 381.318C394.706 379.42 397.42 377.225 399.897 374.767C402.304 372.46 404.452 370.086 406.587 368.018C408.722 365.949 410.676 363.96 412.475 362.17L421.041 353.737L423.384 351.469C423.653 351.204 423.938 350.956 424.238 350.727Z" fill="#263238"/>
<path d="M252.861 530.97C252.819 530.855 252.793 530.735 252.783 530.612L252.628 529.538C252.512 528.544 252.344 527.151 252.124 525.401C251.684 521.741 251.062 516.556 250.299 510.165C248.772 497.303 246.611 479.521 244.58 459.857C243.557 450.018 242.703 440.643 241.992 432.09C241.28 423.538 240.827 415.847 240.555 409.363C240.374 406.127 240.283 403.197 240.206 400.624C240.128 398.052 240.063 395.837 240.063 393.994C240.063 392.151 240.063 390.825 240.063 389.817V388.743C240.052 388.62 240.052 388.496 240.063 388.372C240.08 388.491 240.08 388.611 240.063 388.73C240.063 389.022 240.063 389.38 240.128 389.817C240.128 390.825 240.18 392.217 240.283 393.994C240.283 395.798 240.413 397.972 240.542 400.624C240.672 403.276 240.788 406.127 240.982 409.349C241.319 415.82 241.901 423.511 242.574 432.05C243.247 440.59 244.165 449.965 245.162 459.804C247.206 479.455 249.29 497.237 250.687 510.112C251.36 516.517 251.981 521.728 252.305 525.374C252.473 527.138 252.602 528.53 252.693 529.538C252.693 529.98 252.719 530.338 252.771 530.612C252.82 530.725 252.851 530.846 252.861 530.97Z" fill="#263238"/>
<path d="M462.877 404.934H459.564L450.273 404.841L417.535 404.337L417.845 404.085C416.008 414.043 414.52 425.394 413.368 437.394C411.324 459.419 410.47 479.442 409.421 493.908C408.917 501.148 408.438 506.996 408.127 511.027C407.933 513.016 407.765 514.568 407.662 515.681C407.597 516.172 407.558 516.57 407.519 516.888C407.511 517.022 407.489 517.156 407.455 517.286C407.437 517.149 407.437 517.011 407.455 516.875C407.455 516.57 407.455 516.159 407.519 515.668C407.61 514.554 407.726 513.016 407.869 511.014C408.166 507.036 408.567 501.109 409.007 493.882C409.939 479.415 410.715 459.406 412.773 437.328C413.912 425.301 415.426 413.937 417.315 403.966V403.701H417.574L450.299 404.456L459.603 404.722L462.061 404.815H462.695C462.812 404.907 462.877 404.921 462.877 404.934Z" fill="#263238"/>
<path d="M451.813 421.747C453.771 421.747 455.359 420.121 455.359 418.114C455.359 416.108 453.771 414.481 451.813 414.481C449.855 414.481 448.268 416.108 448.268 418.114C448.268 420.121 449.855 421.747 451.813 421.747Z" fill="#E0E0E0"/>
<path d="M455.358 418.114C455.265 417.832 455.187 417.544 455.125 417.252C454.894 416.514 454.441 415.869 453.831 415.409C453.387 415.085 452.87 414.877 452.329 414.806C451.787 414.734 451.237 414.8 450.726 414.998C450.107 415.236 449.574 415.662 449.197 416.219C448.821 416.776 448.619 417.437 448.619 418.114C448.619 418.792 448.821 419.453 449.197 420.01C449.574 420.567 450.107 420.993 450.726 421.23C451.238 421.427 451.789 421.491 452.331 421.417C452.872 421.343 453.388 421.133 453.831 420.806C454.444 420.349 454.897 419.703 455.125 418.963C455.186 418.675 455.264 418.392 455.358 418.114C455.358 418.114 455.475 418.433 455.358 419.029C455.188 419.887 454.73 420.656 454.064 421.204C453.564 421.614 452.97 421.886 452.338 421.995C451.706 422.104 451.058 422.047 450.454 421.827C449.722 421.539 449.092 421.029 448.648 420.366C448.204 419.704 447.966 418.918 447.966 418.114C447.966 417.31 448.204 416.525 448.648 415.862C449.092 415.2 449.722 414.69 450.454 414.402C451.058 414.182 451.706 414.124 452.338 414.233C452.97 414.342 453.564 414.615 454.064 415.025C454.732 415.566 455.19 416.332 455.358 417.186C455.488 417.783 455.397 418.114 455.358 418.114Z" fill="#263238"/>
<path d="M351.037 533.582C352.995 533.582 354.582 531.956 354.582 529.949C354.582 527.943 352.995 526.316 351.037 526.316C349.079 526.316 347.491 527.943 347.491 529.949C347.491 531.956 349.079 533.582 351.037 533.582Z" fill="#E0E0E0"/>
<path d="M354.556 529.949C354.556 529.949 354.478 529.631 354.31 529.1C354.079 528.362 353.626 527.717 353.016 527.257C352.53 526.893 351.955 526.675 351.355 526.625C350.754 526.575 350.153 526.697 349.616 526.977C349.079 527.256 348.628 527.682 348.313 528.208C347.998 528.734 347.832 529.339 347.832 529.956C347.832 530.573 347.998 531.178 348.313 531.703C348.628 532.229 349.079 532.656 349.616 532.935C350.153 533.214 350.754 533.336 351.355 533.286C351.955 533.237 352.53 533.018 353.016 532.654C353.626 532.195 354.079 531.55 354.31 530.811C354.478 530.281 354.491 529.949 354.556 529.949C354.637 530.253 354.637 530.573 354.556 530.877C354.393 531.734 353.933 532.502 353.262 533.039C352.765 533.45 352.173 533.724 351.544 533.835C350.914 533.947 350.267 533.892 349.664 533.675C348.928 533.389 348.294 532.88 347.846 532.215C347.399 531.551 347.159 530.763 347.159 529.956C347.159 529.149 347.399 528.36 347.846 527.696C348.294 527.032 348.928 526.523 349.664 526.236C350.267 526.02 350.914 525.965 351.544 526.076C352.173 526.187 352.765 526.462 353.262 526.873C353.933 527.41 354.393 528.177 354.556 529.034C354.639 529.333 354.639 529.65 354.556 529.949Z" fill="#263238"/>
<path d="M361.919 585.31C361.919 586.031 361.71 586.736 361.319 587.335C360.928 587.935 360.372 588.403 359.722 588.679C359.072 588.955 358.356 589.027 357.666 588.886C356.976 588.745 356.342 588.398 355.844 587.888C355.346 587.378 355.007 586.728 354.87 586.021C354.733 585.314 354.803 584.58 355.073 583.914C355.342 583.248 355.798 582.678 356.383 582.278C356.968 581.877 357.656 581.663 358.36 581.663C359.304 581.663 360.209 582.047 360.877 582.731C361.544 583.415 361.919 584.342 361.919 585.31Z" fill="#E0E0E0"/>
<path d="M361.919 585.309C361.855 585.309 361.842 584.978 361.673 584.447C361.447 583.706 360.993 583.06 360.379 582.604C360.004 582.312 359.572 582.106 359.112 582.001C358.652 581.895 358.176 581.893 357.715 581.993C357.254 582.094 356.819 582.296 356.442 582.584C356.064 582.873 355.751 583.241 355.525 583.665C355.299 584.089 355.165 584.558 355.132 585.039C355.099 585.521 355.168 586.005 355.334 586.457C355.5 586.908 355.759 587.318 356.094 587.658C356.429 587.998 356.831 588.26 357.274 588.425C357.786 588.622 358.337 588.686 358.878 588.612C359.42 588.538 359.936 588.328 360.379 588.001C360.996 587.548 361.45 586.901 361.673 586.158C361.842 585.628 361.855 585.296 361.919 585.309C362.002 585.608 362.002 585.925 361.919 586.224C361.76 587.082 361.299 587.851 360.625 588.386C360.126 588.797 359.532 589.071 358.9 589.182C358.269 589.294 357.62 589.238 357.015 589.022C356.278 588.736 355.644 588.227 355.197 587.562C354.749 586.898 354.51 586.11 354.51 585.303C354.51 584.496 354.749 583.707 355.197 583.043C355.644 582.379 356.278 581.87 357.015 581.583C357.62 581.367 358.269 581.312 358.9 581.423C359.532 581.535 360.126 581.809 360.625 582.22C361.299 582.754 361.76 583.523 361.919 584.381C362 584.685 362 585.006 361.919 585.309Z" fill="#263238"/>
<path d="M458.076 428.099C458.076 428.298 448.785 428.006 437.372 427.476C425.959 426.946 416.668 426.349 416.668 426.15C416.668 425.951 425.959 426.243 437.372 426.786C448.785 427.33 458.076 427.914 458.076 428.099Z" fill="#263238"/>
<path d="M253.326 499.12L239.972 504.583L210.922 430.088C209.293 425.909 206.877 422.099 203.812 418.877C200.746 415.655 197.091 413.083 193.056 411.308C189.02 409.533 184.683 408.59 180.292 408.533C175.901 408.475 171.541 409.305 167.463 410.974C163.385 412.643 159.667 415.119 156.523 418.26C153.378 421.401 150.868 425.147 149.136 429.282C147.404 433.417 146.484 437.862 146.428 442.362C146.372 446.861 147.181 451.328 148.81 455.508L177.86 530.002L164.506 535.479L135.443 460.984C133.113 455.01 131.955 448.625 132.033 442.192C132.111 435.76 133.426 429.406 135.9 423.494C138.375 417.582 141.962 412.227 146.456 407.736C150.95 403.244 156.264 399.703 162.093 397.316C167.922 394.929 174.154 393.741 180.431 393.822C186.708 393.902 192.909 395.249 198.678 397.785C210.33 402.906 219.519 412.561 224.224 424.625L253.326 499.12Z" fill="#E0E0E0"/>
<path d="M253.327 499.12L252.732 497.635L251.036 493.272L244.566 476.723C241.745 469.537 238.291 460.812 234.292 450.575C232.291 445.483 230.16 440.046 227.9 434.265C225.532 428.55 223.617 422.185 219.942 416.404C216.13 410.318 211.02 405.199 204.996 401.433C204.207 400.943 203.43 400.439 202.628 399.975L200.117 398.715C198.436 397.889 196.707 397.167 194.941 396.554C194.049 396.209 193.104 396.023 192.185 395.745C191.267 395.466 190.335 395.175 189.377 395.042C187.455 394.649 185.51 394.383 183.554 394.246C179.552 393.939 175.528 394.135 171.572 394.83L168.583 395.546L167.082 395.904L165.607 396.408L162.656 397.455C161.686 397.84 160.754 398.33 159.796 398.781C151.903 402.546 145.184 408.482 140.386 415.926C136.564 421.83 134.05 428.519 133.019 435.524C131.989 442.529 132.467 449.68 134.421 456.475C135.845 461.09 137.786 465.638 139.597 470.266L161.919 527.496L164.972 535.306L164.533 535.121L177.887 529.644L177.705 530.095C171.921 515.284 166.279 500.777 160.78 486.695L152.679 465.877L148.72 455.733C147.438 452.359 146.641 448.813 146.352 445.204C145.897 438.148 147.554 431.116 151.101 425.049C151.493 424.301 151.925 423.575 152.395 422.875L153.883 420.833C156.004 418.262 158.449 415.992 161.155 414.083C161.828 413.606 162.54 413.221 163.239 412.757L164.274 412.134L165.374 411.617C168.243 410.204 171.292 409.213 174.432 408.673C177.483 408.18 180.585 408.095 183.658 408.421C189.57 409.127 195.197 411.414 199.975 415.051C204.5 418.412 208.097 422.916 210.418 428.126C210.689 428.749 210.974 429.372 211.246 429.982C211.518 430.592 211.738 431.242 211.971 431.865L213.42 435.564C214.36 438.022 215.292 440.422 216.215 442.765L226.256 468.608C232.286 484.202 237.009 496.454 240.154 504.516L240.024 504.45L250.118 500.379L252.589 499.398L253.417 499.08L252.641 499.425C252.097 499.65 251.347 499.982 250.208 500.446L240.102 504.636H240.012V504.543C236.828 496.454 232.053 484.282 225.946 468.741C222.892 460.957 219.476 452.325 215.827 442.924L213.019 435.737C212.54 434.517 212.048 433.284 211.569 432.037L210.832 430.154C210.56 429.544 210.288 428.934 210.004 428.325C208.867 425.821 207.442 423.466 205.759 421.31C203.976 419.12 201.943 417.156 199.703 415.462C194.986 411.914 189.446 409.688 183.632 409.005C180.614 408.696 177.57 408.785 174.574 409.27C171.502 409.811 168.519 410.789 165.71 412.174L164.636 412.678L163.614 413.301C162.941 413.725 162.229 414.11 161.569 414.561C160.249 415.495 158.991 416.518 157.804 417.624C156.601 418.735 155.477 419.931 154.439 421.204L152.977 423.219C152.459 423.882 152.097 424.638 151.683 425.341C148.21 431.304 146.59 438.209 147.038 445.138C147.331 448.677 148.115 452.155 149.367 455.468C150.661 458.823 151.955 462.217 153.339 465.625L161.453 486.43L178.391 529.83L178.521 530.148L178.21 530.281C173.862 532.044 169.398 533.887 164.856 535.744L164.533 535.876L164.416 535.558L161.362 527.735C153.715 508.136 146.261 488.989 139.054 470.505C137.281 465.864 135.353 461.368 133.878 456.648C132.58 451.959 131.927 447.108 131.937 442.234C132.046 437.461 132.782 432.724 134.123 428.152C135.512 423.71 137.475 419.477 139.959 415.568C144.807 408.04 151.592 402.033 159.564 398.211C160.547 397.773 161.492 397.283 162.475 396.885L165.451 395.838C165.956 395.678 166.448 395.48 166.939 395.334L168.466 394.976L171.494 394.26C175.501 393.552 179.578 393.356 183.632 393.676C185.606 393.816 187.568 394.091 189.507 394.498C190.467 394.679 191.418 394.914 192.353 395.201C193.285 395.493 194.243 395.678 195.136 396.023C196.942 396.656 198.714 397.391 200.441 398.224L203.029 399.55C203.831 400.014 204.621 400.545 205.41 401.022C211.491 404.844 216.645 410.031 220.485 416.192C224.186 422.066 226.088 428.457 228.443 434.199L234.81 450.588C238.769 460.812 242.173 469.616 244.968 476.816L251.347 493.365L253.003 497.661C253.159 498.576 253.327 499.12 253.327 499.12Z" fill="#263238"/>
<path d="M246.118 448.045L144.636 489.618C137.993 492.339 134.761 500.063 137.417 506.87L168.701 587.062C171.357 593.869 178.894 597.181 185.537 594.459L287.019 552.887C293.662 550.165 296.894 542.441 294.239 535.635L262.954 455.443C260.298 448.636 252.761 445.324 246.118 448.045Z" fill="#407BFF"/>
<g opacity="0.3">
<path opacity="0.3" d="M245.662 448.232L145.092 489.431C138.198 492.255 134.843 500.272 137.599 507.338L168.519 586.594C171.275 593.659 179.099 597.097 185.993 594.272L286.563 553.074C293.457 550.249 296.812 542.232 294.056 535.167L263.136 455.911C260.38 448.845 252.556 445.408 245.662 448.232Z" fill="black"/>
</g>
<path d="M231.368 454.085L138.885 491.971C132.262 494.684 129.04 502.385 131.687 509.172L163.001 589.437C165.648 596.224 173.163 599.526 179.786 596.813L272.269 558.927C278.892 556.214 282.114 548.513 279.466 541.727L248.153 461.461C245.506 454.675 237.991 451.372 231.368 454.085Z" fill="#407BFF"/>
<g opacity="0.3">
<path opacity="0.3" d="M218.129 509.595C217.078 506.864 215.303 504.488 213.005 502.735C210.707 500.982 207.977 499.921 205.123 499.672C202.268 499.423 199.402 499.996 196.848 501.325C194.294 502.655 192.153 504.689 190.666 507.199C189.179 509.708 188.406 512.593 188.432 515.529C188.459 518.465 189.285 521.334 190.818 523.815C192.35 526.295 194.528 528.288 197.106 529.569C199.684 530.849 202.56 531.367 205.409 531.063L212.384 548.964C212.801 550.021 213.61 550.866 214.633 551.313C215.657 551.761 216.811 551.774 217.845 551.351C218.356 551.142 218.822 550.832 219.217 550.438C219.612 550.044 219.927 549.575 220.144 549.057C220.362 548.538 220.477 547.981 220.485 547.417C220.492 546.853 220.391 546.292 220.187 545.768L213.199 527.867C215.849 525.786 217.763 522.875 218.653 519.578C219.543 516.28 219.359 512.776 218.129 509.595Z" fill="black"/>
</g>
<path d="M280.462 544.164C280.281 544.23 273.099 525.998 264.416 503.442C255.733 480.887 248.811 462.535 248.992 462.469C249.173 462.403 256.342 480.635 265.037 503.19C273.733 525.746 280.63 544.098 280.462 544.164Z" fill="#263238"/>
<path d="M217.043 529.379C218.451 527.879 219.677 526.209 220.692 524.406C221.74 522.43 222.441 520.28 222.763 518.055C223.204 515.342 223.006 512.561 222.184 509.942C221.362 507.324 219.941 504.945 218.04 503.005C216.523 501.37 214.735 500.023 212.76 499.027C210.905 498.174 208.96 497.547 206.963 497.157C207.517 497.125 208.073 497.16 208.619 497.263C210.119 497.491 211.578 497.938 212.954 498.589C215.019 499.557 216.892 500.905 218.479 502.567C220.473 504.564 221.961 507.029 222.813 509.749C223.666 512.469 223.857 515.361 223.371 518.174C223.017 520.461 222.249 522.661 221.106 524.658C220.357 526.01 219.42 527.243 218.324 528.318C217.943 528.726 217.513 529.083 217.043 529.379Z" fill="#263238"/>
<path d="M217.651 463.397C217.715 463.569 202.187 470.345 182.958 478.527C163.73 486.708 148.021 493.205 148.021 493.033C148.021 492.861 163.484 486.085 182.726 477.89C201.967 469.695 217.573 463.225 217.651 463.397Z" fill="white"/>
<path d="M192.172 529.379C191.822 529.204 191.499 528.976 191.215 528.703C190.412 528.01 189.683 527.232 189.041 526.382C186.854 523.572 185.559 520.144 185.327 516.559C185.096 512.973 185.94 509.4 187.747 506.32C188.282 505.393 188.911 504.526 189.623 503.734C189.862 503.422 190.151 503.153 190.477 502.938C190.58 503.031 189.403 504.264 188.161 506.558C186.523 509.594 185.769 513.047 185.986 516.509C186.204 519.97 187.385 523.295 189.39 526.09C190.943 528.252 192.25 529.273 192.172 529.379Z" fill="white"/>
<path d="M200.57 533.993C200.57 534.192 199.561 534.179 198.383 533.993C197.206 533.807 196.261 533.476 196.3 533.277C196.339 533.078 197.309 533.105 198.487 533.277C199.664 533.449 200.57 533.807 200.57 533.993Z" fill="white"/>
<path d="M158.774 401.778C158.043 402.261 157.287 402.703 156.51 403.104C154.46 404.311 152.508 405.686 150.674 407.214C143.707 413.083 138.761 421.086 136.562 430.048C134.364 439.01 135.028 448.459 138.459 457.006C139.093 458.597 139.494 459.459 139.442 459.485C139.303 459.301 139.186 459.101 139.093 458.889C138.886 458.491 138.549 457.907 138.213 457.112C137.218 454.885 136.429 452.568 135.858 450.19C133.887 442.292 134.216 433.975 136.803 426.265C139.389 418.556 144.121 411.79 150.415 406.803C152.29 405.288 154.301 403.956 156.419 402.825C157.17 402.414 157.778 402.162 158.179 401.977C158.371 401.891 158.57 401.824 158.774 401.778Z" fill="white"/>
<path d="M143.388 472.759C142.611 471.63 142.017 470.381 141.628 469.059C141.036 467.807 140.651 466.463 140.489 465.081C141.278 466.202 141.873 467.454 142.249 468.781C142.839 470.034 143.224 471.378 143.388 472.759Z" fill="white"/>
<g opacity="0.3">
<path opacity="0.3" d="M240.206 394.405C234.396 411.444 237.269 430.605 243.739 447.445C243.739 447.392 240.361 412.24 240.206 394.405Z" fill="black"/>
</g>
<g opacity="0.3">
<path opacity="0.3" d="M341.94 518.797C348.345 503.973 354.763 489.095 363.019 475.265C371.275 461.435 381.135 448.294 393.752 438.574C397.168 435.922 403.547 430.99 403.547 430.99C403.547 430.99 401.839 427.675 400.157 424.93C398.216 421.747 394.981 416.231 393.273 413.513L400.843 415.064C400.843 415.064 395.667 402.839 395.809 403.661C392.428 404.563 389.003 405.285 385.548 405.822C388.2 412.32 391.021 418.194 393.674 424.691C379.44 436.294 367.794 450.893 358.037 466.327C348.281 481.762 341.526 499.676 341.875 518.041" fill="black"/>
</g>
<path d="M368.997 286.098C369.165 285.952 369.566 286.098 370.019 286.615C370.627 287.416 370.939 288.412 370.899 289.426C370.9 290.157 370.75 290.88 370.459 291.548C370.101 292.356 369.554 293.062 368.868 293.603C368.086 294.235 367.159 294.65 366.175 294.805C365.191 294.961 364.185 294.852 363.254 294.49C362.323 294.128 361.5 293.525 360.865 292.74C360.229 291.954 359.803 291.014 359.628 290.009C359.476 289.216 359.503 288.397 359.707 287.615C359.911 286.834 360.287 286.111 360.806 285.501C361.434 284.722 362.308 284.192 363.277 284.003C363.963 283.91 364.339 284.082 364.39 284.308C364.494 284.785 363.381 285.395 362.773 286.88C362.432 287.634 362.386 288.493 362.643 289.28C362.772 289.733 363.002 290.149 363.315 290.494C363.627 290.84 364.015 291.107 364.445 291.273C364.876 291.439 365.338 291.5 365.796 291.451C366.254 291.402 366.694 291.244 367.082 290.991C367.787 290.584 368.31 289.914 368.544 289.121C369.036 287.596 368.596 286.416 368.997 286.098Z" fill="#E0E0E0"/>
<path d="M135.313 569.49C135.313 569.49 139.726 584.076 142.003 587.007C144.281 589.937 159.511 591.515 159.511 591.515L135.313 569.49Z" fill="#B5715A"/>
<path d="M153.559 546.312L162.009 553.26L187.086 573.071C187.086 573.071 186.931 577.844 181.289 576.757C176.708 575.869 166.551 570.127 166.551 570.127C166.551 570.127 178.481 581.61 178.895 586.981V587.962C178.885 589.151 178.42 590.288 177.601 591.131L163.665 581.597C163.665 581.597 166.654 586.981 169.591 592.563C170.033 593.685 170.177 594.906 170.008 596.103C169.84 597.3 169.366 598.43 168.634 599.379L137.578 572.686L137.384 552.796L153.494 546.299" fill="#B5715A"/>
<path d="M150.26 558.776C150.659 558.803 151.052 558.892 151.424 559.042C151.787 559.174 152.214 559.373 152.718 559.598C153.223 559.824 153.741 560.155 154.336 560.5C156.691 561.932 159.68 564.253 162.993 566.799C165.766 569.009 168.684 571.02 171.727 572.819C174.095 574.145 175.7 574.649 175.609 574.768C175.214 574.74 174.826 574.651 174.458 574.503C174.017 574.372 173.585 574.212 173.164 574.025C172.589 573.802 172.027 573.545 171.481 573.256C168.334 571.569 165.341 569.594 162.54 567.356C159.227 564.796 156.303 562.423 154.038 560.911L152.498 559.943L151.282 559.294C150.922 559.165 150.578 558.991 150.26 558.776Z" fill="#884C3B"/>
<path d="M147.413 568.469C148.369 568.936 149.271 569.51 150.105 570.18C151.696 571.307 153.844 572.951 156.135 574.861C158.425 576.77 160.431 578.587 161.841 579.952C162.647 580.637 163.373 581.416 164.002 582.273C163.11 581.714 162.277 581.061 161.518 580.324L155.708 575.391L149.82 570.564C148.951 569.951 148.144 569.249 147.413 568.469Z" fill="#884C3B"/>
<path d="M105.526 544.164C105.306 544.416 105.629 544.893 105.836 545.344C109.214 552.57 138.186 573.097 138.186 573.097L153.986 545.503C153.986 545.503 165.464 551.191 170.174 549.879C174.056 548.791 181.354 547.983 177.938 541.008C177.938 541.008 161.75 537.958 156.251 535.531C150.751 533.105 147.309 531.845 147.309 531.845C141.028 531.998 134.753 531.361 128.624 529.949C128.624 529.949 118.945 528.557 105.526 544.164Z" fill="#B5715A"/>
<path d="M167.897 598.729C166.613 597.842 165.389 596.868 164.235 595.811C161.854 593.836 158.852 591.33 155.513 588.571C152.175 585.813 149.043 583.122 146.921 581.159C145.847 580.191 144.993 579.382 144.411 578.812C144.087 578.538 143.8 578.221 143.557 577.871C144.846 578.754 146.074 579.729 147.232 580.788L155.94 588.028C159.343 590.865 162.41 593.478 164.532 595.44C165.606 596.408 166.473 597.217 167.043 597.787C167.612 598.357 167.936 598.702 167.897 598.729Z" fill="#884C3B"/>
<path d="M439.469 304.555L449.446 306.16L450.649 298.35L446.767 297.726L447.31 294.173L443.713 293.589L444.192 290.473L448.346 291.136L448.76 288.484L442.109 287.41L442.264 286.389L442.109 287.41L442.264 286.389C442.318 285.744 442.121 285.104 441.716 284.607C441.311 284.111 440.732 283.798 440.103 283.737C439.477 283.696 438.859 283.902 438.377 284.314C437.895 284.727 437.587 285.313 437.515 285.952C435.582 298.593 433.646 311.221 431.705 323.835L430.152 333.94C426.927 334.029 423.851 335.351 421.527 337.644C419.203 339.938 417.799 343.038 417.591 346.337C417.382 349.636 418.384 352.896 420.399 355.478C422.415 358.06 425.298 359.777 428.485 360.292C431.672 360.808 434.932 360.085 437.626 358.265C440.319 356.446 442.253 353.66 443.046 350.456C443.84 347.251 443.436 343.858 441.915 340.943C440.394 338.027 437.865 335.799 434.823 334.695C436.324 324.971 437.821 315.247 439.314 305.523L439.469 304.555ZM440.025 348.698C439.729 350.622 438.882 352.413 437.592 353.844C436.303 355.275 434.628 356.283 432.78 356.739C430.932 357.195 428.993 357.08 427.209 356.407C425.425 355.734 423.876 354.535 422.757 352.96C421.638 351.386 420.999 349.506 420.922 347.56C420.845 345.614 421.333 343.688 422.324 342.025C423.315 340.363 424.764 339.039 426.489 338.22C428.214 337.402 430.137 337.126 432.015 337.427C433.267 337.629 434.467 338.081 435.548 338.76C436.628 339.438 437.568 340.328 438.312 341.378C439.056 342.429 439.59 343.62 439.884 344.883C440.178 346.146 440.226 347.456 440.025 348.738V348.698Z" fill="#E0E0E0"/>
<path d="M440.025 348.738C440.102 347.335 439.958 345.93 439.598 344.574C439.157 343.038 438.342 341.642 437.23 340.517C435.814 339.045 433.971 338.082 431.977 337.772L432.145 337.202L434.151 338.103L431.977 337.772C430.279 337.504 428.543 337.723 426.959 338.404C425.376 339.085 424.008 340.202 423.005 341.631C422.003 343.061 421.407 344.746 421.282 346.501C421.157 348.256 421.508 350.013 422.298 351.576C423.125 353.262 424.434 354.649 426.05 355.554C427.411 356.334 428.94 356.754 430.5 356.775C432.059 356.796 433.599 356.417 434.979 355.673C436.861 354.649 438.362 353.018 439.249 351.032C439.547 350.286 439.806 349.525 440.025 348.751C440.054 348.958 440.054 349.168 440.025 349.374C439.928 349.978 439.768 350.569 439.547 351.138C438.719 353.247 437.206 354.999 435.263 356.097C434.11 356.745 432.843 357.151 431.534 357.29C430.226 357.43 428.904 357.3 427.646 356.908C426.387 356.516 425.218 355.871 424.206 355.01C423.194 354.149 422.361 353.09 421.754 351.894C420.91 350.225 420.535 348.35 420.669 346.475C420.804 344.601 421.443 342.802 422.516 341.278C423.589 339.754 425.053 338.565 426.746 337.843C428.439 337.121 430.295 336.894 432.106 337.188L431.938 337.759L429.842 336.777L432.106 337.188C434.213 337.546 436.148 338.598 437.619 340.185C438.749 341.393 439.559 342.876 439.974 344.495C440.231 345.525 440.327 346.59 440.258 347.651C440.221 348.021 440.143 348.386 440.025 348.738Z" fill="#263238"/>
<path d="M439.468 304.556C439.468 304.556 439.468 304.874 439.365 305.51H439.274H439.365C439.002 308.388 437.437 318.983 435.069 334.682L434.926 334.417C437.901 335.56 440.365 337.779 441.852 340.656C443.34 343.532 443.748 346.867 443.001 350.031C442.253 353.195 440.401 355.97 437.795 357.83C435.188 359.691 432.006 360.51 428.851 360.132C425.696 359.754 422.784 358.205 420.667 355.778C418.549 353.352 417.372 350.214 417.357 346.959C417.341 343.704 418.49 340.555 420.585 338.108C422.68 335.66 425.576 334.084 428.728 333.675C429.207 333.595 429.686 333.582 430.151 333.542L429.828 333.834C431.484 323.12 433.076 312.79 434.564 303.11C435.314 298.27 436.039 293.59 436.738 289.108C436.906 287.981 437.087 286.88 437.255 285.78C437.343 285.169 437.625 284.605 438.058 284.175C438.491 283.746 439.051 283.476 439.649 283.406C440.236 283.348 440.824 283.492 441.323 283.813C441.822 284.135 442.202 284.616 442.406 285.183C442.572 285.736 442.572 286.327 442.406 286.88V287.265V287.371L441.849 287.291V287.212V287.026L441.979 286.257L442.522 286.35L442.367 287.371L442.134 287.053L448.785 288.14H449.044V288.405C448.889 289.36 448.759 290.235 448.617 291.057V291.309H448.371L444.217 290.619L444.489 290.421C444.308 291.548 444.152 292.555 443.997 293.537L443.803 293.271L447.413 293.868H447.62V294.094C447.413 295.42 447.232 296.533 447.051 297.634L446.883 297.395L450.765 298.045H450.946V298.231C450.463 301.201 450.032 303.804 449.652 306.041V306.187H449.51L442.147 304.861L440.219 304.516L439.559 304.383H440.18L442.082 304.662L449.561 305.776L449.393 305.895C449.73 303.654 450.105 301.055 450.545 298.085L450.7 298.297L446.818 297.7H446.624V297.501L447.155 293.948L447.336 294.2L443.738 293.629H443.505V293.404C443.648 292.41 443.803 291.402 443.971 290.275V290.036H444.204L448.371 290.686L448.073 290.898C448.216 290.036 448.345 289.161 448.487 288.246L448.707 288.551L442.043 287.49H441.772V287.212L441.927 286.177L442.47 286.27L442.354 287.039V287.225V287.304C441.241 287.119 442.056 287.304 441.797 287.198V287.106V286.721C441.934 286.263 441.934 285.773 441.797 285.315C441.639 284.871 441.341 284.492 440.949 284.24C440.558 283.988 440.096 283.877 439.636 283.923C439.164 283.978 438.722 284.193 438.382 284.534C438.042 284.875 437.823 285.323 437.76 285.806L437.255 289.121L435.12 303.137C433.645 312.817 432.054 323.146 430.423 333.86V334.126H430.138C429.699 334.126 429.233 334.126 428.78 334.245C426.207 334.606 423.807 335.773 421.906 337.585C420.005 339.398 418.697 341.768 418.16 344.371C417.623 346.974 417.884 349.684 418.907 352.129C419.93 354.575 421.666 356.637 423.876 358.033C426.609 359.77 429.887 360.368 433.037 359.704C435.737 359.121 438.178 357.652 439.989 355.519C441.801 353.386 442.884 350.705 443.074 347.884C443.264 345.063 442.551 342.256 441.044 339.888C439.536 337.52 437.315 335.72 434.719 334.762L434.538 334.696V334.497C436.997 318.797 438.692 308.215 439.196 305.325C439.404 304.808 439.468 304.556 439.468 304.556Z" fill="#263238"/>
<path d="M417.496 342.983L433.49 338.674L441.797 339.761C442.553 339.864 443.27 340.161 443.883 340.625C444.497 341.089 444.985 341.704 445.304 342.413L450.687 354.427C450.687 354.427 458.451 361.057 457.558 365.035C456.665 369.013 449.458 404.709 449.458 404.709L428.016 404.046C424.265 399.282 422.01 393.467 421.546 387.365C421.313 382.352 423.177 379.289 422.711 376.637C422.4 374.821 423.5 371.585 424.005 369.092L424.652 366.679L423.228 367.382C422.617 367.687 421.944 367.841 421.264 367.83C420.584 367.82 419.916 367.646 419.314 367.321C418.712 366.997 418.192 366.533 417.798 365.965C417.403 365.397 417.145 364.743 417.043 364.053C417.037 363.925 417.037 363.797 417.043 363.669C416.972 362.257 417.195 360.846 417.697 359.529C418.199 358.212 418.969 357.02 419.955 356.031L428.042 347.89C428.042 347.89 419.101 353.114 417.496 342.983Z" fill="#B5715A"/>
<path d="M444.709 362.913C444.208 362.922 443.708 362.864 443.221 362.74L439.249 362.011L433.361 360.844C432.261 360.632 431.096 360.327 429.919 360.221C429.343 360.124 428.753 360.168 428.198 360.35C427.642 360.533 427.137 360.847 426.723 361.268C426.025 362.274 425.581 363.44 425.429 364.663C425.17 365.896 424.924 367.076 424.691 368.217C424.189 370.174 423.839 372.169 423.643 374.184C423.61 374.845 423.732 375.504 424 376.107C424.268 376.709 424.674 377.237 425.183 377.644C425.58 377.907 426.017 378.1 426.477 378.215C426.35 378.252 426.215 378.252 426.089 378.215C425.707 378.182 425.338 378.054 425.015 377.843C424.428 377.446 423.948 376.904 423.62 376.267C423.292 375.629 423.126 374.917 423.138 374.197C423.256 372.135 423.559 370.089 424.044 368.084C424.264 366.944 424.497 365.75 424.743 364.53C424.923 363.177 425.44 361.894 426.244 360.804C426.727 360.305 427.32 359.932 427.973 359.715C428.626 359.498 429.319 359.444 429.996 359.558C431.181 359.711 432.356 359.932 433.516 360.221L439.365 361.547L443.247 362.488C443.749 362.569 444.24 362.712 444.709 362.913Z" fill="#884C3B"/>
<path d="M436.375 381.053C436.375 381.053 436.375 381.729 435.56 382.379C435.039 382.743 434.417 382.925 433.787 382.896C432.989 382.854 432.201 382.697 431.445 382.432C429.388 381.897 427.579 380.64 426.334 378.878C425.714 377.702 425.38 376.389 425.362 375.052C425.344 373.715 425.642 372.394 426.23 371.2C426.732 369.94 427.403 368.758 428.223 367.687C428.653 367.156 429.211 366.749 429.841 366.506C430.452 366.312 431.099 366.267 431.73 366.374C433.75 366.798 435.719 367.442 437.605 368.297C438.874 368.847 440.107 369.485 441.292 370.206C441.765 370.434 442.201 370.733 442.586 371.094C442.586 371.2 440.697 370.034 437.475 368.747C435.609 367.98 433.677 367.394 431.704 366.997C431.166 366.914 430.617 366.959 430.099 367.13C429.591 367.347 429.146 367.694 428.805 368.137C428.041 369.156 427.414 370.275 426.942 371.466C426.395 372.559 426.109 373.77 426.109 374.999C426.109 376.228 426.395 377.44 426.942 378.533C428.091 380.194 429.756 381.405 431.665 381.968C432.377 382.243 433.121 382.426 433.878 382.511C434.44 382.563 435.004 382.438 435.495 382.153C435.881 381.875 436.185 381.495 436.375 381.053Z" fill="#884C3B"/>
<path d="M436.169 378.666C436.169 378.745 435.793 378.971 435.069 379.05C434.124 379.148 433.172 378.962 432.328 378.514C431.485 378.067 430.787 377.378 430.32 376.531C429.97 375.894 429.919 375.43 429.996 375.404C430.074 375.377 430.863 376.968 432.649 377.897C433.769 378.362 434.961 378.622 436.169 378.666Z" fill="#884C3B"/>
<path d="M437.722 383.108C437.618 383.254 436.609 382.644 435.884 381.411C435.16 380.178 435.069 378.971 435.25 378.958C435.431 378.944 435.794 379.939 436.454 381.053C437.114 382.167 437.851 382.949 437.722 383.108Z" fill="#884C3B"/>
<path d="M437.295 395.267C436.403 393.397 435.97 391.332 436.036 389.252C436.101 387.172 436.662 385.14 437.67 383.333C437.211 385.282 436.891 387.263 436.713 389.26C436.764 391.274 436.959 393.282 437.295 395.267Z" fill="#884C3B"/>
<path d="M436.893 384.407C435.015 385.167 433.304 386.303 431.86 387.749C430.416 389.195 429.267 390.921 428.482 392.827C428.468 392.192 428.611 391.562 428.896 390.998C429.472 389.59 430.317 388.314 431.381 387.245C432.444 386.179 433.708 385.344 435.095 384.792C435.651 384.505 436.271 384.373 436.893 384.407Z" fill="#884C3B"/>
<path d="M430.32 357.105C430.514 357.105 430.617 357.781 430.398 358.55C430.178 359.32 429.751 359.876 429.582 359.744C429.414 359.611 429.582 359.054 429.751 358.418C429.919 357.781 430.139 357.092 430.32 357.105Z" fill="#884C3B"/>
<path d="M449.342 357.344C448.226 356.863 447.156 356.277 446.146 355.593C444.205 354.453 441.565 352.822 438.679 350.979C437.354 350.099 435.95 349.348 434.487 348.738C433.3 348.263 432.033 348.038 430.76 348.075C429.584 348.159 428.435 348.484 427.383 349.03C427.383 349.03 427.59 348.725 428.146 348.393C428.941 347.933 429.824 347.657 430.734 347.584C432.078 347.48 433.427 347.67 434.694 348.141C436.214 348.729 437.668 349.485 439.029 350.395C441.927 352.225 444.528 353.923 446.392 355.182C447.436 355.812 448.423 356.535 449.342 357.344Z" fill="#884C3B"/>
<path d="M439.455 304.98C439.553 301.972 439.873 298.975 440.413 296.016C440.725 293.024 441.27 290.062 442.043 287.159C441.944 290.167 441.624 293.163 441.086 296.122C440.764 299.113 440.219 302.075 439.455 304.98Z" fill="#263238"/>
<g opacity="0.3">
<path opacity="0.3" d="M442.043 287.609C442.725 290.39 442.854 293.283 442.425 296.116C441.997 298.95 441.017 301.666 439.546 304.105C440.478 299.265 441.409 292.714 442.043 287.609Z" fill="black"/>
</g>
<g opacity="0.7">
<path d="M636.565 515.288C633.554 512.316 629.861 510.169 625.827 509.045C621.793 507.921 617.548 507.856 613.483 508.856C609.418 509.856 605.664 511.889 602.568 514.768C599.471 517.646 597.132 521.277 595.766 525.326L598.716 537.021C599.842 533.043 602.249 529.184 605.962 527.54C609.676 525.896 614.309 526.811 618.268 528.283C622.228 529.754 626.11 531.717 630.315 531.982C634.521 532.247 639.257 530.205 640.512 526.095C641.69 522.223 639.412 518.099 636.565 515.288Z" fill="#407BFF"/>
<g opacity="0.3">
<path opacity="0.3" d="M636.565 515.288C633.554 512.316 629.861 510.169 625.827 509.045C621.793 507.921 617.548 507.856 613.483 508.856C609.418 509.856 605.664 511.889 602.568 514.768C599.471 517.646 597.132 521.277 595.766 525.326L598.716 537.021C599.842 533.043 602.249 529.184 605.962 527.54C609.676 525.896 614.309 526.811 618.268 528.283C622.228 529.754 626.11 531.717 630.315 531.982C634.521 532.247 639.257 530.205 640.512 526.095C641.69 522.223 639.412 518.099 636.565 515.288Z" fill="black"/>
</g>
<path d="M565.421 554.312C559.262 548.318 559.572 537.87 562.639 529.741C565.706 521.613 572.434 515.381 579.927 511.27C587.246 507.331 595.341 505.141 603.603 504.866C611.866 504.59 620.083 506.236 627.636 509.679C623.938 509.843 620.336 510.933 617.144 512.854C613.952 514.775 611.268 517.468 609.326 520.698C605.949 526.453 605.199 533.427 602.403 539.501C599.261 546.351 593.674 551.705 586.794 554.461C579.913 557.216 572.264 557.163 565.421 554.312Z" fill="#407BFF"/>
<path d="M562.458 518.258C555.639 509.997 554.694 496.75 555.73 485.97C556.765 475.189 559.172 464.369 557.515 453.682C556.532 447.343 554.138 441.297 553.336 434.945C552.533 428.594 553.672 421.394 558.512 417.296C564.037 412.576 572.746 413.69 578.478 418.118C584.21 422.547 587.536 429.509 589.995 436.444C595.339 451.666 597.306 468.559 592.906 484.113C588.507 499.667 578.219 513.564 563.144 518.258" fill="#407BFF"/>
<path d="M559.184 586.003C559.165 585.685 559.165 585.366 559.184 585.049C559.184 584.425 559.184 583.51 559.184 582.317C559.275 579.957 559.495 576.522 560.012 572.319C560.608 567.411 561.472 562.541 562.6 557.733C563.998 551.806 566.175 546.1 569.07 540.773C571.995 535.463 575.574 530.561 579.72 526.187C583.104 522.614 586.853 519.422 590.9 516.667C592.595 515.46 594.252 514.545 595.675 513.696C597.098 512.848 598.392 512.278 599.44 511.76L601.899 510.7C602.175 510.557 602.466 510.445 602.766 510.368C602.499 510.532 602.223 510.678 601.938 510.806L599.531 511.959C598.509 512.503 597.254 513.179 595.817 513.975C594.381 514.77 592.802 515.792 591.12 517.011C582.222 523.226 574.844 531.462 569.562 541.078C563.286 552.323 561.565 564.151 560.323 572.438C559.753 576.628 559.469 580.036 559.314 582.397C559.249 583.537 559.197 584.452 559.158 585.115C559.193 585.41 559.201 585.707 559.184 586.003Z" fill="#263238"/>
<path d="M500.256 485.691C487.626 493.502 487.678 500.609 489.774 507.305C491.87 514.001 499.634 518.682 506.066 516.163C509.702 514.744 512.329 511.509 514.58 508.207C516.832 504.905 518.941 501.471 522.085 499.137C524.252 497.492 526.929 496.71 529.616 496.936L500.256 485.691Z" fill="#407BFF"/>
<g opacity="0.3">
<path opacity="0.3" d="M500.256 485.691C487.626 493.502 487.678 500.609 489.774 507.305C491.87 514.001 499.634 518.682 506.066 516.163C509.702 514.744 512.329 511.509 514.58 508.207C516.832 504.905 518.941 501.471 522.085 499.137C524.252 497.492 526.929 496.71 529.616 496.936L500.256 485.691Z" fill="black"/>
</g>
<path d="M490.654 494.602C493.954 489.935 502.119 488.569 507.269 490.903C512.419 493.236 516.198 497.864 519.575 502.492C522.953 507.119 526.239 511.986 530.911 515.195C535.582 518.404 542.13 519.571 546.788 516.335C548.276 515.2 549.522 513.765 550.45 512.119C551.378 510.473 551.968 508.65 552.184 506.761C552.593 502.984 552.339 499.163 551.433 495.477C550.321 490.054 548.509 484.392 544.265 480.891C539.542 477.059 532.994 476.913 526.964 477.072C520.041 477.311 513.028 477.841 506.532 480.295C500.036 482.748 493.411 488.052 490.654 494.562" fill="#407BFF"/>
<path d="M548.69 575.634C548.69 575.634 548.69 575.541 548.69 575.356V574.52C548.69 573.738 548.625 572.664 548.586 571.311C548.508 568.474 548.392 564.443 548.25 559.497C548.107 554.551 547.9 548.57 547.551 541.993C547.201 535.416 546.71 528.163 545.739 520.632C545.33 516.963 544.629 513.336 543.643 509.785C541.685 503.54 538.7 497.683 534.818 492.467C533.196 490.33 531.413 488.326 529.487 486.474C526.669 483.799 523.481 481.565 520.028 479.844C519.419 479.552 518.876 479.274 518.397 479.075L517.103 478.584L516.353 478.266C516.184 478.186 516.094 478.147 516.107 478.133L516.366 478.213L517.142 478.465L518.436 478.916C518.928 479.101 519.471 479.366 520.105 479.645C523.616 481.301 526.861 483.492 529.732 486.142C531.692 487.994 533.506 490.003 535.154 492.149C537.041 494.645 538.709 497.307 540.136 500.105C541.712 503.169 543.011 506.373 544.018 509.679C545.022 513.254 545.732 516.909 546.14 520.605C547.124 528.177 547.577 535.416 547.913 542.007C548.25 548.597 548.392 554.551 548.495 559.536C548.599 564.522 548.638 568.566 548.651 571.351V574.573C548.651 574.905 548.651 575.183 548.651 575.409C548.671 575.482 548.684 575.558 548.69 575.634Z" fill="#263238"/>
<path d="M553.231 581.482C552.636 579.668 552.173 577.811 551.847 575.926C550.977 570.773 550.786 565.524 551.278 560.319C552.046 552.604 553.661 545.002 556.091 537.658C558.679 529.33 562.199 520.42 565.149 510.859C566.631 506.212 567.841 501.479 568.772 496.684C569.622 492.221 570.239 487.715 570.623 483.185C571.193 475.491 571.327 467.77 571.024 460.06C570.804 453.43 570.467 448.126 570.248 444.453C570.144 442.636 570.066 441.217 570.002 440.21C570.002 439.746 570.002 439.388 570.002 439.109V438.725C570.04 438.845 570.062 438.97 570.066 439.096C570.066 439.374 570.066 439.746 570.17 440.196C570.248 441.204 570.364 442.623 570.519 444.44C570.804 448.113 571.205 453.443 571.477 460.033C571.843 467.767 571.748 475.517 571.192 483.238C570.841 487.798 570.249 492.336 569.419 496.83C568.489 501.647 567.279 506.402 565.796 511.071C562.781 520.671 559.249 529.569 556.635 537.87C554.201 545.178 552.552 552.737 551.717 560.412C551.199 565.588 551.333 570.811 552.119 575.952C552.429 577.769 552.714 579.175 552.96 580.103C553.076 580.554 553.154 580.912 553.219 581.177C553.232 581.278 553.236 581.38 553.231 581.482Z" fill="#263238"/>
<path d="M592.673 578.22H517.349L515.628 563.355H592.673V578.22Z" fill="#455A64"/>
<path d="M525.437 576.522L534.844 621.089H575.773L584.585 576.522H525.437Z" fill="#455A64"/>
<path d="M592.66 578.22C592.66 578.419 576.11 578.538 555.691 578.472C535.271 578.405 518.695 578.207 518.695 578.008C518.695 577.809 535.258 577.676 555.691 577.742C576.123 577.809 592.673 578.008 592.66 578.22Z" fill="#455A64"/>
<path d="M580.483 597.221C578.371 595.591 576.088 594.208 573.677 593.097C571.052 591.947 568.257 591.261 565.408 591.068C561.912 590.99 558.434 591.616 555.173 592.912C551.872 594.24 548.497 595.369 545.067 596.293C542.185 596.805 539.239 596.805 536.358 596.293C534.413 595.981 532.524 595.374 530.755 594.489C530.283 594.231 529.829 593.938 529.396 593.614C529.112 593.389 528.956 593.27 528.982 593.243C529.008 593.216 529.642 593.641 530.884 594.224C532.671 595.036 534.555 595.598 536.487 595.895C539.312 596.31 542.183 596.251 544.989 595.723C548.377 594.759 551.715 593.622 554.992 592.315C558.337 590.982 561.912 590.36 565.499 590.485C570.39 590.888 575.063 592.729 578.957 595.789C579.378 596.123 579.779 596.482 580.16 596.863C580.367 597.088 580.483 597.221 580.483 597.221Z" fill="white"/>
<path d="M593.333 578.273C593.333 578.485 576.395 578.644 555.497 578.644C534.599 578.644 517.66 578.485 517.66 578.273C517.66 578.06 534.599 577.915 555.497 577.915C576.395 577.915 593.333 578.074 593.333 578.273Z" fill="#263238"/>
</g>
</svg>
